<?xml version="1.0" encoding="utf-8"?>
<svg xmlns="http://www.w3.org/2000/svg" xmlns:xlink="http://www.w3.org/1999/xlink" width="600" height="400" viewBox="0 0 2400 1600">
<defs>
  <clipPath id="clip720">
    <rect x="0" y="0" width="2400" height="1600"/>
  </clipPath>
</defs>
<path clip-path="url(#clip720)" d="M0 1600 L2400 1600 L2400 0 L0 0  Z" fill="#ffffff" fill-rule="evenodd" fill-opacity="1"/>
<defs>
  <clipPath id="clip721">
    <rect x="480" y="0" width="1681" height="1600"/>
  </clipPath>
</defs>
<path clip-path="url(#clip720)" d="M178.867 1486.45 L2352.76 1486.45 L2352.76 47.2441 L178.867 47.2441  Z" fill="#ffffff" fill-rule="evenodd" fill-opacity="1"/>
<defs>
  <clipPath id="clip722">
    <rect x="178" y="47" width="2175" height="1440"/>
  </clipPath>
</defs>
<polyline clip-path="url(#clip722)" style="stroke:#000000; stroke-linecap:round; stroke-linejoin:round; stroke-width:2; stroke-opacity:0.1; fill:none" points="240.392,1486.45 240.392,47.2441 "/>
<polyline clip-path="url(#clip722)" style="stroke:#000000; stroke-linecap:round; stroke-linejoin:round; stroke-width:2; stroke-opacity:0.1; fill:none" points="650.56,1486.45 650.56,47.2441 "/>
<polyline clip-path="url(#clip722)" style="stroke:#000000; stroke-linecap:round; stroke-linejoin:round; stroke-width:2; stroke-opacity:0.1; fill:none" points="1060.73,1486.45 1060.73,47.2441 "/>
<polyline clip-path="url(#clip722)" style="stroke:#000000; stroke-linecap:round; stroke-linejoin:round; stroke-width:2; stroke-opacity:0.1; fill:none" points="1470.9,1486.45 1470.9,47.2441 "/>
<polyline clip-path="url(#clip722)" style="stroke:#000000; stroke-linecap:round; stroke-linejoin:round; stroke-width:2; stroke-opacity:0.1; fill:none" points="1881.06,1486.45 1881.06,47.2441 "/>
<polyline clip-path="url(#clip722)" style="stroke:#000000; stroke-linecap:round; stroke-linejoin:round; stroke-width:2; stroke-opacity:0.1; fill:none" points="2291.23,1486.45 2291.23,47.2441 "/>
<polyline clip-path="url(#clip722)" style="stroke:#000000; stroke-linecap:round; stroke-linejoin:round; stroke-width:2; stroke-opacity:0.1; fill:none" points="178.867,1320.39 2352.76,1320.39 "/>
<polyline clip-path="url(#clip722)" style="stroke:#000000; stroke-linecap:round; stroke-linejoin:round; stroke-width:2; stroke-opacity:0.1; fill:none" points="178.867,1032.28 2352.76,1032.28 "/>
<polyline clip-path="url(#clip722)" style="stroke:#000000; stroke-linecap:round; stroke-linejoin:round; stroke-width:2; stroke-opacity:0.1; fill:none" points="178.867,744.161 2352.76,744.161 "/>
<polyline clip-path="url(#clip722)" style="stroke:#000000; stroke-linecap:round; stroke-linejoin:round; stroke-width:2; stroke-opacity:0.1; fill:none" points="178.867,456.044 2352.76,456.044 "/>
<polyline clip-path="url(#clip722)" style="stroke:#000000; stroke-linecap:round; stroke-linejoin:round; stroke-width:2; stroke-opacity:0.1; fill:none" points="178.867,167.927 2352.76,167.927 "/>
<polyline clip-path="url(#clip720)" style="stroke:#000000; stroke-linecap:round; stroke-linejoin:round; stroke-width:4; stroke-opacity:1; fill:none" points="178.867,1486.45 2352.76,1486.45 "/>
<polyline clip-path="url(#clip720)" style="stroke:#000000; stroke-linecap:round; stroke-linejoin:round; stroke-width:4; stroke-opacity:1; fill:none" points="240.392,1486.45 240.392,1467.55 "/>
<polyline clip-path="url(#clip720)" style="stroke:#000000; stroke-linecap:round; stroke-linejoin:round; stroke-width:4; stroke-opacity:1; fill:none" points="650.56,1486.45 650.56,1467.55 "/>
<polyline clip-path="url(#clip720)" style="stroke:#000000; stroke-linecap:round; stroke-linejoin:round; stroke-width:4; stroke-opacity:1; fill:none" points="1060.73,1486.45 1060.73,1467.55 "/>
<polyline clip-path="url(#clip720)" style="stroke:#000000; stroke-linecap:round; stroke-linejoin:round; stroke-width:4; stroke-opacity:1; fill:none" points="1470.9,1486.45 1470.9,1467.55 "/>
<polyline clip-path="url(#clip720)" style="stroke:#000000; stroke-linecap:round; stroke-linejoin:round; stroke-width:4; stroke-opacity:1; fill:none" points="1881.06,1486.45 1881.06,1467.55 "/>
<polyline clip-path="url(#clip720)" style="stroke:#000000; stroke-linecap:round; stroke-linejoin:round; stroke-width:4; stroke-opacity:1; fill:none" points="2291.23,1486.45 2291.23,1467.55 "/>
<path clip-path="url(#clip720)" d="M240.392 1517.37 Q236.781 1517.37 234.952 1520.93 Q233.146 1524.47 233.146 1531.6 Q233.146 1538.71 234.952 1542.27 Q236.781 1545.82 240.392 1545.82 Q244.026 1545.82 245.832 1542.27 Q247.66 1538.71 247.66 1531.6 Q247.66 1524.47 245.832 1520.93 Q244.026 1517.37 240.392 1517.37 M240.392 1513.66 Q246.202 1513.66 249.257 1518.27 Q252.336 1522.85 252.336 1531.6 Q252.336 1540.33 249.257 1544.94 Q246.202 1549.52 240.392 1549.52 Q234.582 1549.52 231.503 1544.94 Q228.447 1540.33 228.447 1531.6 Q228.447 1522.85 231.503 1518.27 Q234.582 1513.66 240.392 1513.66 Z" fill="#000000" fill-rule="nonzero" fill-opacity="1" /><path clip-path="url(#clip720)" d="M625.247 1544.91 L632.886 1544.91 L632.886 1518.55 L624.576 1520.21 L624.576 1515.95 L632.84 1514.29 L637.516 1514.29 L637.516 1544.91 L645.155 1544.91 L645.155 1548.85 L625.247 1548.85 L625.247 1544.91 Z" fill="#000000" fill-rule="nonzero" fill-opacity="1" /><path clip-path="url(#clip720)" d="M664.599 1517.37 Q660.988 1517.37 659.159 1520.93 Q657.354 1524.47 657.354 1531.6 Q657.354 1538.71 659.159 1542.27 Q660.988 1545.82 664.599 1545.82 Q668.233 1545.82 670.039 1542.27 Q671.867 1538.71 671.867 1531.6 Q671.867 1524.47 670.039 1520.93 Q668.233 1517.37 664.599 1517.37 M664.599 1513.66 Q670.409 1513.66 673.465 1518.27 Q676.543 1522.85 676.543 1531.6 Q676.543 1540.33 673.465 1544.94 Q670.409 1549.52 664.599 1549.52 Q658.789 1549.52 655.71 1544.94 Q652.654 1540.33 652.654 1531.6 Q652.654 1522.85 655.71 1518.27 Q658.789 1513.66 664.599 1513.66 Z" fill="#000000" fill-rule="nonzero" fill-opacity="1" /><path clip-path="url(#clip720)" d="M1039.5 1544.91 L1055.82 1544.91 L1055.82 1548.85 L1033.88 1548.85 L1033.88 1544.91 Q1036.54 1542.16 1041.12 1537.53 Q1045.73 1532.88 1046.91 1531.53 Q1049.15 1529.01 1050.03 1527.27 Q1050.94 1525.51 1050.94 1523.82 Q1050.94 1521.07 1048.99 1519.33 Q1047.07 1517.6 1043.97 1517.6 Q1041.77 1517.6 1039.32 1518.36 Q1036.88 1519.13 1034.11 1520.68 L1034.11 1515.95 Q1036.93 1514.82 1039.38 1514.24 Q1041.84 1513.66 1043.88 1513.66 Q1049.25 1513.66 1052.44 1516.35 Q1055.63 1519.03 1055.63 1523.52 Q1055.63 1525.65 1054.82 1527.57 Q1054.04 1529.47 1051.93 1532.07 Q1051.35 1532.74 1048.25 1535.95 Q1045.15 1539.15 1039.5 1544.91 Z" fill="#000000" fill-rule="nonzero" fill-opacity="1" /><path clip-path="url(#clip720)" d="M1075.63 1517.37 Q1072.02 1517.37 1070.19 1520.93 Q1068.39 1524.47 1068.39 1531.6 Q1068.39 1538.71 1070.19 1542.27 Q1072.02 1545.82 1075.63 1545.82 Q1079.27 1545.82 1081.07 1542.27 Q1082.9 1538.71 1082.9 1531.6 Q1082.9 1524.47 1081.07 1520.93 Q1079.27 1517.37 1075.63 1517.37 M1075.63 1513.66 Q1081.44 1513.66 1084.5 1518.27 Q1087.58 1522.85 1087.58 1531.6 Q1087.58 1540.33 1084.5 1544.94 Q1081.44 1549.52 1075.63 1549.52 Q1069.82 1549.52 1066.75 1544.94 Q1063.69 1540.33 1063.69 1531.6 Q1063.69 1522.85 1066.75 1518.27 Q1069.82 1513.66 1075.63 1513.66 Z" fill="#000000" fill-rule="nonzero" fill-opacity="1" /><path clip-path="url(#clip720)" d="M1459.74 1530.21 Q1463.09 1530.93 1464.97 1533.2 Q1466.87 1535.47 1466.87 1538.8 Q1466.87 1543.92 1463.35 1546.72 Q1459.83 1549.52 1453.35 1549.52 Q1451.17 1549.52 1448.86 1549.08 Q1446.57 1548.66 1444.11 1547.81 L1444.11 1543.29 Q1446.06 1544.43 1448.37 1545.01 Q1450.69 1545.58 1453.21 1545.58 Q1457.61 1545.58 1459.9 1543.85 Q1462.21 1542.11 1462.21 1538.8 Q1462.21 1535.75 1460.06 1534.03 Q1457.93 1532.3 1454.11 1532.3 L1450.09 1532.3 L1450.09 1528.45 L1454.3 1528.45 Q1457.75 1528.45 1459.58 1527.09 Q1461.4 1525.7 1461.4 1523.11 Q1461.4 1520.45 1459.51 1519.03 Q1457.63 1517.6 1454.11 1517.6 Q1452.19 1517.6 1449.99 1518.01 Q1447.79 1518.43 1445.15 1519.31 L1445.15 1515.14 Q1447.82 1514.4 1450.13 1514.03 Q1452.47 1513.66 1454.53 1513.66 Q1459.85 1513.66 1462.96 1516.09 Q1466.06 1518.5 1466.06 1522.62 Q1466.06 1525.49 1464.41 1527.48 Q1462.77 1529.45 1459.74 1530.21 Z" fill="#000000" fill-rule="nonzero" fill-opacity="1" /><path clip-path="url(#clip720)" d="M1485.73 1517.37 Q1482.12 1517.37 1480.29 1520.93 Q1478.49 1524.47 1478.49 1531.6 Q1478.49 1538.71 1480.29 1542.27 Q1482.12 1545.82 1485.73 1545.82 Q1489.37 1545.82 1491.17 1542.27 Q1493 1538.71 1493 1531.6 Q1493 1524.47 1491.17 1520.93 Q1489.37 1517.37 1485.73 1517.37 M1485.73 1513.66 Q1491.54 1513.66 1494.6 1518.27 Q1497.68 1522.85 1497.68 1531.6 Q1497.68 1540.33 1494.6 1544.94 Q1491.54 1549.52 1485.73 1549.52 Q1479.92 1549.52 1476.84 1544.94 Q1473.79 1540.33 1473.79 1531.6 Q1473.79 1522.85 1476.84 1518.27 Q1479.92 1513.66 1485.73 1513.66 Z" fill="#000000" fill-rule="nonzero" fill-opacity="1" /><path clip-path="url(#clip720)" d="M1869.23 1518.36 L1857.43 1536.81 L1869.23 1536.81 L1869.23 1518.36 M1868.01 1514.29 L1873.89 1514.29 L1873.89 1536.81 L1878.82 1536.81 L1878.82 1540.7 L1873.89 1540.7 L1873.89 1548.85 L1869.23 1548.85 L1869.23 1540.7 L1853.63 1540.7 L1853.63 1536.19 L1868.01 1514.29 Z" fill="#000000" fill-rule="nonzero" fill-opacity="1" /><path clip-path="url(#clip720)" d="M1896.55 1517.37 Q1892.94 1517.37 1891.11 1520.93 Q1889.3 1524.47 1889.3 1531.6 Q1889.3 1538.71 1891.11 1542.27 Q1892.94 1545.82 1896.55 1545.82 Q1900.18 1545.82 1901.99 1542.27 Q1903.82 1538.71 1903.82 1531.6 Q1903.82 1524.47 1901.99 1520.93 Q1900.18 1517.37 1896.55 1517.37 M1896.55 1513.66 Q1902.36 1513.66 1905.41 1518.27 Q1908.49 1522.85 1908.49 1531.6 Q1908.49 1540.33 1905.41 1544.94 Q1902.36 1549.52 1896.55 1549.52 Q1890.74 1549.52 1887.66 1544.94 Q1884.6 1540.33 1884.6 1531.6 Q1884.6 1522.85 1887.66 1518.27 Q1890.74 1513.66 1896.55 1513.66 Z" fill="#000000" fill-rule="nonzero" fill-opacity="1" /><path clip-path="url(#clip720)" d="M2265.93 1514.29 L2284.29 1514.29 L2284.29 1518.22 L2270.21 1518.22 L2270.21 1526.7 Q2271.23 1526.35 2272.25 1526.19 Q2273.27 1526 2274.29 1526 Q2280.07 1526 2283.45 1529.17 Q2286.83 1532.34 2286.83 1537.76 Q2286.83 1543.34 2283.36 1546.44 Q2279.89 1549.52 2273.57 1549.52 Q2271.39 1549.52 2269.12 1549.15 Q2266.88 1548.78 2264.47 1548.04 L2264.47 1543.34 Q2266.55 1544.47 2268.78 1545.03 Q2271 1545.58 2273.48 1545.58 Q2277.48 1545.58 2279.82 1543.48 Q2282.16 1541.37 2282.16 1537.76 Q2282.16 1534.15 2279.82 1532.04 Q2277.48 1529.94 2273.48 1529.94 Q2271.6 1529.94 2269.73 1530.35 Q2267.87 1530.77 2265.93 1531.65 L2265.93 1514.29 Z" fill="#000000" fill-rule="nonzero" fill-opacity="1" /><path clip-path="url(#clip720)" d="M2306.05 1517.37 Q2302.43 1517.37 2300.61 1520.93 Q2298.8 1524.47 2298.8 1531.6 Q2298.8 1538.71 2300.61 1542.27 Q2302.43 1545.82 2306.05 1545.82 Q2309.68 1545.82 2311.49 1542.27 Q2313.31 1538.71 2313.31 1531.6 Q2313.31 1524.47 2311.49 1520.93 Q2309.68 1517.37 2306.05 1517.37 M2306.05 1513.66 Q2311.86 1513.66 2314.91 1518.27 Q2317.99 1522.85 2317.99 1531.6 Q2317.99 1540.33 2314.91 1544.94 Q2311.86 1549.52 2306.05 1549.52 Q2300.24 1549.52 2297.16 1544.94 Q2294.1 1540.33 2294.1 1531.6 Q2294.1 1522.85 2297.16 1518.27 Q2300.24 1513.66 2306.05 1513.66 Z" fill="#000000" fill-rule="nonzero" fill-opacity="1" /><polyline clip-path="url(#clip720)" style="stroke:#000000; stroke-linecap:round; stroke-linejoin:round; stroke-width:4; stroke-opacity:1; fill:none" points="178.867,1486.45 178.867,47.2441 "/>
<polyline clip-path="url(#clip720)" style="stroke:#000000; stroke-linecap:round; stroke-linejoin:round; stroke-width:4; stroke-opacity:1; fill:none" points="178.867,1320.39 197.764,1320.39 "/>
<polyline clip-path="url(#clip720)" style="stroke:#000000; stroke-linecap:round; stroke-linejoin:round; stroke-width:4; stroke-opacity:1; fill:none" points="178.867,1032.28 197.764,1032.28 "/>
<polyline clip-path="url(#clip720)" style="stroke:#000000; stroke-linecap:round; stroke-linejoin:round; stroke-width:4; stroke-opacity:1; fill:none" points="178.867,744.161 197.764,744.161 "/>
<polyline clip-path="url(#clip720)" style="stroke:#000000; stroke-linecap:round; stroke-linejoin:round; stroke-width:4; stroke-opacity:1; fill:none" points="178.867,456.044 197.764,456.044 "/>
<polyline clip-path="url(#clip720)" style="stroke:#000000; stroke-linecap:round; stroke-linejoin:round; stroke-width:4; stroke-opacity:1; fill:none" points="178.867,167.927 197.764,167.927 "/>
<path clip-path="url(#clip720)" d="M50.9921 1320.85 L80.6679 1320.85 L80.6679 1324.78 L50.9921 1324.78 L50.9921 1320.85 Z" fill="#000000" fill-rule="nonzero" fill-opacity="1" /><path clip-path="url(#clip720)" d="M103.608 1307.19 L91.8021 1325.64 L103.608 1325.64 L103.608 1307.19 M102.381 1303.11 L108.26 1303.11 L108.26 1325.64 L113.191 1325.64 L113.191 1329.53 L108.26 1329.53 L108.26 1337.67 L103.608 1337.67 L103.608 1329.53 L88.0058 1329.53 L88.0058 1325.01 L102.381 1303.11 Z" fill="#000000" fill-rule="nonzero" fill-opacity="1" /><path clip-path="url(#clip720)" d="M130.922 1306.19 Q127.311 1306.19 125.482 1309.76 Q123.677 1313.3 123.677 1320.43 Q123.677 1327.54 125.482 1331.1 Q127.311 1334.64 130.922 1334.64 Q134.556 1334.64 136.362 1331.1 Q138.191 1327.54 138.191 1320.43 Q138.191 1313.3 136.362 1309.76 Q134.556 1306.19 130.922 1306.19 M130.922 1302.49 Q136.732 1302.49 139.788 1307.1 Q142.867 1311.68 142.867 1320.43 Q142.867 1329.16 139.788 1333.76 Q136.732 1338.35 130.922 1338.35 Q125.112 1338.35 122.033 1333.76 Q118.978 1329.16 118.978 1320.43 Q118.978 1311.68 122.033 1307.1 Q125.112 1302.49 130.922 1302.49 Z" fill="#000000" fill-rule="nonzero" fill-opacity="1" /><path clip-path="url(#clip720)" d="M50.9921 1032.73 L80.6679 1032.73 L80.6679 1036.66 L50.9921 1036.66 L50.9921 1032.73 Z" fill="#000000" fill-rule="nonzero" fill-opacity="1" /><path clip-path="url(#clip720)" d="M94.7882 1045.62 L111.108 1045.62 L111.108 1049.56 L89.1632 1049.56 L89.1632 1045.62 Q91.8252 1042.87 96.4085 1038.24 Q101.015 1033.59 102.196 1032.24 Q104.441 1029.72 105.321 1027.98 Q106.223 1026.22 106.223 1024.53 Q106.223 1021.78 104.279 1020.04 Q102.358 1018.31 99.2558 1018.31 Q97.0567 1018.31 94.603 1019.07 Q92.1725 1019.84 89.3947 1021.39 L89.3947 1016.66 Q92.2188 1015.53 94.6724 1014.95 Q97.1261 1014.37 99.1632 1014.37 Q104.534 1014.37 107.728 1017.06 Q110.922 1019.74 110.922 1024.23 Q110.922 1026.36 110.112 1028.28 Q109.325 1030.18 107.219 1032.78 Q106.64 1033.45 103.538 1036.66 Q100.436 1039.86 94.7882 1045.62 Z" fill="#000000" fill-rule="nonzero" fill-opacity="1" /><path clip-path="url(#clip720)" d="M130.922 1018.08 Q127.311 1018.08 125.482 1021.64 Q123.677 1025.18 123.677 1032.31 Q123.677 1039.42 125.482 1042.98 Q127.311 1046.53 130.922 1046.53 Q134.556 1046.53 136.362 1042.98 Q138.191 1039.42 138.191 1032.31 Q138.191 1025.18 136.362 1021.64 Q134.556 1018.08 130.922 1018.08 M130.922 1014.37 Q136.732 1014.37 139.788 1018.98 Q142.867 1023.56 142.867 1032.31 Q142.867 1041.04 139.788 1045.65 Q136.732 1050.23 130.922 1050.23 Q125.112 1050.23 122.033 1045.65 Q118.978 1041.04 118.978 1032.31 Q118.978 1023.56 122.033 1018.98 Q125.112 1014.37 130.922 1014.37 Z" fill="#000000" fill-rule="nonzero" fill-opacity="1" /><path clip-path="url(#clip720)" d="M130.922 729.959 Q127.311 729.959 125.482 733.524 Q123.677 737.066 123.677 744.195 Q123.677 751.302 125.482 754.867 Q127.311 758.408 130.922 758.408 Q134.556 758.408 136.362 754.867 Q138.191 751.302 138.191 744.195 Q138.191 737.066 136.362 733.524 Q134.556 729.959 130.922 729.959 M130.922 726.256 Q136.732 726.256 139.788 730.862 Q142.867 735.445 142.867 744.195 Q142.867 752.922 139.788 757.529 Q136.732 762.112 130.922 762.112 Q125.112 762.112 122.033 757.529 Q118.978 752.922 118.978 744.195 Q118.978 735.445 122.033 730.862 Q125.112 726.256 130.922 726.256 Z" fill="#000000" fill-rule="nonzero" fill-opacity="1" /><path clip-path="url(#clip720)" d="M94.7882 469.388 L111.108 469.388 L111.108 473.324 L89.1632 473.324 L89.1632 469.388 Q91.8252 466.634 96.4085 462.004 Q101.015 457.351 102.196 456.009 Q104.441 453.486 105.321 451.75 Q106.223 449.99 106.223 448.301 Q106.223 445.546 104.279 443.81 Q102.358 442.074 99.2558 442.074 Q97.0567 442.074 94.603 442.838 Q92.1725 443.601 89.3947 445.152 L89.3947 440.43 Q92.2188 439.296 94.6724 438.717 Q97.1261 438.139 99.1632 438.139 Q104.534 438.139 107.728 440.824 Q110.922 443.509 110.922 448 Q110.922 450.129 110.112 452.051 Q109.325 453.949 107.219 456.541 Q106.64 457.213 103.538 460.43 Q100.436 463.625 94.7882 469.388 Z" fill="#000000" fill-rule="nonzero" fill-opacity="1" /><path clip-path="url(#clip720)" d="M130.922 441.842 Q127.311 441.842 125.482 445.407 Q123.677 448.949 123.677 456.078 Q123.677 463.185 125.482 466.75 Q127.311 470.291 130.922 470.291 Q134.556 470.291 136.362 466.75 Q138.191 463.185 138.191 456.078 Q138.191 448.949 136.362 445.407 Q134.556 441.842 130.922 441.842 M130.922 438.139 Q136.732 438.139 139.788 442.745 Q142.867 447.328 142.867 456.078 Q142.867 464.805 139.788 469.412 Q136.732 473.995 130.922 473.995 Q125.112 473.995 122.033 469.412 Q118.978 464.805 118.978 456.078 Q118.978 447.328 122.033 442.745 Q125.112 438.139 130.922 438.139 Z" fill="#000000" fill-rule="nonzero" fill-opacity="1" /><path clip-path="url(#clip720)" d="M103.608 154.721 L91.8021 173.17 L103.608 173.17 L103.608 154.721 M102.381 150.647 L108.26 150.647 L108.26 173.17 L113.191 173.17 L113.191 177.058 L108.26 177.058 L108.26 185.207 L103.608 185.207 L103.608 177.058 L88.0058 177.058 L88.0058 172.545 L102.381 150.647 Z" fill="#000000" fill-rule="nonzero" fill-opacity="1" /><path clip-path="url(#clip720)" d="M130.922 153.725 Q127.311 153.725 125.482 157.29 Q123.677 160.832 123.677 167.961 Q123.677 175.068 125.482 178.632 Q127.311 182.174 130.922 182.174 Q134.556 182.174 136.362 178.632 Q138.191 175.068 138.191 167.961 Q138.191 160.832 136.362 157.29 Q134.556 153.725 130.922 153.725 M130.922 150.022 Q136.732 150.022 139.788 154.628 Q142.867 159.211 142.867 167.961 Q142.867 176.688 139.788 181.294 Q136.732 185.878 130.922 185.878 Q125.112 185.878 122.033 181.294 Q118.978 176.688 118.978 167.961 Q118.978 159.211 122.033 154.628 Q125.112 150.022 130.922 150.022 Z" fill="#000000" fill-rule="nonzero" fill-opacity="1" /><polyline clip-path="url(#clip722)" style="stroke:#009af9; stroke-linecap:round; stroke-linejoin:round; stroke-width:4; stroke-opacity:1; fill:none" points="240.392,744.161 244.493,744.017 248.595,743.588 252.697,742.883 256.799,741.917 260.9,740.707 265.002,739.28 269.104,737.664 273.205,735.893 277.307,734.005 281.409,732.038 285.51,730.038 289.612,728.048 293.714,726.115 297.815,724.286 301.917,722.606 306.019,721.121 310.12,719.875 314.222,718.908 318.324,718.259 322.425,717.962 326.527,718.047 330.629,718.537 334.73,719.453 338.832,720.807 342.934,722.607 347.035,724.852 351.137,727.537 355.239,730.648 359.34,734.165 363.442,738.062 367.544,742.304 371.645,746.852 375.747,751.66 379.849,756.677 383.951,761.847 388.052,767.11 392.154,772.402 396.256,777.655 400.357,782.801 404.459,787.77 408.561,792.491 412.662,796.895 416.764,800.913 420.866,804.479 424.967,807.53 429.069,810.009 433.171,811.863 437.272,813.043 441.374,813.511 445.476,813.231 449.577,812.18 453.679,810.341 457.781,807.705 461.882,804.275 465.984,800.062 470.086,795.087 474.187,789.379 478.289,782.98 482.391,775.938 486.492,768.312 490.594,760.168 494.696,751.582 498.798,742.635 502.899,733.415 507.001,724.017 511.103,714.54 515.204,705.085 519.306,695.757 523.408,686.663 527.509,677.909 531.611,669.601 535.713,661.84 539.814,654.726 543.916,648.355 548.018,642.815 552.119,638.188 556.221,634.548 560.323,631.959 564.424,630.475 568.526,630.14 572.628,630.987 576.729,633.034 580.831,636.289 584.933,640.746 589.034,646.386 593.136,653.176 597.238,661.07 601.339,670.01 605.441,679.924 609.543,690.728 613.644,702.329 617.746,714.62 621.848,727.487 625.95,740.806 630.051,754.445 634.153,768.269 638.255,782.136 642.356,795.899 646.458,809.413 650.56,822.531 654.661,835.108 658.763,847 662.865,858.07 666.966,868.186 671.068,877.225 675.17,885.07 679.271,891.619 683.373,896.778 687.475,900.468 691.576,902.623 695.678,903.194 699.78,902.147 703.881,899.462 707.983,895.139 712.085,889.194 716.186,881.662 720.288,872.592 724.39,862.052 728.491,850.128 732.593,836.918 736.695,822.539 740.797,807.12 744.898,790.803 749,773.743 753.102,756.103 757.203,738.058 761.305,719.785 765.407,701.471 769.508,683.304 773.61,665.473 777.712,648.168 781.813,631.574 785.915,615.872 790.017,601.24 794.118,587.841 798.22,575.834 802.322,565.361 806.423,556.553 810.525,549.525 814.627,544.373 818.728,541.178 822.83,540.001 826.932,540.882 831.033,543.84 835.135,548.875 839.237,555.963 843.338,565.06 847.44,576.1 851.542,588.996 855.643,603.641 859.745,619.909 863.847,637.654 867.949,656.715 872.05,676.914 876.152,698.058 880.254,719.945 884.355,742.36 888.457,765.08 892.559,787.877 896.66,810.52 900.762,832.776 904.864,854.412 908.965,875.2 913.067,894.917 917.169,913.35 921.27,930.293 925.372,945.558 929.474,958.968 933.575,970.364 937.677,979.606 941.779,986.575 945.88,991.173 949.982,993.326 954.084,992.982 958.185,990.118 962.287,984.733 966.389,976.854 970.49,966.532 974.592,953.845 978.694,938.896 982.795,921.81 986.897,902.74 990.999,881.855 995.101,859.35 999.202,835.435 1003.3,810.337 1007.41,784.299 1011.51,757.576 1015.61,730.432 1019.71,703.138 1023.81,675.969 1027.91,649.202 1032.02,623.115 1036.12,597.978 1040.22,574.056 1044.32,551.605 1048.42,530.868 1052.52,512.072 1056.63,495.427 1060.73,481.126 1064.83,469.334 1068.93,460.199 1073.03,453.837 1077.13,450.342 1081.24,449.777 1085.34,452.176 1089.44,457.544 1093.54,465.855 1097.64,477.053 1101.74,491.053 1105.85,507.74 1109.95,526.969 1114.05,548.571 1118.15,572.349 1122.25,598.082 1126.35,625.528 1130.46,654.426 1134.56,684.496 1138.66,715.444 1142.76,746.966 1146.86,778.747 1150.96,810.469 1155.07,841.809 1159.17,872.448 1163.27,902.069 1167.37,930.364 1171.47,957.034 1175.57,981.795 1179.68,1004.38 1183.78,1024.54 1187.88,1042.06 1191.98,1056.72 1196.08,1068.37 1200.18,1076.85 1204.29,1082.05 1208.39,1083.89 1212.49,1082.33 1216.59,1077.35 1220.69,1068.97 1224.79,1057.26 1228.9,1042.29 1233,1024.19 1237.1,1003.13 1241.2,979.284 1245.3,952.876 1249.4,924.151 1253.51,893.38 1257.61,860.856 1261.71,826.895 1265.81,791.827 1269.91,755.997 1274.01,719.762 1278.12,683.484 1282.22,647.528 1286.32,612.261 1290.42,578.043 1294.52,545.228 1298.62,514.158 1302.73,485.16 1306.83,458.543 1310.93,434.593 1315.03,413.574 1319.13,395.719 1323.23,381.232 1327.34,370.286 1331.44,363.017 1335.54,359.527 1339.64,359.879 1343.74,364.098 1347.84,372.171 1351.95,384.044 1356.05,399.627 1360.15,418.789 1364.25,441.364 1368.35,467.149 1372.45,495.907 1376.56,527.371 1380.66,561.242 1384.76,597.196 1388.86,634.887 1392.96,673.946 1397.06,713.991 1401.17,754.623 1405.27,795.439 1409.37,836.027 1413.47,875.978 1417.57,914.885 1421.68,952.347 1425.78,987.978 1429.88,1021.41 1433.98,1052.28 1438.08,1080.27 1442.18,1105.07 1446.29,1126.42 1450.39,1144.07 1454.49,1157.83 1458.59,1167.52 1462.69,1173.02 1466.79,1174.25 1470.9,1171.16 1475,1163.77 1479.1,1152.11 1483.2,1136.27 1487.3,1116.39 1491.4,1092.64 1495.51,1065.24 1499.61,1034.42 1503.71,1000.49 1507.81,963.767 1511.91,924.596 1516.01,883.36 1520.12,840.459 1524.22,796.315 1528.32,751.365 1532.42,706.054 1536.52,660.838 1540.62,616.172 1544.73,572.508 1548.83,530.293 1552.93,489.96 1557.03,451.927 1561.13,416.591 1565.23,384.324 1569.34,355.47 1573.44,330.341 1577.54,309.212 1581.64,292.32 1585.74,279.862 1589.84,271.989 1593.95,268.809 1598.05,270.383 1602.15,276.723 1606.25,287.794 1610.35,303.514 1614.45,323.752 1618.56,348.332 1622.66,377.032 1626.76,409.589 1630.86,445.698 1634.96,485.016 1639.06,527.168 1643.17,571.747 1647.27,618.317 1651.37,666.423 1655.47,715.589 1659.57,765.328 1663.67,815.144 1667.78,864.534 1671.88,913.001 1675.98,960.052 1680.08,1005.21 1684.18,1048 1688.28,1087.98 1692.39,1124.75 1696.49,1157.9 1700.59,1187.09 1704.69,1211.99 1708.79,1232.34 1712.89,1247.91 1717,1258.51 1721.1,1264 1725.2,1264.31 1729.3,1259.41 1733.4,1249.3 1737.5,1234.07 1741.61,1213.84 1745.71,1188.79 1749.81,1159.14 1753.91,1125.16 1758.01,1087.18 1762.11,1045.55 1766.22,1000.67 1770.32,952.97 1774.42,902.923 1778.52,851.015 1782.62,797.758 1786.72,743.678 1790.83,689.316 1794.93,635.216 1799.03,581.922 1803.13,529.974 1807.23,479.902 1811.33,432.218 1815.44,387.414 1819.54,345.954 1823.64,308.272 1827.74,274.768 1831.84,245.798 1835.94,221.677 1840.05,202.673 1844.15,189.003 1848.25,180.831 1852.35,178.267 1856.45,181.366 1860.55,190.126 1864.66,204.487 1868.76,224.334 1872.86,249.494 1876.96,279.743 1881.06,314.801 1885.16,354.341 1889.27,397.988 1893.37,445.325 1897.47,495.894 1901.57,549.204 1905.67,604.733 1909.77,661.935 1913.88,720.243 1917.98,779.077 1922.08,837.849 1926.18,895.97 1930.28,952.851 1934.38,1007.92 1938.49,1060.61 1942.59,1110.38 1946.69,1156.71 1950.79,1199.14 1954.89,1237.21 1958.99,1270.51 1963.1,1298.7 1967.2,1321.46 1971.3,1338.54 1975.4,1349.74 1979.5,1354.93 1983.6,1354.01 1987.71,1346.98 1991.81,1333.87 1995.91,1314.78 2000.01,1289.89 2004.11,1259.4 2008.21,1223.61 2012.32,1182.85 2016.42,1137.5 2020.52,1087.99 2024.62,1034.81 2028.72,978.473 2032.83,919.526 2036.93,858.55 2041.03,796.148 2045.13,732.94 2049.23,669.557 2053.33,606.633 2057.44,544.803 2061.54,484.691 2065.64,426.909 2069.74,372.047 2073.84,320.669 2077.94,273.305 2082.05,230.449 2086.15,192.551 2090.25,160.014 2094.35,133.187 2098.45,112.365 2102.55,97.7844 2106.66,89.618 2110.76,87.9763 2114.86,92.9045 2118.96,104.382 2123.06,122.322 2127.16,146.573 2131.27,176.92 2135.37,213.083 2139.47,254.727 2143.57,301.456 2147.67,352.824 2151.77,408.335 2155.88,467.451 2159.98,529.594 2164.08,594.154 2168.18,660.492 2172.28,727.953 2176.38,795.862 2180.49,863.542 2184.59,930.312 2188.69,995.5 2192.79,1058.44 2196.89,1118.5 2200.99,1175.06 2205.1,1227.54 2209.2,1275.39 2213.3,1318.12 2217.4,1355.28 2221.5,1386.47 2225.6,1411.35 2229.71,1429.65 2233.81,1441.15 2237.91,1445.72 2242.01,1443.27 2246.11,1433.81 2250.21,1417.4 2254.32,1394.18 2258.42,1364.35 2262.52,1328.18 2266.62,1286.02 2270.72,1238.25 2274.82,1185.34 2278.93,1127.79 2283.03,1066.17 2287.13,1001.08 2291.23,933.147 "/>
<path clip-path="url(#clip720)" d="M251.33 198.898 L521.149 198.898 L521.149 95.2176 L251.33 95.2176  Z" fill="#ffffff" fill-rule="evenodd" fill-opacity="1"/>
<polyline clip-path="url(#clip720)" style="stroke:#000000; stroke-linecap:round; stroke-linejoin:round; stroke-width:4; stroke-opacity:1; fill:none" points="251.33,198.898 521.149,198.898 521.149,95.2176 251.33,95.2176 251.33,198.898 "/>
<polyline clip-path="url(#clip720)" style="stroke:#009af9; stroke-linecap:round; stroke-linejoin:round; stroke-width:4; stroke-opacity:1; fill:none" points="275.484,147.058 420.41,147.058 "/>
<path clip-path="url(#clip720)" d="M458.407 166.745 Q456.601 171.375 454.888 172.787 Q453.175 174.199 450.305 174.199 L446.902 174.199 L446.902 170.634 L449.402 170.634 Q451.161 170.634 452.134 169.8 Q453.106 168.967 454.286 165.865 L455.05 163.921 L444.564 138.412 L449.078 138.412 L457.18 158.689 L465.282 138.412 L469.796 138.412 L458.407 166.745 Z" fill="#000000" fill-rule="nonzero" fill-opacity="1" /><path clip-path="url(#clip720)" d="M477.087 160.402 L484.726 160.402 L484.726 134.037 L476.416 135.703 L476.416 131.444 L484.68 129.778 L489.356 129.778 L489.356 160.402 L496.994 160.402 L496.994 164.338 L477.087 164.338 L477.087 160.402 Z" fill="#000000" fill-rule="nonzero" fill-opacity="1" /></svg>
