<?xml version="1.0" encoding="utf-8"?>
<svg xmlns="http://www.w3.org/2000/svg" xmlns:xlink="http://www.w3.org/1999/xlink" width="600" height="400" viewBox="0 0 2400 1600">
<defs>
  <clipPath id="clip840">
    <rect x="0" y="0" width="2400" height="1600"/>
  </clipPath>
</defs>
<path clip-path="url(#clip840)" d="M0 1600 L2400 1600 L2400 0 L0 0  Z" fill="#ffffff" fill-rule="evenodd" fill-opacity="1"/>
<defs>
  <clipPath id="clip841">
    <rect x="480" y="0" width="1681" height="1600"/>
  </clipPath>
</defs>
<path clip-path="url(#clip840)" d="M193.936 686.448 L1152.76 686.448 L1152.76 47.2441 L193.936 47.2441  Z" fill="#ffffff" fill-rule="evenodd" fill-opacity="1"/>
<defs>
  <clipPath id="clip842">
    <rect x="193" y="47" width="960" height="640"/>
  </clipPath>
</defs>
<polyline clip-path="url(#clip842)" style="stroke:#000000; stroke-linecap:round; stroke-linejoin:round; stroke-width:2; stroke-opacity:0.1; fill:none" points="311.527,686.448 311.527,47.2441 "/>
<polyline clip-path="url(#clip842)" style="stroke:#000000; stroke-linecap:round; stroke-linejoin:round; stroke-width:2; stroke-opacity:0.1; fill:none" points="492.437,686.448 492.437,47.2441 "/>
<polyline clip-path="url(#clip842)" style="stroke:#000000; stroke-linecap:round; stroke-linejoin:round; stroke-width:2; stroke-opacity:0.1; fill:none" points="673.346,686.448 673.346,47.2441 "/>
<polyline clip-path="url(#clip842)" style="stroke:#000000; stroke-linecap:round; stroke-linejoin:round; stroke-width:2; stroke-opacity:0.1; fill:none" points="854.255,686.448 854.255,47.2441 "/>
<polyline clip-path="url(#clip842)" style="stroke:#000000; stroke-linecap:round; stroke-linejoin:round; stroke-width:2; stroke-opacity:0.1; fill:none" points="1035.16,686.448 1035.16,47.2441 "/>
<polyline clip-path="url(#clip842)" style="stroke:#000000; stroke-linecap:round; stroke-linejoin:round; stroke-width:2; stroke-opacity:0.1; fill:none" points="193.936,668.389 1152.76,668.389 "/>
<polyline clip-path="url(#clip842)" style="stroke:#000000; stroke-linecap:round; stroke-linejoin:round; stroke-width:2; stroke-opacity:0.1; fill:none" points="193.936,517.625 1152.76,517.625 "/>
<polyline clip-path="url(#clip842)" style="stroke:#000000; stroke-linecap:round; stroke-linejoin:round; stroke-width:2; stroke-opacity:0.1; fill:none" points="193.936,366.86 1152.76,366.86 "/>
<polyline clip-path="url(#clip842)" style="stroke:#000000; stroke-linecap:round; stroke-linejoin:round; stroke-width:2; stroke-opacity:0.1; fill:none" points="193.936,216.096 1152.76,216.096 "/>
<polyline clip-path="url(#clip842)" style="stroke:#000000; stroke-linecap:round; stroke-linejoin:round; stroke-width:2; stroke-opacity:0.1; fill:none" points="193.936,65.3316 1152.76,65.3316 "/>
<polyline clip-path="url(#clip840)" style="stroke:#000000; stroke-linecap:round; stroke-linejoin:round; stroke-width:4; stroke-opacity:1; fill:none" points="193.936,686.448 1152.76,686.448 "/>
<polyline clip-path="url(#clip840)" style="stroke:#000000; stroke-linecap:round; stroke-linejoin:round; stroke-width:4; stroke-opacity:1; fill:none" points="311.527,686.448 311.527,667.55 "/>
<polyline clip-path="url(#clip840)" style="stroke:#000000; stroke-linecap:round; stroke-linejoin:round; stroke-width:4; stroke-opacity:1; fill:none" points="492.437,686.448 492.437,667.55 "/>
<polyline clip-path="url(#clip840)" style="stroke:#000000; stroke-linecap:round; stroke-linejoin:round; stroke-width:4; stroke-opacity:1; fill:none" points="673.346,686.448 673.346,667.55 "/>
<polyline clip-path="url(#clip840)" style="stroke:#000000; stroke-linecap:round; stroke-linejoin:round; stroke-width:4; stroke-opacity:1; fill:none" points="854.255,686.448 854.255,667.55 "/>
<polyline clip-path="url(#clip840)" style="stroke:#000000; stroke-linecap:round; stroke-linejoin:round; stroke-width:4; stroke-opacity:1; fill:none" points="1035.16,686.448 1035.16,667.55 "/>
<path clip-path="url(#clip840)" d="M280.428 732.019 L310.104 732.019 L310.104 735.954 L280.428 735.954 L280.428 732.019 Z" fill="#000000" fill-rule="nonzero" fill-opacity="1" /><path clip-path="url(#clip840)" d="M333.043 718.362 L321.238 736.811 L333.043 736.811 L333.043 718.362 M331.816 714.288 L337.696 714.288 L337.696 736.811 L342.626 736.811 L342.626 740.7 L337.696 740.7 L337.696 748.848 L333.043 748.848 L333.043 740.7 L317.441 740.7 L317.441 736.186 L331.816 714.288 Z" fill="#000000" fill-rule="nonzero" fill-opacity="1" /><path clip-path="url(#clip840)" d="M462.379 732.019 L492.055 732.019 L492.055 735.954 L462.379 735.954 L462.379 732.019 Z" fill="#000000" fill-rule="nonzero" fill-opacity="1" /><path clip-path="url(#clip840)" d="M506.175 744.913 L522.494 744.913 L522.494 748.848 L500.55 748.848 L500.55 744.913 Q503.212 742.158 507.795 737.528 Q512.402 732.876 513.582 731.533 Q515.828 729.01 516.707 727.274 Q517.61 725.515 517.61 723.825 Q517.61 721.07 515.666 719.334 Q513.744 717.598 510.642 717.598 Q508.443 717.598 505.99 718.362 Q503.559 719.126 500.781 720.677 L500.781 715.955 Q503.605 714.82 506.059 714.242 Q508.513 713.663 510.55 713.663 Q515.92 713.663 519.115 716.348 Q522.309 719.033 522.309 723.524 Q522.309 725.654 521.499 727.575 Q520.712 729.473 518.605 732.066 Q518.027 732.737 514.925 735.954 Q511.823 739.149 506.175 744.913 Z" fill="#000000" fill-rule="nonzero" fill-opacity="1" /><path clip-path="url(#clip840)" d="M673.346 717.367 Q669.735 717.367 667.906 720.931 Q666.101 724.473 666.101 731.603 Q666.101 738.709 667.906 742.274 Q669.735 745.815 673.346 745.815 Q676.98 745.815 678.786 742.274 Q680.614 738.709 680.614 731.603 Q680.614 724.473 678.786 720.931 Q676.98 717.367 673.346 717.367 M673.346 713.663 Q679.156 713.663 682.212 718.269 Q685.29 722.853 685.29 731.603 Q685.29 740.329 682.212 744.936 Q679.156 749.519 673.346 749.519 Q667.536 749.519 664.457 744.936 Q661.402 740.329 661.402 731.603 Q661.402 722.853 664.457 718.269 Q667.536 713.663 673.346 713.663 Z" fill="#000000" fill-rule="nonzero" fill-opacity="1" /><path clip-path="url(#clip840)" d="M848.908 744.913 L865.228 744.913 L865.228 748.848 L843.283 748.848 L843.283 744.913 Q845.945 742.158 850.529 737.528 Q855.135 732.876 856.316 731.533 Q858.561 729.01 859.441 727.274 Q860.343 725.515 860.343 723.825 Q860.343 721.07 858.399 719.334 Q856.478 717.598 853.376 717.598 Q851.177 717.598 848.723 718.362 Q846.292 719.126 843.515 720.677 L843.515 715.955 Q846.339 714.82 848.792 714.242 Q851.246 713.663 853.283 713.663 Q858.653 713.663 861.848 716.348 Q865.042 719.033 865.042 723.524 Q865.042 725.654 864.232 727.575 Q863.445 729.473 861.339 732.066 Q860.76 732.737 857.658 735.954 Q854.556 739.149 848.908 744.913 Z" fill="#000000" fill-rule="nonzero" fill-opacity="1" /><path clip-path="url(#clip840)" d="M1038.17 718.362 L1026.37 736.811 L1038.17 736.811 L1038.17 718.362 M1036.95 714.288 L1042.83 714.288 L1042.83 736.811 L1047.76 736.811 L1047.76 740.7 L1042.83 740.7 L1042.83 748.848 L1038.17 748.848 L1038.17 740.7 L1022.57 740.7 L1022.57 736.186 L1036.95 714.288 Z" fill="#000000" fill-rule="nonzero" fill-opacity="1" /><polyline clip-path="url(#clip840)" style="stroke:#000000; stroke-linecap:round; stroke-linejoin:round; stroke-width:4; stroke-opacity:1; fill:none" points="193.936,686.448 193.936,47.2441 "/>
<polyline clip-path="url(#clip840)" style="stroke:#000000; stroke-linecap:round; stroke-linejoin:round; stroke-width:4; stroke-opacity:1; fill:none" points="193.936,668.389 212.834,668.389 "/>
<polyline clip-path="url(#clip840)" style="stroke:#000000; stroke-linecap:round; stroke-linejoin:round; stroke-width:4; stroke-opacity:1; fill:none" points="193.936,517.625 212.834,517.625 "/>
<polyline clip-path="url(#clip840)" style="stroke:#000000; stroke-linecap:round; stroke-linejoin:round; stroke-width:4; stroke-opacity:1; fill:none" points="193.936,366.86 212.834,366.86 "/>
<polyline clip-path="url(#clip840)" style="stroke:#000000; stroke-linecap:round; stroke-linejoin:round; stroke-width:4; stroke-opacity:1; fill:none" points="193.936,216.096 212.834,216.096 "/>
<polyline clip-path="url(#clip840)" style="stroke:#000000; stroke-linecap:round; stroke-linejoin:round; stroke-width:4; stroke-opacity:1; fill:none" points="193.936,65.3316 212.834,65.3316 "/>
<path clip-path="url(#clip840)" d="M50.9921 668.84 L80.6679 668.84 L80.6679 672.775 L50.9921 672.775 L50.9921 668.84 Z" fill="#000000" fill-rule="nonzero" fill-opacity="1" /><path clip-path="url(#clip840)" d="M91.5706 681.734 L99.2095 681.734 L99.2095 655.368 L90.8993 657.035 L90.8993 652.776 L99.1632 651.109 L103.839 651.109 L103.839 681.734 L111.478 681.734 L111.478 685.669 L91.5706 685.669 L91.5706 681.734 Z" fill="#000000" fill-rule="nonzero" fill-opacity="1" /><path clip-path="url(#clip840)" d="M120.922 679.789 L125.807 679.789 L125.807 685.669 L120.922 685.669 L120.922 679.789 Z" fill="#000000" fill-rule="nonzero" fill-opacity="1" /><path clip-path="url(#clip840)" d="M145.992 654.188 Q142.381 654.188 140.552 657.752 Q138.746 661.294 138.746 668.424 Q138.746 675.53 140.552 679.095 Q142.381 682.637 145.992 682.637 Q149.626 682.637 151.431 679.095 Q153.26 675.53 153.26 668.424 Q153.26 661.294 151.431 657.752 Q149.626 654.188 145.992 654.188 M145.992 650.484 Q151.802 650.484 154.857 655.09 Q157.936 659.674 157.936 668.424 Q157.936 677.15 154.857 681.757 Q151.802 686.34 145.992 686.34 Q140.181 686.34 137.103 681.757 Q134.047 677.15 134.047 668.424 Q134.047 659.674 137.103 655.09 Q140.181 650.484 145.992 650.484 Z" fill="#000000" fill-rule="nonzero" fill-opacity="1" /><path clip-path="url(#clip840)" d="M51.9875 518.076 L81.6633 518.076 L81.6633 522.011 L51.9875 522.011 L51.9875 518.076 Z" fill="#000000" fill-rule="nonzero" fill-opacity="1" /><path clip-path="url(#clip840)" d="M101.756 503.423 Q98.1447 503.423 96.316 506.988 Q94.5104 510.53 94.5104 517.659 Q94.5104 524.766 96.316 528.331 Q98.1447 531.872 101.756 531.872 Q105.39 531.872 107.196 528.331 Q109.024 524.766 109.024 517.659 Q109.024 510.53 107.196 506.988 Q105.39 503.423 101.756 503.423 M101.756 499.72 Q107.566 499.72 110.621 504.326 Q113.7 508.909 113.7 517.659 Q113.7 526.386 110.621 530.993 Q107.566 535.576 101.756 535.576 Q95.9456 535.576 92.8669 530.993 Q89.8114 526.386 89.8114 517.659 Q89.8114 508.909 92.8669 504.326 Q95.9456 499.72 101.756 499.72 Z" fill="#000000" fill-rule="nonzero" fill-opacity="1" /><path clip-path="url(#clip840)" d="M121.918 529.025 L126.802 529.025 L126.802 534.905 L121.918 534.905 L121.918 529.025 Z" fill="#000000" fill-rule="nonzero" fill-opacity="1" /><path clip-path="url(#clip840)" d="M137.033 500.345 L155.39 500.345 L155.39 504.28 L141.316 504.28 L141.316 512.752 Q142.334 512.405 143.353 512.243 Q144.371 512.057 145.39 512.057 Q151.177 512.057 154.556 515.229 Q157.936 518.4 157.936 523.817 Q157.936 529.395 154.464 532.497 Q150.992 535.576 144.672 535.576 Q142.496 535.576 140.228 535.206 Q137.982 534.835 135.575 534.094 L135.575 529.395 Q137.658 530.53 139.881 531.085 Q142.103 531.641 144.58 531.641 Q148.584 531.641 150.922 529.534 Q153.26 527.428 153.26 523.817 Q153.26 520.206 150.922 518.099 Q148.584 515.993 144.58 515.993 Q142.705 515.993 140.83 516.409 Q138.978 516.826 137.033 517.706 L137.033 500.345 Z" fill="#000000" fill-rule="nonzero" fill-opacity="1" /><path clip-path="url(#clip840)" d="M100.76 352.659 Q97.1493 352.659 95.3206 356.224 Q93.515 359.765 93.515 366.895 Q93.515 374.001 95.3206 377.566 Q97.1493 381.108 100.76 381.108 Q104.395 381.108 106.2 377.566 Q108.029 374.001 108.029 366.895 Q108.029 359.765 106.2 356.224 Q104.395 352.659 100.76 352.659 M100.76 348.955 Q106.571 348.955 109.626 353.562 Q112.705 358.145 112.705 366.895 Q112.705 375.622 109.626 380.228 Q106.571 384.812 100.76 384.812 Q94.9502 384.812 91.8715 380.228 Q88.816 375.622 88.816 366.895 Q88.816 358.145 91.8715 353.562 Q94.9502 348.955 100.76 348.955 Z" fill="#000000" fill-rule="nonzero" fill-opacity="1" /><path clip-path="url(#clip840)" d="M120.922 378.261 L125.807 378.261 L125.807 384.14 L120.922 384.14 L120.922 378.261 Z" fill="#000000" fill-rule="nonzero" fill-opacity="1" /><path clip-path="url(#clip840)" d="M145.992 352.659 Q142.381 352.659 140.552 356.224 Q138.746 359.765 138.746 366.895 Q138.746 374.001 140.552 377.566 Q142.381 381.108 145.992 381.108 Q149.626 381.108 151.431 377.566 Q153.26 374.001 153.26 366.895 Q153.26 359.765 151.431 356.224 Q149.626 352.659 145.992 352.659 M145.992 348.955 Q151.802 348.955 154.857 353.562 Q157.936 358.145 157.936 366.895 Q157.936 375.622 154.857 380.228 Q151.802 384.812 145.992 384.812 Q140.181 384.812 137.103 380.228 Q134.047 375.622 134.047 366.895 Q134.047 358.145 137.103 353.562 Q140.181 348.955 145.992 348.955 Z" fill="#000000" fill-rule="nonzero" fill-opacity="1" /><path clip-path="url(#clip840)" d="M101.756 201.895 Q98.1447 201.895 96.316 205.459 Q94.5104 209.001 94.5104 216.131 Q94.5104 223.237 96.316 226.802 Q98.1447 230.344 101.756 230.344 Q105.39 230.344 107.196 226.802 Q109.024 223.237 109.024 216.131 Q109.024 209.001 107.196 205.459 Q105.39 201.895 101.756 201.895 M101.756 198.191 Q107.566 198.191 110.621 202.797 Q113.7 207.381 113.7 216.131 Q113.7 224.857 110.621 229.464 Q107.566 234.047 101.756 234.047 Q95.9456 234.047 92.8669 229.464 Q89.8114 224.857 89.8114 216.131 Q89.8114 207.381 92.8669 202.797 Q95.9456 198.191 101.756 198.191 Z" fill="#000000" fill-rule="nonzero" fill-opacity="1" /><path clip-path="url(#clip840)" d="M121.918 227.496 L126.802 227.496 L126.802 233.376 L121.918 233.376 L121.918 227.496 Z" fill="#000000" fill-rule="nonzero" fill-opacity="1" /><path clip-path="url(#clip840)" d="M137.033 198.816 L155.39 198.816 L155.39 202.751 L141.316 202.751 L141.316 211.223 Q142.334 210.876 143.353 210.714 Q144.371 210.529 145.39 210.529 Q151.177 210.529 154.556 213.7 Q157.936 216.871 157.936 222.288 Q157.936 227.867 154.464 230.969 Q150.992 234.047 144.672 234.047 Q142.496 234.047 140.228 233.677 Q137.982 233.306 135.575 232.566 L135.575 227.867 Q137.658 229.001 139.881 229.557 Q142.103 230.112 144.58 230.112 Q148.584 230.112 150.922 228.006 Q153.26 225.899 153.26 222.288 Q153.26 218.677 150.922 216.57 Q148.584 214.464 144.58 214.464 Q142.705 214.464 140.83 214.881 Q138.978 215.297 137.033 216.177 L137.033 198.816 Z" fill="#000000" fill-rule="nonzero" fill-opacity="1" /><path clip-path="url(#clip840)" d="M91.5706 78.6764 L99.2095 78.6764 L99.2095 52.3108 L90.8993 53.9775 L90.8993 49.7183 L99.1632 48.0516 L103.839 48.0516 L103.839 78.6764 L111.478 78.6764 L111.478 82.6116 L91.5706 82.6116 L91.5706 78.6764 Z" fill="#000000" fill-rule="nonzero" fill-opacity="1" /><path clip-path="url(#clip840)" d="M120.922 76.732 L125.807 76.732 L125.807 82.6116 L120.922 82.6116 L120.922 76.732 Z" fill="#000000" fill-rule="nonzero" fill-opacity="1" /><path clip-path="url(#clip840)" d="M145.992 51.1303 Q142.381 51.1303 140.552 54.6951 Q138.746 58.2367 138.746 65.3663 Q138.746 72.4728 140.552 76.0376 Q142.381 79.5792 145.992 79.5792 Q149.626 79.5792 151.431 76.0376 Q153.26 72.4728 153.26 65.3663 Q153.26 58.2367 151.431 54.6951 Q149.626 51.1303 145.992 51.1303 M145.992 47.4266 Q151.802 47.4266 154.857 52.0331 Q157.936 56.6164 157.936 65.3663 Q157.936 74.0931 154.857 78.6996 Q151.802 83.2829 145.992 83.2829 Q140.181 83.2829 137.103 78.6996 Q134.047 74.0931 134.047 65.3663 Q134.047 56.6164 137.103 52.0331 Q140.181 47.4266 145.992 47.4266 Z" fill="#000000" fill-rule="nonzero" fill-opacity="1" /><polyline clip-path="url(#clip842)" style="stroke:#009af9; stroke-linecap:round; stroke-linejoin:round; stroke-width:4; stroke-opacity:1; fill:none" points="221.072,77.7171 223.407,75.6061 225.742,73.6891 228.076,71.9674 230.411,70.4421 237.247,67.1143 244.084,65.4979 247.502,65.3348 250.921,65.6022 254.339,66.2999 257.757,67.4267 261.176,68.9811 264.594,70.9608 268.012,73.3631 271.431,76.1845 274.849,79.421 278.267,83.0679 281.686,87.1201 285.104,91.5717 291.465,100.896 297.826,111.536 304.187,123.437 310.548,136.542 314.81,145.965 319.073,155.88 323.336,166.263 327.599,177.091 331.862,188.341 336.125,199.987 340.388,212.004 344.651,224.365 351.696,245.472 358.741,267.316 365.786,289.763 372.831,312.678 385.934,356.06 399.036,399.669 407.26,426.748 415.484,453.332 423.708,479.202 431.932,504.143 439.309,525.557 446.686,545.916 454.063,565.085 461.44,582.935 465.662,592.513 469.884,601.599 474.106,610.173 478.328,618.218 482.549,625.715 486.771,632.648 490.993,639.003 495.215,644.764 501.527,652.245 507.839,658.338 514.151,663.011 520.463,666.243 524.499,667.547 528.536,668.252 532.572,668.357 536.609,667.862 540.645,666.767 544.681,665.076 548.718,662.79 552.754,659.916 556.439,656.783 560.123,653.169 563.807,649.08 567.491,644.523 574.859,634.036 582.227,621.777 586.42,614.04 590.613,605.773 594.806,596.992 598.999,587.717 603.192,577.967 607.385,567.764 611.578,557.129 615.771,546.086 622.419,527.797 629.066,508.64 635.714,488.717 642.362,468.137 658.88,414.878 675.398,360.021 688.048,318.068 700.698,277.067 709.615,249.172 718.532,222.419 722.991,209.553 727.45,197.07 731.908,184.998 736.367,173.369 743.031,156.872 749.695,141.515 756.359,127.38 763.022,114.544 766.811,107.852 770.601,101.614 774.39,95.8411 778.179,90.544 781.968,85.7318 785.757,81.4127 789.546,77.5945 793.335,74.2838 797.088,71.511 800.84,69.2464 804.593,67.4939 808.345,66.2565 812.098,65.5364 815.85,65.3348 819.603,65.6521 823.355,66.4877 827.484,68.004 831.612,70.1428 835.741,72.8996 839.869,76.2686 843.998,80.2429 848.126,84.8141 852.255,89.9727 856.383,95.7081 862.69,105.556 868.997,116.673 875.304,129.006 881.61,142.495 889.569,161.064 897.528,181.226 905.487,202.823 913.445,225.69 920.806,247.815 928.167,270.729 935.528,294.278 942.889,318.308 958.072,368.709 973.255,419.057 980.95,444.102 988.645,468.587 996.34,492.337 1004.04,515.18 1012.07,537.884 1020.11,559.24 1024.12,569.36 1028.14,579.079 1032.16,588.381 1036.18,597.245 1042.5,610.282 1048.83,622.128 1055.16,632.725 1061.49,642.02 1065.1,646.713 1068.7,650.962 1072.3,654.76 1075.91,658.101 1079.51,660.981 1083.11,663.393 1086.72,665.335 1090.32,666.803 1093.93,667.795 1097.53,668.31 1101.13,668.346 1104.74,667.904 1108.34,666.984 1111.94,665.588 1115.55,663.717 1119.15,661.376 1120.77,660.173 1122.39,658.876 1124,657.486 1125.62,656.003 "/>
<path clip-path="url(#clip840)" d="M1393.94 686.448 L2352.76 686.448 L2352.76 47.2441 L1393.94 47.2441  Z" fill="#ffffff" fill-rule="evenodd" fill-opacity="1"/>
<defs>
  <clipPath id="clip843">
    <rect x="1393" y="47" width="960" height="640"/>
  </clipPath>
</defs>
<polyline clip-path="url(#clip843)" style="stroke:#000000; stroke-linecap:round; stroke-linejoin:round; stroke-width:2; stroke-opacity:0.1; fill:none" points="1511.53,686.448 1511.53,47.2441 "/>
<polyline clip-path="url(#clip843)" style="stroke:#000000; stroke-linecap:round; stroke-linejoin:round; stroke-width:2; stroke-opacity:0.1; fill:none" points="1692.44,686.448 1692.44,47.2441 "/>
<polyline clip-path="url(#clip843)" style="stroke:#000000; stroke-linecap:round; stroke-linejoin:round; stroke-width:2; stroke-opacity:0.1; fill:none" points="1873.35,686.448 1873.35,47.2441 "/>
<polyline clip-path="url(#clip843)" style="stroke:#000000; stroke-linecap:round; stroke-linejoin:round; stroke-width:2; stroke-opacity:0.1; fill:none" points="2054.26,686.448 2054.26,47.2441 "/>
<polyline clip-path="url(#clip843)" style="stroke:#000000; stroke-linecap:round; stroke-linejoin:round; stroke-width:2; stroke-opacity:0.1; fill:none" points="2235.16,686.448 2235.16,47.2441 "/>
<polyline clip-path="url(#clip843)" style="stroke:#000000; stroke-linecap:round; stroke-linejoin:round; stroke-width:2; stroke-opacity:0.1; fill:none" points="1393.94,668.363 2352.76,668.363 "/>
<polyline clip-path="url(#clip843)" style="stroke:#000000; stroke-linecap:round; stroke-linejoin:round; stroke-width:2; stroke-opacity:0.1; fill:none" points="1393.94,517.586 2352.76,517.586 "/>
<polyline clip-path="url(#clip843)" style="stroke:#000000; stroke-linecap:round; stroke-linejoin:round; stroke-width:2; stroke-opacity:0.1; fill:none" points="1393.94,366.81 2352.76,366.81 "/>
<polyline clip-path="url(#clip843)" style="stroke:#000000; stroke-linecap:round; stroke-linejoin:round; stroke-width:2; stroke-opacity:0.1; fill:none" points="1393.94,216.034 2352.76,216.034 "/>
<polyline clip-path="url(#clip843)" style="stroke:#000000; stroke-linecap:round; stroke-linejoin:round; stroke-width:2; stroke-opacity:0.1; fill:none" points="1393.94,65.2572 2352.76,65.2572 "/>
<polyline clip-path="url(#clip840)" style="stroke:#000000; stroke-linecap:round; stroke-linejoin:round; stroke-width:4; stroke-opacity:1; fill:none" points="1393.94,686.448 2352.76,686.448 "/>
<polyline clip-path="url(#clip840)" style="stroke:#000000; stroke-linecap:round; stroke-linejoin:round; stroke-width:4; stroke-opacity:1; fill:none" points="1511.53,686.448 1511.53,667.55 "/>
<polyline clip-path="url(#clip840)" style="stroke:#000000; stroke-linecap:round; stroke-linejoin:round; stroke-width:4; stroke-opacity:1; fill:none" points="1692.44,686.448 1692.44,667.55 "/>
<polyline clip-path="url(#clip840)" style="stroke:#000000; stroke-linecap:round; stroke-linejoin:round; stroke-width:4; stroke-opacity:1; fill:none" points="1873.35,686.448 1873.35,667.55 "/>
<polyline clip-path="url(#clip840)" style="stroke:#000000; stroke-linecap:round; stroke-linejoin:round; stroke-width:4; stroke-opacity:1; fill:none" points="2054.26,686.448 2054.26,667.55 "/>
<polyline clip-path="url(#clip840)" style="stroke:#000000; stroke-linecap:round; stroke-linejoin:round; stroke-width:4; stroke-opacity:1; fill:none" points="2235.16,686.448 2235.16,667.55 "/>
<path clip-path="url(#clip840)" d="M1480.43 732.019 L1510.1 732.019 L1510.1 735.954 L1480.43 735.954 L1480.43 732.019 Z" fill="#000000" fill-rule="nonzero" fill-opacity="1" /><path clip-path="url(#clip840)" d="M1533.04 718.362 L1521.24 736.811 L1533.04 736.811 L1533.04 718.362 M1531.82 714.288 L1537.7 714.288 L1537.7 736.811 L1542.63 736.811 L1542.63 740.7 L1537.7 740.7 L1537.7 748.848 L1533.04 748.848 L1533.04 740.7 L1517.44 740.7 L1517.44 736.186 L1531.82 714.288 Z" fill="#000000" fill-rule="nonzero" fill-opacity="1" /><path clip-path="url(#clip840)" d="M1662.38 732.019 L1692.05 732.019 L1692.05 735.954 L1662.38 735.954 L1662.38 732.019 Z" fill="#000000" fill-rule="nonzero" fill-opacity="1" /><path clip-path="url(#clip840)" d="M1706.17 744.913 L1722.49 744.913 L1722.49 748.848 L1700.55 748.848 L1700.55 744.913 Q1703.21 742.158 1707.8 737.528 Q1712.4 732.876 1713.58 731.533 Q1715.83 729.01 1716.71 727.274 Q1717.61 725.515 1717.61 723.825 Q1717.61 721.07 1715.67 719.334 Q1713.74 717.598 1710.64 717.598 Q1708.44 717.598 1705.99 718.362 Q1703.56 719.126 1700.78 720.677 L1700.78 715.955 Q1703.61 714.82 1706.06 714.242 Q1708.51 713.663 1710.55 713.663 Q1715.92 713.663 1719.11 716.348 Q1722.31 719.033 1722.31 723.524 Q1722.31 725.654 1721.5 727.575 Q1720.71 729.473 1718.61 732.066 Q1718.03 732.737 1714.92 735.954 Q1711.82 739.149 1706.17 744.913 Z" fill="#000000" fill-rule="nonzero" fill-opacity="1" /><path clip-path="url(#clip840)" d="M1873.35 717.367 Q1869.73 717.367 1867.91 720.931 Q1866.1 724.473 1866.1 731.603 Q1866.1 738.709 1867.91 742.274 Q1869.73 745.815 1873.35 745.815 Q1876.98 745.815 1878.79 742.274 Q1880.61 738.709 1880.61 731.603 Q1880.61 724.473 1878.79 720.931 Q1876.98 717.367 1873.35 717.367 M1873.35 713.663 Q1879.16 713.663 1882.21 718.269 Q1885.29 722.853 1885.29 731.603 Q1885.29 740.329 1882.21 744.936 Q1879.16 749.519 1873.35 749.519 Q1867.54 749.519 1864.46 744.936 Q1861.4 740.329 1861.4 731.603 Q1861.4 722.853 1864.46 718.269 Q1867.54 713.663 1873.35 713.663 Z" fill="#000000" fill-rule="nonzero" fill-opacity="1" /><path clip-path="url(#clip840)" d="M2048.91 744.913 L2065.23 744.913 L2065.23 748.848 L2043.28 748.848 L2043.28 744.913 Q2045.95 742.158 2050.53 737.528 Q2055.13 732.876 2056.32 731.533 Q2058.56 729.01 2059.44 727.274 Q2060.34 725.515 2060.34 723.825 Q2060.34 721.07 2058.4 719.334 Q2056.48 717.598 2053.38 717.598 Q2051.18 717.598 2048.72 718.362 Q2046.29 719.126 2043.51 720.677 L2043.51 715.955 Q2046.34 714.82 2048.79 714.242 Q2051.25 713.663 2053.28 713.663 Q2058.65 713.663 2061.85 716.348 Q2065.04 719.033 2065.04 723.524 Q2065.04 725.654 2064.23 727.575 Q2063.45 729.473 2061.34 732.066 Q2060.76 732.737 2057.66 735.954 Q2054.56 739.149 2048.91 744.913 Z" fill="#000000" fill-rule="nonzero" fill-opacity="1" /><path clip-path="url(#clip840)" d="M2238.17 718.362 L2226.37 736.811 L2238.17 736.811 L2238.17 718.362 M2236.95 714.288 L2242.83 714.288 L2242.83 736.811 L2247.76 736.811 L2247.76 740.7 L2242.83 740.7 L2242.83 748.848 L2238.17 748.848 L2238.17 740.7 L2222.57 740.7 L2222.57 736.186 L2236.95 714.288 Z" fill="#000000" fill-rule="nonzero" fill-opacity="1" /><polyline clip-path="url(#clip840)" style="stroke:#000000; stroke-linecap:round; stroke-linejoin:round; stroke-width:4; stroke-opacity:1; fill:none" points="1393.94,686.448 1393.94,47.2441 "/>
<polyline clip-path="url(#clip840)" style="stroke:#000000; stroke-linecap:round; stroke-linejoin:round; stroke-width:4; stroke-opacity:1; fill:none" points="1393.94,668.363 1412.83,668.363 "/>
<polyline clip-path="url(#clip840)" style="stroke:#000000; stroke-linecap:round; stroke-linejoin:round; stroke-width:4; stroke-opacity:1; fill:none" points="1393.94,517.586 1412.83,517.586 "/>
<polyline clip-path="url(#clip840)" style="stroke:#000000; stroke-linecap:round; stroke-linejoin:round; stroke-width:4; stroke-opacity:1; fill:none" points="1393.94,366.81 1412.83,366.81 "/>
<polyline clip-path="url(#clip840)" style="stroke:#000000; stroke-linecap:round; stroke-linejoin:round; stroke-width:4; stroke-opacity:1; fill:none" points="1393.94,216.034 1412.83,216.034 "/>
<polyline clip-path="url(#clip840)" style="stroke:#000000; stroke-linecap:round; stroke-linejoin:round; stroke-width:4; stroke-opacity:1; fill:none" points="1393.94,65.2572 1412.83,65.2572 "/>
<path clip-path="url(#clip840)" d="M1250.99 668.814 L1280.67 668.814 L1280.67 672.749 L1250.99 672.749 L1250.99 668.814 Z" fill="#000000" fill-rule="nonzero" fill-opacity="1" /><path clip-path="url(#clip840)" d="M1291.57 681.708 L1299.21 681.708 L1299.21 655.342 L1290.9 657.009 L1290.9 652.75 L1299.16 651.083 L1303.84 651.083 L1303.84 681.708 L1311.48 681.708 L1311.48 685.643 L1291.57 685.643 L1291.57 681.708 Z" fill="#000000" fill-rule="nonzero" fill-opacity="1" /><path clip-path="url(#clip840)" d="M1320.92 679.763 L1325.81 679.763 L1325.81 685.643 L1320.92 685.643 L1320.92 679.763 Z" fill="#000000" fill-rule="nonzero" fill-opacity="1" /><path clip-path="url(#clip840)" d="M1345.99 654.162 Q1342.38 654.162 1340.55 657.726 Q1338.75 661.268 1338.75 668.398 Q1338.75 675.504 1340.55 679.069 Q1342.38 682.61 1345.99 682.61 Q1349.63 682.61 1351.43 679.069 Q1353.26 675.504 1353.26 668.398 Q1353.26 661.268 1351.43 657.726 Q1349.63 654.162 1345.99 654.162 M1345.99 650.458 Q1351.8 650.458 1354.86 655.064 Q1357.94 659.648 1357.94 668.398 Q1357.94 677.124 1354.86 681.731 Q1351.8 686.314 1345.99 686.314 Q1340.18 686.314 1337.1 681.731 Q1334.05 677.124 1334.05 668.398 Q1334.05 659.648 1337.1 655.064 Q1340.18 650.458 1345.99 650.458 Z" fill="#000000" fill-rule="nonzero" fill-opacity="1" /><path clip-path="url(#clip840)" d="M1251.99 518.038 L1281.66 518.038 L1281.66 521.973 L1251.99 521.973 L1251.99 518.038 Z" fill="#000000" fill-rule="nonzero" fill-opacity="1" /><path clip-path="url(#clip840)" d="M1301.76 503.385 Q1298.14 503.385 1296.32 506.95 Q1294.51 510.492 1294.51 517.621 Q1294.51 524.728 1296.32 528.292 Q1298.14 531.834 1301.76 531.834 Q1305.39 531.834 1307.2 528.292 Q1309.02 524.728 1309.02 517.621 Q1309.02 510.492 1307.2 506.95 Q1305.39 503.385 1301.76 503.385 M1301.76 499.681 Q1307.57 499.681 1310.62 504.288 Q1313.7 508.871 1313.7 517.621 Q1313.7 526.348 1310.62 530.954 Q1307.57 535.538 1301.76 535.538 Q1295.95 535.538 1292.87 530.954 Q1289.81 526.348 1289.81 517.621 Q1289.81 508.871 1292.87 504.288 Q1295.95 499.681 1301.76 499.681 Z" fill="#000000" fill-rule="nonzero" fill-opacity="1" /><path clip-path="url(#clip840)" d="M1321.92 528.987 L1326.8 528.987 L1326.8 534.866 L1321.92 534.866 L1321.92 528.987 Z" fill="#000000" fill-rule="nonzero" fill-opacity="1" /><path clip-path="url(#clip840)" d="M1337.03 500.306 L1355.39 500.306 L1355.39 504.242 L1341.32 504.242 L1341.32 512.714 Q1342.33 512.367 1343.35 512.205 Q1344.37 512.019 1345.39 512.019 Q1351.18 512.019 1354.56 515.191 Q1357.94 518.362 1357.94 523.779 Q1357.94 529.357 1354.46 532.459 Q1350.99 535.538 1344.67 535.538 Q1342.5 535.538 1340.23 535.167 Q1337.98 534.797 1335.58 534.056 L1335.58 529.357 Q1337.66 530.491 1339.88 531.047 Q1342.1 531.603 1344.58 531.603 Q1348.58 531.603 1350.92 529.496 Q1353.26 527.39 1353.26 523.779 Q1353.26 520.167 1350.92 518.061 Q1348.58 515.955 1344.58 515.955 Q1342.7 515.955 1340.83 516.371 Q1338.98 516.788 1337.03 517.667 L1337.03 500.306 Z" fill="#000000" fill-rule="nonzero" fill-opacity="1" /><path clip-path="url(#clip840)" d="M1300.76 352.609 Q1297.15 352.609 1295.32 356.174 Q1293.52 359.715 1293.52 366.845 Q1293.52 373.951 1295.32 377.516 Q1297.15 381.058 1300.76 381.058 Q1304.39 381.058 1306.2 377.516 Q1308.03 373.951 1308.03 366.845 Q1308.03 359.715 1306.2 356.174 Q1304.39 352.609 1300.76 352.609 M1300.76 348.905 Q1306.57 348.905 1309.63 353.511 Q1312.7 358.095 1312.7 366.845 Q1312.7 375.572 1309.63 380.178 Q1306.57 384.761 1300.76 384.761 Q1294.95 384.761 1291.87 380.178 Q1288.82 375.572 1288.82 366.845 Q1288.82 358.095 1291.87 353.511 Q1294.95 348.905 1300.76 348.905 Z" fill="#000000" fill-rule="nonzero" fill-opacity="1" /><path clip-path="url(#clip840)" d="M1320.92 378.21 L1325.81 378.21 L1325.81 384.09 L1320.92 384.09 L1320.92 378.21 Z" fill="#000000" fill-rule="nonzero" fill-opacity="1" /><path clip-path="url(#clip840)" d="M1345.99 352.609 Q1342.38 352.609 1340.55 356.174 Q1338.75 359.715 1338.75 366.845 Q1338.75 373.951 1340.55 377.516 Q1342.38 381.058 1345.99 381.058 Q1349.63 381.058 1351.43 377.516 Q1353.26 373.951 1353.26 366.845 Q1353.26 359.715 1351.43 356.174 Q1349.63 352.609 1345.99 352.609 M1345.99 348.905 Q1351.8 348.905 1354.86 353.511 Q1357.94 358.095 1357.94 366.845 Q1357.94 375.572 1354.86 380.178 Q1351.8 384.761 1345.99 384.761 Q1340.18 384.761 1337.1 380.178 Q1334.05 375.572 1334.05 366.845 Q1334.05 358.095 1337.1 353.511 Q1340.18 348.905 1345.99 348.905 Z" fill="#000000" fill-rule="nonzero" fill-opacity="1" /><path clip-path="url(#clip840)" d="M1301.76 201.832 Q1298.14 201.832 1296.32 205.397 Q1294.51 208.939 1294.51 216.068 Q1294.51 223.175 1296.32 226.74 Q1298.14 230.281 1301.76 230.281 Q1305.39 230.281 1307.2 226.74 Q1309.02 223.175 1309.02 216.068 Q1309.02 208.939 1307.2 205.397 Q1305.39 201.832 1301.76 201.832 M1301.76 198.129 Q1307.57 198.129 1310.62 202.735 Q1313.7 207.318 1313.7 216.068 Q1313.7 224.795 1310.62 229.402 Q1307.57 233.985 1301.76 233.985 Q1295.95 233.985 1292.87 229.402 Q1289.81 224.795 1289.81 216.068 Q1289.81 207.318 1292.87 202.735 Q1295.95 198.129 1301.76 198.129 Z" fill="#000000" fill-rule="nonzero" fill-opacity="1" /><path clip-path="url(#clip840)" d="M1321.92 227.434 L1326.8 227.434 L1326.8 233.314 L1321.92 233.314 L1321.92 227.434 Z" fill="#000000" fill-rule="nonzero" fill-opacity="1" /><path clip-path="url(#clip840)" d="M1337.03 198.754 L1355.39 198.754 L1355.39 202.689 L1341.32 202.689 L1341.32 211.161 Q1342.33 210.814 1343.35 210.652 Q1344.37 210.467 1345.39 210.467 Q1351.18 210.467 1354.56 213.638 Q1357.94 216.809 1357.94 222.226 Q1357.94 227.804 1354.46 230.906 Q1350.99 233.985 1344.67 233.985 Q1342.5 233.985 1340.23 233.615 Q1337.98 233.244 1335.58 232.503 L1335.58 227.804 Q1337.66 228.939 1339.88 229.494 Q1342.1 230.05 1344.58 230.05 Q1348.58 230.05 1350.92 227.943 Q1353.26 225.837 1353.26 222.226 Q1353.26 218.615 1350.92 216.508 Q1348.58 214.402 1344.58 214.402 Q1342.7 214.402 1340.83 214.818 Q1338.98 215.235 1337.03 216.115 L1337.03 198.754 Z" fill="#000000" fill-rule="nonzero" fill-opacity="1" /><path clip-path="url(#clip840)" d="M1291.57 78.602 L1299.21 78.602 L1299.21 52.2364 L1290.9 53.9031 L1290.9 49.6439 L1299.16 47.9772 L1303.84 47.9772 L1303.84 78.602 L1311.48 78.602 L1311.48 82.5372 L1291.57 82.5372 L1291.57 78.602 Z" fill="#000000" fill-rule="nonzero" fill-opacity="1" /><path clip-path="url(#clip840)" d="M1320.92 76.6576 L1325.81 76.6576 L1325.81 82.5372 L1320.92 82.5372 L1320.92 76.6576 Z" fill="#000000" fill-rule="nonzero" fill-opacity="1" /><path clip-path="url(#clip840)" d="M1345.99 51.0559 Q1342.38 51.0559 1340.55 54.6207 Q1338.75 58.1623 1338.75 65.2919 Q1338.75 72.3984 1340.55 75.9632 Q1342.38 79.5048 1345.99 79.5048 Q1349.63 79.5048 1351.43 75.9632 Q1353.26 72.3984 1353.26 65.2919 Q1353.26 58.1623 1351.43 54.6207 Q1349.63 51.0559 1345.99 51.0559 M1345.99 47.3522 Q1351.8 47.3522 1354.86 51.9587 Q1357.94 56.542 1357.94 65.2919 Q1357.94 74.0187 1354.86 78.6252 Q1351.8 83.2085 1345.99 83.2085 Q1340.18 83.2085 1337.1 78.6252 Q1334.05 74.0187 1334.05 65.2919 Q1334.05 56.542 1337.1 51.9587 Q1340.18 47.3522 1345.99 47.3522 Z" fill="#000000" fill-rule="nonzero" fill-opacity="1" /><polyline clip-path="url(#clip843)" style="stroke:#009af9; stroke-linecap:round; stroke-linejoin:round; stroke-width:4; stroke-opacity:1; fill:none" points="1421.07,281.271 1423.41,288.762 1425.74,296.305 1428.08,303.894 1430.41,311.526 1444.08,356.797 1457.76,402.296 1471.43,446.986 1485.1,489.847 1491.46,508.887 1497.83,527.225 1504.19,544.77 1510.55,561.435 1514.81,572.07 1519.07,582.25 1523.34,591.951 1527.6,601.152 1531.86,609.832 1536.13,617.973 1540.39,625.557 1544.65,632.565 1548.17,637.912 1551.7,642.848 1555.22,647.365 1558.74,651.456 1562.26,655.116 1565.79,658.339 1569.31,661.12 1572.83,663.454 1576.11,665.222 1579.38,666.598 1582.66,667.581 1585.93,668.169 1592.48,668.161 1599.04,666.572 1603.15,664.772 1607.26,662.355 1611.37,659.328 1615.48,655.697 1619.6,651.468 1623.71,646.652 1627.82,641.257 1631.93,635.296 1635.62,629.475 1639.31,623.219 1643,616.536 1646.69,609.437 1650.37,601.936 1654.06,594.043 1657.75,585.773 1661.44,577.139 1665.66,566.827 1669.88,556.08 1674.11,544.921 1678.33,533.373 1686.77,509.216 1695.22,483.819 1707.84,444.02 1720.46,402.72 1736.61,348.99 1752.75,295.826 1760.12,272.214 1767.49,249.23 1774.86,227.025 1782.23,205.747 1786.42,194.107 1790.61,182.838 1794.81,171.964 1799,161.509 1803.19,151.494 1807.39,141.943 1811.58,132.874 1815.77,124.308 1822.42,111.802 1829.07,100.672 1835.71,90.9793 1842.36,82.7757 1846.49,78.4493 1850.62,74.7239 1854.75,71.607 1858.88,69.1053 1863.01,67.224 1867.14,65.9669 1871.27,65.3367 1875.4,65.3348 1881.72,66.5493 1888.05,69.2314 1894.37,73.3679 1900.7,78.9386 1905.16,83.7129 1909.62,89.1749 1914.07,95.3113 1918.53,102.107 1922.99,109.546 1927.45,117.61 1931.91,126.279 1936.37,135.533 1943.03,150.403 1949.69,166.447 1956.36,183.578 1963.02,201.703 1970.6,223.398 1978.18,246.099 1985.76,269.646 1993.34,293.876 2008.35,343.209 2023.36,393.191 2031.61,420.464 2039.87,447.29 2048.13,473.446 2056.38,498.715 2062.69,517.286 2069,535.126 2075.3,552.149 2081.61,568.27 2085.59,577.944 2089.57,587.208 2093.55,596.046 2097.53,604.441 2101.51,612.375 2105.49,619.835 2109.47,626.805 2113.45,633.272 2117.13,638.794 2120.81,643.866 2124.49,648.48 2128.17,652.627 2131.85,656.301 2135.53,659.496 2139.21,662.207 2142.89,664.428 2146.68,666.203 2150.48,667.451 2154.28,668.169 2158.07,668.357 2161.87,668.014 2165.66,667.141 2169.46,665.739 2173.26,663.81 2177.1,661.322 2180.95,658.301 2184.8,654.753 2188.65,650.683 2192.49,646.101 2196.34,641.013 2200.19,635.429 2204.04,629.359 2208.05,622.514 2212.07,615.165 2216.09,607.326 2220.11,599.013 2228.14,581.029 2236.18,561.357 2242.5,544.772 2248.83,527.315 2255.16,509.074 2261.49,490.135 2268.7,467.842 2275.91,444.907 2283.11,421.476 2290.32,397.699 2304.74,349.709 2319.15,302.152 2320.77,296.896 2322.39,291.663 2324,286.454 2325.62,281.271 "/>
<path clip-path="url(#clip840)" d="M193.936 1486.45 L1152.76 1486.45 L1152.76 847.244 L193.936 847.244  Z" fill="#ffffff" fill-rule="evenodd" fill-opacity="1"/>
<defs>
  <clipPath id="clip844">
    <rect x="193" y="847" width="960" height="640"/>
  </clipPath>
</defs>
<polyline clip-path="url(#clip844)" style="stroke:#000000; stroke-linecap:round; stroke-linejoin:round; stroke-width:2; stroke-opacity:0.1; fill:none" points="311.527,1486.45 311.527,847.244 "/>
<polyline clip-path="url(#clip844)" style="stroke:#000000; stroke-linecap:round; stroke-linejoin:round; stroke-width:2; stroke-opacity:0.1; fill:none" points="492.437,1486.45 492.437,847.244 "/>
<polyline clip-path="url(#clip844)" style="stroke:#000000; stroke-linecap:round; stroke-linejoin:round; stroke-width:2; stroke-opacity:0.1; fill:none" points="673.346,1486.45 673.346,847.244 "/>
<polyline clip-path="url(#clip844)" style="stroke:#000000; stroke-linecap:round; stroke-linejoin:round; stroke-width:2; stroke-opacity:0.1; fill:none" points="854.255,1486.45 854.255,847.244 "/>
<polyline clip-path="url(#clip844)" style="stroke:#000000; stroke-linecap:round; stroke-linejoin:round; stroke-width:2; stroke-opacity:0.1; fill:none" points="1035.16,1486.45 1035.16,847.244 "/>
<polyline clip-path="url(#clip844)" style="stroke:#000000; stroke-linecap:round; stroke-linejoin:round; stroke-width:2; stroke-opacity:0.1; fill:none" points="193.936,1468.38 1152.76,1468.38 "/>
<polyline clip-path="url(#clip844)" style="stroke:#000000; stroke-linecap:round; stroke-linejoin:round; stroke-width:2; stroke-opacity:0.1; fill:none" points="193.936,1265.22 1152.76,1265.22 "/>
<polyline clip-path="url(#clip844)" style="stroke:#000000; stroke-linecap:round; stroke-linejoin:round; stroke-width:2; stroke-opacity:0.1; fill:none" points="193.936,1062.05 1152.76,1062.05 "/>
<polyline clip-path="url(#clip844)" style="stroke:#000000; stroke-linecap:round; stroke-linejoin:round; stroke-width:2; stroke-opacity:0.1; fill:none" points="193.936,858.887 1152.76,858.887 "/>
<polyline clip-path="url(#clip840)" style="stroke:#000000; stroke-linecap:round; stroke-linejoin:round; stroke-width:4; stroke-opacity:1; fill:none" points="193.936,1486.45 1152.76,1486.45 "/>
<polyline clip-path="url(#clip840)" style="stroke:#000000; stroke-linecap:round; stroke-linejoin:round; stroke-width:4; stroke-opacity:1; fill:none" points="311.527,1486.45 311.527,1467.55 "/>
<polyline clip-path="url(#clip840)" style="stroke:#000000; stroke-linecap:round; stroke-linejoin:round; stroke-width:4; stroke-opacity:1; fill:none" points="492.437,1486.45 492.437,1467.55 "/>
<polyline clip-path="url(#clip840)" style="stroke:#000000; stroke-linecap:round; stroke-linejoin:round; stroke-width:4; stroke-opacity:1; fill:none" points="673.346,1486.45 673.346,1467.55 "/>
<polyline clip-path="url(#clip840)" style="stroke:#000000; stroke-linecap:round; stroke-linejoin:round; stroke-width:4; stroke-opacity:1; fill:none" points="854.255,1486.45 854.255,1467.55 "/>
<polyline clip-path="url(#clip840)" style="stroke:#000000; stroke-linecap:round; stroke-linejoin:round; stroke-width:4; stroke-opacity:1; fill:none" points="1035.16,1486.45 1035.16,1467.55 "/>
<path clip-path="url(#clip840)" d="M280.428 1532.02 L310.104 1532.02 L310.104 1535.95 L280.428 1535.95 L280.428 1532.02 Z" fill="#000000" fill-rule="nonzero" fill-opacity="1" /><path clip-path="url(#clip840)" d="M333.043 1518.36 L321.238 1536.81 L333.043 1536.81 L333.043 1518.36 M331.816 1514.29 L337.696 1514.29 L337.696 1536.81 L342.626 1536.81 L342.626 1540.7 L337.696 1540.7 L337.696 1548.85 L333.043 1548.85 L333.043 1540.7 L317.441 1540.7 L317.441 1536.19 L331.816 1514.29 Z" fill="#000000" fill-rule="nonzero" fill-opacity="1" /><path clip-path="url(#clip840)" d="M462.379 1532.02 L492.055 1532.02 L492.055 1535.95 L462.379 1535.95 L462.379 1532.02 Z" fill="#000000" fill-rule="nonzero" fill-opacity="1" /><path clip-path="url(#clip840)" d="M506.175 1544.91 L522.494 1544.91 L522.494 1548.85 L500.55 1548.85 L500.55 1544.91 Q503.212 1542.16 507.795 1537.53 Q512.402 1532.88 513.582 1531.53 Q515.828 1529.01 516.707 1527.27 Q517.61 1525.51 517.61 1523.82 Q517.61 1521.07 515.666 1519.33 Q513.744 1517.6 510.642 1517.6 Q508.443 1517.6 505.99 1518.36 Q503.559 1519.13 500.781 1520.68 L500.781 1515.95 Q503.605 1514.82 506.059 1514.24 Q508.513 1513.66 510.55 1513.66 Q515.92 1513.66 519.115 1516.35 Q522.309 1519.03 522.309 1523.52 Q522.309 1525.65 521.499 1527.57 Q520.712 1529.47 518.605 1532.07 Q518.027 1532.74 514.925 1535.95 Q511.823 1539.15 506.175 1544.91 Z" fill="#000000" fill-rule="nonzero" fill-opacity="1" /><path clip-path="url(#clip840)" d="M673.346 1517.37 Q669.735 1517.37 667.906 1520.93 Q666.101 1524.47 666.101 1531.6 Q666.101 1538.71 667.906 1542.27 Q669.735 1545.82 673.346 1545.82 Q676.98 1545.82 678.786 1542.27 Q680.614 1538.71 680.614 1531.6 Q680.614 1524.47 678.786 1520.93 Q676.98 1517.37 673.346 1517.37 M673.346 1513.66 Q679.156 1513.66 682.212 1518.27 Q685.29 1522.85 685.29 1531.6 Q685.29 1540.33 682.212 1544.94 Q679.156 1549.52 673.346 1549.52 Q667.536 1549.52 664.457 1544.94 Q661.402 1540.33 661.402 1531.6 Q661.402 1522.85 664.457 1518.27 Q667.536 1513.66 673.346 1513.66 Z" fill="#000000" fill-rule="nonzero" fill-opacity="1" /><path clip-path="url(#clip840)" d="M848.908 1544.91 L865.228 1544.91 L865.228 1548.85 L843.283 1548.85 L843.283 1544.91 Q845.945 1542.16 850.529 1537.53 Q855.135 1532.88 856.316 1531.53 Q858.561 1529.01 859.441 1527.27 Q860.343 1525.51 860.343 1523.82 Q860.343 1521.07 858.399 1519.33 Q856.478 1517.6 853.376 1517.6 Q851.177 1517.6 848.723 1518.36 Q846.292 1519.13 843.515 1520.68 L843.515 1515.95 Q846.339 1514.82 848.792 1514.24 Q851.246 1513.66 853.283 1513.66 Q858.653 1513.66 861.848 1516.35 Q865.042 1519.03 865.042 1523.52 Q865.042 1525.65 864.232 1527.57 Q863.445 1529.47 861.339 1532.07 Q860.76 1532.74 857.658 1535.95 Q854.556 1539.15 848.908 1544.91 Z" fill="#000000" fill-rule="nonzero" fill-opacity="1" /><path clip-path="url(#clip840)" d="M1038.17 1518.36 L1026.37 1536.81 L1038.17 1536.81 L1038.17 1518.36 M1036.95 1514.29 L1042.83 1514.29 L1042.83 1536.81 L1047.76 1536.81 L1047.76 1540.7 L1042.83 1540.7 L1042.83 1548.85 L1038.17 1548.85 L1038.17 1540.7 L1022.57 1540.7 L1022.57 1536.19 L1036.95 1514.29 Z" fill="#000000" fill-rule="nonzero" fill-opacity="1" /><polyline clip-path="url(#clip840)" style="stroke:#000000; stroke-linecap:round; stroke-linejoin:round; stroke-width:4; stroke-opacity:1; fill:none" points="193.936,1486.45 193.936,847.244 "/>
<polyline clip-path="url(#clip840)" style="stroke:#000000; stroke-linecap:round; stroke-linejoin:round; stroke-width:4; stroke-opacity:1; fill:none" points="193.936,1468.38 212.834,1468.38 "/>
<polyline clip-path="url(#clip840)" style="stroke:#000000; stroke-linecap:round; stroke-linejoin:round; stroke-width:4; stroke-opacity:1; fill:none" points="193.936,1265.22 212.834,1265.22 "/>
<polyline clip-path="url(#clip840)" style="stroke:#000000; stroke-linecap:round; stroke-linejoin:round; stroke-width:4; stroke-opacity:1; fill:none" points="193.936,1062.05 212.834,1062.05 "/>
<polyline clip-path="url(#clip840)" style="stroke:#000000; stroke-linecap:round; stroke-linejoin:round; stroke-width:4; stroke-opacity:1; fill:none" points="193.936,858.887 212.834,858.887 "/>
<path clip-path="url(#clip840)" d="M145.992 1454.18 Q142.381 1454.18 140.552 1457.75 Q138.746 1461.29 138.746 1468.42 Q138.746 1475.53 140.552 1479.09 Q142.381 1482.63 145.992 1482.63 Q149.626 1482.63 151.431 1479.09 Q153.26 1475.53 153.26 1468.42 Q153.26 1461.29 151.431 1457.75 Q149.626 1454.18 145.992 1454.18 M145.992 1450.48 Q151.802 1450.48 154.857 1455.09 Q157.936 1459.67 157.936 1468.42 Q157.936 1477.15 154.857 1481.75 Q151.802 1486.34 145.992 1486.34 Q140.181 1486.34 137.103 1481.75 Q134.047 1477.15 134.047 1468.42 Q134.047 1459.67 137.103 1455.09 Q140.181 1450.48 145.992 1450.48 Z" fill="#000000" fill-rule="nonzero" fill-opacity="1" /><path clip-path="url(#clip840)" d="M105.876 1247.94 L124.232 1247.94 L124.232 1251.87 L110.158 1251.87 L110.158 1260.35 Q111.177 1260 112.196 1259.84 Q113.214 1259.65 114.233 1259.65 Q120.02 1259.65 123.399 1262.82 Q126.779 1265.99 126.779 1271.41 Q126.779 1276.99 123.307 1280.09 Q119.834 1283.17 113.515 1283.17 Q111.339 1283.17 109.071 1282.8 Q106.825 1282.43 104.418 1281.69 L104.418 1276.99 Q106.501 1278.12 108.723 1278.68 Q110.946 1279.23 113.422 1279.23 Q117.427 1279.23 119.765 1277.13 Q122.103 1275.02 122.103 1271.41 Q122.103 1267.8 119.765 1265.69 Q117.427 1263.59 113.422 1263.59 Q111.547 1263.59 109.672 1264 Q107.821 1264.42 105.876 1265.3 L105.876 1247.94 Z" fill="#000000" fill-rule="nonzero" fill-opacity="1" /><path clip-path="url(#clip840)" d="M145.992 1251.02 Q142.381 1251.02 140.552 1254.58 Q138.746 1258.12 138.746 1265.25 Q138.746 1272.36 140.552 1275.92 Q142.381 1279.47 145.992 1279.47 Q149.626 1279.47 151.431 1275.92 Q153.26 1272.36 153.26 1265.25 Q153.26 1258.12 151.431 1254.58 Q149.626 1251.02 145.992 1251.02 M145.992 1247.31 Q151.802 1247.31 154.857 1251.92 Q157.936 1256.5 157.936 1265.25 Q157.936 1273.98 154.857 1278.59 Q151.802 1283.17 145.992 1283.17 Q140.181 1283.17 137.103 1278.59 Q134.047 1273.98 134.047 1265.25 Q134.047 1256.5 137.103 1251.92 Q140.181 1247.31 145.992 1247.31 Z" fill="#000000" fill-rule="nonzero" fill-opacity="1" /><path clip-path="url(#clip840)" d="M76.4781 1075.4 L84.1169 1075.4 L84.1169 1049.03 L75.8068 1050.7 L75.8068 1046.44 L84.0707 1044.77 L88.7466 1044.77 L88.7466 1075.4 L96.3854 1075.4 L96.3854 1079.33 L76.4781 1079.33 L76.4781 1075.4 Z" fill="#000000" fill-rule="nonzero" fill-opacity="1" /><path clip-path="url(#clip840)" d="M115.83 1047.85 Q112.219 1047.85 110.39 1051.42 Q108.584 1054.96 108.584 1062.09 Q108.584 1069.19 110.39 1072.76 Q112.219 1076.3 115.83 1076.3 Q119.464 1076.3 121.27 1072.76 Q123.098 1069.19 123.098 1062.09 Q123.098 1054.96 121.27 1051.42 Q119.464 1047.85 115.83 1047.85 M115.83 1044.15 Q121.64 1044.15 124.695 1048.75 Q127.774 1053.34 127.774 1062.09 Q127.774 1070.81 124.695 1075.42 Q121.64 1080 115.83 1080 Q110.02 1080 106.941 1075.42 Q103.885 1070.81 103.885 1062.09 Q103.885 1053.34 106.941 1048.75 Q110.02 1044.15 115.83 1044.15 Z" fill="#000000" fill-rule="nonzero" fill-opacity="1" /><path clip-path="url(#clip840)" d="M145.992 1047.85 Q142.381 1047.85 140.552 1051.42 Q138.746 1054.96 138.746 1062.09 Q138.746 1069.19 140.552 1072.76 Q142.381 1076.3 145.992 1076.3 Q149.626 1076.3 151.431 1072.76 Q153.26 1069.19 153.26 1062.09 Q153.26 1054.96 151.431 1051.42 Q149.626 1047.85 145.992 1047.85 M145.992 1044.15 Q151.802 1044.15 154.857 1048.75 Q157.936 1053.34 157.936 1062.09 Q157.936 1070.81 154.857 1075.42 Q151.802 1080 145.992 1080 Q140.181 1080 137.103 1075.42 Q134.047 1070.81 134.047 1062.09 Q134.047 1053.34 137.103 1048.75 Q140.181 1044.15 145.992 1044.15 Z" fill="#000000" fill-rule="nonzero" fill-opacity="1" /><path clip-path="url(#clip840)" d="M76.4781 872.232 L84.1169 872.232 L84.1169 845.866 L75.8068 847.533 L75.8068 843.274 L84.0707 841.607 L88.7466 841.607 L88.7466 872.232 L96.3854 872.232 L96.3854 876.167 L76.4781 876.167 L76.4781 872.232 Z" fill="#000000" fill-rule="nonzero" fill-opacity="1" /><path clip-path="url(#clip840)" d="M105.876 841.607 L124.232 841.607 L124.232 845.542 L110.158 845.542 L110.158 854.014 Q111.177 853.667 112.196 853.505 Q113.214 853.32 114.233 853.32 Q120.02 853.32 123.399 856.491 Q126.779 859.662 126.779 865.079 Q126.779 870.658 123.307 873.76 Q119.834 876.838 113.515 876.838 Q111.339 876.838 109.071 876.468 Q106.825 876.097 104.418 875.357 L104.418 870.658 Q106.501 871.792 108.723 872.348 Q110.946 872.903 113.422 872.903 Q117.427 872.903 119.765 870.797 Q122.103 868.69 122.103 865.079 Q122.103 861.468 119.765 859.361 Q117.427 857.255 113.422 857.255 Q111.547 857.255 109.672 857.672 Q107.821 858.088 105.876 858.968 L105.876 841.607 Z" fill="#000000" fill-rule="nonzero" fill-opacity="1" /><path clip-path="url(#clip840)" d="M145.992 844.686 Q142.381 844.686 140.552 848.25 Q138.746 851.792 138.746 858.922 Q138.746 866.028 140.552 869.593 Q142.381 873.135 145.992 873.135 Q149.626 873.135 151.431 869.593 Q153.26 866.028 153.26 858.922 Q153.26 851.792 151.431 848.25 Q149.626 844.686 145.992 844.686 M145.992 840.982 Q151.802 840.982 154.857 845.588 Q157.936 850.172 157.936 858.922 Q157.936 867.648 154.857 872.255 Q151.802 876.838 145.992 876.838 Q140.181 876.838 137.103 872.255 Q134.047 867.648 134.047 858.922 Q134.047 850.172 137.103 845.588 Q140.181 840.982 145.992 840.982 Z" fill="#000000" fill-rule="nonzero" fill-opacity="1" /><polyline clip-path="url(#clip844)" style="stroke:#009af9; stroke-linecap:round; stroke-linejoin:round; stroke-width:4; stroke-opacity:1; fill:none" points="221.072,1468.36 230.411,1468.35 285.104,1468.33 310.548,1468.31 344.651,1468.28 372.831,1468.24 399.036,1468.19 431.932,1468.1 461.44,1467.99 495.215,1467.82 520.463,1467.63 552.754,1467.31 582.227,1466.9 615.771,1466.23 642.362,1465.5 675.398,1464.23 700.698,1462.89 736.367,1460.23 763.022,1457.43 778.179,1455.44 793.335,1453.07 808.345,1450.31 823.355,1447.05 839.869,1442.78 856.383,1437.65 868.997,1433.05 881.61,1427.76 897.528,1419.94 913.445,1410.62 920.806,1405.72 928.167,1400.41 935.528,1394.65 942.889,1388.4 950.481,1381.39 958.072,1373.78 965.664,1365.5 973.255,1356.49 980.95,1346.55 988.645,1335.73 996.34,1323.96 1004.04,1311.13 1012.07,1296.52 1020.11,1280.56 1024.12,1272.03 1028.14,1263.11 1032.16,1253.79 1036.18,1244.04 1042.5,1227.78 1048.83,1210.34 1052,1201.16 1055.16,1191.64 1058.33,1181.79 1061.49,1171.58 1065.1,1159.52 1068.7,1146.97 1072.3,1133.9 1075.91,1120.31 1079.51,1106.16 1083.11,1091.44 1086.72,1076.12 1090.32,1060.18 1093.93,1043.59 1097.53,1026.32 1101.13,1008.35 1104.74,989.658 1108.34,970.201 1111.94,949.954 1115.55,928.883 1119.15,906.956 1120.77,896.828 1122.39,886.518 1124,876.021 1125.62,865.335 "/>
<path clip-path="url(#clip840)" d="M1393.94 1486.45 L2352.76 1486.45 L2352.76 847.244 L1393.94 847.244  Z" fill="#ffffff" fill-rule="evenodd" fill-opacity="1"/>
<defs>
  <clipPath id="clip845">
    <rect x="1393" y="847" width="960" height="640"/>
  </clipPath>
</defs>
<polyline clip-path="url(#clip845)" style="stroke:#000000; stroke-linecap:round; stroke-linejoin:round; stroke-width:2; stroke-opacity:0.1; fill:none" points="1511.53,1486.45 1511.53,847.244 "/>
<polyline clip-path="url(#clip845)" style="stroke:#000000; stroke-linecap:round; stroke-linejoin:round; stroke-width:2; stroke-opacity:0.1; fill:none" points="1692.44,1486.45 1692.44,847.244 "/>
<polyline clip-path="url(#clip845)" style="stroke:#000000; stroke-linecap:round; stroke-linejoin:round; stroke-width:2; stroke-opacity:0.1; fill:none" points="1873.35,1486.45 1873.35,847.244 "/>
<polyline clip-path="url(#clip845)" style="stroke:#000000; stroke-linecap:round; stroke-linejoin:round; stroke-width:2; stroke-opacity:0.1; fill:none" points="2054.26,1486.45 2054.26,847.244 "/>
<polyline clip-path="url(#clip845)" style="stroke:#000000; stroke-linecap:round; stroke-linejoin:round; stroke-width:2; stroke-opacity:0.1; fill:none" points="2235.16,1486.45 2235.16,847.244 "/>
<polyline clip-path="url(#clip845)" style="stroke:#000000; stroke-linecap:round; stroke-linejoin:round; stroke-width:2; stroke-opacity:0.1; fill:none" points="1393.94,1468.37 2352.76,1468.37 "/>
<polyline clip-path="url(#clip845)" style="stroke:#000000; stroke-linecap:round; stroke-linejoin:round; stroke-width:2; stroke-opacity:0.1; fill:none" points="1393.94,1347.77 2352.76,1347.77 "/>
<polyline clip-path="url(#clip845)" style="stroke:#000000; stroke-linecap:round; stroke-linejoin:round; stroke-width:2; stroke-opacity:0.1; fill:none" points="1393.94,1227.16 2352.76,1227.16 "/>
<polyline clip-path="url(#clip845)" style="stroke:#000000; stroke-linecap:round; stroke-linejoin:round; stroke-width:2; stroke-opacity:0.1; fill:none" points="1393.94,1106.55 2352.76,1106.55 "/>
<polyline clip-path="url(#clip845)" style="stroke:#000000; stroke-linecap:round; stroke-linejoin:round; stroke-width:2; stroke-opacity:0.1; fill:none" points="1393.94,985.943 2352.76,985.943 "/>
<polyline clip-path="url(#clip845)" style="stroke:#000000; stroke-linecap:round; stroke-linejoin:round; stroke-width:2; stroke-opacity:0.1; fill:none" points="1393.94,865.335 2352.76,865.335 "/>
<polyline clip-path="url(#clip840)" style="stroke:#000000; stroke-linecap:round; stroke-linejoin:round; stroke-width:4; stroke-opacity:1; fill:none" points="1393.94,1486.45 2352.76,1486.45 "/>
<polyline clip-path="url(#clip840)" style="stroke:#000000; stroke-linecap:round; stroke-linejoin:round; stroke-width:4; stroke-opacity:1; fill:none" points="1511.53,1486.45 1511.53,1467.55 "/>
<polyline clip-path="url(#clip840)" style="stroke:#000000; stroke-linecap:round; stroke-linejoin:round; stroke-width:4; stroke-opacity:1; fill:none" points="1692.44,1486.45 1692.44,1467.55 "/>
<polyline clip-path="url(#clip840)" style="stroke:#000000; stroke-linecap:round; stroke-linejoin:round; stroke-width:4; stroke-opacity:1; fill:none" points="1873.35,1486.45 1873.35,1467.55 "/>
<polyline clip-path="url(#clip840)" style="stroke:#000000; stroke-linecap:round; stroke-linejoin:round; stroke-width:4; stroke-opacity:1; fill:none" points="2054.26,1486.45 2054.26,1467.55 "/>
<polyline clip-path="url(#clip840)" style="stroke:#000000; stroke-linecap:round; stroke-linejoin:round; stroke-width:4; stroke-opacity:1; fill:none" points="2235.16,1486.45 2235.16,1467.55 "/>
<path clip-path="url(#clip840)" d="M1480.43 1532.02 L1510.1 1532.02 L1510.1 1535.95 L1480.43 1535.95 L1480.43 1532.02 Z" fill="#000000" fill-rule="nonzero" fill-opacity="1" /><path clip-path="url(#clip840)" d="M1533.04 1518.36 L1521.24 1536.81 L1533.04 1536.81 L1533.04 1518.36 M1531.82 1514.29 L1537.7 1514.29 L1537.7 1536.81 L1542.63 1536.81 L1542.63 1540.7 L1537.7 1540.7 L1537.7 1548.85 L1533.04 1548.85 L1533.04 1540.7 L1517.44 1540.7 L1517.44 1536.19 L1531.82 1514.29 Z" fill="#000000" fill-rule="nonzero" fill-opacity="1" /><path clip-path="url(#clip840)" d="M1662.38 1532.02 L1692.05 1532.02 L1692.05 1535.95 L1662.38 1535.95 L1662.38 1532.02 Z" fill="#000000" fill-rule="nonzero" fill-opacity="1" /><path clip-path="url(#clip840)" d="M1706.17 1544.91 L1722.49 1544.91 L1722.49 1548.85 L1700.55 1548.85 L1700.55 1544.91 Q1703.21 1542.16 1707.8 1537.53 Q1712.4 1532.88 1713.58 1531.53 Q1715.83 1529.01 1716.71 1527.27 Q1717.61 1525.51 1717.61 1523.82 Q1717.61 1521.07 1715.67 1519.33 Q1713.74 1517.6 1710.64 1517.6 Q1708.44 1517.6 1705.99 1518.36 Q1703.56 1519.13 1700.78 1520.68 L1700.78 1515.95 Q1703.61 1514.82 1706.06 1514.24 Q1708.51 1513.66 1710.55 1513.66 Q1715.92 1513.66 1719.11 1516.35 Q1722.31 1519.03 1722.31 1523.52 Q1722.31 1525.65 1721.5 1527.57 Q1720.71 1529.47 1718.61 1532.07 Q1718.03 1532.74 1714.92 1535.95 Q1711.82 1539.15 1706.17 1544.91 Z" fill="#000000" fill-rule="nonzero" fill-opacity="1" /><path clip-path="url(#clip840)" d="M1873.35 1517.37 Q1869.73 1517.37 1867.91 1520.93 Q1866.1 1524.47 1866.1 1531.6 Q1866.1 1538.71 1867.91 1542.27 Q1869.73 1545.82 1873.35 1545.82 Q1876.98 1545.82 1878.79 1542.27 Q1880.61 1538.71 1880.61 1531.6 Q1880.61 1524.47 1878.79 1520.93 Q1876.98 1517.37 1873.35 1517.37 M1873.35 1513.66 Q1879.16 1513.66 1882.21 1518.27 Q1885.29 1522.85 1885.29 1531.6 Q1885.29 1540.33 1882.21 1544.94 Q1879.16 1549.52 1873.35 1549.52 Q1867.54 1549.52 1864.46 1544.94 Q1861.4 1540.33 1861.4 1531.6 Q1861.4 1522.85 1864.46 1518.27 Q1867.54 1513.66 1873.35 1513.66 Z" fill="#000000" fill-rule="nonzero" fill-opacity="1" /><path clip-path="url(#clip840)" d="M2048.91 1544.91 L2065.23 1544.91 L2065.23 1548.85 L2043.28 1548.85 L2043.28 1544.91 Q2045.95 1542.16 2050.53 1537.53 Q2055.13 1532.88 2056.32 1531.53 Q2058.56 1529.01 2059.44 1527.27 Q2060.34 1525.51 2060.34 1523.82 Q2060.34 1521.07 2058.4 1519.33 Q2056.48 1517.6 2053.38 1517.6 Q2051.18 1517.6 2048.72 1518.36 Q2046.29 1519.13 2043.51 1520.68 L2043.51 1515.95 Q2046.34 1514.82 2048.79 1514.24 Q2051.25 1513.66 2053.28 1513.66 Q2058.65 1513.66 2061.85 1516.35 Q2065.04 1519.03 2065.04 1523.52 Q2065.04 1525.65 2064.23 1527.57 Q2063.45 1529.47 2061.34 1532.07 Q2060.76 1532.74 2057.66 1535.95 Q2054.56 1539.15 2048.91 1544.91 Z" fill="#000000" fill-rule="nonzero" fill-opacity="1" /><path clip-path="url(#clip840)" d="M2238.17 1518.36 L2226.37 1536.81 L2238.17 1536.81 L2238.17 1518.36 M2236.95 1514.29 L2242.83 1514.29 L2242.83 1536.81 L2247.76 1536.81 L2247.76 1540.7 L2242.83 1540.7 L2242.83 1548.85 L2238.17 1548.85 L2238.17 1540.7 L2222.57 1540.7 L2222.57 1536.19 L2236.95 1514.29 Z" fill="#000000" fill-rule="nonzero" fill-opacity="1" /><polyline clip-path="url(#clip840)" style="stroke:#000000; stroke-linecap:round; stroke-linejoin:round; stroke-width:4; stroke-opacity:1; fill:none" points="1393.94,1486.45 1393.94,847.244 "/>
<polyline clip-path="url(#clip840)" style="stroke:#000000; stroke-linecap:round; stroke-linejoin:round; stroke-width:4; stroke-opacity:1; fill:none" points="1393.94,1468.37 1412.83,1468.37 "/>
<polyline clip-path="url(#clip840)" style="stroke:#000000; stroke-linecap:round; stroke-linejoin:round; stroke-width:4; stroke-opacity:1; fill:none" points="1393.94,1347.77 1412.83,1347.77 "/>
<polyline clip-path="url(#clip840)" style="stroke:#000000; stroke-linecap:round; stroke-linejoin:round; stroke-width:4; stroke-opacity:1; fill:none" points="1393.94,1227.16 1412.83,1227.16 "/>
<polyline clip-path="url(#clip840)" style="stroke:#000000; stroke-linecap:round; stroke-linejoin:round; stroke-width:4; stroke-opacity:1; fill:none" points="1393.94,1106.55 1412.83,1106.55 "/>
<polyline clip-path="url(#clip840)" style="stroke:#000000; stroke-linecap:round; stroke-linejoin:round; stroke-width:4; stroke-opacity:1; fill:none" points="1393.94,985.943 1412.83,985.943 "/>
<polyline clip-path="url(#clip840)" style="stroke:#000000; stroke-linecap:round; stroke-linejoin:round; stroke-width:4; stroke-opacity:1; fill:none" points="1393.94,865.335 1412.83,865.335 "/>
<path clip-path="url(#clip840)" d="M1345.99 1454.17 Q1342.38 1454.17 1340.55 1457.74 Q1338.75 1461.28 1338.75 1468.41 Q1338.75 1475.52 1340.55 1479.08 Q1342.38 1482.62 1345.99 1482.62 Q1349.63 1482.62 1351.43 1479.08 Q1353.26 1475.52 1353.26 1468.41 Q1353.26 1461.28 1351.43 1457.74 Q1349.63 1454.17 1345.99 1454.17 M1345.99 1450.47 Q1351.8 1450.47 1354.86 1455.08 Q1357.94 1459.66 1357.94 1468.41 Q1357.94 1477.14 1354.86 1481.74 Q1351.8 1486.33 1345.99 1486.33 Q1340.18 1486.33 1337.1 1481.74 Q1334.05 1477.14 1334.05 1468.41 Q1334.05 1459.66 1337.1 1455.08 Q1340.18 1450.47 1345.99 1450.47 Z" fill="#000000" fill-rule="nonzero" fill-opacity="1" /><path clip-path="url(#clip840)" d="M1338.03 1361.11 L1345.67 1361.11 L1345.67 1334.75 L1337.36 1336.41 L1337.36 1332.15 L1345.62 1330.49 L1350.3 1330.49 L1350.3 1361.11 L1357.94 1361.11 L1357.94 1365.05 L1338.03 1365.05 L1338.03 1361.11 Z" fill="#000000" fill-rule="nonzero" fill-opacity="1" /><path clip-path="url(#clip840)" d="M1341.62 1240.5 L1357.94 1240.5 L1357.94 1244.44 L1335.99 1244.44 L1335.99 1240.5 Q1338.65 1237.75 1343.24 1233.12 Q1347.84 1228.47 1349.02 1227.12 Q1351.27 1224.6 1352.15 1222.86 Q1353.05 1221.11 1353.05 1219.42 Q1353.05 1216.66 1351.11 1214.92 Q1349.19 1213.19 1346.08 1213.19 Q1343.89 1213.19 1341.43 1213.95 Q1339 1214.72 1336.22 1216.27 L1336.22 1211.55 Q1339.05 1210.41 1341.5 1209.83 Q1343.95 1209.25 1345.99 1209.25 Q1351.36 1209.25 1354.56 1211.94 Q1357.75 1214.62 1357.75 1219.11 Q1357.75 1221.24 1356.94 1223.17 Q1356.15 1225.06 1354.05 1227.66 Q1353.47 1228.33 1350.37 1231.55 Q1347.26 1234.74 1341.62 1240.5 Z" fill="#000000" fill-rule="nonzero" fill-opacity="1" /><path clip-path="url(#clip840)" d="M1350.81 1105.2 Q1354.16 1105.91 1356.04 1108.18 Q1357.94 1110.45 1357.94 1113.78 Q1357.94 1118.9 1354.42 1121.7 Q1350.9 1124.5 1344.42 1124.5 Q1342.24 1124.5 1339.93 1124.06 Q1337.64 1123.65 1335.18 1122.79 L1335.18 1118.28 Q1337.13 1119.41 1339.44 1119.99 Q1341.76 1120.57 1344.28 1120.57 Q1348.68 1120.57 1350.97 1118.83 Q1353.28 1117.09 1353.28 1113.78 Q1353.28 1110.73 1351.13 1109.02 Q1349 1107.28 1345.18 1107.28 L1341.15 1107.28 L1341.15 1103.44 L1345.37 1103.44 Q1348.82 1103.44 1350.64 1102.07 Q1352.47 1100.68 1352.47 1098.09 Q1352.47 1095.43 1350.57 1094.02 Q1348.7 1092.58 1345.18 1092.58 Q1343.26 1092.58 1341.06 1093 Q1338.86 1093.41 1336.22 1094.29 L1336.22 1090.13 Q1338.89 1089.39 1341.2 1089.02 Q1343.54 1088.65 1345.6 1088.65 Q1350.92 1088.65 1354.02 1091.08 Q1357.13 1093.48 1357.13 1097.6 Q1357.13 1100.47 1355.48 1102.47 Q1353.84 1104.43 1350.81 1105.2 Z" fill="#000000" fill-rule="nonzero" fill-opacity="1" /><path clip-path="url(#clip840)" d="M1348.35 972.737 L1336.55 991.186 L1348.35 991.186 L1348.35 972.737 M1347.13 968.663 L1353.01 968.663 L1353.01 991.186 L1357.94 991.186 L1357.94 995.075 L1353.01 995.075 L1353.01 1003.22 L1348.35 1003.22 L1348.35 995.075 L1332.75 995.075 L1332.75 990.561 L1347.13 968.663 Z" fill="#000000" fill-rule="nonzero" fill-opacity="1" /><path clip-path="url(#clip840)" d="M1337.03 848.055 L1355.39 848.055 L1355.39 851.99 L1341.32 851.99 L1341.32 860.462 Q1342.33 860.115 1343.35 859.953 Q1344.37 859.768 1345.39 859.768 Q1351.18 859.768 1354.56 862.939 Q1357.94 866.11 1357.94 871.527 Q1357.94 877.106 1354.46 880.207 Q1350.99 883.286 1344.67 883.286 Q1342.5 883.286 1340.23 882.916 Q1337.98 882.545 1335.58 881.805 L1335.58 877.106 Q1337.66 878.24 1339.88 878.795 Q1342.1 879.351 1344.58 879.351 Q1348.58 879.351 1350.92 877.244 Q1353.26 875.138 1353.26 871.527 Q1353.26 867.916 1350.92 865.809 Q1348.58 863.703 1344.58 863.703 Q1342.7 863.703 1340.83 864.119 Q1338.98 864.536 1337.03 865.416 L1337.03 848.055 Z" fill="#000000" fill-rule="nonzero" fill-opacity="1" /><polyline clip-path="url(#clip845)" style="stroke:#009af9; stroke-linecap:round; stroke-linejoin:round; stroke-width:4; stroke-opacity:1; fill:none" points="1421.07,865.335 1430.41,877.786 1485.1,950.712 1510.55,984.637 1544.65,1030.11 1572.83,1067.68 1599.04,1102.62 1631.93,1146.48 1661.44,1185.83 1695.22,1230.86 1720.46,1264.53 1752.75,1307.58 1782.23,1346.88 1815.77,1391.61 1842.36,1427.06 1850.62,1438.07 1858.88,1449.09 1863.01,1454.59 1867.14,1460.1 1869.2,1462.85 1871.27,1465.6 1872.3,1466.98 1873.33,1468.36 1874.37,1467.02 1875.4,1465.64 1878.56,1461.42 1881.72,1457.21 1884.89,1452.99 1888.05,1448.77 1894.37,1440.34 1900.7,1431.91 1936.37,1384.35 1963.02,1348.8 1993.34,1308.39 2023.36,1268.36 2056.38,1224.32 2081.61,1190.68 2113.45,1148.24 2142.89,1108.98 2173.26,1068.49 2204.04,1027.45 2236.18,984.596 2261.49,950.838 2319.15,873.96 2325.62,865.335 "/>
</svg>
