<?xml version="1.0" encoding="utf-8"?>
<svg xmlns="http://www.w3.org/2000/svg" xmlns:xlink="http://www.w3.org/1999/xlink" width="600" height="400" viewBox="0 0 2400 1600">
<defs>
  <clipPath id="clip780">
    <rect x="0" y="0" width="2400" height="1600"/>
  </clipPath>
</defs>
<path clip-path="url(#clip780)" d="M0 1600 L2400 1600 L2400 0 L0 0  Z" fill="#ffffff" fill-rule="evenodd" fill-opacity="1"/>
<defs>
  <clipPath id="clip781">
    <rect x="480" y="0" width="1681" height="1600"/>
  </clipPath>
</defs>
<path clip-path="url(#clip780)" d="M172.015 1486.45 L2352.76 1486.45 L2352.76 47.2441 L172.015 47.2441  Z" fill="#ffffff" fill-rule="evenodd" fill-opacity="1"/>
<defs>
  <clipPath id="clip782">
    <rect x="172" y="47" width="2182" height="1440"/>
  </clipPath>
</defs>
<polyline clip-path="url(#clip782)" style="stroke:#000000; stroke-linecap:round; stroke-linejoin:round; stroke-width:2; stroke-opacity:0.1; fill:none" points="243.438,1486.45 243.438,47.2441 "/>
<polyline clip-path="url(#clip782)" style="stroke:#000000; stroke-linecap:round; stroke-linejoin:round; stroke-width:2; stroke-opacity:0.1; fill:none" points="728.651,1486.45 728.651,47.2441 "/>
<polyline clip-path="url(#clip782)" style="stroke:#000000; stroke-linecap:round; stroke-linejoin:round; stroke-width:2; stroke-opacity:0.1; fill:none" points="1213.86,1486.45 1213.86,47.2441 "/>
<polyline clip-path="url(#clip782)" style="stroke:#000000; stroke-linecap:round; stroke-linejoin:round; stroke-width:2; stroke-opacity:0.1; fill:none" points="1699.08,1486.45 1699.08,47.2441 "/>
<polyline clip-path="url(#clip782)" style="stroke:#000000; stroke-linecap:round; stroke-linejoin:round; stroke-width:2; stroke-opacity:0.1; fill:none" points="2184.29,1486.45 2184.29,47.2441 "/>
<polyline clip-path="url(#clip782)" style="stroke:#000000; stroke-linecap:round; stroke-linejoin:round; stroke-width:2; stroke-opacity:0.1; fill:none" points="172.015,1486.45 2352.76,1486.45 "/>
<polyline clip-path="url(#clip782)" style="stroke:#000000; stroke-linecap:round; stroke-linejoin:round; stroke-width:2; stroke-opacity:0.1; fill:none" points="172.015,1132.4 2352.76,1132.4 "/>
<polyline clip-path="url(#clip782)" style="stroke:#000000; stroke-linecap:round; stroke-linejoin:round; stroke-width:2; stroke-opacity:0.1; fill:none" points="172.015,778.353 2352.76,778.353 "/>
<polyline clip-path="url(#clip782)" style="stroke:#000000; stroke-linecap:round; stroke-linejoin:round; stroke-width:2; stroke-opacity:0.1; fill:none" points="172.015,424.305 2352.76,424.305 "/>
<polyline clip-path="url(#clip782)" style="stroke:#000000; stroke-linecap:round; stroke-linejoin:round; stroke-width:2; stroke-opacity:0.1; fill:none" points="172.015,70.2572 2352.76,70.2572 "/>
<polyline clip-path="url(#clip780)" style="stroke:#000000; stroke-linecap:round; stroke-linejoin:round; stroke-width:4; stroke-opacity:1; fill:none" points="172.015,1486.45 2352.76,1486.45 "/>
<polyline clip-path="url(#clip780)" style="stroke:#000000; stroke-linecap:round; stroke-linejoin:round; stroke-width:4; stroke-opacity:1; fill:none" points="243.438,1486.45 243.438,1467.55 "/>
<polyline clip-path="url(#clip780)" style="stroke:#000000; stroke-linecap:round; stroke-linejoin:round; stroke-width:4; stroke-opacity:1; fill:none" points="728.651,1486.45 728.651,1467.55 "/>
<polyline clip-path="url(#clip780)" style="stroke:#000000; stroke-linecap:round; stroke-linejoin:round; stroke-width:4; stroke-opacity:1; fill:none" points="1213.86,1486.45 1213.86,1467.55 "/>
<polyline clip-path="url(#clip780)" style="stroke:#000000; stroke-linecap:round; stroke-linejoin:round; stroke-width:4; stroke-opacity:1; fill:none" points="1699.08,1486.45 1699.08,1467.55 "/>
<polyline clip-path="url(#clip780)" style="stroke:#000000; stroke-linecap:round; stroke-linejoin:round; stroke-width:4; stroke-opacity:1; fill:none" points="2184.29,1486.45 2184.29,1467.55 "/>
<path clip-path="url(#clip780)" d="M212.339 1532.02 L242.015 1532.02 L242.015 1535.95 L212.339 1535.95 L212.339 1532.02 Z" fill="#000000" fill-rule="nonzero" fill-opacity="1" /><path clip-path="url(#clip780)" d="M264.954 1518.36 L253.149 1536.81 L264.954 1536.81 L264.954 1518.36 M263.727 1514.29 L269.607 1514.29 L269.607 1536.81 L274.538 1536.81 L274.538 1540.7 L269.607 1540.7 L269.607 1548.85 L264.954 1548.85 L264.954 1540.7 L249.352 1540.7 L249.352 1536.19 L263.727 1514.29 Z" fill="#000000" fill-rule="nonzero" fill-opacity="1" /><path clip-path="url(#clip780)" d="M698.593 1532.02 L728.269 1532.02 L728.269 1535.95 L698.593 1535.95 L698.593 1532.02 Z" fill="#000000" fill-rule="nonzero" fill-opacity="1" /><path clip-path="url(#clip780)" d="M742.389 1544.91 L758.709 1544.91 L758.709 1548.85 L736.764 1548.85 L736.764 1544.91 Q739.427 1542.16 744.01 1537.53 Q748.616 1532.88 749.797 1531.53 Q752.042 1529.01 752.922 1527.27 Q753.825 1525.51 753.825 1523.82 Q753.825 1521.07 751.88 1519.33 Q749.959 1517.6 746.857 1517.6 Q744.658 1517.6 742.204 1518.36 Q739.774 1519.13 736.996 1520.68 L736.996 1515.95 Q739.82 1514.82 742.274 1514.24 Q744.727 1513.66 746.764 1513.66 Q752.135 1513.66 755.329 1516.35 Q758.524 1519.03 758.524 1523.52 Q758.524 1525.65 757.713 1527.57 Q756.926 1529.47 754.82 1532.07 Q754.241 1532.74 751.139 1535.95 Q748.038 1539.15 742.389 1544.91 Z" fill="#000000" fill-rule="nonzero" fill-opacity="1" /><path clip-path="url(#clip780)" d="M1213.86 1517.37 Q1210.25 1517.37 1208.42 1520.93 Q1206.62 1524.47 1206.62 1531.6 Q1206.62 1538.71 1208.42 1542.27 Q1210.25 1545.82 1213.86 1545.82 Q1217.5 1545.82 1219.3 1542.27 Q1221.13 1538.71 1221.13 1531.6 Q1221.13 1524.47 1219.3 1520.93 Q1217.5 1517.37 1213.86 1517.37 M1213.86 1513.66 Q1219.67 1513.66 1222.73 1518.27 Q1225.81 1522.85 1225.81 1531.6 Q1225.81 1540.33 1222.73 1544.94 Q1219.67 1549.52 1213.86 1549.52 Q1208.05 1549.52 1204.98 1544.94 Q1201.92 1540.33 1201.92 1531.6 Q1201.92 1522.85 1204.98 1518.27 Q1208.05 1513.66 1213.86 1513.66 Z" fill="#000000" fill-rule="nonzero" fill-opacity="1" /><path clip-path="url(#clip780)" d="M1693.73 1544.91 L1710.05 1544.91 L1710.05 1548.85 L1688.1 1548.85 L1688.1 1544.91 Q1690.77 1542.16 1695.35 1537.53 Q1699.96 1532.88 1701.14 1531.53 Q1703.38 1529.01 1704.26 1527.27 Q1705.16 1525.51 1705.16 1523.82 Q1705.16 1521.07 1703.22 1519.33 Q1701.3 1517.6 1698.2 1517.6 Q1696 1517.6 1693.54 1518.36 Q1691.11 1519.13 1688.34 1520.68 L1688.34 1515.95 Q1691.16 1514.82 1693.61 1514.24 Q1696.07 1513.66 1698.1 1513.66 Q1703.48 1513.66 1706.67 1516.35 Q1709.86 1519.03 1709.86 1523.52 Q1709.86 1525.65 1709.05 1527.57 Q1708.27 1529.47 1706.16 1532.07 Q1705.58 1532.74 1702.48 1535.95 Q1699.38 1539.15 1693.73 1544.91 Z" fill="#000000" fill-rule="nonzero" fill-opacity="1" /><path clip-path="url(#clip780)" d="M2187.3 1518.36 L2175.49 1536.81 L2187.3 1536.81 L2187.3 1518.36 M2186.07 1514.29 L2191.95 1514.29 L2191.95 1536.81 L2196.88 1536.81 L2196.88 1540.7 L2191.95 1540.7 L2191.95 1548.85 L2187.3 1548.85 L2187.3 1540.7 L2171.7 1540.7 L2171.7 1536.19 L2186.07 1514.29 Z" fill="#000000" fill-rule="nonzero" fill-opacity="1" /><polyline clip-path="url(#clip780)" style="stroke:#000000; stroke-linecap:round; stroke-linejoin:round; stroke-width:4; stroke-opacity:1; fill:none" points="172.015,1486.45 172.015,47.2441 "/>
<polyline clip-path="url(#clip780)" style="stroke:#000000; stroke-linecap:round; stroke-linejoin:round; stroke-width:4; stroke-opacity:1; fill:none" points="172.015,1486.45 190.912,1486.45 "/>
<polyline clip-path="url(#clip780)" style="stroke:#000000; stroke-linecap:round; stroke-linejoin:round; stroke-width:4; stroke-opacity:1; fill:none" points="172.015,1132.4 190.912,1132.4 "/>
<polyline clip-path="url(#clip780)" style="stroke:#000000; stroke-linecap:round; stroke-linejoin:round; stroke-width:4; stroke-opacity:1; fill:none" points="172.015,778.353 190.912,778.353 "/>
<polyline clip-path="url(#clip780)" style="stroke:#000000; stroke-linecap:round; stroke-linejoin:round; stroke-width:4; stroke-opacity:1; fill:none" points="172.015,424.305 190.912,424.305 "/>
<polyline clip-path="url(#clip780)" style="stroke:#000000; stroke-linecap:round; stroke-linejoin:round; stroke-width:4; stroke-opacity:1; fill:none" points="172.015,70.2572 190.912,70.2572 "/>
<path clip-path="url(#clip780)" d="M124.07 1472.25 Q120.459 1472.25 118.631 1475.81 Q116.825 1479.35 116.825 1486.48 Q116.825 1493.59 118.631 1497.15 Q120.459 1500.7 124.07 1500.7 Q127.705 1500.7 129.51 1497.15 Q131.339 1493.59 131.339 1486.48 Q131.339 1479.35 129.51 1475.81 Q127.705 1472.25 124.07 1472.25 M124.07 1468.54 Q129.881 1468.54 132.936 1473.15 Q136.015 1477.73 136.015 1486.48 Q136.015 1495.21 132.936 1499.82 Q129.881 1504.4 124.07 1504.4 Q118.26 1504.4 115.182 1499.82 Q112.126 1495.21 112.126 1486.48 Q112.126 1477.73 115.182 1473.15 Q118.26 1468.54 124.07 1468.54 Z" fill="#000000" fill-rule="nonzero" fill-opacity="1" /><path clip-path="url(#clip780)" d="M57.7745 1145.75 L74.0939 1145.75 L74.0939 1149.68 L52.1495 1149.68 L52.1495 1145.75 Q54.8115 1142.99 59.3949 1138.36 Q64.0013 1133.71 65.1819 1132.37 Q67.4272 1129.84 68.3068 1128.11 Q69.2096 1126.35 69.2096 1124.66 Q69.2096 1121.9 67.2652 1120.17 Q65.3439 1118.43 62.2421 1118.43 Q60.043 1118.43 57.5893 1119.19 Q55.1588 1119.96 52.381 1121.51 L52.381 1116.79 Q55.2051 1115.65 57.6588 1115.07 Q60.1124 1114.5 62.1495 1114.5 Q67.5198 1114.5 70.7142 1117.18 Q73.9087 1119.87 73.9087 1124.36 Q73.9087 1126.49 73.0985 1128.41 Q72.3115 1130.31 70.205 1132.9 Q69.6263 1133.57 66.5245 1136.79 Q63.4226 1139.98 57.7745 1145.75 Z" fill="#000000" fill-rule="nonzero" fill-opacity="1" /><path clip-path="url(#clip780)" d="M93.9086 1118.2 Q90.2975 1118.2 88.4688 1121.76 Q86.6632 1125.31 86.6632 1132.43 Q86.6632 1139.54 88.4688 1143.11 Q90.2975 1146.65 93.9086 1146.65 Q97.5428 1146.65 99.3483 1143.11 Q101.177 1139.54 101.177 1132.43 Q101.177 1125.31 99.3483 1121.76 Q97.5428 1118.2 93.9086 1118.2 M93.9086 1114.5 Q99.7187 1114.5 102.774 1119.1 Q105.853 1123.68 105.853 1132.43 Q105.853 1141.16 102.774 1145.77 Q99.7187 1150.35 93.9086 1150.35 Q88.0984 1150.35 85.0197 1145.77 Q81.9642 1141.16 81.9642 1132.43 Q81.9642 1123.68 85.0197 1119.1 Q88.0984 1114.5 93.9086 1114.5 Z" fill="#000000" fill-rule="nonzero" fill-opacity="1" /><path clip-path="url(#clip780)" d="M124.07 1118.2 Q120.459 1118.2 118.631 1121.76 Q116.825 1125.31 116.825 1132.43 Q116.825 1139.54 118.631 1143.11 Q120.459 1146.65 124.07 1146.65 Q127.705 1146.65 129.51 1143.11 Q131.339 1139.54 131.339 1132.43 Q131.339 1125.31 129.51 1121.76 Q127.705 1118.2 124.07 1118.2 M124.07 1114.5 Q129.881 1114.5 132.936 1119.1 Q136.015 1123.68 136.015 1132.43 Q136.015 1141.16 132.936 1145.77 Q129.881 1150.35 124.07 1150.35 Q118.26 1150.35 115.182 1145.77 Q112.126 1141.16 112.126 1132.43 Q112.126 1123.68 115.182 1119.1 Q118.26 1114.5 124.07 1114.5 Z" fill="#000000" fill-rule="nonzero" fill-opacity="1" /><path clip-path="url(#clip780)" d="M66.5939 765.147 L54.7884 783.596 L66.5939 783.596 L66.5939 765.147 M65.367 761.073 L71.2466 761.073 L71.2466 783.596 L76.1772 783.596 L76.1772 787.484 L71.2466 787.484 L71.2466 795.633 L66.5939 795.633 L66.5939 787.484 L50.9921 787.484 L50.9921 782.971 L65.367 761.073 Z" fill="#000000" fill-rule="nonzero" fill-opacity="1" /><path clip-path="url(#clip780)" d="M93.9086 764.151 Q90.2975 764.151 88.4688 767.716 Q86.6632 771.258 86.6632 778.387 Q86.6632 785.494 88.4688 789.058 Q90.2975 792.6 93.9086 792.6 Q97.5428 792.6 99.3483 789.058 Q101.177 785.494 101.177 778.387 Q101.177 771.258 99.3483 767.716 Q97.5428 764.151 93.9086 764.151 M93.9086 760.448 Q99.7187 760.448 102.774 765.054 Q105.853 769.637 105.853 778.387 Q105.853 787.114 102.774 791.721 Q99.7187 796.304 93.9086 796.304 Q88.0984 796.304 85.0197 791.721 Q81.9642 787.114 81.9642 778.387 Q81.9642 769.637 85.0197 765.054 Q88.0984 760.448 93.9086 760.448 Z" fill="#000000" fill-rule="nonzero" fill-opacity="1" /><path clip-path="url(#clip780)" d="M124.07 764.151 Q120.459 764.151 118.631 767.716 Q116.825 771.258 116.825 778.387 Q116.825 785.494 118.631 789.058 Q120.459 792.6 124.07 792.6 Q127.705 792.6 129.51 789.058 Q131.339 785.494 131.339 778.387 Q131.339 771.258 129.51 767.716 Q127.705 764.151 124.07 764.151 M124.07 760.448 Q129.881 760.448 132.936 765.054 Q136.015 769.637 136.015 778.387 Q136.015 787.114 132.936 791.721 Q129.881 796.304 124.07 796.304 Q118.26 796.304 115.182 791.721 Q112.126 787.114 112.126 778.387 Q112.126 769.637 115.182 765.054 Q118.26 760.448 124.07 760.448 Z" fill="#000000" fill-rule="nonzero" fill-opacity="1" /><path clip-path="url(#clip780)" d="M64.3254 422.441 Q61.1773 422.441 59.3254 424.594 Q57.4967 426.747 57.4967 430.497 Q57.4967 434.224 59.3254 436.4 Q61.1773 438.552 64.3254 438.552 Q67.4735 438.552 69.3022 436.4 Q71.1541 434.224 71.1541 430.497 Q71.1541 426.747 69.3022 424.594 Q67.4735 422.441 64.3254 422.441 M73.6077 407.789 L73.6077 412.048 Q71.8485 411.215 70.0429 410.775 Q68.2606 410.335 66.5013 410.335 Q61.8717 410.335 59.418 413.46 Q56.9875 416.585 56.6402 422.904 Q58.006 420.891 60.0662 419.826 Q62.1263 418.738 64.6032 418.738 Q69.8115 418.738 72.8207 421.909 Q75.8531 425.057 75.8531 430.497 Q75.8531 435.821 72.705 439.039 Q69.5568 442.256 64.3254 442.256 Q58.33 442.256 55.1588 437.673 Q51.9875 433.066 51.9875 424.34 Q51.9875 416.145 55.8764 411.284 Q59.7652 406.4 66.3161 406.4 Q68.0754 406.4 69.8578 406.747 Q71.6633 407.094 73.6077 407.789 Z" fill="#000000" fill-rule="nonzero" fill-opacity="1" /><path clip-path="url(#clip780)" d="M93.9086 410.104 Q90.2975 410.104 88.4688 413.668 Q86.6632 417.21 86.6632 424.34 Q86.6632 431.446 88.4688 435.011 Q90.2975 438.552 93.9086 438.552 Q97.5428 438.552 99.3483 435.011 Q101.177 431.446 101.177 424.34 Q101.177 417.21 99.3483 413.668 Q97.5428 410.104 93.9086 410.104 M93.9086 406.4 Q99.7187 406.4 102.774 411.006 Q105.853 415.59 105.853 424.34 Q105.853 433.066 102.774 437.673 Q99.7187 442.256 93.9086 442.256 Q88.0984 442.256 85.0197 437.673 Q81.9642 433.066 81.9642 424.34 Q81.9642 415.59 85.0197 411.006 Q88.0984 406.4 93.9086 406.4 Z" fill="#000000" fill-rule="nonzero" fill-opacity="1" /><path clip-path="url(#clip780)" d="M124.07 410.104 Q120.459 410.104 118.631 413.668 Q116.825 417.21 116.825 424.34 Q116.825 431.446 118.631 435.011 Q120.459 438.552 124.07 438.552 Q127.705 438.552 129.51 435.011 Q131.339 431.446 131.339 424.34 Q131.339 417.21 129.51 413.668 Q127.705 410.104 124.07 410.104 M124.07 406.4 Q129.881 406.4 132.936 411.006 Q136.015 415.59 136.015 424.34 Q136.015 433.066 132.936 437.673 Q129.881 442.256 124.07 442.256 Q118.26 442.256 115.182 437.673 Q112.126 433.066 112.126 424.34 Q112.126 415.59 115.182 411.006 Q118.26 406.4 124.07 406.4 Z" fill="#000000" fill-rule="nonzero" fill-opacity="1" /><path clip-path="url(#clip780)" d="M63.7467 71.1252 Q60.4134 71.1252 58.4921 72.9076 Q56.5939 74.69 56.5939 77.815 Q56.5939 80.94 58.4921 82.7224 Q60.4134 84.5048 63.7467 84.5048 Q67.08 84.5048 69.0013 82.7224 Q70.9226 80.9169 70.9226 77.815 Q70.9226 74.69 69.0013 72.9076 Q67.1032 71.1252 63.7467 71.1252 M59.0708 69.1345 Q56.0615 68.3938 54.3717 66.3336 Q52.7051 64.2734 52.7051 61.3105 Q52.7051 57.167 55.6449 54.7596 Q58.6078 52.3522 63.7467 52.3522 Q68.9087 52.3522 71.8485 54.7596 Q74.7883 57.167 74.7883 61.3105 Q74.7883 64.2734 73.0985 66.3336 Q71.4318 68.3938 68.4457 69.1345 Q71.8253 69.9215 73.7003 72.2132 Q75.5985 74.5049 75.5985 77.815 Q75.5985 82.8381 72.5198 85.5233 Q69.4642 88.2085 63.7467 88.2085 Q58.0291 88.2085 54.9504 85.5233 Q51.8949 82.8381 51.8949 77.815 Q51.8949 74.5049 53.793 72.2132 Q55.6912 69.9215 59.0708 69.1345 M57.3578 61.7503 Q57.3578 64.4355 59.0245 65.9401 Q60.7143 67.4447 63.7467 67.4447 Q66.7559 67.4447 68.4457 65.9401 Q70.1587 64.4355 70.1587 61.7503 Q70.1587 59.0651 68.4457 57.5605 Q66.7559 56.0559 63.7467 56.0559 Q60.7143 56.0559 59.0245 57.5605 Q57.3578 59.0651 57.3578 61.7503 Z" fill="#000000" fill-rule="nonzero" fill-opacity="1" /><path clip-path="url(#clip780)" d="M93.9086 56.0559 Q90.2975 56.0559 88.4688 59.6207 Q86.6632 63.1623 86.6632 70.2919 Q86.6632 77.3984 88.4688 80.9632 Q90.2975 84.5048 93.9086 84.5048 Q97.5428 84.5048 99.3483 80.9632 Q101.177 77.3984 101.177 70.2919 Q101.177 63.1623 99.3483 59.6207 Q97.5428 56.0559 93.9086 56.0559 M93.9086 52.3522 Q99.7187 52.3522 102.774 56.9587 Q105.853 61.542 105.853 70.2919 Q105.853 79.0187 102.774 83.6252 Q99.7187 88.2085 93.9086 88.2085 Q88.0984 88.2085 85.0197 83.6252 Q81.9642 79.0187 81.9642 70.2919 Q81.9642 61.542 85.0197 56.9587 Q88.0984 52.3522 93.9086 52.3522 Z" fill="#000000" fill-rule="nonzero" fill-opacity="1" /><path clip-path="url(#clip780)" d="M124.07 56.0559 Q120.459 56.0559 118.631 59.6207 Q116.825 63.1623 116.825 70.2919 Q116.825 77.3984 118.631 80.9632 Q120.459 84.5048 124.07 84.5048 Q127.705 84.5048 129.51 80.9632 Q131.339 77.3984 131.339 70.2919 Q131.339 63.1623 129.51 59.6207 Q127.705 56.0559 124.07 56.0559 M124.07 52.3522 Q129.881 52.3522 132.936 56.9587 Q136.015 61.542 136.015 70.2919 Q136.015 79.0187 132.936 83.6252 Q129.881 88.2085 124.07 88.2085 Q118.26 88.2085 115.182 83.6252 Q112.126 79.0187 112.126 70.2919 Q112.126 61.542 115.182 56.9587 Q118.26 52.3522 124.07 52.3522 Z" fill="#000000" fill-rule="nonzero" fill-opacity="1" /><path clip-path="url(#clip782)" d="M291.959 1484.68 L291.959 1486.45 L340.481 1486.45 L340.481 1484.68 L291.959 1484.68 L291.959 1484.68  Z" fill="#009af9" fill-rule="evenodd" fill-opacity="1"/>
<polyline clip-path="url(#clip782)" style="stroke:#000000; stroke-linecap:round; stroke-linejoin:round; stroke-width:4; stroke-opacity:1; fill:none" points="291.959,1484.68 291.959,1486.45 340.481,1486.45 340.481,1484.68 291.959,1484.68 "/>
<path clip-path="url(#clip782)" d="M340.481 1482.91 L340.481 1486.45 L389.002 1486.45 L389.002 1482.91 L340.481 1482.91 L340.481 1482.91  Z" fill="#009af9" fill-rule="evenodd" fill-opacity="1"/>
<polyline clip-path="url(#clip782)" style="stroke:#000000; stroke-linecap:round; stroke-linejoin:round; stroke-width:4; stroke-opacity:1; fill:none" points="340.481,1482.91 340.481,1486.45 389.002,1486.45 389.002,1482.91 340.481,1482.91 "/>
<path clip-path="url(#clip782)" d="M389.002 1475.83 L389.002 1486.45 L437.523 1486.45 L437.523 1475.83 L389.002 1475.83 L389.002 1475.83  Z" fill="#009af9" fill-rule="evenodd" fill-opacity="1"/>
<polyline clip-path="url(#clip782)" style="stroke:#000000; stroke-linecap:round; stroke-linejoin:round; stroke-width:4; stroke-opacity:1; fill:none" points="389.002,1475.83 389.002,1486.45 437.523,1486.45 437.523,1475.83 389.002,1475.83 "/>
<path clip-path="url(#clip782)" d="M437.523 1479.37 L437.523 1486.45 L486.045 1486.45 L486.045 1479.37 L437.523 1479.37 L437.523 1479.37  Z" fill="#009af9" fill-rule="evenodd" fill-opacity="1"/>
<polyline clip-path="url(#clip782)" style="stroke:#000000; stroke-linecap:round; stroke-linejoin:round; stroke-width:4; stroke-opacity:1; fill:none" points="437.523,1479.37 437.523,1486.45 486.045,1486.45 486.045,1479.37 437.523,1479.37 "/>
<path clip-path="url(#clip782)" d="M486.045 1466.98 L486.045 1486.45 L534.566 1486.45 L534.566 1466.98 L486.045 1466.98 L486.045 1466.98  Z" fill="#009af9" fill-rule="evenodd" fill-opacity="1"/>
<polyline clip-path="url(#clip782)" style="stroke:#000000; stroke-linecap:round; stroke-linejoin:round; stroke-width:4; stroke-opacity:1; fill:none" points="486.045,1466.98 486.045,1486.45 534.566,1486.45 534.566,1466.98 486.045,1466.98 "/>
<path clip-path="url(#clip782)" d="M534.566 1443.96 L534.566 1486.45 L583.087 1486.45 L583.087 1443.96 L534.566 1443.96 L534.566 1443.96  Z" fill="#009af9" fill-rule="evenodd" fill-opacity="1"/>
<polyline clip-path="url(#clip782)" style="stroke:#000000; stroke-linecap:round; stroke-linejoin:round; stroke-width:4; stroke-opacity:1; fill:none" points="534.566,1443.96 534.566,1486.45 583.087,1486.45 583.087,1443.96 534.566,1443.96 "/>
<path clip-path="url(#clip782)" d="M583.087 1415.64 L583.087 1486.45 L631.609 1486.45 L631.609 1415.64 L583.087 1415.64 L583.087 1415.64  Z" fill="#009af9" fill-rule="evenodd" fill-opacity="1"/>
<polyline clip-path="url(#clip782)" style="stroke:#000000; stroke-linecap:round; stroke-linejoin:round; stroke-width:4; stroke-opacity:1; fill:none" points="583.087,1415.64 583.087,1486.45 631.609,1486.45 631.609,1415.64 583.087,1415.64 "/>
<path clip-path="url(#clip782)" d="M631.609 1408.56 L631.609 1486.45 L680.13 1486.45 L680.13 1408.56 L631.609 1408.56 L631.609 1408.56  Z" fill="#009af9" fill-rule="evenodd" fill-opacity="1"/>
<polyline clip-path="url(#clip782)" style="stroke:#000000; stroke-linecap:round; stroke-linejoin:round; stroke-width:4; stroke-opacity:1; fill:none" points="631.609,1408.56 631.609,1486.45 680.13,1486.45 680.13,1408.56 631.609,1408.56 "/>
<path clip-path="url(#clip782)" d="M680.13 1337.75 L680.13 1486.45 L728.651 1486.45 L728.651 1337.75 L680.13 1337.75 L680.13 1337.75  Z" fill="#009af9" fill-rule="evenodd" fill-opacity="1"/>
<polyline clip-path="url(#clip782)" style="stroke:#000000; stroke-linecap:round; stroke-linejoin:round; stroke-width:4; stroke-opacity:1; fill:none" points="680.13,1337.75 680.13,1486.45 728.651,1486.45 728.651,1337.75 680.13,1337.75 "/>
<path clip-path="url(#clip782)" d="M728.651 1247.47 L728.651 1486.45 L777.172 1486.45 L777.172 1247.47 L728.651 1247.47 L728.651 1247.47  Z" fill="#009af9" fill-rule="evenodd" fill-opacity="1"/>
<polyline clip-path="url(#clip782)" style="stroke:#000000; stroke-linecap:round; stroke-linejoin:round; stroke-width:4; stroke-opacity:1; fill:none" points="728.651,1247.47 728.651,1486.45 777.172,1486.45 777.172,1247.47 728.651,1247.47 "/>
<path clip-path="url(#clip782)" d="M777.172 1171.35 L777.172 1486.45 L825.694 1486.45 L825.694 1171.35 L777.172 1171.35 L777.172 1171.35  Z" fill="#009af9" fill-rule="evenodd" fill-opacity="1"/>
<polyline clip-path="url(#clip782)" style="stroke:#000000; stroke-linecap:round; stroke-linejoin:round; stroke-width:4; stroke-opacity:1; fill:none" points="777.172,1171.35 777.172,1486.45 825.694,1486.45 825.694,1171.35 777.172,1171.35 "/>
<path clip-path="url(#clip782)" d="M825.694 1013.79 L825.694 1486.45 L874.215 1486.45 L874.215 1013.79 L825.694 1013.79 L825.694 1013.79  Z" fill="#009af9" fill-rule="evenodd" fill-opacity="1"/>
<polyline clip-path="url(#clip782)" style="stroke:#000000; stroke-linecap:round; stroke-linejoin:round; stroke-width:4; stroke-opacity:1; fill:none" points="825.694,1013.79 825.694,1486.45 874.215,1486.45 874.215,1013.79 825.694,1013.79 "/>
<path clip-path="url(#clip782)" d="M874.215 873.945 L874.215 1486.45 L922.736 1486.45 L922.736 873.945 L874.215 873.945 L874.215 873.945  Z" fill="#009af9" fill-rule="evenodd" fill-opacity="1"/>
<polyline clip-path="url(#clip782)" style="stroke:#000000; stroke-linecap:round; stroke-linejoin:round; stroke-width:4; stroke-opacity:1; fill:none" points="874.215,873.945 874.215,1486.45 922.736,1486.45 922.736,873.945 874.215,873.945 "/>
<path clip-path="url(#clip782)" d="M922.736 719.935 L922.736 1486.45 L971.258 1486.45 L971.258 719.935 L922.736 719.935 L922.736 719.935  Z" fill="#009af9" fill-rule="evenodd" fill-opacity="1"/>
<polyline clip-path="url(#clip782)" style="stroke:#000000; stroke-linecap:round; stroke-linejoin:round; stroke-width:4; stroke-opacity:1; fill:none" points="922.736,719.935 922.736,1486.45 971.258,1486.45 971.258,719.935 922.736,719.935 "/>
<path clip-path="url(#clip782)" d="M971.258 544.681 L971.258 1486.45 L1019.78 1486.45 L1019.78 544.681 L971.258 544.681 L971.258 544.681  Z" fill="#009af9" fill-rule="evenodd" fill-opacity="1"/>
<polyline clip-path="url(#clip782)" style="stroke:#000000; stroke-linecap:round; stroke-linejoin:round; stroke-width:4; stroke-opacity:1; fill:none" points="971.258,544.681 971.258,1486.45 1019.78,1486.45 1019.78,544.681 971.258,544.681 "/>
<path clip-path="url(#clip782)" d="M1019.78 473.872 L1019.78 1486.45 L1068.3 1486.45 L1068.3 473.872 L1019.78 473.872 L1019.78 473.872  Z" fill="#009af9" fill-rule="evenodd" fill-opacity="1"/>
<polyline clip-path="url(#clip782)" style="stroke:#000000; stroke-linecap:round; stroke-linejoin:round; stroke-width:4; stroke-opacity:1; fill:none" points="1019.78,473.872 1019.78,1486.45 1068.3,1486.45 1068.3,473.872 1019.78,473.872 "/>
<path clip-path="url(#clip782)" d="M1068.3 300.388 L1068.3 1486.45 L1116.82 1486.45 L1116.82 300.388 L1068.3 300.388 L1068.3 300.388  Z" fill="#009af9" fill-rule="evenodd" fill-opacity="1"/>
<polyline clip-path="url(#clip782)" style="stroke:#000000; stroke-linecap:round; stroke-linejoin:round; stroke-width:4; stroke-opacity:1; fill:none" points="1068.3,300.388 1068.3,1486.45 1116.82,1486.45 1116.82,300.388 1068.3,300.388 "/>
<path clip-path="url(#clip782)" d="M1116.82 185.323 L1116.82 1486.45 L1165.34 1486.45 L1165.34 185.323 L1116.82 185.323 L1116.82 185.323  Z" fill="#009af9" fill-rule="evenodd" fill-opacity="1"/>
<polyline clip-path="url(#clip782)" style="stroke:#000000; stroke-linecap:round; stroke-linejoin:round; stroke-width:4; stroke-opacity:1; fill:none" points="1116.82,185.323 1116.82,1486.45 1165.34,1486.45 1165.34,185.323 1116.82,185.323 "/>
<path clip-path="url(#clip782)" d="M1165.34 47.2441 L1165.34 1486.45 L1213.86 1486.45 L1213.86 47.2441 L1165.34 47.2441 L1165.34 47.2441  Z" fill="#009af9" fill-rule="evenodd" fill-opacity="1"/>
<polyline clip-path="url(#clip782)" style="stroke:#000000; stroke-linecap:round; stroke-linejoin:round; stroke-width:4; stroke-opacity:1; fill:none" points="1165.34,47.2441 1165.34,1486.45 1213.86,1486.45 1213.86,47.2441 1165.34,47.2441 "/>
<path clip-path="url(#clip782)" d="M1213.86 87.9596 L1213.86 1486.45 L1262.39 1486.45 L1262.39 87.9596 L1213.86 87.9596 L1213.86 87.9596  Z" fill="#009af9" fill-rule="evenodd" fill-opacity="1"/>
<polyline clip-path="url(#clip782)" style="stroke:#000000; stroke-linecap:round; stroke-linejoin:round; stroke-width:4; stroke-opacity:1; fill:none" points="1213.86,87.9596 1213.86,1486.45 1262.39,1486.45 1262.39,87.9596 1213.86,87.9596 "/>
<path clip-path="url(#clip782)" d="M1262.39 50.7846 L1262.39 1486.45 L1310.91 1486.45 L1310.91 50.7846 L1262.39 50.7846 L1262.39 50.7846  Z" fill="#009af9" fill-rule="evenodd" fill-opacity="1"/>
<polyline clip-path="url(#clip782)" style="stroke:#000000; stroke-linecap:round; stroke-linejoin:round; stroke-width:4; stroke-opacity:1; fill:none" points="1262.39,50.7846 1262.39,1486.45 1310.91,1486.45 1310.91,50.7846 1262.39,50.7846 "/>
<path clip-path="url(#clip782)" d="M1310.91 263.213 L1310.91 1486.45 L1359.43 1486.45 L1359.43 263.213 L1310.91 263.213 L1310.91 263.213  Z" fill="#009af9" fill-rule="evenodd" fill-opacity="1"/>
<polyline clip-path="url(#clip782)" style="stroke:#000000; stroke-linecap:round; stroke-linejoin:round; stroke-width:4; stroke-opacity:1; fill:none" points="1310.91,263.213 1310.91,1486.45 1359.43,1486.45 1359.43,263.213 1310.91,263.213 "/>
<path clip-path="url(#clip782)" d="M1359.43 388.9 L1359.43 1486.45 L1407.95 1486.45 L1407.95 388.9 L1359.43 388.9 L1359.43 388.9  Z" fill="#009af9" fill-rule="evenodd" fill-opacity="1"/>
<polyline clip-path="url(#clip782)" style="stroke:#000000; stroke-linecap:round; stroke-linejoin:round; stroke-width:4; stroke-opacity:1; fill:none" points="1359.43,388.9 1359.43,1486.45 1407.95,1486.45 1407.95,388.9 1359.43,388.9 "/>
<path clip-path="url(#clip782)" d="M1407.95 608.41 L1407.95 1486.45 L1456.47 1486.45 L1456.47 608.41 L1407.95 608.41 L1407.95 608.41  Z" fill="#009af9" fill-rule="evenodd" fill-opacity="1"/>
<polyline clip-path="url(#clip782)" style="stroke:#000000; stroke-linecap:round; stroke-linejoin:round; stroke-width:4; stroke-opacity:1; fill:none" points="1407.95,608.41 1407.95,1486.45 1456.47,1486.45 1456.47,608.41 1407.95,608.41 "/>
<path clip-path="url(#clip782)" d="M1456.47 702.232 L1456.47 1486.45 L1504.99 1486.45 L1504.99 702.232 L1456.47 702.232 L1456.47 702.232  Z" fill="#009af9" fill-rule="evenodd" fill-opacity="1"/>
<polyline clip-path="url(#clip782)" style="stroke:#000000; stroke-linecap:round; stroke-linejoin:round; stroke-width:4; stroke-opacity:1; fill:none" points="1456.47,702.232 1456.47,1486.45 1504.99,1486.45 1504.99,702.232 1456.47,702.232 "/>
<path clip-path="url(#clip782)" d="M1504.99 806.676 L1504.99 1486.45 L1553.51 1486.45 L1553.51 806.676 L1504.99 806.676 L1504.99 806.676  Z" fill="#009af9" fill-rule="evenodd" fill-opacity="1"/>
<polyline clip-path="url(#clip782)" style="stroke:#000000; stroke-linecap:round; stroke-linejoin:round; stroke-width:4; stroke-opacity:1; fill:none" points="1504.99,806.676 1504.99,1486.45 1553.51,1486.45 1553.51,806.676 1504.99,806.676 "/>
<path clip-path="url(#clip782)" d="M1553.51 964.228 L1553.51 1486.45 L1602.03 1486.45 L1602.03 964.228 L1553.51 964.228 L1553.51 964.228  Z" fill="#009af9" fill-rule="evenodd" fill-opacity="1"/>
<polyline clip-path="url(#clip782)" style="stroke:#000000; stroke-linecap:round; stroke-linejoin:round; stroke-width:4; stroke-opacity:1; fill:none" points="1553.51,964.228 1553.51,1486.45 1602.03,1486.45 1602.03,964.228 1553.51,964.228 "/>
<path clip-path="url(#clip782)" d="M1602.03 1118.24 L1602.03 1486.45 L1650.56 1486.45 L1650.56 1118.24 L1602.03 1118.24 L1602.03 1118.24  Z" fill="#009af9" fill-rule="evenodd" fill-opacity="1"/>
<polyline clip-path="url(#clip782)" style="stroke:#000000; stroke-linecap:round; stroke-linejoin:round; stroke-width:4; stroke-opacity:1; fill:none" points="1602.03,1118.24 1602.03,1486.45 1650.56,1486.45 1650.56,1118.24 1602.03,1118.24 "/>
<path clip-path="url(#clip782)" d="M1650.56 1277.56 L1650.56 1486.45 L1699.08 1486.45 L1699.08 1277.56 L1650.56 1277.56 L1650.56 1277.56  Z" fill="#009af9" fill-rule="evenodd" fill-opacity="1"/>
<polyline clip-path="url(#clip782)" style="stroke:#000000; stroke-linecap:round; stroke-linejoin:round; stroke-width:4; stroke-opacity:1; fill:none" points="1650.56,1277.56 1650.56,1486.45 1699.08,1486.45 1699.08,1277.56 1650.56,1277.56 "/>
<path clip-path="url(#clip782)" d="M1699.08 1318.28 L1699.08 1486.45 L1747.6 1486.45 L1747.6 1318.28 L1699.08 1318.28 L1699.08 1318.28  Z" fill="#009af9" fill-rule="evenodd" fill-opacity="1"/>
<polyline clip-path="url(#clip782)" style="stroke:#000000; stroke-linecap:round; stroke-linejoin:round; stroke-width:4; stroke-opacity:1; fill:none" points="1699.08,1318.28 1699.08,1486.45 1747.6,1486.45 1747.6,1318.28 1699.08,1318.28 "/>
<path clip-path="url(#clip782)" d="M1747.6 1390.86 L1747.6 1486.45 L1796.12 1486.45 L1796.12 1390.86 L1747.6 1390.86 L1747.6 1390.86  Z" fill="#009af9" fill-rule="evenodd" fill-opacity="1"/>
<polyline clip-path="url(#clip782)" style="stroke:#000000; stroke-linecap:round; stroke-linejoin:round; stroke-width:4; stroke-opacity:1; fill:none" points="1747.6,1390.86 1747.6,1486.45 1796.12,1486.45 1796.12,1390.86 1747.6,1390.86 "/>
<path clip-path="url(#clip782)" d="M1796.12 1397.94 L1796.12 1486.45 L1844.64 1486.45 L1844.64 1397.94 L1796.12 1397.94 L1796.12 1397.94  Z" fill="#009af9" fill-rule="evenodd" fill-opacity="1"/>
<polyline clip-path="url(#clip782)" style="stroke:#000000; stroke-linecap:round; stroke-linejoin:round; stroke-width:4; stroke-opacity:1; fill:none" points="1796.12,1397.94 1796.12,1486.45 1844.64,1486.45 1844.64,1397.94 1796.12,1397.94 "/>
<path clip-path="url(#clip782)" d="M1844.64 1461.66 L1844.64 1486.45 L1893.16 1486.45 L1893.16 1461.66 L1844.64 1461.66 L1844.64 1461.66  Z" fill="#009af9" fill-rule="evenodd" fill-opacity="1"/>
<polyline clip-path="url(#clip782)" style="stroke:#000000; stroke-linecap:round; stroke-linejoin:round; stroke-width:4; stroke-opacity:1; fill:none" points="1844.64,1461.66 1844.64,1486.45 1893.16,1486.45 1893.16,1461.66 1844.64,1461.66 "/>
<path clip-path="url(#clip782)" d="M1893.16 1452.81 L1893.16 1486.45 L1941.68 1486.45 L1941.68 1452.81 L1893.16 1452.81 L1893.16 1452.81  Z" fill="#009af9" fill-rule="evenodd" fill-opacity="1"/>
<polyline clip-path="url(#clip782)" style="stroke:#000000; stroke-linecap:round; stroke-linejoin:round; stroke-width:4; stroke-opacity:1; fill:none" points="1893.16,1452.81 1893.16,1486.45 1941.68,1486.45 1941.68,1452.81 1893.16,1452.81 "/>
<path clip-path="url(#clip782)" d="M1941.68 1479.37 L1941.68 1486.45 L1990.2 1486.45 L1990.2 1479.37 L1941.68 1479.37 L1941.68 1479.37  Z" fill="#009af9" fill-rule="evenodd" fill-opacity="1"/>
<polyline clip-path="url(#clip782)" style="stroke:#000000; stroke-linecap:round; stroke-linejoin:round; stroke-width:4; stroke-opacity:1; fill:none" points="1941.68,1479.37 1941.68,1486.45 1990.2,1486.45 1990.2,1479.37 1941.68,1479.37 "/>
<path clip-path="url(#clip782)" d="M1990.2 1477.6 L1990.2 1486.45 L2038.73 1486.45 L2038.73 1477.6 L1990.2 1477.6 L1990.2 1477.6  Z" fill="#009af9" fill-rule="evenodd" fill-opacity="1"/>
<polyline clip-path="url(#clip782)" style="stroke:#000000; stroke-linecap:round; stroke-linejoin:round; stroke-width:4; stroke-opacity:1; fill:none" points="1990.2,1477.6 1990.2,1486.45 2038.73,1486.45 2038.73,1477.6 1990.2,1477.6 "/>
<path clip-path="url(#clip782)" d="M2038.73 1482.91 L2038.73 1486.45 L2087.25 1486.45 L2087.25 1482.91 L2038.73 1482.91 L2038.73 1482.91  Z" fill="#009af9" fill-rule="evenodd" fill-opacity="1"/>
<polyline clip-path="url(#clip782)" style="stroke:#000000; stroke-linecap:round; stroke-linejoin:round; stroke-width:4; stroke-opacity:1; fill:none" points="2038.73,1482.91 2038.73,1486.45 2087.25,1486.45 2087.25,1482.91 2038.73,1482.91 "/>
<path clip-path="url(#clip782)" d="M2087.25 1484.68 L2087.25 1486.45 L2135.77 1486.45 L2135.77 1484.68 L2087.25 1484.68 L2087.25 1484.68  Z" fill="#009af9" fill-rule="evenodd" fill-opacity="1"/>
<polyline clip-path="url(#clip782)" style="stroke:#000000; stroke-linecap:round; stroke-linejoin:round; stroke-width:4; stroke-opacity:1; fill:none" points="2087.25,1484.68 2087.25,1486.45 2135.77,1486.45 2135.77,1484.68 2087.25,1484.68 "/>
<path clip-path="url(#clip782)" d="M2135.77 1484.68 L2135.77 1486.45 L2184.29 1486.45 L2184.29 1484.68 L2135.77 1484.68 L2135.77 1484.68  Z" fill="#009af9" fill-rule="evenodd" fill-opacity="1"/>
<polyline clip-path="url(#clip782)" style="stroke:#000000; stroke-linecap:round; stroke-linejoin:round; stroke-width:4; stroke-opacity:1; fill:none" points="2135.77,1484.68 2135.77,1486.45 2184.29,1486.45 2184.29,1484.68 2135.77,1484.68 "/>
<path clip-path="url(#clip782)" d="M2184.29 1482.91 L2184.29 1486.45 L2232.81 1486.45 L2232.81 1482.91 L2184.29 1482.91 L2184.29 1482.91  Z" fill="#009af9" fill-rule="evenodd" fill-opacity="1"/>
<polyline clip-path="url(#clip782)" style="stroke:#000000; stroke-linecap:round; stroke-linejoin:round; stroke-width:4; stroke-opacity:1; fill:none" points="2184.29,1482.91 2184.29,1486.45 2232.81,1486.45 2232.81,1482.91 2184.29,1482.91 "/>
<circle clip-path="url(#clip782)" style="fill:#009af9; stroke:none; fill-opacity:0" cx="316.22" cy="1484.68" r="2"/>
<circle clip-path="url(#clip782)" style="fill:#009af9; stroke:none; fill-opacity:0" cx="364.741" cy="1482.91" r="2"/>
<circle clip-path="url(#clip782)" style="fill:#009af9; stroke:none; fill-opacity:0" cx="413.263" cy="1475.83" r="2"/>
<circle clip-path="url(#clip782)" style="fill:#009af9; stroke:none; fill-opacity:0" cx="461.784" cy="1479.37" r="2"/>
<circle clip-path="url(#clip782)" style="fill:#009af9; stroke:none; fill-opacity:0" cx="510.305" cy="1466.98" r="2"/>
<circle clip-path="url(#clip782)" style="fill:#009af9; stroke:none; fill-opacity:0" cx="558.827" cy="1443.96" r="2"/>
<circle clip-path="url(#clip782)" style="fill:#009af9; stroke:none; fill-opacity:0" cx="607.348" cy="1415.64" r="2"/>
<circle clip-path="url(#clip782)" style="fill:#009af9; stroke:none; fill-opacity:0" cx="655.869" cy="1408.56" r="2"/>
<circle clip-path="url(#clip782)" style="fill:#009af9; stroke:none; fill-opacity:0" cx="704.39" cy="1337.75" r="2"/>
<circle clip-path="url(#clip782)" style="fill:#009af9; stroke:none; fill-opacity:0" cx="752.912" cy="1247.47" r="2"/>
<circle clip-path="url(#clip782)" style="fill:#009af9; stroke:none; fill-opacity:0" cx="801.433" cy="1171.35" r="2"/>
<circle clip-path="url(#clip782)" style="fill:#009af9; stroke:none; fill-opacity:0" cx="849.954" cy="1013.79" r="2"/>
<circle clip-path="url(#clip782)" style="fill:#009af9; stroke:none; fill-opacity:0" cx="898.476" cy="873.945" r="2"/>
<circle clip-path="url(#clip782)" style="fill:#009af9; stroke:none; fill-opacity:0" cx="946.997" cy="719.935" r="2"/>
<circle clip-path="url(#clip782)" style="fill:#009af9; stroke:none; fill-opacity:0" cx="995.518" cy="544.681" r="2"/>
<circle clip-path="url(#clip782)" style="fill:#009af9; stroke:none; fill-opacity:0" cx="1044.04" cy="473.872" r="2"/>
<circle clip-path="url(#clip782)" style="fill:#009af9; stroke:none; fill-opacity:0" cx="1092.56" cy="300.388" r="2"/>
<circle clip-path="url(#clip782)" style="fill:#009af9; stroke:none; fill-opacity:0" cx="1141.08" cy="185.323" r="2"/>
<circle clip-path="url(#clip782)" style="fill:#009af9; stroke:none; fill-opacity:0" cx="1189.6" cy="47.2441" r="2"/>
<circle clip-path="url(#clip782)" style="fill:#009af9; stroke:none; fill-opacity:0" cx="1238.12" cy="87.9596" r="2"/>
<circle clip-path="url(#clip782)" style="fill:#009af9; stroke:none; fill-opacity:0" cx="1286.65" cy="50.7846" r="2"/>
<circle clip-path="url(#clip782)" style="fill:#009af9; stroke:none; fill-opacity:0" cx="1335.17" cy="263.213" r="2"/>
<circle clip-path="url(#clip782)" style="fill:#009af9; stroke:none; fill-opacity:0" cx="1383.69" cy="388.9" r="2"/>
<circle clip-path="url(#clip782)" style="fill:#009af9; stroke:none; fill-opacity:0" cx="1432.21" cy="608.41" r="2"/>
<circle clip-path="url(#clip782)" style="fill:#009af9; stroke:none; fill-opacity:0" cx="1480.73" cy="702.232" r="2"/>
<circle clip-path="url(#clip782)" style="fill:#009af9; stroke:none; fill-opacity:0" cx="1529.25" cy="806.676" r="2"/>
<circle clip-path="url(#clip782)" style="fill:#009af9; stroke:none; fill-opacity:0" cx="1577.77" cy="964.228" r="2"/>
<circle clip-path="url(#clip782)" style="fill:#009af9; stroke:none; fill-opacity:0" cx="1626.3" cy="1118.24" r="2"/>
<circle clip-path="url(#clip782)" style="fill:#009af9; stroke:none; fill-opacity:0" cx="1674.82" cy="1277.56" r="2"/>
<circle clip-path="url(#clip782)" style="fill:#009af9; stroke:none; fill-opacity:0" cx="1723.34" cy="1318.28" r="2"/>
<circle clip-path="url(#clip782)" style="fill:#009af9; stroke:none; fill-opacity:0" cx="1771.86" cy="1390.86" r="2"/>
<circle clip-path="url(#clip782)" style="fill:#009af9; stroke:none; fill-opacity:0" cx="1820.38" cy="1397.94" r="2"/>
<circle clip-path="url(#clip782)" style="fill:#009af9; stroke:none; fill-opacity:0" cx="1868.9" cy="1461.66" r="2"/>
<circle clip-path="url(#clip782)" style="fill:#009af9; stroke:none; fill-opacity:0" cx="1917.42" cy="1452.81" r="2"/>
<circle clip-path="url(#clip782)" style="fill:#009af9; stroke:none; fill-opacity:0" cx="1965.94" cy="1479.37" r="2"/>
<circle clip-path="url(#clip782)" style="fill:#009af9; stroke:none; fill-opacity:0" cx="2014.47" cy="1477.6" r="2"/>
<circle clip-path="url(#clip782)" style="fill:#009af9; stroke:none; fill-opacity:0" cx="2062.99" cy="1482.91" r="2"/>
<circle clip-path="url(#clip782)" style="fill:#009af9; stroke:none; fill-opacity:0" cx="2111.51" cy="1484.68" r="2"/>
<circle clip-path="url(#clip782)" style="fill:#009af9; stroke:none; fill-opacity:0" cx="2160.03" cy="1484.68" r="2"/>
<circle clip-path="url(#clip782)" style="fill:#009af9; stroke:none; fill-opacity:0" cx="2208.55" cy="1482.91" r="2"/>
<path clip-path="url(#clip780)" d="M2009.56 198.898 L2280.06 198.898 L2280.06 95.2176 L2009.56 95.2176  Z" fill="#ffffff" fill-rule="evenodd" fill-opacity="1"/>
<polyline clip-path="url(#clip780)" style="stroke:#000000; stroke-linecap:round; stroke-linejoin:round; stroke-width:4; stroke-opacity:1; fill:none" points="2009.56,198.898 2280.06,198.898 2280.06,95.2176 2009.56,95.2176 2009.56,198.898 "/>
<path clip-path="url(#clip780)" d="M2033.79 167.794 L2179.17 167.794 L2179.17 126.322 L2033.79 126.322 L2033.79 167.794  Z" fill="#009af9" fill-rule="evenodd" fill-opacity="1"/>
<polyline clip-path="url(#clip780)" style="stroke:#000000; stroke-linecap:round; stroke-linejoin:round; stroke-width:4; stroke-opacity:1; fill:none" points="2033.79,167.794 2179.17,167.794 2179.17,126.322 2033.79,126.322 2033.79,167.794 "/>
<path clip-path="url(#clip780)" d="M2217.25 166.745 Q2215.44 171.375 2213.73 172.787 Q2212.01 174.199 2209.14 174.199 L2205.74 174.199 L2205.74 170.634 L2208.24 170.634 Q2210 170.634 2210.97 169.8 Q2211.95 168.967 2213.13 165.865 L2213.89 163.921 L2203.4 138.412 L2207.92 138.412 L2216.02 158.689 L2224.12 138.412 L2228.64 138.412 L2217.25 166.745 Z" fill="#000000" fill-rule="nonzero" fill-opacity="1" /><path clip-path="url(#clip780)" d="M2235.93 160.402 L2243.57 160.402 L2243.57 134.037 L2235.26 135.703 L2235.26 131.444 L2243.52 129.778 L2248.2 129.778 L2248.2 160.402 L2255.83 160.402 L2255.83 164.338 L2235.93 164.338 L2235.93 160.402 Z" fill="#000000" fill-rule="nonzero" fill-opacity="1" /></svg>
