<?xml version="1.0" encoding="utf-8"?>
<svg xmlns="http://www.w3.org/2000/svg" xmlns:xlink="http://www.w3.org/1999/xlink" width="600" height="400" viewBox="0 0 2400 1600">
<defs>
  <clipPath id="clip410">
    <rect x="0" y="0" width="2400" height="1600"/>
  </clipPath>
</defs>
<path clip-path="url(#clip410)" d="M0 1600 L2400 1600 L2400 0 L0 0  Z" fill="#ffffff" fill-rule="evenodd" fill-opacity="1"/>
<defs>
  <clipPath id="clip411">
    <rect x="480" y="0" width="1681" height="1600"/>
  </clipPath>
</defs>
<path clip-path="url(#clip410)" d="M140.696 1486.45 L2352.76 1486.45 L2352.76 47.2441 L140.696 47.2441  Z" fill="#ffffff" fill-rule="evenodd" fill-opacity="1"/>
<defs>
  <clipPath id="clip412">
    <rect x="140" y="47" width="2213" height="1440"/>
  </clipPath>
</defs>
<polyline clip-path="url(#clip412)" style="stroke:#000000; stroke-linecap:round; stroke-linejoin:round; stroke-width:2; stroke-opacity:0.1; fill:none" points="203.301,1486.45 203.301,47.2441 "/>
<polyline clip-path="url(#clip412)" style="stroke:#000000; stroke-linecap:round; stroke-linejoin:round; stroke-width:2; stroke-opacity:0.1; fill:none" points="620.671,1486.45 620.671,47.2441 "/>
<polyline clip-path="url(#clip412)" style="stroke:#000000; stroke-linecap:round; stroke-linejoin:round; stroke-width:2; stroke-opacity:0.1; fill:none" points="1038.04,1486.45 1038.04,47.2441 "/>
<polyline clip-path="url(#clip412)" style="stroke:#000000; stroke-linecap:round; stroke-linejoin:round; stroke-width:2; stroke-opacity:0.1; fill:none" points="1455.41,1486.45 1455.41,47.2441 "/>
<polyline clip-path="url(#clip412)" style="stroke:#000000; stroke-linecap:round; stroke-linejoin:round; stroke-width:2; stroke-opacity:0.1; fill:none" points="1872.78,1486.45 1872.78,47.2441 "/>
<polyline clip-path="url(#clip412)" style="stroke:#000000; stroke-linecap:round; stroke-linejoin:round; stroke-width:2; stroke-opacity:0.1; fill:none" points="2290.15,1486.45 2290.15,47.2441 "/>
<polyline clip-path="url(#clip412)" style="stroke:#000000; stroke-linecap:round; stroke-linejoin:round; stroke-width:2; stroke-opacity:0.1; fill:none" points="140.696,1445.72 2352.76,1445.72 "/>
<polyline clip-path="url(#clip412)" style="stroke:#000000; stroke-linecap:round; stroke-linejoin:round; stroke-width:2; stroke-opacity:0.1; fill:none" points="140.696,1174.17 2352.76,1174.17 "/>
<polyline clip-path="url(#clip412)" style="stroke:#000000; stroke-linecap:round; stroke-linejoin:round; stroke-width:2; stroke-opacity:0.1; fill:none" points="140.696,902.62 2352.76,902.62 "/>
<polyline clip-path="url(#clip412)" style="stroke:#000000; stroke-linecap:round; stroke-linejoin:round; stroke-width:2; stroke-opacity:0.1; fill:none" points="140.696,631.072 2352.76,631.072 "/>
<polyline clip-path="url(#clip412)" style="stroke:#000000; stroke-linecap:round; stroke-linejoin:round; stroke-width:2; stroke-opacity:0.1; fill:none" points="140.696,359.524 2352.76,359.524 "/>
<polyline clip-path="url(#clip412)" style="stroke:#000000; stroke-linecap:round; stroke-linejoin:round; stroke-width:2; stroke-opacity:0.1; fill:none" points="140.696,87.9763 2352.76,87.9763 "/>
<polyline clip-path="url(#clip410)" style="stroke:#000000; stroke-linecap:round; stroke-linejoin:round; stroke-width:4; stroke-opacity:1; fill:none" points="140.696,1486.45 2352.76,1486.45 "/>
<polyline clip-path="url(#clip410)" style="stroke:#000000; stroke-linecap:round; stroke-linejoin:round; stroke-width:4; stroke-opacity:1; fill:none" points="203.301,1486.45 203.301,1467.55 "/>
<polyline clip-path="url(#clip410)" style="stroke:#000000; stroke-linecap:round; stroke-linejoin:round; stroke-width:4; stroke-opacity:1; fill:none" points="620.671,1486.45 620.671,1467.55 "/>
<polyline clip-path="url(#clip410)" style="stroke:#000000; stroke-linecap:round; stroke-linejoin:round; stroke-width:4; stroke-opacity:1; fill:none" points="1038.04,1486.45 1038.04,1467.55 "/>
<polyline clip-path="url(#clip410)" style="stroke:#000000; stroke-linecap:round; stroke-linejoin:round; stroke-width:4; stroke-opacity:1; fill:none" points="1455.41,1486.45 1455.41,1467.55 "/>
<polyline clip-path="url(#clip410)" style="stroke:#000000; stroke-linecap:round; stroke-linejoin:round; stroke-width:4; stroke-opacity:1; fill:none" points="1872.78,1486.45 1872.78,1467.55 "/>
<polyline clip-path="url(#clip410)" style="stroke:#000000; stroke-linecap:round; stroke-linejoin:round; stroke-width:4; stroke-opacity:1; fill:none" points="2290.15,1486.45 2290.15,1467.55 "/>
<path clip-path="url(#clip410)" d="M203.301 1517.37 Q199.69 1517.37 197.861 1520.93 Q196.056 1524.47 196.056 1531.6 Q196.056 1538.71 197.861 1542.27 Q199.69 1545.82 203.301 1545.82 Q206.935 1545.82 208.741 1542.27 Q210.57 1538.71 210.57 1531.6 Q210.57 1524.47 208.741 1520.93 Q206.935 1517.37 203.301 1517.37 M203.301 1513.66 Q209.111 1513.66 212.167 1518.27 Q215.245 1522.85 215.245 1531.6 Q215.245 1540.33 212.167 1544.94 Q209.111 1549.52 203.301 1549.52 Q197.491 1549.52 194.412 1544.94 Q191.357 1540.33 191.357 1531.6 Q191.357 1522.85 194.412 1518.27 Q197.491 1513.66 203.301 1513.66 Z" fill="#000000" fill-rule="nonzero" fill-opacity="1" /><path clip-path="url(#clip410)" d="M611.053 1544.91 L618.692 1544.91 L618.692 1518.55 L610.382 1520.21 L610.382 1515.95 L618.645 1514.29 L623.321 1514.29 L623.321 1544.91 L630.96 1544.91 L630.96 1548.85 L611.053 1548.85 L611.053 1544.91 Z" fill="#000000" fill-rule="nonzero" fill-opacity="1" /><path clip-path="url(#clip410)" d="M1032.69 1544.91 L1049.01 1544.91 L1049.01 1548.85 L1027.07 1548.85 L1027.07 1544.91 Q1029.73 1542.16 1034.31 1537.53 Q1038.92 1532.88 1040.1 1531.53 Q1042.35 1529.01 1043.23 1527.27 Q1044.13 1525.51 1044.13 1523.82 Q1044.13 1521.07 1042.18 1519.33 Q1040.26 1517.6 1037.16 1517.6 Q1034.96 1517.6 1032.51 1518.36 Q1030.08 1519.13 1027.3 1520.68 L1027.3 1515.95 Q1030.12 1514.82 1032.58 1514.24 Q1035.03 1513.66 1037.07 1513.66 Q1042.44 1513.66 1045.63 1516.35 Q1048.83 1519.03 1048.83 1523.52 Q1048.83 1525.65 1048.02 1527.57 Q1047.23 1529.47 1045.12 1532.07 Q1044.55 1532.74 1041.44 1535.95 Q1038.34 1539.15 1032.69 1544.91 Z" fill="#000000" fill-rule="nonzero" fill-opacity="1" /><path clip-path="url(#clip410)" d="M1459.66 1530.21 Q1463.01 1530.93 1464.89 1533.2 Q1466.79 1535.47 1466.79 1538.8 Q1466.79 1543.92 1463.27 1546.72 Q1459.75 1549.52 1453.27 1549.52 Q1451.09 1549.52 1448.78 1549.08 Q1446.49 1548.66 1444.03 1547.81 L1444.03 1543.29 Q1445.98 1544.43 1448.29 1545.01 Q1450.61 1545.58 1453.13 1545.58 Q1457.53 1545.58 1459.82 1543.85 Q1462.14 1542.11 1462.14 1538.8 Q1462.14 1535.75 1459.98 1534.03 Q1457.85 1532.3 1454.03 1532.3 L1450.01 1532.3 L1450.01 1528.45 L1454.22 1528.45 Q1457.67 1528.45 1459.5 1527.09 Q1461.32 1525.7 1461.32 1523.11 Q1461.32 1520.45 1459.43 1519.03 Q1457.55 1517.6 1454.03 1517.6 Q1452.11 1517.6 1449.91 1518.01 Q1447.71 1518.43 1445.08 1519.31 L1445.08 1515.14 Q1447.74 1514.4 1450.05 1514.03 Q1452.39 1513.66 1454.45 1513.66 Q1459.77 1513.66 1462.88 1516.09 Q1465.98 1518.5 1465.98 1522.62 Q1465.98 1525.49 1464.33 1527.48 Q1462.69 1529.45 1459.66 1530.21 Z" fill="#000000" fill-rule="nonzero" fill-opacity="1" /><path clip-path="url(#clip410)" d="M1875.79 1518.36 L1863.98 1536.81 L1875.79 1536.81 L1875.79 1518.36 M1874.56 1514.29 L1880.44 1514.29 L1880.44 1536.81 L1885.37 1536.81 L1885.37 1540.7 L1880.44 1540.7 L1880.44 1548.85 L1875.79 1548.85 L1875.79 1540.7 L1860.19 1540.7 L1860.19 1536.19 L1874.56 1514.29 Z" fill="#000000" fill-rule="nonzero" fill-opacity="1" /><path clip-path="url(#clip410)" d="M2280.43 1514.29 L2298.78 1514.29 L2298.78 1518.22 L2284.71 1518.22 L2284.71 1526.7 Q2285.73 1526.35 2286.75 1526.19 Q2287.77 1526 2288.78 1526 Q2294.57 1526 2297.95 1529.17 Q2301.33 1532.34 2301.33 1537.76 Q2301.33 1543.34 2297.86 1546.44 Q2294.39 1549.52 2288.07 1549.52 Q2285.89 1549.52 2283.62 1549.15 Q2281.38 1548.78 2278.97 1548.04 L2278.97 1543.34 Q2281.05 1544.47 2283.28 1545.03 Q2285.5 1545.58 2287.97 1545.58 Q2291.98 1545.58 2294.32 1543.48 Q2296.66 1541.37 2296.66 1537.76 Q2296.66 1534.15 2294.32 1532.04 Q2291.98 1529.94 2287.97 1529.94 Q2286.1 1529.94 2284.22 1530.35 Q2282.37 1530.77 2280.43 1531.65 L2280.43 1514.29 Z" fill="#000000" fill-rule="nonzero" fill-opacity="1" /><polyline clip-path="url(#clip410)" style="stroke:#000000; stroke-linecap:round; stroke-linejoin:round; stroke-width:4; stroke-opacity:1; fill:none" points="140.696,1486.45 140.696,47.2441 "/>
<polyline clip-path="url(#clip410)" style="stroke:#000000; stroke-linecap:round; stroke-linejoin:round; stroke-width:4; stroke-opacity:1; fill:none" points="140.696,1445.72 159.593,1445.72 "/>
<polyline clip-path="url(#clip410)" style="stroke:#000000; stroke-linecap:round; stroke-linejoin:round; stroke-width:4; stroke-opacity:1; fill:none" points="140.696,1174.17 159.593,1174.17 "/>
<polyline clip-path="url(#clip410)" style="stroke:#000000; stroke-linecap:round; stroke-linejoin:round; stroke-width:4; stroke-opacity:1; fill:none" points="140.696,902.62 159.593,902.62 "/>
<polyline clip-path="url(#clip410)" style="stroke:#000000; stroke-linecap:round; stroke-linejoin:round; stroke-width:4; stroke-opacity:1; fill:none" points="140.696,631.072 159.593,631.072 "/>
<polyline clip-path="url(#clip410)" style="stroke:#000000; stroke-linecap:round; stroke-linejoin:round; stroke-width:4; stroke-opacity:1; fill:none" points="140.696,359.524 159.593,359.524 "/>
<polyline clip-path="url(#clip410)" style="stroke:#000000; stroke-linecap:round; stroke-linejoin:round; stroke-width:4; stroke-opacity:1; fill:none" points="140.696,87.9763 159.593,87.9763 "/>
<path clip-path="url(#clip410)" d="M92.7512 1431.51 Q89.1401 1431.51 87.3114 1435.08 Q85.5058 1438.62 85.5058 1445.75 Q85.5058 1452.86 87.3114 1456.42 Q89.1401 1459.96 92.7512 1459.96 Q96.3854 1459.96 98.1909 1456.42 Q100.02 1452.86 100.02 1445.75 Q100.02 1438.62 98.1909 1435.08 Q96.3854 1431.51 92.7512 1431.51 M92.7512 1427.81 Q98.5613 1427.81 101.617 1432.42 Q104.696 1437 104.696 1445.75 Q104.696 1454.48 101.617 1459.08 Q98.5613 1463.67 92.7512 1463.67 Q86.941 1463.67 83.8623 1459.08 Q80.8068 1454.48 80.8068 1445.75 Q80.8068 1437 83.8623 1432.42 Q86.941 1427.81 92.7512 1427.81 Z" fill="#000000" fill-rule="nonzero" fill-opacity="1" /><path clip-path="url(#clip410)" d="M83.7929 1156.89 L102.149 1156.89 L102.149 1160.82 L88.0753 1160.82 L88.0753 1169.3 Q89.0938 1168.95 90.1123 1168.79 Q91.1308 1168.6 92.1493 1168.6 Q97.9363 1168.6 101.316 1171.77 Q104.696 1174.94 104.696 1180.36 Q104.696 1185.94 101.223 1189.04 Q97.7511 1192.12 91.4317 1192.12 Q89.2558 1192.12 86.9873 1191.75 Q84.7419 1191.38 82.3346 1190.64 L82.3346 1185.94 Q84.4179 1187.07 86.6401 1187.63 Q88.8623 1188.18 91.3391 1188.18 Q95.3437 1188.18 97.6817 1186.08 Q100.02 1183.97 100.02 1180.36 Q100.02 1176.75 97.6817 1174.64 Q95.3437 1172.54 91.3391 1172.54 Q89.4641 1172.54 87.5892 1172.95 Q85.7373 1173.37 83.7929 1174.25 L83.7929 1156.89 Z" fill="#000000" fill-rule="nonzero" fill-opacity="1" /><path clip-path="url(#clip410)" d="M53.3995 915.965 L61.0384 915.965 L61.0384 889.599 L52.7282 891.266 L52.7282 887.007 L60.9921 885.34 L65.668 885.34 L65.668 915.965 L73.3068 915.965 L73.3068 919.9 L53.3995 919.9 L53.3995 915.965 Z" fill="#000000" fill-rule="nonzero" fill-opacity="1" /><path clip-path="url(#clip410)" d="M92.7512 888.419 Q89.1401 888.419 87.3114 891.983 Q85.5058 895.525 85.5058 902.655 Q85.5058 909.761 87.3114 913.326 Q89.1401 916.868 92.7512 916.868 Q96.3854 916.868 98.1909 913.326 Q100.02 909.761 100.02 902.655 Q100.02 895.525 98.1909 891.983 Q96.3854 888.419 92.7512 888.419 M92.7512 884.715 Q98.5613 884.715 101.617 889.321 Q104.696 893.905 104.696 902.655 Q104.696 911.381 101.617 915.988 Q98.5613 920.571 92.7512 920.571 Q86.941 920.571 83.8623 915.988 Q80.8068 911.381 80.8068 902.655 Q80.8068 893.905 83.8623 889.321 Q86.941 884.715 92.7512 884.715 Z" fill="#000000" fill-rule="nonzero" fill-opacity="1" /><path clip-path="url(#clip410)" d="M54.3949 644.417 L62.0337 644.417 L62.0337 618.051 L53.7236 619.718 L53.7236 615.459 L61.9874 613.792 L66.6633 613.792 L66.6633 644.417 L74.3022 644.417 L74.3022 648.352 L54.3949 648.352 L54.3949 644.417 Z" fill="#000000" fill-rule="nonzero" fill-opacity="1" /><path clip-path="url(#clip410)" d="M83.7929 613.792 L102.149 613.792 L102.149 617.727 L88.0753 617.727 L88.0753 626.199 Q89.0938 625.852 90.1123 625.69 Q91.1308 625.505 92.1493 625.505 Q97.9363 625.505 101.316 628.676 Q104.696 631.848 104.696 637.264 Q104.696 642.843 101.223 645.945 Q97.7511 649.023 91.4317 649.023 Q89.2558 649.023 86.9873 648.653 Q84.7419 648.283 82.3346 647.542 L82.3346 642.843 Q84.4179 643.977 86.6401 644.533 Q88.8623 645.088 91.3391 645.088 Q95.3437 645.088 97.6817 642.982 Q100.02 640.875 100.02 637.264 Q100.02 633.653 97.6817 631.547 Q95.3437 629.44 91.3391 629.44 Q89.4641 629.44 87.5892 629.857 Q85.7373 630.273 83.7929 631.153 L83.7929 613.792 Z" fill="#000000" fill-rule="nonzero" fill-opacity="1" /><path clip-path="url(#clip410)" d="M56.6171 372.869 L72.9365 372.869 L72.9365 376.804 L50.9921 376.804 L50.9921 372.869 Q53.6541 370.114 58.2375 365.485 Q62.8439 360.832 64.0245 359.489 Q66.2698 356.966 67.1494 355.23 Q68.0522 353.471 68.0522 351.781 Q68.0522 349.027 66.1078 347.29 Q64.1865 345.554 61.0847 345.554 Q58.8856 345.554 56.4319 346.318 Q54.0014 347.082 51.2236 348.633 L51.2236 343.911 Q54.0477 342.777 56.5014 342.198 Q58.955 341.619 60.9921 341.619 Q66.3624 341.619 69.5568 344.304 Q72.7513 346.99 72.7513 351.48 Q72.7513 353.61 71.9411 355.531 Q71.1541 357.429 69.0476 360.022 Q68.4689 360.693 65.367 363.911 Q62.2652 367.105 56.6171 372.869 Z" fill="#000000" fill-rule="nonzero" fill-opacity="1" /><path clip-path="url(#clip410)" d="M92.7512 345.323 Q89.1401 345.323 87.3114 348.888 Q85.5058 352.429 85.5058 359.559 Q85.5058 366.665 87.3114 370.23 Q89.1401 373.772 92.7512 373.772 Q96.3854 373.772 98.1909 370.23 Q100.02 366.665 100.02 359.559 Q100.02 352.429 98.1909 348.888 Q96.3854 345.323 92.7512 345.323 M92.7512 341.619 Q98.5613 341.619 101.617 346.226 Q104.696 350.809 104.696 359.559 Q104.696 368.286 101.617 372.892 Q98.5613 377.475 92.7512 377.475 Q86.941 377.475 83.8623 372.892 Q80.8068 368.286 80.8068 359.559 Q80.8068 350.809 83.8623 346.226 Q86.941 341.619 92.7512 341.619 Z" fill="#000000" fill-rule="nonzero" fill-opacity="1" /><path clip-path="url(#clip410)" d="M57.6125 101.321 L73.9318 101.321 L73.9318 105.256 L51.9875 105.256 L51.9875 101.321 Q54.6495 98.5665 59.2328 93.9369 Q63.8393 89.2841 65.0198 87.9416 Q67.2652 85.4184 68.1448 83.6823 Q69.0476 81.9231 69.0476 80.2333 Q69.0476 77.4786 67.1032 75.7425 Q65.1819 74.0064 62.08 74.0064 Q59.881 74.0064 57.4273 74.7703 Q54.9967 75.5342 52.219 77.0851 L52.219 72.3629 Q55.043 71.2287 57.4967 70.65 Q59.9504 70.0713 61.9874 70.0713 Q67.3578 70.0713 70.5522 72.7565 Q73.7466 75.4416 73.7466 79.9323 Q73.7466 82.062 72.9365 83.9832 Q72.1494 85.8814 70.0429 88.474 Q69.4642 89.1453 66.3624 92.3628 Q63.2606 95.5573 57.6125 101.321 Z" fill="#000000" fill-rule="nonzero" fill-opacity="1" /><path clip-path="url(#clip410)" d="M83.7929 70.6963 L102.149 70.6963 L102.149 74.6314 L88.0753 74.6314 L88.0753 83.1036 Q89.0938 82.7564 90.1123 82.5944 Q91.1308 82.4092 92.1493 82.4092 Q97.9363 82.4092 101.316 85.5805 Q104.696 88.7517 104.696 94.1684 Q104.696 99.747 101.223 102.849 Q97.7511 105.928 91.4317 105.928 Q89.2558 105.928 86.9873 105.557 Q84.7419 105.187 82.3346 104.446 L82.3346 99.747 Q84.4179 100.881 86.6401 101.437 Q88.8623 101.992 91.3391 101.992 Q95.3437 101.992 97.6817 99.8859 Q100.02 97.7795 100.02 94.1684 Q100.02 90.5573 97.6817 88.4508 Q95.3437 86.3443 91.3391 86.3443 Q89.4641 86.3443 87.5892 86.761 Q85.7373 87.1777 83.7929 88.0573 L83.7929 70.6963 Z" fill="#000000" fill-rule="nonzero" fill-opacity="1" /><polyline clip-path="url(#clip412)" style="stroke:#009af9; stroke-linecap:round; stroke-linejoin:round; stroke-width:4; stroke-opacity:1; fill:none" points="203.301,1445.72 245.038,1445.17 286.775,1443.54 328.512,1440.83 370.249,1437.03 411.986,1432.14 453.723,1426.16 495.46,1419.1 537.197,1410.96 578.934,1401.72 620.671,1391.41 662.408,1380 704.145,1367.51 745.882,1353.93 787.619,1339.27 829.356,1323.52 871.093,1306.68 912.83,1288.76 954.567,1269.75 996.304,1249.66 1038.04,1228.48 1079.78,1206.21 1121.51,1182.86 1163.25,1158.42 1204.99,1132.89 1246.73,1106.28 1288.46,1078.58 1330.2,1049.8 1371.94,1019.93 1413.67,988.972 1455.41,956.93 1497.15,923.801 1538.88,889.586 1580.62,854.284 1622.36,817.897 1664.1,780.423 1705.83,741.864 1747.57,702.218 1789.31,661.485 1831.04,619.667 1872.78,576.762 1914.52,532.772 1956.25,487.695 1997.99,441.532 2039.73,394.282 2081.47,345.947 2123.2,296.525 2164.94,246.017 2206.68,194.423 2248.41,141.743 2290.15,87.9763 "/>
<circle clip-path="url(#clip412)" cx="620.671" cy="1391.41" r="14.4" fill="#e26f46" fill-rule="evenodd" fill-opacity="1" stroke="#000000" stroke-opacity="1" stroke-width="3.2"/>
<circle clip-path="url(#clip412)" cx="1038.04" cy="1174.17" r="14.4" fill="#e26f46" fill-rule="evenodd" fill-opacity="1" stroke="#000000" stroke-opacity="1" stroke-width="3.2"/>
<circle clip-path="url(#clip412)" cx="1455.41" cy="1011.24" r="14.4" fill="#e26f46" fill-rule="evenodd" fill-opacity="1" stroke="#000000" stroke-opacity="1" stroke-width="3.2"/>
<circle clip-path="url(#clip412)" cx="1872.78" cy="522.453" r="14.4" fill="#e26f46" fill-rule="evenodd" fill-opacity="1" stroke="#000000" stroke-opacity="1" stroke-width="3.2"/>
<path clip-path="url(#clip410)" d="M1894.74 1438.47 L2279.02 1438.47 L2279.02 1282.95 L1894.74 1282.95  Z" fill="#ffffff" fill-rule="evenodd" fill-opacity="1"/>
<polyline clip-path="url(#clip410)" style="stroke:#000000; stroke-linecap:round; stroke-linejoin:round; stroke-width:4; stroke-opacity:1; fill:none" points="1894.74,1438.47 2279.02,1438.47 2279.02,1282.95 1894.74,1282.95 1894.74,1438.47 "/>
<polyline clip-path="url(#clip410)" style="stroke:#009af9; stroke-linecap:round; stroke-linejoin:round; stroke-width:4; stroke-opacity:1; fill:none" points="1919.32,1334.79 2066.79,1334.79 "/>
<path clip-path="url(#clip410)" d="M2091.36 1316.06 L2095.62 1316.06 L2095.62 1352.07 L2091.36 1352.07 L2091.36 1316.06 Z" fill="#000000" fill-rule="nonzero" fill-opacity="1" /><path clip-path="url(#clip410)" d="M2104.54 1326.15 L2108.79 1326.15 L2108.79 1352.07 L2104.54 1352.07 L2104.54 1326.15 M2104.54 1316.06 L2108.79 1316.06 L2108.79 1321.45 L2104.54 1321.45 L2104.54 1316.06 Z" fill="#000000" fill-rule="nonzero" fill-opacity="1" /><path clip-path="url(#clip410)" d="M2139.26 1336.43 L2139.26 1352.07 L2135 1352.07 L2135 1336.57 Q2135 1332.88 2133.56 1331.06 Q2132.13 1329.23 2129.26 1329.23 Q2125.81 1329.23 2123.82 1331.43 Q2121.83 1333.63 2121.83 1337.42 L2121.83 1352.07 L2117.54 1352.07 L2117.54 1326.15 L2121.83 1326.15 L2121.83 1330.18 Q2123.35 1327.84 2125.42 1326.68 Q2127.5 1325.52 2130.21 1325.52 Q2134.67 1325.52 2136.97 1328.3 Q2139.26 1331.06 2139.26 1336.43 Z" fill="#000000" fill-rule="nonzero" fill-opacity="1" /><path clip-path="url(#clip410)" d="M2169.93 1338.05 L2169.93 1340.13 L2150.35 1340.13 Q2150.62 1344.53 2152.98 1346.84 Q2155.37 1349.13 2159.6 1349.13 Q2162.06 1349.13 2164.35 1348.53 Q2166.66 1347.93 2168.93 1346.73 L2168.93 1350.75 Q2166.64 1351.73 2164.23 1352.24 Q2161.83 1352.75 2159.35 1352.75 Q2153.15 1352.75 2149.51 1349.13 Q2145.9 1345.52 2145.9 1339.37 Q2145.9 1333 2149.33 1329.27 Q2152.78 1325.52 2158.61 1325.52 Q2163.84 1325.52 2166.87 1328.9 Q2169.93 1332.26 2169.93 1338.05 M2165.67 1336.8 Q2165.62 1333.3 2163.7 1331.22 Q2161.8 1329.13 2158.66 1329.13 Q2155.09 1329.13 2152.94 1331.15 Q2150.81 1333.16 2150.48 1336.82 L2165.67 1336.8 Z" fill="#000000" fill-rule="nonzero" fill-opacity="1" /><circle clip-path="url(#clip410)" cx="1993.05" cy="1386.63" r="20.48" fill="#e26f46" fill-rule="evenodd" fill-opacity="1" stroke="#000000" stroke-opacity="1" stroke-width="4.55111"/>
<path clip-path="url(#clip410)" d="M2109.79 1378.75 L2109.79 1382.78 Q2107.98 1381.85 2106.04 1381.39 Q2104.1 1380.93 2102.01 1380.93 Q2098.84 1380.93 2097.24 1381.9 Q2095.67 1382.87 2095.67 1384.82 Q2095.67 1386.3 2096.8 1387.16 Q2097.94 1387.99 2101.36 1388.75 L2102.82 1389.08 Q2107.36 1390.05 2109.26 1391.83 Q2111.18 1393.59 2111.18 1396.76 Q2111.18 1400.37 2108.31 1402.48 Q2105.46 1404.59 2100.46 1404.59 Q2098.38 1404.59 2096.11 1404.17 Q2093.86 1403.78 2091.36 1402.97 L2091.36 1398.57 Q2093.73 1399.79 2096.02 1400.42 Q2098.31 1401.02 2100.55 1401.02 Q2103.56 1401.02 2105.18 1400 Q2106.8 1398.96 2106.8 1397.09 Q2106.8 1395.35 2105.62 1394.42 Q2104.47 1393.5 2100.51 1392.64 L2099.03 1392.29 Q2095.07 1391.46 2093.31 1389.75 Q2091.55 1388.01 2091.55 1385 Q2091.55 1381.35 2094.14 1379.35 Q2096.73 1377.36 2101.5 1377.36 Q2103.86 1377.36 2105.95 1377.71 Q2108.03 1378.06 2109.79 1378.75 Z" fill="#000000" fill-rule="nonzero" fill-opacity="1" /><path clip-path="url(#clip410)" d="M2136.62 1378.98 L2136.62 1382.97 Q2134.81 1381.97 2132.98 1381.48 Q2131.18 1380.97 2129.33 1380.97 Q2125.18 1380.97 2122.89 1383.61 Q2120.6 1386.23 2120.6 1390.97 Q2120.6 1395.72 2122.89 1398.36 Q2125.18 1400.97 2129.33 1400.97 Q2131.18 1400.97 2132.98 1400.49 Q2134.81 1399.98 2136.62 1398.98 L2136.62 1402.92 Q2134.84 1403.75 2132.91 1404.17 Q2131.02 1404.59 2128.86 1404.59 Q2123.01 1404.59 2119.56 1400.91 Q2116.11 1397.22 2116.11 1390.97 Q2116.11 1384.63 2119.58 1381 Q2123.08 1377.36 2129.14 1377.36 Q2131.11 1377.36 2132.98 1377.78 Q2134.86 1378.17 2136.62 1378.98 Z" fill="#000000" fill-rule="nonzero" fill-opacity="1" /><path clip-path="url(#clip410)" d="M2155.81 1390.88 Q2150.65 1390.88 2148.66 1392.06 Q2146.66 1393.24 2146.66 1396.09 Q2146.66 1398.36 2148.15 1399.7 Q2149.65 1401.02 2152.22 1401.02 Q2155.76 1401.02 2157.89 1398.52 Q2160.04 1396 2160.04 1391.83 L2160.04 1390.88 L2155.81 1390.88 M2164.3 1389.12 L2164.3 1403.91 L2160.04 1403.91 L2160.04 1399.98 Q2158.59 1402.34 2156.41 1403.47 Q2154.23 1404.59 2151.09 1404.59 Q2147.1 1404.59 2144.74 1402.36 Q2142.41 1400.12 2142.41 1396.37 Q2142.41 1391.99 2145.32 1389.77 Q2148.26 1387.55 2154.07 1387.55 L2160.04 1387.55 L2160.04 1387.13 Q2160.04 1384.19 2158.1 1382.6 Q2156.18 1380.97 2152.68 1380.97 Q2150.46 1380.97 2148.35 1381.51 Q2146.25 1382.04 2144.3 1383.1 L2144.3 1379.17 Q2146.64 1378.27 2148.84 1377.83 Q2151.04 1377.36 2153.12 1377.36 Q2158.75 1377.36 2161.53 1380.28 Q2164.3 1383.2 2164.3 1389.12 Z" fill="#000000" fill-rule="nonzero" fill-opacity="1" /><path clip-path="url(#clip410)" d="M2177.29 1370.63 L2177.29 1377.99 L2186.06 1377.99 L2186.06 1381.3 L2177.29 1381.3 L2177.29 1395.37 Q2177.29 1398.54 2178.15 1399.45 Q2179.03 1400.35 2181.69 1400.35 L2186.06 1400.35 L2186.06 1403.91 L2181.69 1403.91 Q2176.76 1403.91 2174.88 1402.09 Q2173.01 1400.23 2173.01 1395.37 L2173.01 1381.3 L2169.88 1381.3 L2169.88 1377.99 L2173.01 1377.99 L2173.01 1370.63 L2177.29 1370.63 Z" fill="#000000" fill-rule="nonzero" fill-opacity="1" /><path clip-path="url(#clip410)" d="M2195.88 1370.63 L2195.88 1377.99 L2204.65 1377.99 L2204.65 1381.3 L2195.88 1381.3 L2195.88 1395.37 Q2195.88 1398.54 2196.73 1399.45 Q2197.61 1400.35 2200.28 1400.35 L2204.65 1400.35 L2204.65 1403.91 L2200.28 1403.91 Q2195.35 1403.91 2193.47 1402.09 Q2191.6 1400.23 2191.6 1395.37 L2191.6 1381.3 L2188.47 1381.3 L2188.47 1377.99 L2191.6 1377.99 L2191.6 1370.63 L2195.88 1370.63 Z" fill="#000000" fill-rule="nonzero" fill-opacity="1" /><path clip-path="url(#clip410)" d="M2232.43 1389.89 L2232.43 1391.97 L2212.85 1391.97 Q2213.12 1396.37 2215.48 1398.68 Q2217.87 1400.97 2222.1 1400.97 Q2224.56 1400.97 2226.85 1400.37 Q2229.16 1399.77 2231.43 1398.57 L2231.43 1402.59 Q2229.14 1403.57 2226.73 1404.08 Q2224.33 1404.59 2221.85 1404.59 Q2215.65 1404.59 2212.01 1400.97 Q2208.4 1397.36 2208.4 1391.21 Q2208.4 1384.84 2211.83 1381.11 Q2215.28 1377.36 2221.11 1377.36 Q2226.34 1377.36 2229.37 1380.74 Q2232.43 1384.1 2232.43 1389.89 M2228.17 1388.64 Q2228.12 1385.14 2226.2 1383.06 Q2224.3 1380.97 2221.16 1380.97 Q2217.59 1380.97 2215.44 1382.99 Q2213.31 1385 2212.98 1388.66 L2228.17 1388.64 Z" fill="#000000" fill-rule="nonzero" fill-opacity="1" /><path clip-path="url(#clip410)" d="M2254.44 1381.97 Q2253.72 1381.55 2252.87 1381.37 Q2252.03 1381.16 2251.02 1381.16 Q2247.41 1381.16 2245.46 1383.52 Q2243.54 1385.86 2243.54 1390.26 L2243.54 1403.91 L2239.26 1403.91 L2239.26 1377.99 L2243.54 1377.99 L2243.54 1382.02 Q2244.88 1379.66 2247.03 1378.52 Q2249.19 1377.36 2252.27 1377.36 Q2252.71 1377.36 2253.24 1377.43 Q2253.77 1377.48 2254.42 1377.6 L2254.44 1381.97 Z" fill="#000000" fill-rule="nonzero" fill-opacity="1" /></svg>
