<?xml version="1.0" encoding="utf-8"?>
<svg xmlns="http://www.w3.org/2000/svg" xmlns:xlink="http://www.w3.org/1999/xlink" width="600" height="400" viewBox="0 0 2400 1600">
<defs>
  <clipPath id="clip120">
    <rect x="0" y="0" width="2400" height="1600"/>
  </clipPath>
</defs>
<path clip-path="url(#clip120)" d="M0 1600 L2400 1600 L2400 0 L0 0  Z" fill="#ffffff" fill-rule="evenodd" fill-opacity="1"/>
<defs>
  <clipPath id="clip121">
    <rect x="480" y="0" width="1681" height="1600"/>
  </clipPath>
</defs>
<path clip-path="url(#clip120)" d="M156.598 1486.45 L2352.76 1486.45 L2352.76 47.2441 L156.598 47.2441  Z" fill="#ffffff" fill-rule="evenodd" fill-opacity="1"/>
<defs>
  <clipPath id="clip122">
    <rect x="156" y="47" width="2197" height="1440"/>
  </clipPath>
</defs>
<polyline clip-path="url(#clip122)" style="stroke:#000000; stroke-linecap:round; stroke-linejoin:round; stroke-width:2; stroke-opacity:0.1; fill:none" points="218.754,1486.45 218.754,47.2441 "/>
<polyline clip-path="url(#clip122)" style="stroke:#000000; stroke-linecap:round; stroke-linejoin:round; stroke-width:2; stroke-opacity:0.1; fill:none" points="736.715,1486.45 736.715,47.2441 "/>
<polyline clip-path="url(#clip122)" style="stroke:#000000; stroke-linecap:round; stroke-linejoin:round; stroke-width:2; stroke-opacity:0.1; fill:none" points="1254.68,1486.45 1254.68,47.2441 "/>
<polyline clip-path="url(#clip122)" style="stroke:#000000; stroke-linecap:round; stroke-linejoin:round; stroke-width:2; stroke-opacity:0.1; fill:none" points="1772.64,1486.45 1772.64,47.2441 "/>
<polyline clip-path="url(#clip122)" style="stroke:#000000; stroke-linecap:round; stroke-linejoin:round; stroke-width:2; stroke-opacity:0.1; fill:none" points="2290.6,1486.45 2290.6,47.2441 "/>
<polyline clip-path="url(#clip122)" style="stroke:#000000; stroke-linecap:round; stroke-linejoin:round; stroke-width:2; stroke-opacity:0.1; fill:none" points="156.598,1445.72 2352.76,1445.72 "/>
<polyline clip-path="url(#clip122)" style="stroke:#000000; stroke-linecap:round; stroke-linejoin:round; stroke-width:2; stroke-opacity:0.1; fill:none" points="156.598,1123.01 2352.76,1123.01 "/>
<polyline clip-path="url(#clip122)" style="stroke:#000000; stroke-linecap:round; stroke-linejoin:round; stroke-width:2; stroke-opacity:0.1; fill:none" points="156.598,800.303 2352.76,800.303 "/>
<polyline clip-path="url(#clip122)" style="stroke:#000000; stroke-linecap:round; stroke-linejoin:round; stroke-width:2; stroke-opacity:0.1; fill:none" points="156.598,477.597 2352.76,477.597 "/>
<polyline clip-path="url(#clip122)" style="stroke:#000000; stroke-linecap:round; stroke-linejoin:round; stroke-width:2; stroke-opacity:0.1; fill:none" points="156.598,154.891 2352.76,154.891 "/>
<polyline clip-path="url(#clip120)" style="stroke:#000000; stroke-linecap:round; stroke-linejoin:round; stroke-width:4; stroke-opacity:1; fill:none" points="156.598,1486.45 2352.76,1486.45 "/>
<polyline clip-path="url(#clip120)" style="stroke:#000000; stroke-linecap:round; stroke-linejoin:round; stroke-width:4; stroke-opacity:1; fill:none" points="218.754,1486.45 218.754,1467.55 "/>
<polyline clip-path="url(#clip120)" style="stroke:#000000; stroke-linecap:round; stroke-linejoin:round; stroke-width:4; stroke-opacity:1; fill:none" points="736.715,1486.45 736.715,1467.55 "/>
<polyline clip-path="url(#clip120)" style="stroke:#000000; stroke-linecap:round; stroke-linejoin:round; stroke-width:4; stroke-opacity:1; fill:none" points="1254.68,1486.45 1254.68,1467.55 "/>
<polyline clip-path="url(#clip120)" style="stroke:#000000; stroke-linecap:round; stroke-linejoin:round; stroke-width:4; stroke-opacity:1; fill:none" points="1772.64,1486.45 1772.64,1467.55 "/>
<polyline clip-path="url(#clip120)" style="stroke:#000000; stroke-linecap:round; stroke-linejoin:round; stroke-width:4; stroke-opacity:1; fill:none" points="2290.6,1486.45 2290.6,1467.55 "/>
<path clip-path="url(#clip120)" d="M181.057 1517.37 Q177.446 1517.37 175.617 1520.93 Q173.812 1524.47 173.812 1531.6 Q173.812 1538.71 175.617 1542.27 Q177.446 1545.82 181.057 1545.82 Q184.691 1545.82 186.497 1542.27 Q188.326 1538.71 188.326 1531.6 Q188.326 1524.47 186.497 1520.93 Q184.691 1517.37 181.057 1517.37 M181.057 1513.66 Q186.867 1513.66 189.923 1518.27 Q193.001 1522.85 193.001 1531.6 Q193.001 1540.33 189.923 1544.94 Q186.867 1549.52 181.057 1549.52 Q175.247 1549.52 172.168 1544.94 Q169.113 1540.33 169.113 1531.6 Q169.113 1522.85 172.168 1518.27 Q175.247 1513.66 181.057 1513.66 Z" fill="#000000" fill-rule="nonzero" fill-opacity="1" /><path clip-path="url(#clip120)" d="M201.219 1542.97 L206.103 1542.97 L206.103 1548.85 L201.219 1548.85 L201.219 1542.97 Z" fill="#000000" fill-rule="nonzero" fill-opacity="1" /><path clip-path="url(#clip120)" d="M226.288 1517.37 Q222.677 1517.37 220.849 1520.93 Q219.043 1524.47 219.043 1531.6 Q219.043 1538.71 220.849 1542.27 Q222.677 1545.82 226.288 1545.82 Q229.923 1545.82 231.728 1542.27 Q233.557 1538.71 233.557 1531.6 Q233.557 1524.47 231.728 1520.93 Q229.923 1517.37 226.288 1517.37 M226.288 1513.66 Q232.098 1513.66 235.154 1518.27 Q238.233 1522.85 238.233 1531.6 Q238.233 1540.33 235.154 1544.94 Q232.098 1549.52 226.288 1549.52 Q220.478 1549.52 217.399 1544.94 Q214.344 1540.33 214.344 1531.6 Q214.344 1522.85 217.399 1518.27 Q220.478 1513.66 226.288 1513.66 Z" fill="#000000" fill-rule="nonzero" fill-opacity="1" /><path clip-path="url(#clip120)" d="M256.45 1517.37 Q252.839 1517.37 251.01 1520.93 Q249.205 1524.47 249.205 1531.6 Q249.205 1538.71 251.01 1542.27 Q252.839 1545.82 256.45 1545.82 Q260.084 1545.82 261.89 1542.27 Q263.719 1538.71 263.719 1531.6 Q263.719 1524.47 261.89 1520.93 Q260.084 1517.37 256.45 1517.37 M256.45 1513.66 Q262.26 1513.66 265.316 1518.27 Q268.395 1522.85 268.395 1531.6 Q268.395 1540.33 265.316 1544.94 Q262.26 1549.52 256.45 1549.52 Q250.64 1549.52 247.561 1544.94 Q244.506 1540.33 244.506 1531.6 Q244.506 1522.85 247.561 1518.27 Q250.64 1513.66 256.45 1513.66 Z" fill="#000000" fill-rule="nonzero" fill-opacity="1" /><path clip-path="url(#clip120)" d="M699.516 1517.37 Q695.905 1517.37 694.077 1520.93 Q692.271 1524.47 692.271 1531.6 Q692.271 1538.71 694.077 1542.27 Q695.905 1545.82 699.516 1545.82 Q703.151 1545.82 704.956 1542.27 Q706.785 1538.71 706.785 1531.6 Q706.785 1524.47 704.956 1520.93 Q703.151 1517.37 699.516 1517.37 M699.516 1513.66 Q705.327 1513.66 708.382 1518.27 Q711.461 1522.85 711.461 1531.6 Q711.461 1540.33 708.382 1544.94 Q705.327 1549.52 699.516 1549.52 Q693.706 1549.52 690.628 1544.94 Q687.572 1540.33 687.572 1531.6 Q687.572 1522.85 690.628 1518.27 Q693.706 1513.66 699.516 1513.66 Z" fill="#000000" fill-rule="nonzero" fill-opacity="1" /><path clip-path="url(#clip120)" d="M719.678 1542.97 L724.563 1542.97 L724.563 1548.85 L719.678 1548.85 L719.678 1542.97 Z" fill="#000000" fill-rule="nonzero" fill-opacity="1" /><path clip-path="url(#clip120)" d="M738.776 1544.91 L755.095 1544.91 L755.095 1548.85 L733.151 1548.85 L733.151 1544.91 Q735.813 1542.16 740.396 1537.53 Q745.002 1532.88 746.183 1531.53 Q748.428 1529.01 749.308 1527.27 Q750.211 1525.51 750.211 1523.82 Q750.211 1521.07 748.266 1519.33 Q746.345 1517.6 743.243 1517.6 Q741.044 1517.6 738.59 1518.36 Q736.16 1519.13 733.382 1520.68 L733.382 1515.95 Q736.206 1514.82 738.66 1514.24 Q741.113 1513.66 743.151 1513.66 Q748.521 1513.66 751.715 1516.35 Q754.91 1519.03 754.91 1523.52 Q754.91 1525.65 754.1 1527.57 Q753.312 1529.47 751.206 1532.07 Q750.627 1532.74 747.525 1535.95 Q744.424 1539.15 738.776 1544.91 Z" fill="#000000" fill-rule="nonzero" fill-opacity="1" /><path clip-path="url(#clip120)" d="M764.956 1514.29 L783.312 1514.29 L783.312 1518.22 L769.238 1518.22 L769.238 1526.7 Q770.257 1526.35 771.275 1526.19 Q772.294 1526 773.312 1526 Q779.099 1526 782.479 1529.17 Q785.859 1532.34 785.859 1537.76 Q785.859 1543.34 782.386 1546.44 Q778.914 1549.52 772.595 1549.52 Q770.419 1549.52 768.15 1549.15 Q765.905 1548.78 763.498 1548.04 L763.498 1543.34 Q765.581 1544.47 767.803 1545.03 Q770.025 1545.58 772.502 1545.58 Q776.507 1545.58 778.845 1543.48 Q781.183 1541.37 781.183 1537.76 Q781.183 1534.15 778.845 1532.04 Q776.507 1529.94 772.502 1529.94 Q770.627 1529.94 768.752 1530.35 Q766.9 1530.77 764.956 1531.65 L764.956 1514.29 Z" fill="#000000" fill-rule="nonzero" fill-opacity="1" /><path clip-path="url(#clip120)" d="M1216.98 1517.37 Q1213.37 1517.37 1211.54 1520.93 Q1209.74 1524.47 1209.74 1531.6 Q1209.74 1538.71 1211.54 1542.27 Q1213.37 1545.82 1216.98 1545.82 Q1220.61 1545.82 1222.42 1542.27 Q1224.25 1538.71 1224.25 1531.6 Q1224.25 1524.47 1222.42 1520.93 Q1220.61 1517.37 1216.98 1517.37 M1216.98 1513.66 Q1222.79 1513.66 1225.85 1518.27 Q1228.92 1522.85 1228.92 1531.6 Q1228.92 1540.33 1225.85 1544.94 Q1222.79 1549.52 1216.98 1549.52 Q1211.17 1549.52 1208.09 1544.94 Q1205.04 1540.33 1205.04 1531.6 Q1205.04 1522.85 1208.09 1518.27 Q1211.17 1513.66 1216.98 1513.66 Z" fill="#000000" fill-rule="nonzero" fill-opacity="1" /><path clip-path="url(#clip120)" d="M1237.14 1542.97 L1242.03 1542.97 L1242.03 1548.85 L1237.14 1548.85 L1237.14 1542.97 Z" fill="#000000" fill-rule="nonzero" fill-opacity="1" /><path clip-path="url(#clip120)" d="M1252.26 1514.29 L1270.61 1514.29 L1270.61 1518.22 L1256.54 1518.22 L1256.54 1526.7 Q1257.56 1526.35 1258.58 1526.19 Q1259.6 1526 1260.61 1526 Q1266.4 1526 1269.78 1529.17 Q1273.16 1532.34 1273.16 1537.76 Q1273.16 1543.34 1269.69 1546.44 Q1266.22 1549.52 1259.9 1549.52 Q1257.72 1549.52 1255.45 1549.15 Q1253.21 1548.78 1250.8 1548.04 L1250.8 1543.34 Q1252.88 1544.47 1255.11 1545.03 Q1257.33 1545.58 1259.8 1545.58 Q1263.81 1545.58 1266.15 1543.48 Q1268.48 1541.37 1268.48 1537.76 Q1268.48 1534.15 1266.15 1532.04 Q1263.81 1529.94 1259.8 1529.94 Q1257.93 1529.94 1256.05 1530.35 Q1254.2 1530.77 1252.26 1531.65 L1252.26 1514.29 Z" fill="#000000" fill-rule="nonzero" fill-opacity="1" /><path clip-path="url(#clip120)" d="M1292.37 1517.37 Q1288.76 1517.37 1286.93 1520.93 Q1285.13 1524.47 1285.13 1531.6 Q1285.13 1538.71 1286.93 1542.27 Q1288.76 1545.82 1292.37 1545.82 Q1296.01 1545.82 1297.81 1542.27 Q1299.64 1538.71 1299.64 1531.6 Q1299.64 1524.47 1297.81 1520.93 Q1296.01 1517.37 1292.37 1517.37 M1292.37 1513.66 Q1298.18 1513.66 1301.24 1518.27 Q1304.32 1522.85 1304.32 1531.6 Q1304.32 1540.33 1301.24 1544.94 Q1298.18 1549.52 1292.37 1549.52 Q1286.56 1549.52 1283.48 1544.94 Q1280.43 1540.33 1280.43 1531.6 Q1280.43 1522.85 1283.48 1518.27 Q1286.56 1513.66 1292.37 1513.66 Z" fill="#000000" fill-rule="nonzero" fill-opacity="1" /><path clip-path="url(#clip120)" d="M1735.44 1517.37 Q1731.83 1517.37 1730 1520.93 Q1728.19 1524.47 1728.19 1531.6 Q1728.19 1538.71 1730 1542.27 Q1731.83 1545.82 1735.44 1545.82 Q1739.07 1545.82 1740.88 1542.27 Q1742.71 1538.71 1742.71 1531.6 Q1742.71 1524.47 1740.88 1520.93 Q1739.07 1517.37 1735.44 1517.37 M1735.44 1513.66 Q1741.25 1513.66 1744.31 1518.27 Q1747.38 1522.85 1747.38 1531.6 Q1747.38 1540.33 1744.31 1544.94 Q1741.25 1549.52 1735.44 1549.52 Q1729.63 1549.52 1726.55 1544.94 Q1723.5 1540.33 1723.5 1531.6 Q1723.5 1522.85 1726.55 1518.27 Q1729.63 1513.66 1735.44 1513.66 Z" fill="#000000" fill-rule="nonzero" fill-opacity="1" /><path clip-path="url(#clip120)" d="M1755.6 1542.97 L1760.49 1542.97 L1760.49 1548.85 L1755.6 1548.85 L1755.6 1542.97 Z" fill="#000000" fill-rule="nonzero" fill-opacity="1" /><path clip-path="url(#clip120)" d="M1769.49 1514.29 L1791.71 1514.29 L1791.71 1516.28 L1779.17 1548.85 L1774.28 1548.85 L1786.09 1518.22 L1769.49 1518.22 L1769.49 1514.29 Z" fill="#000000" fill-rule="nonzero" fill-opacity="1" /><path clip-path="url(#clip120)" d="M1800.88 1514.29 L1819.24 1514.29 L1819.24 1518.22 L1805.16 1518.22 L1805.16 1526.7 Q1806.18 1526.35 1807.2 1526.19 Q1808.22 1526 1809.24 1526 Q1815.02 1526 1818.4 1529.17 Q1821.78 1532.34 1821.78 1537.76 Q1821.78 1543.34 1818.31 1546.44 Q1814.84 1549.52 1808.52 1549.52 Q1806.34 1549.52 1804.07 1549.15 Q1801.83 1548.78 1799.42 1548.04 L1799.42 1543.34 Q1801.5 1544.47 1803.73 1545.03 Q1805.95 1545.58 1808.43 1545.58 Q1812.43 1545.58 1814.77 1543.48 Q1817.11 1541.37 1817.11 1537.76 Q1817.11 1534.15 1814.77 1532.04 Q1812.43 1529.94 1808.43 1529.94 Q1806.55 1529.94 1804.68 1530.35 Q1802.82 1530.77 1800.88 1531.65 L1800.88 1514.29 Z" fill="#000000" fill-rule="nonzero" fill-opacity="1" /><path clip-path="url(#clip120)" d="M2242.67 1544.91 L2250.31 1544.91 L2250.31 1518.55 L2242 1520.21 L2242 1515.95 L2250.27 1514.29 L2254.94 1514.29 L2254.94 1544.91 L2262.58 1544.91 L2262.58 1548.85 L2242.67 1548.85 L2242.67 1544.91 Z" fill="#000000" fill-rule="nonzero" fill-opacity="1" /><path clip-path="url(#clip120)" d="M2272.02 1542.97 L2276.91 1542.97 L2276.91 1548.85 L2272.02 1548.85 L2272.02 1542.97 Z" fill="#000000" fill-rule="nonzero" fill-opacity="1" /><path clip-path="url(#clip120)" d="M2297.09 1517.37 Q2293.48 1517.37 2291.65 1520.93 Q2289.85 1524.47 2289.85 1531.6 Q2289.85 1538.71 2291.65 1542.27 Q2293.48 1545.82 2297.09 1545.82 Q2300.73 1545.82 2302.53 1542.27 Q2304.36 1538.71 2304.36 1531.6 Q2304.36 1524.47 2302.53 1520.93 Q2300.73 1517.37 2297.09 1517.37 M2297.09 1513.66 Q2302.9 1513.66 2305.96 1518.27 Q2309.04 1522.85 2309.04 1531.6 Q2309.04 1540.33 2305.96 1544.94 Q2302.9 1549.52 2297.09 1549.52 Q2291.28 1549.52 2288.2 1544.94 Q2285.15 1540.33 2285.15 1531.6 Q2285.15 1522.85 2288.2 1518.27 Q2291.28 1513.66 2297.09 1513.66 Z" fill="#000000" fill-rule="nonzero" fill-opacity="1" /><path clip-path="url(#clip120)" d="M2327.26 1517.37 Q2323.64 1517.37 2321.82 1520.93 Q2320.01 1524.47 2320.01 1531.6 Q2320.01 1538.71 2321.82 1542.27 Q2323.64 1545.82 2327.26 1545.82 Q2330.89 1545.82 2332.7 1542.27 Q2334.52 1538.71 2334.52 1531.6 Q2334.52 1524.47 2332.7 1520.93 Q2330.89 1517.37 2327.26 1517.37 M2327.26 1513.66 Q2333.07 1513.66 2336.12 1518.27 Q2339.2 1522.85 2339.2 1531.6 Q2339.2 1540.33 2336.12 1544.94 Q2333.07 1549.52 2327.26 1549.52 Q2321.45 1549.52 2318.37 1544.94 Q2315.31 1540.33 2315.31 1531.6 Q2315.31 1522.85 2318.37 1518.27 Q2321.45 1513.66 2327.26 1513.66 Z" fill="#000000" fill-rule="nonzero" fill-opacity="1" /><polyline clip-path="url(#clip120)" style="stroke:#000000; stroke-linecap:round; stroke-linejoin:round; stroke-width:4; stroke-opacity:1; fill:none" points="156.598,1486.45 156.598,47.2441 "/>
<polyline clip-path="url(#clip120)" style="stroke:#000000; stroke-linecap:round; stroke-linejoin:round; stroke-width:4; stroke-opacity:1; fill:none" points="156.598,1445.72 175.496,1445.72 "/>
<polyline clip-path="url(#clip120)" style="stroke:#000000; stroke-linecap:round; stroke-linejoin:round; stroke-width:4; stroke-opacity:1; fill:none" points="156.598,1123.01 175.496,1123.01 "/>
<polyline clip-path="url(#clip120)" style="stroke:#000000; stroke-linecap:round; stroke-linejoin:round; stroke-width:4; stroke-opacity:1; fill:none" points="156.598,800.303 175.496,800.303 "/>
<polyline clip-path="url(#clip120)" style="stroke:#000000; stroke-linecap:round; stroke-linejoin:round; stroke-width:4; stroke-opacity:1; fill:none" points="156.598,477.597 175.496,477.597 "/>
<polyline clip-path="url(#clip120)" style="stroke:#000000; stroke-linecap:round; stroke-linejoin:round; stroke-width:4; stroke-opacity:1; fill:none" points="156.598,154.891 175.496,154.891 "/>
<path clip-path="url(#clip120)" d="M63.4226 1431.51 Q59.8115 1431.51 57.9828 1435.08 Q56.1773 1438.62 56.1773 1445.75 Q56.1773 1452.86 57.9828 1456.42 Q59.8115 1459.96 63.4226 1459.96 Q67.0569 1459.96 68.8624 1456.42 Q70.6911 1452.86 70.6911 1445.75 Q70.6911 1438.62 68.8624 1435.08 Q67.0569 1431.51 63.4226 1431.51 M63.4226 1427.81 Q69.2328 1427.81 72.2883 1432.42 Q75.367 1437 75.367 1445.75 Q75.367 1454.48 72.2883 1459.08 Q69.2328 1463.67 63.4226 1463.67 Q57.6125 1463.67 54.5338 1459.08 Q51.4782 1454.48 51.4782 1445.75 Q51.4782 1437 54.5338 1432.42 Q57.6125 1427.81 63.4226 1427.81 Z" fill="#000000" fill-rule="nonzero" fill-opacity="1" /><path clip-path="url(#clip120)" d="M83.5845 1457.12 L88.4688 1457.12 L88.4688 1463 L83.5845 1463 L83.5845 1457.12 Z" fill="#000000" fill-rule="nonzero" fill-opacity="1" /><path clip-path="url(#clip120)" d="M108.654 1431.51 Q105.043 1431.51 103.214 1435.08 Q101.409 1438.62 101.409 1445.75 Q101.409 1452.86 103.214 1456.42 Q105.043 1459.96 108.654 1459.96 Q112.288 1459.96 114.094 1456.42 Q115.922 1452.86 115.922 1445.75 Q115.922 1438.62 114.094 1435.08 Q112.288 1431.51 108.654 1431.51 M108.654 1427.81 Q114.464 1427.81 117.52 1432.42 Q120.598 1437 120.598 1445.75 Q120.598 1454.48 117.52 1459.08 Q114.464 1463.67 108.654 1463.67 Q102.844 1463.67 99.765 1459.08 Q96.7095 1454.48 96.7095 1445.75 Q96.7095 1437 99.765 1432.42 Q102.844 1427.81 108.654 1427.81 Z" fill="#000000" fill-rule="nonzero" fill-opacity="1" /><path clip-path="url(#clip120)" d="M65.0198 1108.81 Q61.4087 1108.81 59.58 1112.37 Q57.7745 1115.91 57.7745 1123.04 Q57.7745 1130.15 59.58 1133.72 Q61.4087 1137.26 65.0198 1137.26 Q68.6541 1137.26 70.4596 1133.72 Q72.2883 1130.15 72.2883 1123.04 Q72.2883 1115.91 70.4596 1112.37 Q68.6541 1108.81 65.0198 1108.81 M65.0198 1105.1 Q70.83 1105.1 73.8855 1109.71 Q76.9642 1114.29 76.9642 1123.04 Q76.9642 1131.77 73.8855 1136.38 Q70.83 1140.96 65.0198 1140.96 Q59.2097 1140.96 56.131 1136.38 Q53.0754 1131.77 53.0754 1123.04 Q53.0754 1114.29 56.131 1109.71 Q59.2097 1105.1 65.0198 1105.1 Z" fill="#000000" fill-rule="nonzero" fill-opacity="1" /><path clip-path="url(#clip120)" d="M85.1818 1134.41 L90.066 1134.41 L90.066 1140.29 L85.1818 1140.29 L85.1818 1134.41 Z" fill="#000000" fill-rule="nonzero" fill-opacity="1" /><path clip-path="url(#clip120)" d="M104.279 1136.35 L120.598 1136.35 L120.598 1140.29 L98.6539 1140.29 L98.6539 1136.35 Q101.316 1133.6 105.899 1128.97 Q110.506 1124.32 111.686 1122.97 Q113.932 1120.45 114.811 1118.72 Q115.714 1116.96 115.714 1115.27 Q115.714 1112.51 113.77 1110.78 Q111.848 1109.04 108.746 1109.04 Q106.547 1109.04 104.094 1109.8 Q101.663 1110.57 98.8854 1112.12 L98.8854 1107.4 Q101.709 1106.26 104.163 1105.68 Q106.617 1105.1 108.654 1105.1 Q114.024 1105.1 117.219 1107.79 Q120.413 1110.47 120.413 1114.97 Q120.413 1117.1 119.603 1119.02 Q118.816 1120.91 116.709 1123.51 Q116.131 1124.18 113.029 1127.4 Q109.927 1130.59 104.279 1136.35 Z" fill="#000000" fill-rule="nonzero" fill-opacity="1" /><path clip-path="url(#clip120)" d="M62.9365 786.102 Q59.3254 786.102 57.4967 789.667 Q55.6912 793.208 55.6912 800.338 Q55.6912 807.445 57.4967 811.009 Q59.3254 814.551 62.9365 814.551 Q66.5707 814.551 68.3763 811.009 Q70.205 807.445 70.205 800.338 Q70.205 793.208 68.3763 789.667 Q66.5707 786.102 62.9365 786.102 M62.9365 782.398 Q68.7467 782.398 71.8022 787.005 Q74.8809 791.588 74.8809 800.338 Q74.8809 809.065 71.8022 813.671 Q68.7467 818.255 62.9365 818.255 Q57.1264 818.255 54.0477 813.671 Q50.9921 809.065 50.9921 800.338 Q50.9921 791.588 54.0477 787.005 Q57.1264 782.398 62.9365 782.398 Z" fill="#000000" fill-rule="nonzero" fill-opacity="1" /><path clip-path="url(#clip120)" d="M83.0984 811.704 L87.9827 811.704 L87.9827 817.583 L83.0984 817.583 L83.0984 811.704 Z" fill="#000000" fill-rule="nonzero" fill-opacity="1" /><path clip-path="url(#clip120)" d="M111.015 787.097 L99.2095 805.546 L111.015 805.546 L111.015 787.097 M109.788 783.023 L115.668 783.023 L115.668 805.546 L120.598 805.546 L120.598 809.435 L115.668 809.435 L115.668 817.583 L111.015 817.583 L111.015 809.435 L95.4132 809.435 L95.4132 804.921 L109.788 783.023 Z" fill="#000000" fill-rule="nonzero" fill-opacity="1" /><path clip-path="url(#clip120)" d="M63.2606 463.396 Q59.6495 463.396 57.8208 466.961 Q56.0152 470.502 56.0152 477.632 Q56.0152 484.738 57.8208 488.303 Q59.6495 491.845 63.2606 491.845 Q66.8948 491.845 68.7004 488.303 Q70.5291 484.738 70.5291 477.632 Q70.5291 470.502 68.7004 466.961 Q66.8948 463.396 63.2606 463.396 M63.2606 459.692 Q69.0707 459.692 72.1263 464.299 Q75.205 468.882 75.205 477.632 Q75.205 486.359 72.1263 490.965 Q69.0707 495.548 63.2606 495.548 Q57.4504 495.548 54.3717 490.965 Q51.3162 486.359 51.3162 477.632 Q51.3162 468.882 54.3717 464.299 Q57.4504 459.692 63.2606 459.692 Z" fill="#000000" fill-rule="nonzero" fill-opacity="1" /><path clip-path="url(#clip120)" d="M83.4225 488.998 L88.3067 488.998 L88.3067 494.877 L83.4225 494.877 L83.4225 488.998 Z" fill="#000000" fill-rule="nonzero" fill-opacity="1" /><path clip-path="url(#clip120)" d="M109.071 475.734 Q105.922 475.734 104.071 477.887 Q102.242 480.039 102.242 483.789 Q102.242 487.516 104.071 489.692 Q105.922 491.845 109.071 491.845 Q112.219 491.845 114.047 489.692 Q115.899 487.516 115.899 483.789 Q115.899 480.039 114.047 477.887 Q112.219 475.734 109.071 475.734 M118.353 461.081 L118.353 465.34 Q116.594 464.507 114.788 464.067 Q113.006 463.627 111.246 463.627 Q106.617 463.627 104.163 466.752 Q101.733 469.877 101.385 476.197 Q102.751 474.183 104.811 473.118 Q106.871 472.03 109.348 472.03 Q114.557 472.03 117.566 475.201 Q120.598 478.349 120.598 483.789 Q120.598 489.113 117.45 492.331 Q114.302 495.548 109.071 495.548 Q103.075 495.548 99.9039 490.965 Q96.7326 486.359 96.7326 477.632 Q96.7326 469.437 100.621 464.576 Q104.51 459.692 111.061 459.692 Q112.82 459.692 114.603 460.039 Q116.408 460.387 118.353 461.081 Z" fill="#000000" fill-rule="nonzero" fill-opacity="1" /><path clip-path="url(#clip120)" d="M63.5152 140.69 Q59.9041 140.69 58.0754 144.254 Q56.2699 147.796 56.2699 154.926 Q56.2699 162.032 58.0754 165.597 Q59.9041 169.139 63.5152 169.139 Q67.1494 169.139 68.955 165.597 Q70.7837 162.032 70.7837 154.926 Q70.7837 147.796 68.955 144.254 Q67.1494 140.69 63.5152 140.69 M63.5152 136.986 Q69.3254 136.986 72.3809 141.592 Q75.4596 146.176 75.4596 154.926 Q75.4596 163.653 72.3809 168.259 Q69.3254 172.842 63.5152 172.842 Q57.7051 172.842 54.6264 168.259 Q51.5708 163.653 51.5708 154.926 Q51.5708 146.176 54.6264 141.592 Q57.7051 136.986 63.5152 136.986 Z" fill="#000000" fill-rule="nonzero" fill-opacity="1" /><path clip-path="url(#clip120)" d="M83.6771 166.291 L88.5614 166.291 L88.5614 172.171 L83.6771 172.171 L83.6771 166.291 Z" fill="#000000" fill-rule="nonzero" fill-opacity="1" /><path clip-path="url(#clip120)" d="M108.746 155.759 Q105.413 155.759 103.492 157.541 Q101.594 159.324 101.594 162.449 Q101.594 165.574 103.492 167.356 Q105.413 169.139 108.746 169.139 Q112.08 169.139 114.001 167.356 Q115.922 165.551 115.922 162.449 Q115.922 159.324 114.001 157.541 Q112.103 155.759 108.746 155.759 M104.071 153.768 Q101.061 153.028 99.3715 150.967 Q97.7048 148.907 97.7048 145.944 Q97.7048 141.801 100.645 139.393 Q103.608 136.986 108.746 136.986 Q113.908 136.986 116.848 139.393 Q119.788 141.801 119.788 145.944 Q119.788 148.907 118.098 150.967 Q116.432 153.028 113.445 153.768 Q116.825 154.555 118.7 156.847 Q120.598 159.139 120.598 162.449 Q120.598 167.472 117.52 170.157 Q114.464 172.842 108.746 172.842 Q103.029 172.842 99.9502 170.157 Q96.8947 167.472 96.8947 162.449 Q96.8947 159.139 98.7928 156.847 Q100.691 154.555 104.071 153.768 M102.358 146.384 Q102.358 149.069 104.024 150.574 Q105.714 152.079 108.746 152.079 Q111.756 152.079 113.445 150.574 Q115.158 149.069 115.158 146.384 Q115.158 143.699 113.445 142.194 Q111.756 140.69 108.746 140.69 Q105.714 140.69 104.024 142.194 Q102.358 143.699 102.358 146.384 Z" fill="#000000" fill-rule="nonzero" fill-opacity="1" /><polyline clip-path="url(#clip122)" style="stroke:#009af9; stroke-linecap:round; stroke-linejoin:round; stroke-width:4; stroke-opacity:1; fill:none" points="218.754,1445.72 425.938,1284.63 633.123,1125.16 840.308,968.885 1047.49,817.377 1254.68,672.148 1461.86,534.648 1669.05,406.251 1876.23,288.239 2083.42,181.794 2290.6,87.9763 "/>
<circle clip-path="url(#clip122)" cx="218.754" cy="1445.72" r="14.4" fill="#e26f46" fill-rule="evenodd" fill-opacity="1" stroke="#000000" stroke-opacity="1" stroke-width="3.2"/>
<circle clip-path="url(#clip122)" cx="425.938" cy="1284.63" r="14.4" fill="#e26f46" fill-rule="evenodd" fill-opacity="1" stroke="#000000" stroke-opacity="1" stroke-width="3.2"/>
<circle clip-path="url(#clip122)" cx="633.123" cy="1125.16" r="14.4" fill="#e26f46" fill-rule="evenodd" fill-opacity="1" stroke="#000000" stroke-opacity="1" stroke-width="3.2"/>
<circle clip-path="url(#clip122)" cx="840.308" cy="968.885" r="14.4" fill="#e26f46" fill-rule="evenodd" fill-opacity="1" stroke="#000000" stroke-opacity="1" stroke-width="3.2"/>
<circle clip-path="url(#clip122)" cx="1047.49" cy="817.377" r="14.4" fill="#e26f46" fill-rule="evenodd" fill-opacity="1" stroke="#000000" stroke-opacity="1" stroke-width="3.2"/>
<circle clip-path="url(#clip122)" cx="1254.68" cy="672.148" r="14.4" fill="#e26f46" fill-rule="evenodd" fill-opacity="1" stroke="#000000" stroke-opacity="1" stroke-width="3.2"/>
<circle clip-path="url(#clip122)" cx="1461.86" cy="534.648" r="14.4" fill="#e26f46" fill-rule="evenodd" fill-opacity="1" stroke="#000000" stroke-opacity="1" stroke-width="3.2"/>
<circle clip-path="url(#clip122)" cx="1669.05" cy="406.251" r="14.4" fill="#e26f46" fill-rule="evenodd" fill-opacity="1" stroke="#000000" stroke-opacity="1" stroke-width="3.2"/>
<circle clip-path="url(#clip122)" cx="1876.23" cy="288.239" r="14.4" fill="#e26f46" fill-rule="evenodd" fill-opacity="1" stroke="#000000" stroke-opacity="1" stroke-width="3.2"/>
<circle clip-path="url(#clip122)" cx="2083.42" cy="181.794" r="14.4" fill="#e26f46" fill-rule="evenodd" fill-opacity="1" stroke="#000000" stroke-opacity="1" stroke-width="3.2"/>
<circle clip-path="url(#clip122)" cx="2290.6" cy="87.9763" r="14.4" fill="#e26f46" fill-rule="evenodd" fill-opacity="1" stroke="#000000" stroke-opacity="1" stroke-width="3.2"/>
<path clip-path="url(#clip120)" d="M1896.86 1438.47 L2279.55 1438.47 L2279.55 1282.95 L1896.86 1282.95  Z" fill="#ffffff" fill-rule="evenodd" fill-opacity="1"/>
<polyline clip-path="url(#clip120)" style="stroke:#000000; stroke-linecap:round; stroke-linejoin:round; stroke-width:4; stroke-opacity:1; fill:none" points="1896.86,1438.47 2279.55,1438.47 2279.55,1282.95 1896.86,1282.95 1896.86,1438.47 "/>
<polyline clip-path="url(#clip120)" style="stroke:#009af9; stroke-linecap:round; stroke-linejoin:round; stroke-width:4; stroke-opacity:1; fill:none" points="1921.26,1334.79 2067.67,1334.79 "/>
<path clip-path="url(#clip120)" d="M2092.07 1316.06 L2096.33 1316.06 L2096.33 1352.07 L2092.07 1352.07 L2092.07 1316.06 Z" fill="#000000" fill-rule="nonzero" fill-opacity="1" /><path clip-path="url(#clip120)" d="M2105.24 1326.15 L2109.5 1326.15 L2109.5 1352.07 L2105.24 1352.07 L2105.24 1326.15 M2105.24 1316.06 L2109.5 1316.06 L2109.5 1321.45 L2105.24 1321.45 L2105.24 1316.06 Z" fill="#000000" fill-rule="nonzero" fill-opacity="1" /><path clip-path="url(#clip120)" d="M2139.96 1336.43 L2139.96 1352.07 L2135.71 1352.07 L2135.71 1336.57 Q2135.71 1332.88 2134.27 1331.06 Q2132.83 1329.23 2129.96 1329.23 Q2126.52 1329.23 2124.52 1331.43 Q2122.53 1333.63 2122.53 1337.42 L2122.53 1352.07 L2118.25 1352.07 L2118.25 1326.15 L2122.53 1326.15 L2122.53 1330.18 Q2124.06 1327.84 2126.12 1326.68 Q2128.21 1325.52 2130.91 1325.52 Q2135.38 1325.52 2137.67 1328.3 Q2139.96 1331.06 2139.96 1336.43 Z" fill="#000000" fill-rule="nonzero" fill-opacity="1" /><path clip-path="url(#clip120)" d="M2170.64 1338.05 L2170.64 1340.13 L2151.05 1340.13 Q2151.33 1344.53 2153.69 1346.84 Q2156.08 1349.13 2160.31 1349.13 Q2162.77 1349.13 2165.06 1348.53 Q2167.37 1347.93 2169.64 1346.73 L2169.64 1350.75 Q2167.35 1351.73 2164.94 1352.24 Q2162.53 1352.75 2160.06 1352.75 Q2153.85 1352.75 2150.22 1349.13 Q2146.61 1345.52 2146.61 1339.37 Q2146.61 1333 2150.03 1329.27 Q2153.48 1325.52 2159.32 1325.52 Q2164.55 1325.52 2167.58 1328.9 Q2170.64 1332.26 2170.64 1338.05 M2166.38 1336.8 Q2166.33 1333.3 2164.41 1331.22 Q2162.51 1329.13 2159.36 1329.13 Q2155.8 1329.13 2153.64 1331.15 Q2151.52 1333.16 2151.19 1336.82 L2166.38 1336.8 Z" fill="#000000" fill-rule="nonzero" fill-opacity="1" /><circle clip-path="url(#clip120)" cx="1994.46" cy="1386.63" r="20.48" fill="#e26f46" fill-rule="evenodd" fill-opacity="1" stroke="#000000" stroke-opacity="1" stroke-width="4.55111"/>
<path clip-path="url(#clip120)" d="M2110.5 1378.75 L2110.5 1382.78 Q2108.69 1381.85 2106.75 1381.39 Q2104.8 1380.93 2102.72 1380.93 Q2099.55 1380.93 2097.95 1381.9 Q2096.38 1382.87 2096.38 1384.82 Q2096.38 1386.3 2097.51 1387.16 Q2098.65 1387.99 2102.07 1388.75 L2103.53 1389.08 Q2108.07 1390.05 2109.96 1391.83 Q2111.89 1393.59 2111.89 1396.76 Q2111.89 1400.37 2109.02 1402.48 Q2106.17 1404.59 2101.17 1404.59 Q2099.08 1404.59 2096.82 1404.17 Q2094.57 1403.78 2092.07 1402.97 L2092.07 1398.57 Q2094.43 1399.79 2096.72 1400.42 Q2099.02 1401.02 2101.26 1401.02 Q2104.27 1401.02 2105.89 1400 Q2107.51 1398.96 2107.51 1397.09 Q2107.51 1395.35 2106.33 1394.42 Q2105.17 1393.5 2101.21 1392.64 L2099.73 1392.29 Q2095.77 1391.46 2094.02 1389.75 Q2092.26 1388.01 2092.26 1385 Q2092.26 1381.35 2094.85 1379.35 Q2097.44 1377.36 2102.21 1377.36 Q2104.57 1377.36 2106.65 1377.71 Q2108.74 1378.06 2110.5 1378.75 Z" fill="#000000" fill-rule="nonzero" fill-opacity="1" /><path clip-path="url(#clip120)" d="M2137.33 1378.98 L2137.33 1382.97 Q2135.52 1381.97 2133.69 1381.48 Q2131.89 1380.97 2130.03 1380.97 Q2125.89 1380.97 2123.6 1383.61 Q2121.31 1386.23 2121.31 1390.97 Q2121.31 1395.72 2123.6 1398.36 Q2125.89 1400.97 2130.03 1400.97 Q2131.89 1400.97 2133.69 1400.49 Q2135.52 1399.98 2137.33 1398.98 L2137.33 1402.92 Q2135.54 1403.75 2133.62 1404.17 Q2131.72 1404.59 2129.57 1404.59 Q2123.71 1404.59 2120.27 1400.91 Q2116.82 1397.22 2116.82 1390.97 Q2116.82 1384.63 2120.29 1381 Q2123.78 1377.36 2129.85 1377.36 Q2131.82 1377.36 2133.69 1377.78 Q2135.57 1378.17 2137.33 1378.98 Z" fill="#000000" fill-rule="nonzero" fill-opacity="1" /><path clip-path="url(#clip120)" d="M2156.52 1390.88 Q2151.35 1390.88 2149.36 1392.06 Q2147.37 1393.24 2147.37 1396.09 Q2147.37 1398.36 2148.85 1399.7 Q2150.36 1401.02 2152.93 1401.02 Q2156.47 1401.02 2158.6 1398.52 Q2160.75 1396 2160.75 1391.83 L2160.75 1390.88 L2156.52 1390.88 M2165.01 1389.12 L2165.01 1403.91 L2160.75 1403.91 L2160.75 1399.98 Q2159.29 1402.34 2157.12 1403.47 Q2154.94 1404.59 2151.79 1404.59 Q2147.81 1404.59 2145.45 1402.36 Q2143.11 1400.12 2143.11 1396.37 Q2143.11 1391.99 2146.03 1389.77 Q2148.97 1387.55 2154.78 1387.55 L2160.75 1387.55 L2160.75 1387.13 Q2160.75 1384.19 2158.81 1382.6 Q2156.89 1380.97 2153.39 1380.97 Q2151.17 1380.97 2149.06 1381.51 Q2146.96 1382.04 2145.01 1383.1 L2145.01 1379.17 Q2147.35 1378.27 2149.55 1377.83 Q2151.75 1377.36 2153.83 1377.36 Q2159.45 1377.36 2162.23 1380.28 Q2165.01 1383.2 2165.01 1389.12 Z" fill="#000000" fill-rule="nonzero" fill-opacity="1" /><path clip-path="url(#clip120)" d="M2178 1370.63 L2178 1377.99 L2186.77 1377.99 L2186.77 1381.3 L2178 1381.3 L2178 1395.37 Q2178 1398.54 2178.85 1399.45 Q2179.73 1400.35 2182.39 1400.35 L2186.77 1400.35 L2186.77 1403.91 L2182.39 1403.91 Q2177.46 1403.91 2175.59 1402.09 Q2173.71 1400.23 2173.71 1395.37 L2173.71 1381.3 L2170.59 1381.3 L2170.59 1377.99 L2173.71 1377.99 L2173.71 1370.63 L2178 1370.63 Z" fill="#000000" fill-rule="nonzero" fill-opacity="1" /><path clip-path="url(#clip120)" d="M2196.58 1370.63 L2196.58 1377.99 L2205.36 1377.99 L2205.36 1381.3 L2196.58 1381.3 L2196.58 1395.37 Q2196.58 1398.54 2197.44 1399.45 Q2198.32 1400.35 2200.98 1400.35 L2205.36 1400.35 L2205.36 1403.91 L2200.98 1403.91 Q2196.05 1403.91 2194.18 1402.09 Q2192.3 1400.23 2192.3 1395.37 L2192.3 1381.3 L2189.18 1381.3 L2189.18 1377.99 L2192.3 1377.99 L2192.3 1370.63 L2196.58 1370.63 Z" fill="#000000" fill-rule="nonzero" fill-opacity="1" /><path clip-path="url(#clip120)" d="M2233.14 1389.89 L2233.14 1391.97 L2213.55 1391.97 Q2213.83 1396.37 2216.19 1398.68 Q2218.58 1400.97 2222.81 1400.97 Q2225.26 1400.97 2227.56 1400.37 Q2229.87 1399.77 2232.14 1398.57 L2232.14 1402.59 Q2229.85 1403.57 2227.44 1404.08 Q2225.03 1404.59 2222.56 1404.59 Q2216.35 1404.59 2212.72 1400.97 Q2209.11 1397.36 2209.11 1391.21 Q2209.11 1384.84 2212.53 1381.11 Q2215.98 1377.36 2221.82 1377.36 Q2227.05 1377.36 2230.08 1380.74 Q2233.14 1384.1 2233.14 1389.89 M2228.88 1388.64 Q2228.83 1385.14 2226.91 1383.06 Q2225.01 1380.97 2221.86 1380.97 Q2218.3 1380.97 2216.14 1382.99 Q2214.01 1385 2213.69 1388.66 L2228.88 1388.64 Z" fill="#000000" fill-rule="nonzero" fill-opacity="1" /><path clip-path="url(#clip120)" d="M2255.15 1381.97 Q2254.43 1381.55 2253.57 1381.37 Q2252.74 1381.16 2251.72 1381.16 Q2248.11 1381.16 2246.17 1383.52 Q2244.25 1385.86 2244.25 1390.26 L2244.25 1403.91 L2239.96 1403.91 L2239.96 1377.99 L2244.25 1377.99 L2244.25 1382.02 Q2245.59 1379.66 2247.74 1378.52 Q2249.89 1377.36 2252.97 1377.36 Q2253.41 1377.36 2253.95 1377.43 Q2254.48 1377.48 2255.13 1377.6 L2255.15 1381.97 Z" fill="#000000" fill-rule="nonzero" fill-opacity="1" /></svg>
