<?xml version="1.0" encoding="utf-8"?>
<svg xmlns="http://www.w3.org/2000/svg" xmlns:xlink="http://www.w3.org/1999/xlink" width="420" height="300" viewBox="0 0 1680 1200">
<defs>
  <clipPath id="clip900">
    <rect x="0" y="0" width="1680" height="1200"/>
  </clipPath>
</defs>
<defs>
  <clipPath id="clip901">
    <rect x="336" y="0" width="1177" height="1177"/>
  </clipPath>
</defs>
<defs>
  <clipPath id="clip902">
    <rect x="205" y="118" width="1428" height="899"/>
  </clipPath>
</defs>
<polyline clip-path="url(#clip902)" style="stroke:#000000; stroke-linecap:round; stroke-linejoin:round; stroke-width:2; stroke-opacity:0.1; fill:none" points="205.944,1016.69 205.944,118.535 "/>
<polyline clip-path="url(#clip902)" style="stroke:#000000; stroke-linecap:round; stroke-linejoin:round; stroke-width:2; stroke-opacity:0.1; fill:none" points="491.306,1016.69 491.306,118.535 "/>
<polyline clip-path="url(#clip902)" style="stroke:#000000; stroke-linecap:round; stroke-linejoin:round; stroke-width:2; stroke-opacity:0.1; fill:none" points="776.669,1016.69 776.669,118.535 "/>
<polyline clip-path="url(#clip902)" style="stroke:#000000; stroke-linecap:round; stroke-linejoin:round; stroke-width:2; stroke-opacity:0.1; fill:none" points="1062.03,1016.69 1062.03,118.535 "/>
<polyline clip-path="url(#clip902)" style="stroke:#000000; stroke-linecap:round; stroke-linejoin:round; stroke-width:2; stroke-opacity:0.1; fill:none" points="1347.39,1016.69 1347.39,118.535 "/>
<polyline clip-path="url(#clip902)" style="stroke:#000000; stroke-linecap:round; stroke-linejoin:round; stroke-width:2; stroke-opacity:0.1; fill:none" points="1632.76,1016.69 1632.76,118.535 "/>
<polyline clip-path="url(#clip902)" style="stroke:#000000; stroke-linecap:round; stroke-linejoin:round; stroke-width:2; stroke-opacity:0.1; fill:none" points="205.944,1016.69 1632.76,1016.69 "/>
<polyline clip-path="url(#clip902)" style="stroke:#000000; stroke-linecap:round; stroke-linejoin:round; stroke-width:2; stroke-opacity:0.1; fill:none" points="205.944,837.058 1632.76,837.058 "/>
<polyline clip-path="url(#clip902)" style="stroke:#000000; stroke-linecap:round; stroke-linejoin:round; stroke-width:2; stroke-opacity:0.1; fill:none" points="205.944,657.427 1632.76,657.427 "/>
<polyline clip-path="url(#clip902)" style="stroke:#000000; stroke-linecap:round; stroke-linejoin:round; stroke-width:2; stroke-opacity:0.1; fill:none" points="205.944,477.796 1632.76,477.796 "/>
<polyline clip-path="url(#clip902)" style="stroke:#000000; stroke-linecap:round; stroke-linejoin:round; stroke-width:2; stroke-opacity:0.1; fill:none" points="205.944,298.166 1632.76,298.166 "/>
<polyline clip-path="url(#clip902)" style="stroke:#000000; stroke-linecap:round; stroke-linejoin:round; stroke-width:2; stroke-opacity:0.1; fill:none" points="205.944,118.535 1632.76,118.535 "/>
<polyline clip-path="url(#clip900)" style="stroke:#000000; stroke-linecap:round; stroke-linejoin:round; stroke-width:4; stroke-opacity:1; fill:none" points="205.944,1016.69 1632.76,1016.69 "/>
<polyline clip-path="url(#clip900)" style="stroke:#000000; stroke-linecap:round; stroke-linejoin:round; stroke-width:4; stroke-opacity:1; fill:none" points="205.944,1016.69 205.944,997.791 "/>
<polyline clip-path="url(#clip900)" style="stroke:#000000; stroke-linecap:round; stroke-linejoin:round; stroke-width:4; stroke-opacity:1; fill:none" points="491.306,1016.69 491.306,997.791 "/>
<polyline clip-path="url(#clip900)" style="stroke:#000000; stroke-linecap:round; stroke-linejoin:round; stroke-width:4; stroke-opacity:1; fill:none" points="776.669,1016.69 776.669,997.791 "/>
<polyline clip-path="url(#clip900)" style="stroke:#000000; stroke-linecap:round; stroke-linejoin:round; stroke-width:4; stroke-opacity:1; fill:none" points="1062.03,1016.69 1062.03,997.791 "/>
<polyline clip-path="url(#clip900)" style="stroke:#000000; stroke-linecap:round; stroke-linejoin:round; stroke-width:4; stroke-opacity:1; fill:none" points="1347.39,1016.69 1347.39,997.791 "/>
<polyline clip-path="url(#clip900)" style="stroke:#000000; stroke-linecap:round; stroke-linejoin:round; stroke-width:4; stroke-opacity:1; fill:none" points="1632.76,1016.69 1632.76,997.791 "/>
<path clip-path="url(#clip900)" d="M205.944 1041.85 Q202.333 1041.85 200.504 1045.41 Q198.699 1048.95 198.699 1056.08 Q198.699 1063.19 200.504 1066.75 Q202.333 1070.3 205.944 1070.3 Q209.578 1070.3 211.384 1066.75 Q213.212 1063.19 213.212 1056.08 Q213.212 1048.95 211.384 1045.41 Q209.578 1041.85 205.944 1041.85 M205.944 1038.14 Q211.754 1038.14 214.81 1042.75 Q217.888 1047.33 217.888 1056.08 Q217.888 1064.81 214.81 1069.42 Q211.754 1074 205.944 1074 Q200.134 1074 197.055 1069.42 Q193.999 1064.81 193.999 1056.08 Q193.999 1047.33 197.055 1042.75 Q200.134 1038.14 205.944 1038.14 Z" fill="#000000" fill-rule="nonzero" fill-opacity="1" /><path clip-path="url(#clip900)" d="M481.688 1069.39 L489.327 1069.39 L489.327 1043.03 L481.017 1044.69 L481.017 1040.44 L489.281 1038.77 L493.957 1038.77 L493.957 1069.39 L501.596 1069.39 L501.596 1073.33 L481.688 1073.33 L481.688 1069.39 Z" fill="#000000" fill-rule="nonzero" fill-opacity="1" /><path clip-path="url(#clip900)" d="M771.321 1069.39 L787.641 1069.39 L787.641 1073.33 L765.696 1073.33 L765.696 1069.39 Q768.359 1066.64 772.942 1062.01 Q777.548 1057.36 778.729 1056.01 Q780.974 1053.49 781.854 1051.75 Q782.757 1050 782.757 1048.31 Q782.757 1045.55 780.812 1043.81 Q778.891 1042.08 775.789 1042.08 Q773.59 1042.08 771.136 1042.84 Q768.706 1043.61 765.928 1045.16 L765.928 1040.44 Q768.752 1039.3 771.206 1038.72 Q773.659 1038.14 775.696 1038.14 Q781.067 1038.14 784.261 1040.83 Q787.456 1043.51 787.456 1048 Q787.456 1050.13 786.645 1052.06 Q785.858 1053.95 783.752 1056.55 Q783.173 1057.22 780.071 1060.43 Q776.97 1063.63 771.321 1069.39 Z" fill="#000000" fill-rule="nonzero" fill-opacity="1" /><path clip-path="url(#clip900)" d="M1066.28 1054.69 Q1069.64 1055.41 1071.51 1057.68 Q1073.41 1059.95 1073.41 1063.28 Q1073.41 1068.4 1069.89 1071.2 Q1066.37 1074 1059.89 1074 Q1057.71 1074 1055.4 1073.56 Q1053.11 1073.14 1050.65 1072.29 L1050.65 1067.77 Q1052.6 1068.91 1054.91 1069.49 Q1057.23 1070.06 1059.75 1070.06 Q1064.15 1070.06 1066.44 1068.33 Q1068.76 1066.59 1068.76 1063.28 Q1068.76 1060.23 1066.6 1058.51 Q1064.47 1056.78 1060.65 1056.78 L1056.63 1056.78 L1056.63 1052.94 L1060.84 1052.94 Q1064.29 1052.94 1066.12 1051.57 Q1067.95 1050.18 1067.95 1047.59 Q1067.95 1044.93 1066.05 1043.51 Q1064.17 1042.08 1060.65 1042.08 Q1058.73 1042.08 1056.53 1042.5 Q1054.33 1042.91 1051.7 1043.79 L1051.7 1039.62 Q1054.36 1038.88 1056.67 1038.51 Q1059.01 1038.14 1061.07 1038.14 Q1066.39 1038.14 1069.5 1040.57 Q1072.6 1042.98 1072.6 1047.1 Q1072.6 1049.97 1070.95 1051.96 Q1069.31 1053.93 1066.28 1054.69 Z" fill="#000000" fill-rule="nonzero" fill-opacity="1" /><path clip-path="url(#clip900)" d="M1350.4 1042.84 L1338.6 1061.29 L1350.4 1061.29 L1350.4 1042.84 M1349.18 1038.77 L1355.06 1038.77 L1355.06 1061.29 L1359.99 1061.29 L1359.99 1065.18 L1355.06 1065.18 L1355.06 1073.33 L1350.4 1073.33 L1350.4 1065.18 L1334.8 1065.18 L1334.8 1060.67 L1349.18 1038.77 Z" fill="#000000" fill-rule="nonzero" fill-opacity="1" /><path clip-path="url(#clip900)" d="M1623.03 1038.77 L1641.39 1038.77 L1641.39 1042.7 L1627.32 1042.7 L1627.32 1051.18 Q1628.33 1050.83 1629.35 1050.67 Q1630.37 1050.48 1631.39 1050.48 Q1637.18 1050.48 1640.56 1053.65 Q1643.94 1056.82 1643.94 1062.24 Q1643.94 1067.82 1640.46 1070.92 Q1636.99 1074 1630.67 1074 Q1628.5 1074 1626.23 1073.63 Q1623.98 1073.26 1621.58 1072.52 L1621.58 1067.82 Q1623.66 1068.95 1625.88 1069.51 Q1628.1 1070.06 1630.58 1070.06 Q1634.58 1070.06 1636.92 1067.96 Q1639.26 1065.85 1639.26 1062.24 Q1639.26 1058.63 1636.92 1056.52 Q1634.58 1054.42 1630.58 1054.42 Q1628.71 1054.42 1626.83 1054.83 Q1624.98 1055.25 1623.03 1056.13 L1623.03 1038.77 Z" fill="#000000" fill-rule="nonzero" fill-opacity="1" /><path clip-path="url(#clip900)" d="M934.811 1113.12 Q934.811 1115.09 933.582 1116.22 Q932.352 1117.31 930.947 1117.31 Q929.611 1117.31 928.909 1116.53 Q928.206 1115.76 928.206 1114.78 Q928.206 1113.44 929.19 1112.28 Q930.174 1111.12 931.649 1110.88 Q930.209 1109.96 928.066 1109.96 Q926.66 1109.96 925.431 1110.7 Q924.236 1111.44 923.498 1112.39 Q922.796 1113.34 922.163 1114.71 Q921.566 1116.04 921.32 1116.85 Q921.109 1117.62 920.933 1118.47 L918.474 1128.3 Q917.28 1132.98 917.28 1134.63 Q917.28 1136.66 918.263 1138.03 Q919.247 1139.37 921.215 1139.37 Q921.987 1139.37 922.866 1139.16 Q923.744 1138.91 924.868 1138.28 Q926.028 1137.61 927.047 1136.63 Q928.101 1135.61 929.12 1133.89 Q930.139 1132.17 930.806 1129.95 Q931.017 1129.18 931.72 1129.18 Q932.598 1129.18 932.598 1129.88 Q932.598 1130.48 932.106 1131.75 Q931.649 1132.98 930.63 1134.59 Q929.647 1136.17 928.347 1137.61 Q927.047 1139.02 925.114 1140 Q923.182 1140.99 921.074 1140.99 Q918.053 1140.99 916.05 1139.37 Q914.047 1137.75 913.309 1135.5 Q913.134 1135.82 912.888 1136.24 Q912.642 1136.66 911.904 1137.61 Q911.201 1138.53 910.393 1139.23 Q909.585 1139.9 908.32 1140.42 Q907.091 1140.99 905.756 1140.99 Q904.069 1140.99 902.559 1140.49 Q901.083 1140 900.029 1138.88 Q898.975 1137.75 898.975 1136.21 Q898.975 1134.49 900.134 1133.29 Q901.329 1132.06 902.945 1132.06 Q903.964 1132.06 904.772 1132.66 Q905.615 1133.26 905.615 1134.56 Q905.615 1136 904.631 1137.09 Q903.648 1138.18 902.242 1138.46 Q903.683 1139.37 905.826 1139.37 Q908.145 1139.37 909.972 1137.33 Q911.799 1135.29 912.677 1131.89 Q914.855 1123.7 915.699 1120.05 Q916.542 1116.36 916.542 1114.78 Q916.542 1113.3 916.155 1112.28 Q915.769 1111.26 915.101 1110.81 Q914.469 1110.31 913.872 1110.14 Q913.309 1109.96 912.677 1109.96 Q911.623 1109.96 910.429 1110.38 Q909.269 1110.81 907.864 1111.79 Q906.494 1112.74 905.194 1114.71 Q903.894 1116.67 903.015 1119.38 Q902.84 1120.19 902.067 1120.19 Q901.223 1120.15 901.223 1119.45 Q901.223 1118.85 901.68 1117.62 Q902.172 1116.36 903.156 1114.78 Q904.175 1113.2 905.475 1111.79 Q906.81 1110.35 908.742 1109.37 Q910.71 1108.38 912.818 1108.38 Q913.766 1108.38 914.68 1108.59 Q915.628 1108.77 916.753 1109.3 Q917.912 1109.82 918.931 1110.98 Q919.95 1112.14 920.582 1113.83 Q921.004 1113.02 921.566 1112.25 Q922.163 1111.47 923.077 1110.52 Q924.025 1109.54 925.325 1108.98 Q926.66 1108.38 928.136 1108.38 Q929.576 1108.38 930.982 1108.77 Q932.387 1109.12 933.582 1110.28 Q934.811 1111.4 934.811 1113.12 Z" fill="#000000" fill-rule="nonzero" fill-opacity="1" /><polyline clip-path="url(#clip900)" style="stroke:#000000; stroke-linecap:round; stroke-linejoin:round; stroke-width:4; stroke-opacity:1; fill:none" points="205.944,1016.69 205.944,118.535 "/>
<polyline clip-path="url(#clip900)" style="stroke:#000000; stroke-linecap:round; stroke-linejoin:round; stroke-width:4; stroke-opacity:1; fill:none" points="205.944,1016.69 224.841,1016.69 "/>
<polyline clip-path="url(#clip900)" style="stroke:#000000; stroke-linecap:round; stroke-linejoin:round; stroke-width:4; stroke-opacity:1; fill:none" points="205.944,837.058 224.841,837.058 "/>
<polyline clip-path="url(#clip900)" style="stroke:#000000; stroke-linecap:round; stroke-linejoin:round; stroke-width:4; stroke-opacity:1; fill:none" points="205.944,657.427 224.841,657.427 "/>
<polyline clip-path="url(#clip900)" style="stroke:#000000; stroke-linecap:round; stroke-linejoin:round; stroke-width:4; stroke-opacity:1; fill:none" points="205.944,477.796 224.841,477.796 "/>
<polyline clip-path="url(#clip900)" style="stroke:#000000; stroke-linecap:round; stroke-linejoin:round; stroke-width:4; stroke-opacity:1; fill:none" points="205.944,298.166 224.841,298.166 "/>
<polyline clip-path="url(#clip900)" style="stroke:#000000; stroke-linecap:round; stroke-linejoin:round; stroke-width:4; stroke-opacity:1; fill:none" points="205.944,118.535 224.841,118.535 "/>
<path clip-path="url(#clip900)" d="M168.799 1002.49 Q165.188 1002.49 163.36 1006.05 Q161.554 1009.59 161.554 1016.72 Q161.554 1023.83 163.36 1027.39 Q165.188 1030.94 168.799 1030.94 Q172.434 1030.94 174.239 1027.39 Q176.068 1023.83 176.068 1016.72 Q176.068 1009.59 174.239 1006.05 Q172.434 1002.49 168.799 1002.49 M168.799 998.783 Q174.61 998.783 177.665 1003.39 Q180.744 1007.97 180.744 1016.72 Q180.744 1025.45 177.665 1030.06 Q174.61 1034.64 168.799 1034.64 Q162.989 1034.64 159.911 1030.06 Q156.855 1025.45 156.855 1016.72 Q156.855 1007.97 159.911 1003.39 Q162.989 998.783 168.799 998.783 Z" fill="#000000" fill-rule="nonzero" fill-opacity="1" /><path clip-path="url(#clip900)" d="M129.448 850.403 L137.087 850.403 L137.087 824.037 L128.777 825.704 L128.777 821.444 L137.04 819.778 L141.716 819.778 L141.716 850.403 L149.355 850.403 L149.355 854.338 L129.448 854.338 L129.448 850.403 Z" fill="#000000" fill-rule="nonzero" fill-opacity="1" /><path clip-path="url(#clip900)" d="M168.799 822.856 Q165.188 822.856 163.36 826.421 Q161.554 829.963 161.554 837.092 Q161.554 844.199 163.36 847.764 Q165.188 851.305 168.799 851.305 Q172.434 851.305 174.239 847.764 Q176.068 844.199 176.068 837.092 Q176.068 829.963 174.239 826.421 Q172.434 822.856 168.799 822.856 M168.799 819.153 Q174.61 819.153 177.665 823.759 Q180.744 828.342 180.744 837.092 Q180.744 845.819 177.665 850.426 Q174.61 855.009 168.799 855.009 Q162.989 855.009 159.911 850.426 Q156.855 845.819 156.855 837.092 Q156.855 828.342 159.911 823.759 Q162.989 819.153 168.799 819.153 Z" fill="#000000" fill-rule="nonzero" fill-opacity="1" /><path clip-path="url(#clip900)" d="M132.665 670.772 L148.985 670.772 L148.985 674.707 L127.04 674.707 L127.04 670.772 Q129.702 668.017 134.286 663.388 Q138.892 658.735 140.073 657.392 Q142.318 654.869 143.198 653.133 Q144.101 651.374 144.101 649.684 Q144.101 646.929 142.156 645.193 Q140.235 643.457 137.133 643.457 Q134.934 643.457 132.48 644.221 Q130.05 644.985 127.272 646.536 L127.272 641.814 Q130.096 640.679 132.55 640.101 Q135.003 639.522 137.04 639.522 Q142.411 639.522 145.605 642.207 Q148.8 644.892 148.8 649.383 Q148.8 651.513 147.989 653.434 Q147.202 655.332 145.096 657.925 Q144.517 658.596 141.415 661.814 Q138.314 665.008 132.665 670.772 Z" fill="#000000" fill-rule="nonzero" fill-opacity="1" /><path clip-path="url(#clip900)" d="M168.799 643.226 Q165.188 643.226 163.36 646.791 Q161.554 650.332 161.554 657.462 Q161.554 664.568 163.36 668.133 Q165.188 671.675 168.799 671.675 Q172.434 671.675 174.239 668.133 Q176.068 664.568 176.068 657.462 Q176.068 650.332 174.239 646.791 Q172.434 643.226 168.799 643.226 M168.799 639.522 Q174.61 639.522 177.665 644.129 Q180.744 648.712 180.744 657.462 Q180.744 666.189 177.665 670.795 Q174.61 675.378 168.799 675.378 Q162.989 675.378 159.911 670.795 Q156.855 666.189 156.855 657.462 Q156.855 648.712 159.911 644.129 Q162.989 639.522 168.799 639.522 Z" fill="#000000" fill-rule="nonzero" fill-opacity="1" /><path clip-path="url(#clip900)" d="M142.804 476.442 Q146.161 477.16 148.036 479.428 Q149.934 481.697 149.934 485.03 Q149.934 490.146 146.415 492.947 Q142.897 495.748 136.415 495.748 Q134.239 495.748 131.925 495.308 Q129.633 494.891 127.179 494.035 L127.179 489.521 Q129.124 490.655 131.439 491.234 Q133.753 491.812 136.276 491.812 Q140.675 491.812 142.966 490.076 Q145.281 488.34 145.281 485.03 Q145.281 481.975 143.128 480.262 Q140.999 478.526 137.179 478.526 L133.151 478.526 L133.151 474.683 L137.364 474.683 Q140.813 474.683 142.642 473.317 Q144.471 471.928 144.471 469.336 Q144.471 466.674 142.573 465.262 Q140.698 463.827 137.179 463.827 Q135.258 463.827 133.059 464.243 Q130.86 464.66 128.221 465.539 L128.221 461.373 Q130.883 460.632 133.198 460.262 Q135.536 459.891 137.596 459.891 Q142.92 459.891 146.022 462.322 Q149.124 464.729 149.124 468.85 Q149.124 471.72 147.48 473.711 Q145.837 475.678 142.804 476.442 Z" fill="#000000" fill-rule="nonzero" fill-opacity="1" /><path clip-path="url(#clip900)" d="M168.799 463.595 Q165.188 463.595 163.36 467.16 Q161.554 470.701 161.554 477.831 Q161.554 484.938 163.36 488.502 Q165.188 492.044 168.799 492.044 Q172.434 492.044 174.239 488.502 Q176.068 484.938 176.068 477.831 Q176.068 470.701 174.239 467.16 Q172.434 463.595 168.799 463.595 M168.799 459.891 Q174.61 459.891 177.665 464.498 Q180.744 469.081 180.744 477.831 Q180.744 486.558 177.665 491.164 Q174.61 495.748 168.799 495.748 Q162.989 495.748 159.911 491.164 Q156.855 486.558 156.855 477.831 Q156.855 469.081 159.911 464.498 Q162.989 459.891 168.799 459.891 Z" fill="#000000" fill-rule="nonzero" fill-opacity="1" /><path clip-path="url(#clip900)" d="M141.485 284.96 L129.679 303.409 L141.485 303.409 L141.485 284.96 M140.258 280.886 L146.138 280.886 L146.138 303.409 L151.068 303.409 L151.068 307.298 L146.138 307.298 L146.138 315.446 L141.485 315.446 L141.485 307.298 L125.883 307.298 L125.883 302.784 L140.258 280.886 Z" fill="#000000" fill-rule="nonzero" fill-opacity="1" /><path clip-path="url(#clip900)" d="M168.799 283.964 Q165.188 283.964 163.36 287.529 Q161.554 291.071 161.554 298.2 Q161.554 305.307 163.36 308.872 Q165.188 312.413 168.799 312.413 Q172.434 312.413 174.239 308.872 Q176.068 305.307 176.068 298.2 Q176.068 291.071 174.239 287.529 Q172.434 283.964 168.799 283.964 M168.799 280.261 Q174.61 280.261 177.665 284.867 Q180.744 289.45 180.744 298.2 Q180.744 306.927 177.665 311.534 Q174.61 316.117 168.799 316.117 Q162.989 316.117 159.911 311.534 Q156.855 306.927 156.855 298.2 Q156.855 289.45 159.911 284.867 Q162.989 280.261 168.799 280.261 Z" fill="#000000" fill-rule="nonzero" fill-opacity="1" /><path clip-path="url(#clip900)" d="M128.684 101.255 L147.04 101.255 L147.04 105.19 L132.966 105.19 L132.966 113.662 Q133.985 113.315 135.003 113.153 Q136.022 112.968 137.04 112.968 Q142.827 112.968 146.207 116.139 Q149.587 119.31 149.587 124.727 Q149.587 130.306 146.114 133.408 Q142.642 136.486 136.323 136.486 Q134.147 136.486 131.878 136.116 Q129.633 135.746 127.226 135.005 L127.226 130.306 Q129.309 131.44 131.531 131.996 Q133.753 132.551 136.23 132.551 Q140.235 132.551 142.573 130.445 Q144.911 128.338 144.911 124.727 Q144.911 121.116 142.573 119.01 Q140.235 116.903 136.23 116.903 Q134.355 116.903 132.48 117.32 Q130.628 117.736 128.684 118.616 L128.684 101.255 Z" fill="#000000" fill-rule="nonzero" fill-opacity="1" /><path clip-path="url(#clip900)" d="M168.799 104.334 Q165.188 104.334 163.36 107.898 Q161.554 111.44 161.554 118.57 Q161.554 125.676 163.36 129.241 Q165.188 132.783 168.799 132.783 Q172.434 132.783 174.239 129.241 Q176.068 125.676 176.068 118.57 Q176.068 111.44 174.239 107.898 Q172.434 104.334 168.799 104.334 M168.799 100.63 Q174.61 100.63 177.665 105.236 Q180.744 109.82 180.744 118.57 Q180.744 127.297 177.665 131.903 Q174.61 136.486 168.799 136.486 Q162.989 136.486 159.911 131.903 Q156.855 127.297 156.855 118.57 Q156.855 109.82 159.911 105.236 Q162.989 100.63 168.799 100.63 Z" fill="#000000" fill-rule="nonzero" fill-opacity="1" /><path clip-path="url(#clip900)" d="M48.9618 551.862 Q49.4536 551.862 50.613 552.178 L78.0876 559.065 Q84.2008 560.575 88.4871 565.494 Q92.7734 570.378 92.7734 575.929 Q92.7734 579.266 90.9816 581.41 Q89.2249 583.553 86.5196 583.553 Q84.1306 583.553 82.9711 582.288 Q81.8469 581.023 81.8469 579.512 Q81.8469 579.021 81.9874 578.493 Q82.1279 577.966 82.7252 577.404 Q83.3225 576.842 84.3414 576.842 Q85.9926 576.842 87.2926 578.283 Q87.8899 578.985 88.0304 579.653 Q88.1709 580.285 88.1709 581.374 Q89.1547 580.953 89.8222 580.18 Q90.4897 579.407 90.7357 578.529 Q91.0168 577.65 91.087 577.088 Q91.1924 576.491 91.1924 575.929 Q91.1924 571.432 86.6602 567.989 Q85.29 566.97 83.9198 566.232 Q82.5847 565.459 80.9334 564.897 Q79.3172 564.335 78.4389 564.089 Q77.5606 563.808 75.5579 563.316 Q78.8254 566.583 78.8254 570.588 Q78.8254 572.275 78.3686 573.786 Q77.9119 575.261 76.9633 576.561 Q75.9795 577.861 74.258 578.634 Q72.5364 579.372 70.2528 579.372 Q67.8285 579.372 64.526 578.423 Q61.2234 577.475 55.1453 575.191 Q51.7373 573.961 50.086 573.961 Q49.278 573.961 48.7861 574.137 Q48.2591 574.313 48.0834 574.664 Q47.8726 575.015 47.8375 575.226 Q47.8023 575.402 47.8023 575.753 Q47.8023 577.826 49.9104 579.758 Q52.0184 581.691 56.7263 583.026 Q57.6046 583.307 57.8154 583.482 Q58.0262 583.658 58.0262 584.185 Q57.9911 585.063 57.2884 585.063 Q57.0074 585.063 55.9182 584.747 Q54.7939 584.431 53.1427 583.693 Q51.4562 582.92 49.9455 581.866 Q48.3996 580.812 47.3105 579.161 Q46.2213 577.475 46.2213 575.542 Q46.2213 572.907 47.9429 571.291 Q49.6293 569.64 52.1238 569.64 Q53.1427 569.64 54.0561 569.921 Q54.9345 570.167 57.2884 571.08 Q66.7745 574.769 71.4122 574.769 Q72.5364 574.769 73.4851 574.594 Q74.3985 574.383 75.312 573.926 Q76.1903 573.469 76.7174 572.556 Q77.2092 571.607 77.2092 570.307 Q77.2092 568.656 76.4363 567.11 Q75.6282 565.529 74.5391 564.545 Q73.4499 563.527 72.5364 562.929 Q71.5878 562.297 71.096 562.156 L58.1668 558.924 L52.4049 557.484 Q49.278 556.816 48.505 556.5 Q47.7672 556.078 47.3807 555.34 Q46.9943 554.603 46.9943 553.97 Q46.9943 553.092 47.5213 552.495 Q48.0483 551.862 48.9618 551.862 Z" fill="#000000" fill-rule="nonzero" fill-opacity="1" /><path clip-path="url(#clip900)" d="M844.941 10.368 L888.794 10.368 L888.794 16.2707 L870.392 16.2707 L870.392 62.208 L863.343 62.208 L863.343 16.2707 L844.941 16.2707 L844.941 10.368 Z" fill="#000000" fill-rule="nonzero" fill-opacity="1" /><path clip-path="url(#clip900)" d="M893.1 23.3193 L899.489 23.3193 L899.489 62.208 L893.1 62.208 L893.1 23.3193 M893.1 8.18051 L899.489 8.18051 L899.489 16.2707 L893.1 16.2707 L893.1 8.18051 Z" fill="#000000" fill-rule="nonzero" fill-opacity="1" /><path clip-path="url(#clip900)" d="M919.176 12.2777 L919.176 23.3193 L932.336 23.3193 L932.336 28.2846 L919.176 28.2846 L919.176 49.3956 Q919.176 54.1525 920.461 55.5066 Q921.78 56.8608 925.773 56.8608 L932.336 56.8608 L932.336 62.208 L925.773 62.208 Q918.378 62.208 915.565 59.465 Q912.753 56.6872 912.753 49.3956 L912.753 28.2846 L908.065 28.2846 L908.065 23.3193 L912.753 23.3193 L912.753 12.2777 L919.176 12.2777 Z" fill="#000000" fill-rule="nonzero" fill-opacity="1" /><path clip-path="url(#clip900)" d="M940.739 8.18051 L947.127 8.18051 L947.127 62.208 L940.739 62.208 L940.739 8.18051 Z" fill="#000000" fill-rule="nonzero" fill-opacity="1" /><path clip-path="url(#clip900)" d="M993.759 41.1664 L993.759 44.2914 L964.384 44.2914 Q964.801 50.8886 968.343 54.3608 Q971.919 57.7983 978.273 57.7983 Q981.954 57.7983 985.391 56.8955 Q988.863 55.9928 992.266 54.1872 L992.266 60.2288 Q988.829 61.6872 985.218 62.4511 Q981.606 63.2149 977.891 63.2149 Q968.586 63.2149 963.134 57.7983 Q957.718 52.3817 957.718 43.1456 Q957.718 33.597 962.857 28.0068 Q968.03 22.3818 976.78 22.3818 Q984.627 22.3818 989.176 27.4512 Q993.759 32.4859 993.759 41.1664 M987.37 39.2915 Q987.301 34.0484 984.419 30.9234 Q981.572 27.7985 976.85 27.7985 Q971.502 27.7985 968.273 30.8193 Q965.079 33.8401 964.593 39.3262 L987.37 39.2915 Z" fill="#000000" fill-rule="nonzero" fill-opacity="1" /><polyline clip-path="url(#clip902)" style="stroke:#224466; stroke-linecap:round; stroke-linejoin:round; stroke-width:6; stroke-opacity:1; fill:none" points="205.944,1016.69 213.309,1016.68 220.674,1016.64 263.81,1015.95 306.946,1014.44 327.013,1013.46 347.08,1012.29 373.977,1010.46 400.874,1008.31 445.325,1004.05 486.659,999.306 538.549,992.285 585.094,984.977 638.371,975.44 678.195,967.492 729.132,956.307 775.621,945.1 828.532,931.184 870.476,919.275 922.586,903.398 962.494,890.429 1018.76,870.951 1060.8,855.484 1108.62,836.947 1155.97,817.594 1208.07,795.16 1247.86,777.217 1298.08,753.578 1344.52,730.724 1392.42,706.157 1440.97,680.223 1466.32,666.27 1491.67,652.033 1511.64,640.618 1531.6,629.028 1577.08,601.976 1622.55,574.012 1627.65,570.818 1632.76,567.612 "/>
<path clip-path="url(#clip900)" d="M1274.99 278.073 L1585.2 278.073 L1585.2 148.473 L1274.99 148.473  Z" fill="#000000" fill-rule="evenodd" fill-opacity="0"/>
<polyline clip-path="url(#clip900)" style="stroke:#000000; stroke-linecap:round; stroke-linejoin:round; stroke-width:4; stroke-opacity:0; fill:none" points="1274.99,278.073 1585.2,278.073 1585.2,148.473 1274.99,148.473 1274.99,278.073 "/>
<polyline clip-path="url(#clip900)" style="stroke:#224466; stroke-linecap:round; stroke-linejoin:round; stroke-width:7.5; stroke-opacity:1; fill:none" points="1290.84,213.273 1385.96,213.273 "/>
<path clip-path="url(#clip900)" d="M1429.48 205.778 Q1429.48 206.187 1429.22 207.154 L1423.48 230.049 Q1422.22 235.143 1418.12 238.715 Q1414.05 242.287 1409.43 242.287 Q1406.65 242.287 1404.86 240.794 Q1403.07 239.33 1403.07 237.076 Q1403.07 235.085 1404.13 234.119 Q1405.18 233.182 1406.44 233.182 Q1406.85 233.182 1407.29 233.299 Q1407.73 233.416 1408.2 233.914 Q1408.67 234.412 1408.67 235.261 Q1408.67 236.637 1407.47 237.72 Q1406.88 238.218 1406.32 238.335 Q1405.8 238.452 1404.89 238.452 Q1405.24 239.272 1405.88 239.828 Q1406.53 240.384 1407.26 240.589 Q1407.99 240.823 1408.46 240.882 Q1408.96 240.97 1409.43 240.97 Q1413.18 240.97 1416.04 237.193 Q1416.89 236.051 1417.51 234.909 Q1418.15 233.797 1418.62 232.421 Q1419.09 231.074 1419.29 230.342 Q1419.53 229.61 1419.94 227.941 Q1417.22 230.664 1413.88 230.664 Q1412.47 230.664 1411.21 230.283 Q1409.98 229.903 1408.9 229.112 Q1407.82 228.292 1407.17 226.858 Q1406.56 225.423 1406.56 223.52 Q1406.56 221.5 1407.35 218.748 Q1408.14 215.996 1410.04 210.931 Q1411.07 208.091 1411.07 206.714 Q1411.07 206.041 1410.92 205.631 Q1410.77 205.192 1410.48 205.046 Q1410.19 204.87 1410.01 204.841 Q1409.87 204.811 1409.57 204.811 Q1407.85 204.811 1406.24 206.568 Q1404.63 208.325 1403.51 212.248 Q1403.28 212.98 1403.13 213.156 Q1402.99 213.331 1402.55 213.331 Q1401.82 213.302 1401.82 212.716 Q1401.82 212.482 1402.08 211.575 Q1402.34 210.638 1402.96 209.262 Q1403.6 207.856 1404.48 206.597 Q1405.36 205.309 1406.73 204.402 Q1408.14 203.494 1409.75 203.494 Q1411.95 203.494 1413.29 204.929 Q1414.67 206.334 1414.67 208.413 Q1414.67 209.262 1414.43 210.023 Q1414.23 210.755 1413.47 212.716 Q1410.39 220.622 1410.39 224.486 Q1410.39 225.423 1410.54 226.214 Q1410.72 226.975 1411.1 227.736 Q1411.48 228.468 1412.24 228.907 Q1413.03 229.317 1414.11 229.317 Q1415.49 229.317 1416.78 228.673 Q1418.09 228 1418.91 227.092 Q1419.76 226.184 1420.26 225.423 Q1420.79 224.633 1420.9 224.223 L1423.6 213.448 L1424.8 208.647 Q1425.35 206.041 1425.62 205.397 Q1425.97 204.782 1426.58 204.46 Q1427.2 204.138 1427.73 204.138 Q1428.46 204.138 1428.96 204.577 Q1429.48 205.016 1429.48 205.778 Z" fill="#000000" fill-rule="nonzero" fill-opacity="1" /><path clip-path="url(#clip900)" d="M1447.54 220.885 Q1447.6 220.153 1448.74 220.153 L1485.48 220.153 Q1487.21 220.153 1487.24 220.826 Q1487.24 221.558 1485.6 221.529 L1449.15 221.529 Q1447.54 221.558 1447.54 220.885 M1447.54 209.174 Q1447.54 208.442 1448.8 208.471 L1485.42 208.471 Q1487.21 208.471 1487.24 209.174 Q1487.24 209.847 1485.72 209.847 L1448.74 209.847 Q1447.54 209.847 1447.54 209.174 Z" fill="#000000" fill-rule="nonzero" fill-opacity="1" /><path clip-path="url(#clip900)" d="M1540.23 207.446 Q1540.23 209.086 1539.21 210.023 Q1538.18 210.931 1537.01 210.931 Q1535.9 210.931 1535.31 210.286 Q1534.73 209.642 1534.73 208.822 Q1534.73 207.71 1535.55 206.744 Q1536.37 205.778 1537.6 205.573 Q1536.4 204.811 1534.61 204.811 Q1533.44 204.811 1532.41 205.426 Q1531.42 206.041 1530.8 206.832 Q1530.22 207.622 1529.69 208.764 Q1529.19 209.877 1528.99 210.55 Q1528.81 211.194 1528.67 211.897 L1526.62 220.095 Q1525.62 223.989 1525.62 225.365 Q1525.62 227.063 1526.44 228.205 Q1527.26 229.317 1528.9 229.317 Q1529.55 229.317 1530.28 229.141 Q1531.01 228.937 1531.95 228.41 Q1532.91 227.853 1533.76 227.033 Q1534.64 226.184 1535.49 224.75 Q1536.34 223.315 1536.89 221.471 Q1537.07 220.826 1537.66 220.826 Q1538.39 220.826 1538.39 221.412 Q1538.39 221.91 1537.98 222.964 Q1537.6 223.989 1536.75 225.335 Q1535.93 226.653 1534.84 227.853 Q1533.76 229.024 1532.15 229.844 Q1530.54 230.664 1528.78 230.664 Q1526.27 230.664 1524.6 229.317 Q1522.93 227.97 1522.31 226.097 Q1522.17 226.36 1521.96 226.711 Q1521.76 227.063 1521.14 227.853 Q1520.56 228.614 1519.88 229.2 Q1519.21 229.756 1518.16 230.195 Q1517.13 230.664 1516.02 230.664 Q1514.61 230.664 1513.35 230.254 Q1512.12 229.844 1511.25 228.907 Q1510.37 227.97 1510.37 226.682 Q1510.37 225.247 1511.33 224.252 Q1512.33 223.227 1513.68 223.227 Q1514.53 223.227 1515.2 223.725 Q1515.9 224.223 1515.9 225.306 Q1515.9 226.506 1515.08 227.414 Q1514.26 228.322 1513.09 228.556 Q1514.29 229.317 1516.08 229.317 Q1518.01 229.317 1519.53 227.619 Q1521.05 225.921 1521.79 223.081 Q1523.6 216.259 1524.3 213.214 Q1525.01 210.14 1525.01 208.822 Q1525.01 207.593 1524.69 206.744 Q1524.36 205.895 1523.81 205.514 Q1523.28 205.104 1522.78 204.958 Q1522.31 204.811 1521.79 204.811 Q1520.91 204.811 1519.91 205.163 Q1518.95 205.514 1517.78 206.334 Q1516.63 207.124 1515.55 208.764 Q1514.47 210.404 1513.74 212.658 Q1513.59 213.331 1512.94 213.331 Q1512.24 213.302 1512.24 212.716 Q1512.24 212.219 1512.62 211.194 Q1513.03 210.14 1513.85 208.822 Q1514.7 207.505 1515.78 206.334 Q1516.9 205.133 1518.51 204.314 Q1520.15 203.494 1521.9 203.494 Q1522.69 203.494 1523.46 203.67 Q1524.25 203.816 1525.18 204.255 Q1526.15 204.694 1527 205.66 Q1527.85 206.627 1528.37 208.032 Q1528.73 207.359 1529.19 206.714 Q1529.69 206.07 1530.45 205.28 Q1531.24 204.46 1532.33 203.992 Q1533.44 203.494 1534.67 203.494 Q1535.87 203.494 1537.04 203.816 Q1538.21 204.109 1539.21 205.075 Q1540.23 206.012 1540.23 207.446 Z" fill="#000000" fill-rule="nonzero" fill-opacity="1" /><path clip-path="url(#clip900)" d="M1546.34 212.057 Q1546.34 211.299 1546.4 211.073 Q1546.49 210.848 1546.81 210.499 L1554.87 201.523 Q1559.28 196.563 1559.28 192.239 Q1559.28 189.431 1557.8 187.422 Q1556.34 185.414 1553.66 185.414 Q1551.82 185.414 1550.26 186.541 Q1548.7 187.668 1547.98 189.677 Q1548.11 189.636 1548.54 189.636 Q1549.58 189.636 1550.16 190.292 Q1550.75 190.947 1550.75 191.829 Q1550.75 192.956 1550.01 193.509 Q1549.29 194.042 1548.58 194.042 Q1548.29 194.042 1547.9 193.981 Q1547.53 193.919 1546.94 193.345 Q1546.34 192.751 1546.34 191.706 Q1546.34 188.775 1548.56 186.439 Q1550.79 184.102 1554.19 184.102 Q1558.05 184.102 1560.57 186.398 Q1563.11 188.673 1563.11 192.239 Q1563.11 193.489 1562.72 194.637 Q1562.35 195.764 1561.84 196.645 Q1561.35 197.526 1559.99 198.94 Q1558.64 200.355 1557.55 201.359 Q1556.47 202.363 1554.03 204.494 L1549.58 208.819 L1557.14 208.819 Q1560.83 208.819 1561.12 208.491 Q1561.53 207.897 1562.04 204.761 L1563.11 204.761 L1561.92 212.057 L1546.34 212.057 Z" fill="#000000" fill-rule="nonzero" fill-opacity="1" /></svg>
