<?xml version="1.0" encoding="utf-8"?>
<svg xmlns="http://www.w3.org/2000/svg" xmlns:xlink="http://www.w3.org/1999/xlink" width="420" height="300" viewBox="0 0 1680 1200">
<defs>
  <clipPath id="clip660">
    <rect x="0" y="0" width="1680" height="1200"/>
  </clipPath>
</defs>
<defs>
  <clipPath id="clip661">
    <rect x="336" y="0" width="1177" height="1177"/>
  </clipPath>
</defs>
<defs>
  <clipPath id="clip662">
    <rect x="194" y="113" width="1439" height="913"/>
  </clipPath>
</defs>
<polyline clip-path="url(#clip662)" style="stroke:#000000; stroke-linecap:round; stroke-linejoin:round; stroke-width:2; stroke-opacity:0.1; fill:none" points="194.458,1025.95 194.458,113.906 "/>
<polyline clip-path="url(#clip662)" style="stroke:#000000; stroke-linecap:round; stroke-linejoin:round; stroke-width:2; stroke-opacity:0.1; fill:none" points="482.117,1025.95 482.117,113.906 "/>
<polyline clip-path="url(#clip662)" style="stroke:#000000; stroke-linecap:round; stroke-linejoin:round; stroke-width:2; stroke-opacity:0.1; fill:none" points="769.777,1025.95 769.777,113.906 "/>
<polyline clip-path="url(#clip662)" style="stroke:#000000; stroke-linecap:round; stroke-linejoin:round; stroke-width:2; stroke-opacity:0.1; fill:none" points="1057.44,1025.95 1057.44,113.906 "/>
<polyline clip-path="url(#clip662)" style="stroke:#000000; stroke-linecap:round; stroke-linejoin:round; stroke-width:2; stroke-opacity:0.1; fill:none" points="1345.1,1025.95 1345.1,113.906 "/>
<polyline clip-path="url(#clip662)" style="stroke:#000000; stroke-linecap:round; stroke-linejoin:round; stroke-width:2; stroke-opacity:0.1; fill:none" points="1632.76,1025.95 1632.76,113.906 "/>
<polyline clip-path="url(#clip662)" style="stroke:#000000; stroke-linecap:round; stroke-linejoin:round; stroke-width:2; stroke-opacity:0.1; fill:none" points="194.458,1025.95 194.458,113.906 "/>
<polyline clip-path="url(#clip662)" style="stroke:#000000; stroke-linecap:round; stroke-linejoin:round; stroke-width:2; stroke-opacity:0.1; fill:none" points="482.117,1025.95 482.117,113.906 "/>
<polyline clip-path="url(#clip662)" style="stroke:#000000; stroke-linecap:round; stroke-linejoin:round; stroke-width:2; stroke-opacity:0.1; fill:none" points="769.777,1025.95 769.777,113.906 "/>
<polyline clip-path="url(#clip662)" style="stroke:#000000; stroke-linecap:round; stroke-linejoin:round; stroke-width:2; stroke-opacity:0.1; fill:none" points="1057.44,1025.95 1057.44,113.906 "/>
<polyline clip-path="url(#clip662)" style="stroke:#000000; stroke-linecap:round; stroke-linejoin:round; stroke-width:2; stroke-opacity:0.1; fill:none" points="1345.1,1025.95 1345.1,113.906 "/>
<polyline clip-path="url(#clip662)" style="stroke:#000000; stroke-linecap:round; stroke-linejoin:round; stroke-width:2; stroke-opacity:0.1; fill:none" points="1632.76,1025.95 1632.76,113.906 "/>
<polyline clip-path="url(#clip662)" style="stroke:#000000; stroke-linecap:round; stroke-linejoin:round; stroke-width:2; stroke-opacity:0.1; fill:none" points="194.458,1025.95 1632.76,1025.95 "/>
<polyline clip-path="url(#clip662)" style="stroke:#000000; stroke-linecap:round; stroke-linejoin:round; stroke-width:2; stroke-opacity:0.1; fill:none" points="194.458,843.538 1632.76,843.538 "/>
<polyline clip-path="url(#clip662)" style="stroke:#000000; stroke-linecap:round; stroke-linejoin:round; stroke-width:2; stroke-opacity:0.1; fill:none" points="194.458,661.13 1632.76,661.13 "/>
<polyline clip-path="url(#clip662)" style="stroke:#000000; stroke-linecap:round; stroke-linejoin:round; stroke-width:2; stroke-opacity:0.1; fill:none" points="194.458,478.722 1632.76,478.722 "/>
<polyline clip-path="url(#clip662)" style="stroke:#000000; stroke-linecap:round; stroke-linejoin:round; stroke-width:2; stroke-opacity:0.1; fill:none" points="194.458,296.314 1632.76,296.314 "/>
<polyline clip-path="url(#clip662)" style="stroke:#000000; stroke-linecap:round; stroke-linejoin:round; stroke-width:2; stroke-opacity:0.1; fill:none" points="194.458,113.906 1632.76,113.906 "/>
<polyline clip-path="url(#clip662)" style="stroke:#000000; stroke-linecap:round; stroke-linejoin:round; stroke-width:2; stroke-opacity:0.1; fill:none" points="194.458,1025.95 1632.76,1025.95 "/>
<polyline clip-path="url(#clip662)" style="stroke:#000000; stroke-linecap:round; stroke-linejoin:round; stroke-width:2; stroke-opacity:0.1; fill:none" points="194.458,843.538 1632.76,843.538 "/>
<polyline clip-path="url(#clip662)" style="stroke:#000000; stroke-linecap:round; stroke-linejoin:round; stroke-width:2; stroke-opacity:0.1; fill:none" points="194.458,661.13 1632.76,661.13 "/>
<polyline clip-path="url(#clip662)" style="stroke:#000000; stroke-linecap:round; stroke-linejoin:round; stroke-width:2; stroke-opacity:0.1; fill:none" points="194.458,478.722 1632.76,478.722 "/>
<polyline clip-path="url(#clip662)" style="stroke:#000000; stroke-linecap:round; stroke-linejoin:round; stroke-width:2; stroke-opacity:0.1; fill:none" points="194.458,296.314 1632.76,296.314 "/>
<polyline clip-path="url(#clip662)" style="stroke:#000000; stroke-linecap:round; stroke-linejoin:round; stroke-width:2; stroke-opacity:0.1; fill:none" points="194.458,113.906 1632.76,113.906 "/>
<polyline clip-path="url(#clip660)" style="stroke:#000000; stroke-linecap:round; stroke-linejoin:round; stroke-width:4; stroke-opacity:1; fill:none" points="194.458,1025.95 1632.76,1025.95 "/>
<polyline clip-path="url(#clip660)" style="stroke:#000000; stroke-linecap:round; stroke-linejoin:round; stroke-width:4; stroke-opacity:1; fill:none" points="194.458,113.906 1632.76,113.906 "/>
<polyline clip-path="url(#clip660)" style="stroke:#000000; stroke-linecap:round; stroke-linejoin:round; stroke-width:4; stroke-opacity:1; fill:none" points="194.458,1025.95 194.458,1007.05 "/>
<polyline clip-path="url(#clip660)" style="stroke:#000000; stroke-linecap:round; stroke-linejoin:round; stroke-width:4; stroke-opacity:1; fill:none" points="482.117,1025.95 482.117,1007.05 "/>
<polyline clip-path="url(#clip660)" style="stroke:#000000; stroke-linecap:round; stroke-linejoin:round; stroke-width:4; stroke-opacity:1; fill:none" points="769.777,1025.95 769.777,1007.05 "/>
<polyline clip-path="url(#clip660)" style="stroke:#000000; stroke-linecap:round; stroke-linejoin:round; stroke-width:4; stroke-opacity:1; fill:none" points="1057.44,1025.95 1057.44,1007.05 "/>
<polyline clip-path="url(#clip660)" style="stroke:#000000; stroke-linecap:round; stroke-linejoin:round; stroke-width:4; stroke-opacity:1; fill:none" points="1345.1,1025.95 1345.1,1007.05 "/>
<polyline clip-path="url(#clip660)" style="stroke:#000000; stroke-linecap:round; stroke-linejoin:round; stroke-width:4; stroke-opacity:1; fill:none" points="1632.76,1025.95 1632.76,1007.05 "/>
<polyline clip-path="url(#clip660)" style="stroke:#000000; stroke-linecap:round; stroke-linejoin:round; stroke-width:4; stroke-opacity:1; fill:none" points="194.458,113.906 194.458,132.804 "/>
<polyline clip-path="url(#clip660)" style="stroke:#000000; stroke-linecap:round; stroke-linejoin:round; stroke-width:4; stroke-opacity:1; fill:none" points="482.117,113.906 482.117,132.804 "/>
<polyline clip-path="url(#clip660)" style="stroke:#000000; stroke-linecap:round; stroke-linejoin:round; stroke-width:4; stroke-opacity:1; fill:none" points="769.777,113.906 769.777,132.804 "/>
<polyline clip-path="url(#clip660)" style="stroke:#000000; stroke-linecap:round; stroke-linejoin:round; stroke-width:4; stroke-opacity:1; fill:none" points="1057.44,113.906 1057.44,132.804 "/>
<polyline clip-path="url(#clip660)" style="stroke:#000000; stroke-linecap:round; stroke-linejoin:round; stroke-width:4; stroke-opacity:1; fill:none" points="1345.1,113.906 1345.1,132.804 "/>
<polyline clip-path="url(#clip660)" style="stroke:#000000; stroke-linecap:round; stroke-linejoin:round; stroke-width:4; stroke-opacity:1; fill:none" points="1632.76,113.906 1632.76,132.804 "/>
<path clip-path="url(#clip660)" d="M194.458 1049.64 Q191.298 1049.64 189.698 1052.76 Q188.118 1055.86 188.118 1062.1 Q188.118 1068.31 189.698 1071.43 Q191.298 1074.53 194.458 1074.53 Q197.638 1074.53 199.217 1071.43 Q200.818 1068.31 200.818 1062.1 Q200.818 1055.86 199.217 1052.76 Q197.638 1049.64 194.458 1049.64 M194.458 1046.4 Q199.542 1046.4 202.215 1050.43 Q204.909 1054.44 204.909 1062.1 Q204.909 1069.73 202.215 1073.76 Q199.542 1077.77 194.458 1077.77 Q189.374 1077.77 186.68 1073.76 Q184.006 1069.73 184.006 1062.1 Q184.006 1054.44 186.68 1050.43 Q189.374 1046.4 194.458 1046.4 Z" fill="#000000" fill-rule="nonzero" fill-opacity="1" /><path clip-path="url(#clip660)" d="M473.702 1073.74 L480.386 1073.74 L480.386 1050.67 L473.114 1052.13 L473.114 1048.4 L480.345 1046.95 L484.436 1046.95 L484.436 1073.74 L491.12 1073.74 L491.12 1077.19 L473.702 1077.19 L473.702 1073.74 Z" fill="#000000" fill-rule="nonzero" fill-opacity="1" /><path clip-path="url(#clip660)" d="M765.098 1073.74 L779.378 1073.74 L779.378 1077.19 L760.176 1077.19 L760.176 1073.74 Q762.506 1071.33 766.516 1067.28 Q770.547 1063.21 771.58 1062.04 Q773.544 1059.83 774.314 1058.31 Q775.104 1056.77 775.104 1055.29 Q775.104 1052.88 773.403 1051.36 Q771.721 1049.84 769.007 1049.84 Q767.083 1049.84 764.936 1050.51 Q762.809 1051.18 760.379 1052.54 L760.379 1048.4 Q762.85 1047.41 764.997 1046.91 Q767.144 1046.4 768.926 1046.4 Q773.625 1046.4 776.42 1048.75 Q779.216 1051.1 779.216 1055.03 Q779.216 1056.89 778.507 1058.57 Q777.818 1060.23 775.975 1062.5 Q775.468 1063.09 772.754 1065.9 Q770.04 1068.7 765.098 1073.74 Z" fill="#000000" fill-rule="nonzero" fill-opacity="1" /><path clip-path="url(#clip660)" d="M1061.15 1060.88 Q1064.09 1061.51 1065.73 1063.49 Q1067.39 1065.48 1067.39 1068.4 Q1067.39 1072.87 1064.31 1075.32 Q1061.23 1077.77 1055.56 1077.77 Q1053.66 1077.77 1051.63 1077.39 Q1049.63 1077.02 1047.48 1076.27 L1047.48 1072.32 Q1049.18 1073.32 1051.21 1073.82 Q1053.23 1074.33 1055.44 1074.33 Q1059.29 1074.33 1061.3 1072.81 Q1063.32 1071.29 1063.32 1068.4 Q1063.32 1065.72 1061.44 1064.22 Q1059.57 1062.7 1056.23 1062.7 L1052.71 1062.7 L1052.71 1059.34 L1056.39 1059.34 Q1059.41 1059.34 1061.01 1058.15 Q1062.61 1056.93 1062.61 1054.66 Q1062.61 1052.33 1060.95 1051.1 Q1059.31 1049.84 1056.23 1049.84 Q1054.55 1049.84 1052.63 1050.21 Q1050.7 1050.57 1048.39 1051.34 L1048.39 1047.69 Q1050.72 1047.05 1052.75 1046.72 Q1054.79 1046.4 1056.6 1046.4 Q1061.25 1046.4 1063.97 1048.53 Q1066.68 1050.63 1066.68 1054.24 Q1066.68 1056.75 1065.24 1058.49 Q1063.81 1060.21 1061.15 1060.88 Z" fill="#000000" fill-rule="nonzero" fill-opacity="1" /><path clip-path="url(#clip660)" d="M1347.73 1050.51 L1337.4 1066.65 L1347.73 1066.65 L1347.73 1050.51 M1346.66 1046.95 L1351.8 1046.95 L1351.8 1066.65 L1356.11 1066.65 L1356.11 1070.06 L1351.8 1070.06 L1351.8 1077.19 L1347.73 1077.19 L1347.73 1070.06 L1334.08 1070.06 L1334.08 1066.11 L1346.66 1046.95 Z" fill="#000000" fill-rule="nonzero" fill-opacity="1" /><path clip-path="url(#clip660)" d="M1624.25 1046.95 L1640.31 1046.95 L1640.31 1050.39 L1628 1050.39 L1628 1057.8 Q1628.89 1057.5 1629.78 1057.36 Q1630.67 1057.19 1631.56 1057.19 Q1636.62 1057.19 1639.58 1059.97 Q1642.54 1062.74 1642.54 1067.48 Q1642.54 1072.36 1639.5 1075.08 Q1636.46 1077.77 1630.93 1077.77 Q1629.03 1077.77 1627.04 1077.45 Q1625.08 1077.12 1622.97 1076.48 L1622.97 1072.36 Q1624.8 1073.36 1626.74 1073.84 Q1628.68 1074.33 1630.85 1074.33 Q1634.36 1074.33 1636.4 1072.49 Q1638.45 1070.64 1638.45 1067.48 Q1638.45 1064.32 1636.4 1062.48 Q1634.36 1060.64 1630.85 1060.64 Q1629.21 1060.64 1627.57 1061 Q1625.95 1061.37 1624.25 1062.14 L1624.25 1046.95 Z" fill="#000000" fill-rule="nonzero" fill-opacity="1" /><path clip-path="url(#clip660)" d="M927.78 1114.28 Q927.78 1116.09 926.653 1117.12 Q925.525 1118.12 924.237 1118.12 Q923.013 1118.12 922.369 1117.41 Q921.725 1116.7 921.725 1115.8 Q921.725 1114.57 922.627 1113.51 Q923.529 1112.45 924.881 1112.22 Q923.561 1111.39 921.596 1111.39 Q920.308 1111.39 919.181 1112.06 Q918.086 1112.74 917.409 1113.61 Q916.765 1114.48 916.186 1115.73 Q915.638 1116.96 915.413 1117.7 Q915.219 1118.41 915.058 1119.18 L912.804 1128.2 Q911.709 1132.48 911.709 1133.99 Q911.709 1135.86 912.611 1137.12 Q913.513 1138.34 915.316 1138.34 Q916.025 1138.34 916.83 1138.15 Q917.635 1137.92 918.665 1137.34 Q919.728 1136.73 920.662 1135.83 Q921.628 1134.9 922.562 1133.32 Q923.496 1131.74 924.108 1129.71 Q924.302 1129 924.946 1129 Q925.751 1129 925.751 1129.65 Q925.751 1130.19 925.3 1131.35 Q924.881 1132.48 923.947 1133.96 Q923.045 1135.41 921.854 1136.73 Q920.662 1138.02 918.891 1138.92 Q917.12 1139.82 915.187 1139.82 Q912.418 1139.82 910.582 1138.34 Q908.746 1136.86 908.07 1134.8 Q907.909 1135.09 907.683 1135.48 Q907.458 1135.86 906.782 1136.73 Q906.137 1137.57 905.397 1138.21 Q904.656 1138.83 903.497 1139.31 Q902.369 1139.82 901.145 1139.82 Q899.6 1139.82 898.215 1139.37 Q896.862 1138.92 895.896 1137.89 Q894.93 1136.86 894.93 1135.44 Q894.93 1133.87 895.993 1132.77 Q897.088 1131.64 898.569 1131.64 Q899.503 1131.64 900.244 1132.19 Q901.017 1132.74 901.017 1133.93 Q901.017 1135.25 900.115 1136.25 Q899.213 1137.25 897.925 1137.51 Q899.245 1138.34 901.21 1138.34 Q903.335 1138.34 905.01 1136.47 Q906.685 1134.61 907.49 1131.48 Q909.487 1123.98 910.26 1120.63 Q911.033 1117.25 911.033 1115.8 Q911.033 1114.45 910.678 1113.51 Q910.324 1112.58 909.712 1112.16 Q909.133 1111.71 908.585 1111.55 Q908.07 1111.39 907.49 1111.39 Q906.524 1111.39 905.429 1111.77 Q904.366 1112.16 903.078 1113.06 Q901.822 1113.93 900.63 1115.73 Q899.439 1117.54 898.633 1120.02 Q898.472 1120.76 897.764 1120.76 Q896.991 1120.73 896.991 1120.08 Q896.991 1119.53 897.41 1118.41 Q897.861 1117.25 898.762 1115.8 Q899.696 1114.35 900.888 1113.06 Q902.112 1111.74 903.883 1110.84 Q905.687 1109.94 907.619 1109.94 Q908.488 1109.94 909.326 1110.13 Q910.195 1110.29 911.226 1110.77 Q912.289 1111.26 913.223 1112.32 Q914.157 1113.38 914.736 1114.93 Q915.123 1114.19 915.638 1113.48 Q916.186 1112.77 917.023 1111.9 Q917.893 1111 919.084 1110.48 Q920.308 1109.94 921.661 1109.94 Q922.981 1109.94 924.269 1110.29 Q925.558 1110.61 926.653 1111.68 Q927.78 1112.71 927.78 1114.28 Z" fill="#000000" fill-rule="nonzero" fill-opacity="1" /><polyline clip-path="url(#clip660)" style="stroke:#000000; stroke-linecap:round; stroke-linejoin:round; stroke-width:4; stroke-opacity:1; fill:none" points="194.458,1025.95 194.458,113.906 "/>
<polyline clip-path="url(#clip660)" style="stroke:#000000; stroke-linecap:round; stroke-linejoin:round; stroke-width:4; stroke-opacity:1; fill:none" points="1632.76,1025.95 1632.76,113.906 "/>
<polyline clip-path="url(#clip660)" style="stroke:#000000; stroke-linecap:round; stroke-linejoin:round; stroke-width:4; stroke-opacity:1; fill:none" points="194.458,1025.95 213.355,1025.95 "/>
<polyline clip-path="url(#clip660)" style="stroke:#000000; stroke-linecap:round; stroke-linejoin:round; stroke-width:4; stroke-opacity:1; fill:none" points="194.458,843.538 213.355,843.538 "/>
<polyline clip-path="url(#clip660)" style="stroke:#000000; stroke-linecap:round; stroke-linejoin:round; stroke-width:4; stroke-opacity:1; fill:none" points="194.458,661.13 213.355,661.13 "/>
<polyline clip-path="url(#clip660)" style="stroke:#000000; stroke-linecap:round; stroke-linejoin:round; stroke-width:4; stroke-opacity:1; fill:none" points="194.458,478.722 213.355,478.722 "/>
<polyline clip-path="url(#clip660)" style="stroke:#000000; stroke-linecap:round; stroke-linejoin:round; stroke-width:4; stroke-opacity:1; fill:none" points="194.458,296.314 213.355,296.314 "/>
<polyline clip-path="url(#clip660)" style="stroke:#000000; stroke-linecap:round; stroke-linejoin:round; stroke-width:4; stroke-opacity:1; fill:none" points="194.458,113.906 213.355,113.906 "/>
<polyline clip-path="url(#clip660)" style="stroke:#000000; stroke-linecap:round; stroke-linejoin:round; stroke-width:4; stroke-opacity:1; fill:none" points="1632.76,1025.95 1613.86,1025.95 "/>
<polyline clip-path="url(#clip660)" style="stroke:#000000; stroke-linecap:round; stroke-linejoin:round; stroke-width:4; stroke-opacity:1; fill:none" points="1632.76,843.538 1613.86,843.538 "/>
<polyline clip-path="url(#clip660)" style="stroke:#000000; stroke-linecap:round; stroke-linejoin:round; stroke-width:4; stroke-opacity:1; fill:none" points="1632.76,661.13 1613.86,661.13 "/>
<polyline clip-path="url(#clip660)" style="stroke:#000000; stroke-linecap:round; stroke-linejoin:round; stroke-width:4; stroke-opacity:1; fill:none" points="1632.76,478.722 1613.86,478.722 "/>
<polyline clip-path="url(#clip660)" style="stroke:#000000; stroke-linecap:round; stroke-linejoin:round; stroke-width:4; stroke-opacity:1; fill:none" points="1632.76,296.314 1613.86,296.314 "/>
<polyline clip-path="url(#clip660)" style="stroke:#000000; stroke-linecap:round; stroke-linejoin:round; stroke-width:4; stroke-opacity:1; fill:none" points="1632.76,113.906 1613.86,113.906 "/>
<path clip-path="url(#clip660)" d="M158.806 1013.52 Q155.647 1013.52 154.047 1016.64 Q152.467 1019.74 152.467 1025.98 Q152.467 1032.19 154.047 1035.31 Q155.647 1038.41 158.806 1038.41 Q161.986 1038.41 163.566 1035.31 Q165.166 1032.19 165.166 1025.98 Q165.166 1019.74 163.566 1016.64 Q161.986 1013.52 158.806 1013.52 M158.806 1010.28 Q163.89 1010.28 166.564 1014.31 Q169.258 1018.32 169.258 1025.98 Q169.258 1033.61 166.564 1037.64 Q163.89 1041.65 158.806 1041.65 Q153.722 1041.65 151.029 1037.64 Q148.355 1033.61 148.355 1025.98 Q148.355 1018.32 151.029 1014.31 Q153.722 1010.28 158.806 1010.28 Z" fill="#000000" fill-rule="nonzero" fill-opacity="1" /><path clip-path="url(#clip660)" d="M124.374 855.214 L131.058 855.214 L131.058 832.145 L123.786 833.603 L123.786 829.876 L131.017 828.418 L135.109 828.418 L135.109 855.214 L141.793 855.214 L141.793 858.658 L124.374 858.658 L124.374 855.214 Z" fill="#000000" fill-rule="nonzero" fill-opacity="1" /><path clip-path="url(#clip660)" d="M158.806 831.112 Q155.647 831.112 154.047 834.231 Q152.467 837.33 152.467 843.568 Q152.467 849.786 154.047 852.905 Q155.647 856.004 158.806 856.004 Q161.986 856.004 163.566 852.905 Q165.166 849.786 165.166 843.568 Q165.166 837.33 163.566 834.231 Q161.986 831.112 158.806 831.112 M158.806 827.871 Q163.89 827.871 166.564 831.902 Q169.258 835.912 169.258 843.568 Q169.258 851.204 166.564 855.235 Q163.89 859.245 158.806 859.245 Q153.722 859.245 151.029 855.235 Q148.355 851.204 148.355 843.568 Q148.355 835.912 151.029 831.902 Q153.722 827.871 158.806 827.871 Z" fill="#000000" fill-rule="nonzero" fill-opacity="1" /><path clip-path="url(#clip660)" d="M127.189 672.807 L141.468 672.807 L141.468 676.25 L122.267 676.25 L122.267 672.807 Q124.596 670.396 128.607 666.345 Q132.637 662.274 133.67 661.1 Q135.635 658.892 136.405 657.373 Q137.195 655.833 137.195 654.355 Q137.195 651.944 135.493 650.425 Q133.812 648.906 131.098 648.906 Q129.174 648.906 127.027 649.575 Q124.9 650.243 122.47 651.6 L122.47 647.468 Q124.941 646.476 127.088 645.969 Q129.235 645.463 131.017 645.463 Q135.716 645.463 138.511 647.813 Q141.306 650.162 141.306 654.091 Q141.306 655.955 140.598 657.636 Q139.909 659.297 138.066 661.565 Q137.559 662.153 134.845 664.968 Q132.131 667.763 127.189 672.807 Z" fill="#000000" fill-rule="nonzero" fill-opacity="1" /><path clip-path="url(#clip660)" d="M158.806 648.704 Q155.647 648.704 154.047 651.823 Q152.467 654.922 152.467 661.16 Q152.467 667.378 154.047 670.498 Q155.647 673.597 158.806 673.597 Q161.986 673.597 163.566 670.498 Q165.166 667.378 165.166 661.16 Q165.166 654.922 163.566 651.823 Q161.986 648.704 158.806 648.704 M158.806 645.463 Q163.89 645.463 166.564 649.494 Q169.258 653.504 169.258 661.16 Q169.258 668.796 166.564 672.827 Q163.89 676.837 158.806 676.837 Q153.722 676.837 151.029 672.827 Q148.355 668.796 148.355 661.16 Q148.355 653.504 151.029 649.494 Q153.722 645.463 158.806 645.463 Z" fill="#000000" fill-rule="nonzero" fill-opacity="1" /><path clip-path="url(#clip660)" d="M136.06 477.537 Q138.997 478.165 140.638 480.15 Q142.299 482.135 142.299 485.052 Q142.299 489.528 139.22 491.979 Q136.142 494.429 130.47 494.429 Q128.566 494.429 126.541 494.045 Q124.536 493.68 122.389 492.931 L122.389 488.981 Q124.09 489.973 126.116 490.48 Q128.141 490.986 130.349 490.986 Q134.197 490.986 136.202 489.467 Q138.228 487.948 138.228 485.052 Q138.228 482.378 136.344 480.879 Q134.481 479.36 131.139 479.36 L127.614 479.36 L127.614 475.998 L131.301 475.998 Q134.319 475.998 135.919 474.803 Q137.519 473.588 137.519 471.319 Q137.519 468.99 135.858 467.754 Q134.217 466.498 131.139 466.498 Q129.458 466.498 127.533 466.863 Q125.609 467.228 123.3 467.997 L123.3 464.351 Q125.629 463.703 127.655 463.379 Q129.701 463.055 131.503 463.055 Q136.162 463.055 138.876 465.182 Q141.59 467.288 141.59 470.894 Q141.59 473.405 140.152 475.147 Q138.714 476.869 136.06 477.537 Z" fill="#000000" fill-rule="nonzero" fill-opacity="1" /><path clip-path="url(#clip660)" d="M158.806 466.296 Q155.647 466.296 154.047 469.415 Q152.467 472.514 152.467 478.752 Q152.467 484.971 154.047 488.09 Q155.647 491.189 158.806 491.189 Q161.986 491.189 163.566 488.09 Q165.166 484.971 165.166 478.752 Q165.166 472.514 163.566 469.415 Q161.986 466.296 158.806 466.296 M158.806 463.055 Q163.89 463.055 166.564 467.086 Q169.258 471.096 169.258 478.752 Q169.258 486.388 166.564 490.419 Q163.89 494.429 158.806 494.429 Q153.722 494.429 151.029 490.419 Q148.355 486.388 148.355 478.752 Q148.355 471.096 151.029 467.086 Q153.722 463.055 158.806 463.055 Z" fill="#000000" fill-rule="nonzero" fill-opacity="1" /><path clip-path="url(#clip660)" d="M134.906 284.759 L124.576 300.902 L134.906 300.902 L134.906 284.759 M133.833 281.194 L138.977 281.194 L138.977 300.902 L143.291 300.902 L143.291 304.305 L138.977 304.305 L138.977 311.434 L134.906 311.434 L134.906 304.305 L121.254 304.305 L121.254 300.355 L133.833 281.194 Z" fill="#000000" fill-rule="nonzero" fill-opacity="1" /><path clip-path="url(#clip660)" d="M158.806 283.888 Q155.647 283.888 154.047 287.007 Q152.467 290.106 152.467 296.345 Q152.467 302.563 154.047 305.682 Q155.647 308.781 158.806 308.781 Q161.986 308.781 163.566 305.682 Q165.166 302.563 165.166 296.345 Q165.166 290.106 163.566 287.007 Q161.986 283.888 158.806 283.888 M158.806 280.647 Q163.89 280.647 166.564 284.678 Q169.258 288.688 169.258 296.345 Q169.258 303.981 166.564 308.011 Q163.89 312.022 158.806 312.022 Q153.722 312.022 151.029 308.011 Q148.355 303.981 148.355 296.345 Q148.355 288.688 151.029 284.678 Q153.722 280.647 158.806 280.647 Z" fill="#000000" fill-rule="nonzero" fill-opacity="1" /><path clip-path="url(#clip660)" d="M123.705 98.7864 L139.767 98.7864 L139.767 102.23 L127.452 102.23 L127.452 109.643 Q128.344 109.339 129.235 109.197 Q130.126 109.035 131.017 109.035 Q136.081 109.035 139.038 111.81 Q141.995 114.585 141.995 119.324 Q141.995 124.206 138.957 126.92 Q135.919 129.614 130.389 129.614 Q128.485 129.614 126.5 129.29 Q124.536 128.966 122.429 128.318 L122.429 124.206 Q124.252 125.198 126.197 125.684 Q128.141 126.171 130.308 126.171 Q133.812 126.171 135.858 124.327 Q137.904 122.484 137.904 119.324 Q137.904 116.165 135.858 114.322 Q133.812 112.478 130.308 112.478 Q128.668 112.478 127.027 112.843 Q125.407 113.208 123.705 113.977 L123.705 98.7864 Z" fill="#000000" fill-rule="nonzero" fill-opacity="1" /><path clip-path="url(#clip660)" d="M158.806 101.48 Q155.647 101.48 154.047 104.599 Q152.467 107.698 152.467 113.937 Q152.467 120.155 154.047 123.274 Q155.647 126.373 158.806 126.373 Q161.986 126.373 163.566 123.274 Q165.166 120.155 165.166 113.937 Q165.166 107.698 163.566 104.599 Q161.986 101.48 158.806 101.48 M158.806 98.2395 Q163.89 98.2395 166.564 102.27 Q169.258 106.281 169.258 113.937 Q169.258 121.573 166.564 125.603 Q163.89 129.614 158.806 129.614 Q153.722 129.614 151.029 125.603 Q148.355 121.573 148.355 113.937 Q148.355 106.281 151.029 102.27 Q153.722 98.2395 158.806 98.2395 Z" fill="#000000" fill-rule="nonzero" fill-opacity="1" /><path clip-path="url(#clip660)" d="M48.641 555.489 Q49.0919 555.489 50.1547 555.779 L75.3397 562.091 Q80.9435 563.476 84.8726 567.985 Q88.8017 572.461 88.8017 577.55 Q88.8017 580.609 87.1592 582.574 Q85.5489 584.539 83.0691 584.539 Q80.8791 584.539 79.8163 583.379 Q78.7857 582.22 78.7857 580.835 Q78.7857 580.384 78.9145 579.901 Q79.0433 579.418 79.5908 578.903 Q80.1383 578.387 81.0723 578.387 Q82.586 578.387 83.7776 579.708 Q84.3251 580.352 84.4539 580.964 Q84.5827 581.543 84.5827 582.542 Q85.4845 582.155 86.0964 581.447 Q86.7083 580.738 86.9338 579.933 Q87.1914 579.128 87.2558 578.613 Q87.3525 578.065 87.3525 577.55 Q87.3525 573.428 83.1979 570.271 Q81.9419 569.337 80.6858 568.661 Q79.462 567.953 77.9483 567.437 Q76.4669 566.922 75.6617 566.697 Q74.8566 566.439 73.0208 565.988 Q76.016 568.983 76.016 572.655 Q76.016 574.201 75.5973 575.585 Q75.1786 576.938 74.3091 578.13 Q73.4073 579.321 71.8292 580.03 Q70.2511 580.706 68.1578 580.706 Q65.9356 580.706 62.9082 579.837 Q59.8809 578.967 54.3092 576.874 Q51.1853 575.746 49.6716 575.746 Q48.9309 575.746 48.48 575.907 Q47.9969 576.068 47.8359 576.391 Q47.6426 576.713 47.6104 576.906 Q47.5782 577.067 47.5782 577.389 Q47.5782 579.289 49.5106 581.06 Q51.4429 582.832 55.7585 584.056 Q56.5637 584.313 56.7569 584.474 Q56.9501 584.635 56.9501 585.118 Q56.9179 585.923 56.2738 585.923 Q56.0162 585.923 55.0178 585.634 Q53.9872 585.344 52.4735 584.667 Q50.9276 583.959 49.5428 582.993 Q48.1257 582.027 47.1273 580.513 Q46.129 578.967 46.129 577.196 Q46.129 574.78 47.707 573.299 Q49.2529 571.785 51.5395 571.785 Q52.4735 571.785 53.3109 572.043 Q54.116 572.268 56.2738 573.106 Q64.9694 576.487 69.2206 576.487 Q70.2511 576.487 71.1207 576.326 Q71.9581 576.133 72.7954 575.714 Q73.6006 575.296 74.0836 574.458 Q74.5345 573.589 74.5345 572.397 Q74.5345 570.883 73.826 569.466 Q73.0853 568.017 72.0869 567.115 Q71.0885 566.181 70.2511 565.634 Q69.3816 565.054 68.9307 564.925 L57.0789 561.962 L51.7972 560.642 Q48.9309 560.03 48.2223 559.74 Q47.546 559.354 47.1917 558.677 Q46.8375 558.001 46.8375 557.421 Q46.8375 556.616 47.3206 556.069 Q47.8037 555.489 48.641 555.489 Z" fill="#000000" fill-rule="nonzero" fill-opacity="1" /><path clip-path="url(#clip660)" d="M845.398 9.504 L885.598 9.504 L885.598 14.9149 L868.729 14.9149 L868.729 57.024 L862.267 57.024 L862.267 14.9149 L845.398 14.9149 L845.398 9.504 Z" fill="#000000" fill-rule="nonzero" fill-opacity="1" /><path clip-path="url(#clip660)" d="M889.544 21.376 L895.401 21.376 L895.401 57.024 L889.544 57.024 L889.544 21.376 M889.544 7.4988 L895.401 7.4988 L895.401 14.9149 L889.544 14.9149 L889.544 7.4988 Z" fill="#000000" fill-rule="nonzero" fill-opacity="1" /><path clip-path="url(#clip660)" d="M913.448 11.2546 L913.448 21.376 L925.511 21.376 L925.511 25.9275 L913.448 25.9275 L913.448 45.2793 Q913.448 49.6398 914.625 50.8811 Q915.835 52.1224 919.495 52.1224 L925.511 52.1224 L925.511 57.024 L919.495 57.024 Q912.716 57.024 910.137 54.5095 Q907.559 51.9633 907.559 45.2793 L907.559 25.9275 L903.263 25.9275 L903.263 21.376 L907.559 21.376 L907.559 11.2546 L913.448 11.2546 Z" fill="#000000" fill-rule="nonzero" fill-opacity="1" /><path clip-path="url(#clip660)" d="M933.213 7.4988 L939.07 7.4988 L939.07 57.024 L933.213 57.024 L933.213 7.4988 Z" fill="#000000" fill-rule="nonzero" fill-opacity="1" /><path clip-path="url(#clip660)" d="M981.815 37.7359 L981.815 40.6005 L954.888 40.6005 Q955.27 46.6479 958.517 49.8308 Q961.795 52.9818 967.62 52.9818 Q970.994 52.9818 974.145 52.1542 Q977.328 51.3267 980.447 49.6716 L980.447 55.2098 Q977.296 56.5466 973.986 57.2468 Q970.675 57.947 967.27 57.947 Q958.74 57.947 953.743 52.9818 Q948.777 48.0165 948.777 39.5501 Q948.777 30.7973 953.488 25.6729 Q958.23 20.5167 966.251 20.5167 Q973.444 20.5167 977.614 25.1636 Q981.815 29.7788 981.815 37.7359 M975.959 36.0172 Q975.895 31.2111 973.253 28.3465 Q970.644 25.4819 966.315 25.4819 Q961.413 25.4819 958.453 28.251 Q955.525 31.0201 955.079 36.049 L975.959 36.0172 Z" fill="#000000" fill-rule="nonzero" fill-opacity="1" /><polyline clip-path="url(#clip662)" style="stroke:#224466; stroke-linecap:round; stroke-linejoin:round; stroke-width:6; stroke-opacity:1; fill:none" points="194.458,1025.95 201.882,1025.93 209.306,1025.9 252.79,1025.2 296.273,1023.66 316.501,1022.66 336.73,1021.48 363.844,1019.62 390.957,1017.43 435.766,1013.11 477.433,1008.29 529.74,1001.17 576.66,993.744 630.366,984.059 670.511,975.989 721.857,964.631 768.721,953.25 822.058,939.119 864.34,927.026 916.869,910.904 957.098,897.735 1013.82,877.955 1056.2,862.249 1104.4,843.425 1152.13,823.773 1204.65,800.992 1244.76,782.772 1295.38,758.767 1342.2,735.56 1390.49,710.613 1439.43,684.278 1464.98,670.109 1490.53,655.652 1510.66,644.061 1530.79,632.292 1576.63,604.822 1622.47,576.425 1627.61,573.181 1632.76,569.926 "/>
<polyline clip-path="url(#clip662)" style="stroke:#bc1c5f; stroke-linecap:round; stroke-linejoin:round; stroke-width:6; stroke-opacity:1; fill:none" points="194.458,1025.95 209.306,1025.94 296.273,1025.14 336.73,1023.74 390.957,1020.13 435.766,1015.18 477.433,1008.58 529.74,997.063 576.66,983.161 630.366,962.472 670.511,943.271 696.184,929.161 721.857,913.53 745.289,897.871 768.721,880.821 795.39,859.649 822.058,836.512 843.199,816.717 864.34,795.588 890.604,767.417 916.869,737.037 936.984,712.226 957.098,686.034 985.457,646.688 1013.82,604.417 1035.01,570.856 1056.2,535.56 1080.3,493.256 1104.4,448.586 1128.27,401.953 1152.13,352.873 1178.39,295.977 1204.65,235.962 1224.71,187.967 1244.76,138.067 1270.07,72.3208 1295.38,3.40617 1318.79,-63.2175 1342.2,-132.674 1366.34,-207.336 1390.49,-285.139 1414.96,-367.272 1439.43,-452.766 1464.98,-545.697 1490.53,-642.442 1510.66,-721.388 1530.79,-802.787 1553.71,-898.506 1576.63,-997.508 1599.55,-1099.85 1622.47,-1205.58 1625.04,-1217.66 1627.61,-1229.78 1630.18,-1241.94 1632.76,-1254.15 "/>
<path clip-path="url(#clip660)" d="M1289.61 319.268 L1584.81 319.268 L1584.81 144.308 L1289.61 144.308  Z" fill="#000000" fill-rule="evenodd" fill-opacity="0"/>
<polyline clip-path="url(#clip660)" style="stroke:#000000; stroke-linecap:round; stroke-linejoin:round; stroke-width:4; stroke-opacity:0; fill:none" points="1289.61,319.268 1584.81,319.268 1584.81,144.308 1289.61,144.308 1289.61,319.268 "/>
<polyline clip-path="url(#clip660)" style="stroke:#224466; stroke-linecap:round; stroke-linejoin:round; stroke-width:6.75; stroke-opacity:1; fill:none" points="1305.59,202.628 1401.48,202.628 "/>
<path clip-path="url(#clip660)" d="M1442.36 195.891 Q1442.36 196.26 1442.13 197.13 L1436.96 217.736 Q1435.83 222.321 1432.14 225.535 Q1428.48 228.75 1424.31 228.75 Q1421.81 228.75 1420.2 227.406 Q1418.59 226.089 1418.59 224.06 Q1418.59 222.268 1419.54 221.398 Q1420.49 220.555 1421.62 220.555 Q1421.99 220.555 1422.39 220.66 Q1422.78 220.766 1423.21 221.214 Q1423.63 221.662 1423.63 222.426 Q1423.63 223.664 1422.55 224.639 Q1422.02 225.087 1421.52 225.193 Q1421.04 225.298 1420.23 225.298 Q1420.54 226.036 1421.12 226.537 Q1421.7 227.037 1422.36 227.222 Q1423.02 227.433 1423.44 227.485 Q1423.89 227.564 1424.31 227.564 Q1427.69 227.564 1430.27 224.165 Q1431.03 223.137 1431.58 222.11 Q1432.16 221.108 1432.59 219.87 Q1433.01 218.658 1433.19 217.999 Q1433.4 217.34 1433.77 215.838 Q1431.32 218.289 1428.32 218.289 Q1427.05 218.289 1425.92 217.946 Q1424.81 217.604 1423.84 216.892 Q1422.86 216.155 1422.28 214.863 Q1421.73 213.572 1421.73 211.86 Q1421.73 210.041 1422.44 207.564 Q1423.15 205.087 1424.87 200.529 Q1425.79 197.973 1425.79 196.734 Q1425.79 196.128 1425.66 195.76 Q1425.52 195.364 1425.26 195.232 Q1425 195.074 1424.84 195.048 Q1424.71 195.022 1424.44 195.022 Q1422.89 195.022 1421.44 196.603 Q1419.99 198.184 1418.99 201.715 Q1418.78 202.373 1418.65 202.532 Q1418.52 202.69 1418.12 202.69 Q1417.46 202.663 1417.46 202.136 Q1417.46 201.925 1417.7 201.109 Q1417.94 200.265 1418.49 199.027 Q1419.07 197.762 1419.86 196.629 Q1420.65 195.47 1421.89 194.653 Q1423.15 193.836 1424.6 193.836 Q1426.58 193.836 1427.79 195.127 Q1429.03 196.392 1429.03 198.263 Q1429.03 199.027 1428.82 199.712 Q1428.63 200.371 1427.95 202.136 Q1425.18 209.251 1425.18 212.729 Q1425.18 213.572 1425.31 214.284 Q1425.47 214.969 1425.81 215.654 Q1426.16 216.313 1426.84 216.708 Q1427.55 217.077 1428.53 217.077 Q1429.77 217.077 1430.93 216.497 Q1432.11 215.891 1432.85 215.074 Q1433.61 214.257 1434.06 213.572 Q1434.54 212.861 1434.64 212.492 L1437.07 202.795 L1438.15 198.474 Q1438.65 196.128 1438.88 195.549 Q1439.2 194.995 1439.75 194.705 Q1440.31 194.416 1440.78 194.416 Q1441.44 194.416 1441.89 194.811 Q1442.36 195.206 1442.36 195.891 Z" fill="#000000" fill-rule="nonzero" fill-opacity="1" /><path clip-path="url(#clip660)" d="M1458.61 209.488 Q1458.67 208.829 1459.69 208.829 L1492.76 208.829 Q1494.32 208.829 1494.34 209.435 Q1494.34 210.094 1492.87 210.068 L1460.06 210.068 Q1458.61 210.094 1458.61 209.488 M1458.61 198.948 Q1458.61 198.289 1459.75 198.315 L1492.71 198.315 Q1494.32 198.315 1494.34 198.948 Q1494.34 199.554 1492.97 199.554 L1459.69 199.554 Q1458.61 199.554 1458.61 198.948 Z" fill="#000000" fill-rule="nonzero" fill-opacity="1" /><path clip-path="url(#clip660)" d="M1542.04 197.393 Q1542.04 198.869 1541.12 199.712 Q1540.2 200.529 1539.14 200.529 Q1538.14 200.529 1537.61 199.949 Q1537.09 199.369 1537.09 198.632 Q1537.09 197.63 1537.82 196.761 Q1538.56 195.891 1539.67 195.707 Q1538.59 195.022 1536.98 195.022 Q1535.93 195.022 1535 195.575 Q1534.11 196.128 1533.56 196.84 Q1533.03 197.551 1532.55 198.579 Q1532.11 199.58 1531.92 200.186 Q1531.76 200.766 1531.63 201.398 L1529.79 208.777 Q1528.89 212.281 1528.89 213.52 Q1528.89 215.048 1529.63 216.076 Q1530.37 217.077 1531.84 217.077 Q1532.42 217.077 1533.08 216.919 Q1533.74 216.734 1534.58 216.26 Q1535.45 215.759 1536.22 215.022 Q1537.01 214.257 1537.77 212.966 Q1538.54 211.675 1539.04 210.015 Q1539.19 209.435 1539.72 209.435 Q1540.38 209.435 1540.38 209.962 Q1540.38 210.41 1540.01 211.359 Q1539.67 212.281 1538.9 213.493 Q1538.17 214.679 1537.19 215.759 Q1536.22 216.813 1534.77 217.551 Q1533.32 218.289 1531.74 218.289 Q1529.47 218.289 1527.97 217.077 Q1526.47 215.865 1525.91 214.178 Q1525.78 214.415 1525.6 214.732 Q1525.41 215.048 1524.86 215.759 Q1524.33 216.444 1523.73 216.971 Q1523.12 217.472 1522.17 217.867 Q1521.25 218.289 1520.25 218.289 Q1518.98 218.289 1517.85 217.92 Q1516.74 217.551 1515.95 216.708 Q1515.16 215.865 1515.16 214.705 Q1515.16 213.414 1516.03 212.518 Q1516.93 211.596 1518.14 211.596 Q1518.9 211.596 1519.51 212.044 Q1520.14 212.492 1520.14 213.467 Q1520.14 214.547 1519.41 215.364 Q1518.67 216.181 1517.61 216.392 Q1518.69 217.077 1520.3 217.077 Q1522.04 217.077 1523.41 215.549 Q1524.78 214.02 1525.44 211.464 Q1527.07 205.325 1527.71 202.584 Q1528.34 199.817 1528.34 198.632 Q1528.34 197.525 1528.05 196.761 Q1527.76 195.997 1527.26 195.654 Q1526.78 195.285 1526.34 195.153 Q1525.91 195.022 1525.44 195.022 Q1524.65 195.022 1523.75 195.338 Q1522.88 195.654 1521.83 196.392 Q1520.8 197.103 1519.83 198.579 Q1518.85 200.055 1518.19 202.084 Q1518.06 202.69 1517.48 202.69 Q1516.85 202.663 1516.85 202.136 Q1516.85 201.688 1517.19 200.766 Q1517.56 199.817 1518.3 198.632 Q1519.06 197.446 1520.04 196.392 Q1521.04 195.312 1522.49 194.574 Q1523.96 193.836 1525.54 193.836 Q1526.26 193.836 1526.94 193.994 Q1527.65 194.126 1528.5 194.521 Q1529.37 194.916 1530.13 195.786 Q1530.89 196.655 1531.37 197.92 Q1531.68 197.314 1532.11 196.734 Q1532.55 196.155 1533.24 195.443 Q1533.95 194.705 1534.93 194.284 Q1535.93 193.836 1537.03 193.836 Q1538.11 193.836 1539.17 194.126 Q1540.22 194.389 1541.12 195.259 Q1542.04 196.102 1542.04 197.393 Z" fill="#000000" fill-rule="nonzero" fill-opacity="1" /><path clip-path="url(#clip660)" d="M1547.54 201.534 Q1547.54 200.852 1547.6 200.649 Q1547.67 200.446 1547.97 200.132 L1555.22 192.053 Q1559.18 187.59 1559.18 183.698 Q1559.18 181.171 1557.86 179.363 Q1556.55 177.556 1554.13 177.556 Q1552.47 177.556 1551.07 178.57 Q1549.67 179.584 1549.02 181.392 Q1549.13 181.355 1549.52 181.355 Q1550.46 181.355 1550.98 181.945 Q1551.51 182.536 1551.51 183.329 Q1551.51 184.343 1550.85 184.841 Q1550.2 185.321 1549.56 185.321 Q1549.3 185.321 1548.95 185.266 Q1548.61 185.21 1548.08 184.694 Q1547.54 184.159 1547.54 183.218 Q1547.54 180.581 1549.54 178.478 Q1551.55 176.375 1554.61 176.375 Q1558.08 176.375 1560.35 178.441 Q1562.63 180.488 1562.63 183.698 Q1562.63 184.823 1562.28 185.856 Q1561.95 186.87 1561.49 187.663 Q1561.05 188.457 1559.83 189.729 Q1558.61 191.002 1557.63 191.906 Q1556.66 192.81 1554.46 194.728 L1550.46 198.62 L1557.27 198.62 Q1560.59 198.62 1560.84 198.325 Q1561.21 197.79 1561.67 194.968 L1562.63 194.968 L1561.56 201.534 L1547.54 201.534 Z" fill="#000000" fill-rule="nonzero" fill-opacity="1" /><polyline clip-path="url(#clip660)" style="stroke:#bc1c5f; stroke-linecap:round; stroke-linejoin:round; stroke-width:6.75; stroke-opacity:1; fill:none" points="1305.59,260.948 1401.48,260.948 "/>
<path clip-path="url(#clip660)" d="M1442.36 254.621 Q1442.36 254.99 1442.13 255.859 L1436.96 276.465 Q1435.83 281.05 1432.14 284.265 Q1428.48 287.48 1424.31 287.48 Q1421.81 287.48 1420.2 286.136 Q1418.59 284.818 1418.59 282.789 Q1418.59 280.997 1419.54 280.128 Q1420.49 279.285 1421.62 279.285 Q1421.99 279.285 1422.39 279.39 Q1422.78 279.496 1423.21 279.943 Q1423.63 280.391 1423.63 281.156 Q1423.63 282.394 1422.55 283.369 Q1422.02 283.817 1421.52 283.922 Q1421.04 284.028 1420.23 284.028 Q1420.54 284.766 1421.12 285.266 Q1421.7 285.767 1422.36 285.951 Q1423.02 286.162 1423.44 286.215 Q1423.89 286.294 1424.31 286.294 Q1427.69 286.294 1430.27 282.895 Q1431.03 281.867 1431.58 280.839 Q1432.16 279.838 1432.59 278.6 Q1433.01 277.387 1433.19 276.729 Q1433.4 276.07 1433.77 274.568 Q1431.32 277.019 1428.32 277.019 Q1427.05 277.019 1425.92 276.676 Q1424.81 276.333 1423.84 275.622 Q1422.86 274.884 1422.28 273.593 Q1421.73 272.302 1421.73 270.589 Q1421.73 268.771 1422.44 266.294 Q1423.15 263.817 1424.87 259.259 Q1425.79 256.703 1425.79 255.464 Q1425.79 254.858 1425.66 254.489 Q1425.52 254.094 1425.26 253.962 Q1425 253.804 1424.84 253.778 Q1424.71 253.751 1424.44 253.751 Q1422.89 253.751 1421.44 255.332 Q1419.99 256.913 1418.99 260.444 Q1418.78 261.103 1418.65 261.261 Q1418.52 261.419 1418.12 261.419 Q1417.46 261.393 1417.46 260.866 Q1417.46 260.655 1417.7 259.838 Q1417.94 258.995 1418.49 257.757 Q1419.07 256.492 1419.86 255.359 Q1420.65 254.199 1421.89 253.382 Q1423.15 252.566 1424.6 252.566 Q1426.58 252.566 1427.79 253.857 Q1429.03 255.122 1429.03 256.992 Q1429.03 257.757 1428.82 258.442 Q1428.63 259.1 1427.95 260.866 Q1425.18 267.98 1425.18 271.459 Q1425.18 272.302 1425.31 273.013 Q1425.47 273.698 1425.81 274.384 Q1426.16 275.042 1426.84 275.438 Q1427.55 275.806 1428.53 275.806 Q1429.77 275.806 1430.93 275.227 Q1432.11 274.621 1432.85 273.804 Q1433.61 272.987 1434.06 272.302 Q1434.54 271.59 1434.64 271.222 L1437.07 261.525 L1438.15 257.203 Q1438.65 254.858 1438.88 254.278 Q1439.2 253.725 1439.75 253.435 Q1440.31 253.145 1440.78 253.145 Q1441.44 253.145 1441.89 253.541 Q1442.36 253.936 1442.36 254.621 Z" fill="#000000" fill-rule="nonzero" fill-opacity="1" /><path clip-path="url(#clip660)" d="M1458.61 268.218 Q1458.67 267.559 1459.69 267.559 L1492.76 267.559 Q1494.32 267.559 1494.34 268.165 Q1494.34 268.824 1492.87 268.797 L1460.06 268.797 Q1458.61 268.824 1458.61 268.218 M1458.61 257.677 Q1458.61 257.019 1459.75 257.045 L1492.71 257.045 Q1494.32 257.045 1494.34 257.677 Q1494.34 258.284 1492.97 258.284 L1459.69 258.284 Q1458.61 258.284 1458.61 257.677 Z" fill="#000000" fill-rule="nonzero" fill-opacity="1" /><path clip-path="url(#clip660)" d="M1542.04 256.123 Q1542.04 257.598 1541.12 258.442 Q1540.2 259.259 1539.14 259.259 Q1538.14 259.259 1537.61 258.679 Q1537.09 258.099 1537.09 257.361 Q1537.09 256.36 1537.82 255.49 Q1538.56 254.621 1539.67 254.436 Q1538.59 253.751 1536.98 253.751 Q1535.93 253.751 1535 254.305 Q1534.11 254.858 1533.56 255.569 Q1533.03 256.281 1532.55 257.309 Q1532.11 258.31 1531.92 258.916 Q1531.76 259.496 1531.63 260.128 L1529.79 267.506 Q1528.89 271.011 1528.89 272.249 Q1528.89 273.777 1529.63 274.805 Q1530.37 275.806 1531.84 275.806 Q1532.42 275.806 1533.08 275.648 Q1533.74 275.464 1534.58 274.99 Q1535.45 274.489 1536.22 273.751 Q1537.01 272.987 1537.77 271.696 Q1538.54 270.405 1539.04 268.745 Q1539.19 268.165 1539.72 268.165 Q1540.38 268.165 1540.38 268.692 Q1540.38 269.14 1540.01 270.088 Q1539.67 271.011 1538.9 272.223 Q1538.17 273.409 1537.19 274.489 Q1536.22 275.543 1534.77 276.281 Q1533.32 277.019 1531.74 277.019 Q1529.47 277.019 1527.97 275.806 Q1526.47 274.594 1525.91 272.908 Q1525.78 273.145 1525.6 273.461 Q1525.41 273.777 1524.86 274.489 Q1524.33 275.174 1523.73 275.701 Q1523.12 276.202 1522.17 276.597 Q1521.25 277.019 1520.25 277.019 Q1518.98 277.019 1517.85 276.65 Q1516.74 276.281 1515.95 275.438 Q1515.16 274.594 1515.16 273.435 Q1515.16 272.144 1516.03 271.248 Q1516.93 270.326 1518.14 270.326 Q1518.9 270.326 1519.51 270.774 Q1520.14 271.222 1520.14 272.196 Q1520.14 273.277 1519.41 274.094 Q1518.67 274.911 1517.61 275.121 Q1518.69 275.806 1520.3 275.806 Q1522.04 275.806 1523.41 274.278 Q1524.78 272.75 1525.44 270.194 Q1527.07 264.054 1527.71 261.314 Q1528.34 258.547 1528.34 257.361 Q1528.34 256.255 1528.05 255.49 Q1527.76 254.726 1527.26 254.384 Q1526.78 254.015 1526.34 253.883 Q1525.91 253.751 1525.44 253.751 Q1524.65 253.751 1523.75 254.068 Q1522.88 254.384 1521.83 255.122 Q1520.8 255.833 1519.83 257.309 Q1518.85 258.784 1518.19 260.813 Q1518.06 261.419 1517.48 261.419 Q1516.85 261.393 1516.85 260.866 Q1516.85 260.418 1517.19 259.496 Q1517.56 258.547 1518.3 257.361 Q1519.06 256.176 1520.04 255.122 Q1521.04 254.041 1522.49 253.303 Q1523.96 252.566 1525.54 252.566 Q1526.26 252.566 1526.94 252.724 Q1527.65 252.855 1528.5 253.251 Q1529.37 253.646 1530.13 254.515 Q1530.89 255.385 1531.37 256.65 Q1531.68 256.044 1532.11 255.464 Q1532.55 254.884 1533.24 254.173 Q1533.95 253.435 1534.93 253.013 Q1535.93 252.566 1537.03 252.566 Q1538.11 252.566 1539.17 252.855 Q1540.22 253.119 1541.12 253.988 Q1542.04 254.832 1542.04 256.123 Z" fill="#000000" fill-rule="nonzero" fill-opacity="1" /><path clip-path="url(#clip660)" d="M1547.54 254.354 Q1547.54 253.229 1548.19 252.694 Q1548.84 252.159 1549.67 252.159 Q1550.53 252.159 1551.14 252.731 Q1551.77 253.284 1551.77 254.262 Q1551.77 255.313 1551.03 255.903 Q1550.31 256.493 1549.28 256.346 Q1550.18 257.858 1551.84 258.541 Q1553.52 259.223 1555.07 259.223 Q1556.69 259.223 1558 257.821 Q1559.33 256.42 1559.33 252.989 Q1559.33 250.074 1558.19 248.396 Q1557.06 246.717 1554.83 246.717 L1553.17 246.717 Q1552.6 246.717 1552.43 246.662 Q1552.27 246.607 1552.27 246.293 Q1552.27 245.924 1552.84 245.851 Q1553.41 245.851 1554.31 245.74 Q1556.51 245.666 1557.67 243.766 Q1558.72 241.995 1558.72 239.469 Q1558.72 237.163 1557.62 236.204 Q1556.53 235.226 1555.11 235.226 Q1553.78 235.226 1552.32 235.779 Q1550.86 236.333 1550.07 237.569 Q1552.41 237.569 1552.41 239.469 Q1552.41 240.299 1551.88 240.852 Q1551.36 241.387 1550.5 241.387 Q1549.67 241.387 1549.11 240.87 Q1548.56 240.335 1548.56 239.432 Q1548.56 237.274 1550.48 235.779 Q1552.41 234.285 1555.25 234.285 Q1558.06 234.285 1560.12 235.761 Q1562.21 237.237 1562.21 239.505 Q1562.21 241.737 1560.73 243.563 Q1559.26 245.389 1556.91 246.146 Q1559.79 246.717 1561.51 248.673 Q1563.22 250.609 1563.22 252.989 Q1563.22 255.94 1560.9 258.117 Q1558.57 260.275 1555.18 260.275 Q1552.05 260.275 1549.79 258.578 Q1547.54 256.881 1547.54 254.354 Z" fill="#000000" fill-rule="nonzero" fill-opacity="1" /></svg>
