<?xml version="1.0" encoding="utf-8"?>
<svg xmlns="http://www.w3.org/2000/svg" xmlns:xlink="http://www.w3.org/1999/xlink" width="600" height="400" viewBox="0 0 2400 1600">
<defs>
  <clipPath id="clip900">
    <rect x="0" y="0" width="2400" height="1600"/>
  </clipPath>
</defs>
<path clip-path="url(#clip900)" d="M0 1600 L2400 1600 L2400 0 L0 0  Z" fill="#ffffff" fill-rule="evenodd" fill-opacity="1"/>
<defs>
  <clipPath id="clip901">
    <rect x="480" y="0" width="1681" height="1600"/>
  </clipPath>
</defs>
<path clip-path="url(#clip900)" d="M257.204 1423.18 L2352.76 1423.18 L2352.76 123.472 L257.204 123.472  Z" fill="#ffffff" fill-rule="evenodd" fill-opacity="1"/>
<defs>
  <clipPath id="clip902">
    <rect x="257" y="123" width="2097" height="1301"/>
  </clipPath>
</defs>
<polyline clip-path="url(#clip902)" style="stroke:#000000; stroke-linecap:round; stroke-linejoin:round; stroke-width:2; stroke-opacity:0.1; fill:none" points="1304.98,1423.18 1304.98,123.472 "/>
<polyline clip-path="url(#clip902)" style="stroke:#000000; stroke-linecap:round; stroke-linejoin:round; stroke-width:2; stroke-opacity:0.1; fill:none" points="1634.47,1423.18 1634.47,123.472 "/>
<polyline clip-path="url(#clip902)" style="stroke:#000000; stroke-linecap:round; stroke-linejoin:round; stroke-width:2; stroke-opacity:0.1; fill:none" points="2293.45,1423.18 2293.45,123.472 "/>
<polyline clip-path="url(#clip902)" style="stroke:#000000; stroke-linecap:round; stroke-linejoin:round; stroke-width:2; stroke-opacity:0.1; fill:none" points="257.204,1386.66 2352.76,1386.66 "/>
<polyline clip-path="url(#clip902)" style="stroke:#000000; stroke-linecap:round; stroke-linejoin:round; stroke-width:2; stroke-opacity:0.1; fill:none" points="257.204,1079.99 2352.76,1079.99 "/>
<polyline clip-path="url(#clip902)" style="stroke:#000000; stroke-linecap:round; stroke-linejoin:round; stroke-width:2; stroke-opacity:0.1; fill:none" points="257.204,773.326 2352.76,773.326 "/>
<polyline clip-path="url(#clip902)" style="stroke:#000000; stroke-linecap:round; stroke-linejoin:round; stroke-width:2; stroke-opacity:0.1; fill:none" points="257.204,466.66 2352.76,466.66 "/>
<polyline clip-path="url(#clip902)" style="stroke:#000000; stroke-linecap:round; stroke-linejoin:round; stroke-width:2; stroke-opacity:0.1; fill:none" points="257.204,159.995 2352.76,159.995 "/>
<polyline clip-path="url(#clip900)" style="stroke:#000000; stroke-linecap:round; stroke-linejoin:round; stroke-width:4; stroke-opacity:1; fill:none" points="257.204,1423.18 2352.76,1423.18 "/>
<polyline clip-path="url(#clip900)" style="stroke:#000000; stroke-linecap:round; stroke-linejoin:round; stroke-width:4; stroke-opacity:1; fill:none" points="1304.98,1423.18 1304.98,1404.28 "/>
<polyline clip-path="url(#clip900)" style="stroke:#000000; stroke-linecap:round; stroke-linejoin:round; stroke-width:4; stroke-opacity:1; fill:none" points="1634.47,1423.18 1634.47,1404.28 "/>
<polyline clip-path="url(#clip900)" style="stroke:#000000; stroke-linecap:round; stroke-linejoin:round; stroke-width:4; stroke-opacity:1; fill:none" points="2293.45,1423.18 2293.45,1404.28 "/>
<path clip-path="url(#clip900)" d="M1304.98 1455.63 L1298.64 1472.83 L1311.35 1472.83 L1304.98 1455.63 M1302.34 1451.02 L1307.64 1451.02 L1320.81 1485.58 L1315.95 1485.58 L1312.8 1476.71 L1297.23 1476.71 L1294.08 1485.58 L1289.15 1485.58 L1302.34 1451.02 Z" fill="#000000" fill-rule="nonzero" fill-opacity="1" /><path clip-path="url(#clip900)" d="M1626.89 1469.08 L1626.89 1481.74 L1634.39 1481.74 Q1638.16 1481.74 1639.97 1480.19 Q1641.8 1478.61 1641.8 1475.39 Q1641.8 1472.15 1639.97 1470.63 Q1638.16 1469.08 1634.39 1469.08 L1626.89 1469.08 M1626.89 1454.86 L1626.89 1465.28 L1633.81 1465.28 Q1637.24 1465.28 1638.9 1464.01 Q1640.59 1462.71 1640.59 1460.07 Q1640.59 1457.45 1638.9 1456.16 Q1637.24 1454.86 1633.81 1454.86 L1626.89 1454.86 M1622.21 1451.02 L1634.16 1451.02 Q1639.5 1451.02 1642.4 1453.24 Q1645.29 1455.46 1645.29 1459.56 Q1645.29 1462.73 1643.81 1464.61 Q1642.33 1466.48 1639.46 1466.95 Q1642.91 1467.69 1644.8 1470.05 Q1646.73 1472.39 1646.73 1475.9 Q1646.73 1480.53 1643.58 1483.06 Q1640.43 1485.58 1634.62 1485.58 L1622.21 1485.58 L1622.21 1451.02 Z" fill="#000000" fill-rule="nonzero" fill-opacity="1" /><path clip-path="url(#clip900)" d="M2307.38 1453.68 L2307.38 1458.61 Q2305.02 1456.41 2302.34 1455.33 Q2299.67 1454.24 2296.67 1454.24 Q2290.74 1454.24 2287.59 1457.87 Q2284.44 1461.48 2284.44 1468.33 Q2284.44 1475.16 2287.59 1478.8 Q2290.74 1482.41 2296.67 1482.41 Q2299.67 1482.41 2302.34 1481.32 Q2305.02 1480.23 2307.38 1478.03 L2307.38 1482.92 Q2304.93 1484.58 2302.17 1485.42 Q2299.44 1486.25 2296.39 1486.25 Q2288.54 1486.25 2284.03 1481.46 Q2279.51 1476.64 2279.51 1468.33 Q2279.51 1460 2284.03 1455.21 Q2288.54 1450.39 2296.39 1450.39 Q2299.49 1450.39 2302.22 1451.23 Q2304.98 1452.04 2307.38 1453.68 Z" fill="#000000" fill-rule="nonzero" fill-opacity="1" /><path clip-path="url(#clip900)" d="M1244.76 1532.4 L1231.87 1549.74 L1245.43 1568.04 L1238.52 1568.04 L1228.15 1554.04 L1217.77 1568.04 L1210.86 1568.04 L1224.71 1549.39 L1212.04 1532.4 L1218.95 1532.4 L1228.4 1545.1 L1237.85 1532.4 L1244.76 1532.4 Z" fill="#000000" fill-rule="nonzero" fill-opacity="1" /><path clip-path="url(#clip900)" d="M1253.7 1518.52 L1259.56 1518.52 L1259.56 1568.04 L1253.7 1568.04 L1253.7 1518.52 Z" fill="#000000" fill-rule="nonzero" fill-opacity="1" /><path clip-path="url(#clip900)" d="M1288.02 1550.12 Q1280.92 1550.12 1278.18 1551.75 Q1275.44 1553.37 1275.44 1557.29 Q1275.44 1560.4 1277.48 1562.25 Q1279.55 1564.07 1283.08 1564.07 Q1287.95 1564.07 1290.88 1560.63 Q1293.84 1557.16 1293.84 1551.43 L1293.84 1550.12 L1288.02 1550.12 M1299.7 1547.71 L1299.7 1568.04 L1293.84 1568.04 L1293.84 1562.63 Q1291.83 1565.88 1288.84 1567.44 Q1285.85 1568.97 1281.52 1568.97 Q1276.05 1568.97 1272.8 1565.91 Q1269.59 1562.82 1269.59 1557.67 Q1269.59 1551.65 1273.6 1548.6 Q1277.64 1545.54 1285.63 1545.54 L1293.84 1545.54 L1293.84 1544.97 Q1293.84 1540.93 1291.17 1538.73 Q1288.52 1536.5 1283.72 1536.5 Q1280.66 1536.5 1277.77 1537.23 Q1274.87 1537.97 1272.2 1539.43 L1272.2 1534.02 Q1275.41 1532.78 1278.43 1532.17 Q1281.46 1531.54 1284.32 1531.54 Q1292.06 1531.54 1295.88 1535.55 Q1299.7 1539.56 1299.7 1547.71 Z" fill="#000000" fill-rule="nonzero" fill-opacity="1" /><path clip-path="url(#clip900)" d="M1337.35 1550.25 Q1337.35 1543.79 1334.68 1540.13 Q1332.03 1536.44 1327.39 1536.44 Q1322.74 1536.44 1320.07 1540.13 Q1317.42 1543.79 1317.42 1550.25 Q1317.42 1556.71 1320.07 1560.4 Q1322.74 1564.07 1327.39 1564.07 Q1332.03 1564.07 1334.68 1560.4 Q1337.35 1556.71 1337.35 1550.25 M1317.42 1537.81 Q1319.27 1534.62 1322.07 1533.1 Q1324.9 1531.54 1328.82 1531.54 Q1335.31 1531.54 1339.35 1536.69 Q1343.43 1541.85 1343.43 1550.25 Q1343.43 1558.65 1339.35 1563.81 Q1335.31 1568.97 1328.82 1568.97 Q1324.9 1568.97 1322.07 1567.44 Q1319.27 1565.88 1317.42 1562.7 L1317.42 1568.04 L1311.54 1568.04 L1311.54 1518.52 L1317.42 1518.52 L1317.42 1537.81 Z" fill="#000000" fill-rule="nonzero" fill-opacity="1" /><path clip-path="url(#clip900)" d="M1383.63 1548.76 L1383.63 1551.62 L1356.7 1551.62 Q1357.08 1557.67 1360.33 1560.85 Q1363.61 1564 1369.43 1564 Q1372.81 1564 1375.96 1563.17 Q1379.14 1562.35 1382.26 1560.69 L1382.26 1566.23 Q1379.11 1567.57 1375.8 1568.27 Q1372.49 1568.97 1369.08 1568.97 Q1360.55 1568.97 1355.56 1564 Q1350.59 1559.04 1350.59 1550.57 Q1350.59 1541.82 1355.3 1536.69 Q1360.04 1531.54 1368.06 1531.54 Q1375.26 1531.54 1379.43 1536.18 Q1383.63 1540.8 1383.63 1548.76 M1377.77 1547.04 Q1377.71 1542.23 1375.07 1539.37 Q1372.46 1536.5 1368.13 1536.5 Q1363.23 1536.5 1360.27 1539.27 Q1357.34 1542.04 1356.89 1547.07 L1377.77 1547.04 Z" fill="#000000" fill-rule="nonzero" fill-opacity="1" /><path clip-path="url(#clip900)" d="M1393.24 1518.52 L1399.1 1518.52 L1399.1 1568.04 L1393.24 1568.04 L1393.24 1518.52 Z" fill="#000000" fill-rule="nonzero" fill-opacity="1" /><polyline clip-path="url(#clip900)" style="stroke:#000000; stroke-linecap:round; stroke-linejoin:round; stroke-width:4; stroke-opacity:1; fill:none" points="257.204,1423.18 257.204,123.472 "/>
<polyline clip-path="url(#clip900)" style="stroke:#000000; stroke-linecap:round; stroke-linejoin:round; stroke-width:4; stroke-opacity:1; fill:none" points="257.204,1386.66 276.102,1386.66 "/>
<polyline clip-path="url(#clip900)" style="stroke:#000000; stroke-linecap:round; stroke-linejoin:round; stroke-width:4; stroke-opacity:1; fill:none" points="257.204,1079.99 276.102,1079.99 "/>
<polyline clip-path="url(#clip900)" style="stroke:#000000; stroke-linecap:round; stroke-linejoin:round; stroke-width:4; stroke-opacity:1; fill:none" points="257.204,773.326 276.102,773.326 "/>
<polyline clip-path="url(#clip900)" style="stroke:#000000; stroke-linecap:round; stroke-linejoin:round; stroke-width:4; stroke-opacity:1; fill:none" points="257.204,466.66 276.102,466.66 "/>
<polyline clip-path="url(#clip900)" style="stroke:#000000; stroke-linecap:round; stroke-linejoin:round; stroke-width:4; stroke-opacity:1; fill:none" points="257.204,159.995 276.102,159.995 "/>
<path clip-path="url(#clip900)" d="M114.26 1387.11 L143.936 1387.11 L143.936 1391.04 L114.26 1391.04 L114.26 1387.11 Z" fill="#000000" fill-rule="nonzero" fill-opacity="1" /><path clip-path="url(#clip900)" d="M154.839 1400 L162.477 1400 L162.477 1373.64 L154.167 1375.3 L154.167 1371.04 L162.431 1369.38 L167.107 1369.38 L167.107 1400 L174.746 1400 L174.746 1403.94 L154.839 1403.94 L154.839 1400 Z" fill="#000000" fill-rule="nonzero" fill-opacity="1" /><path clip-path="url(#clip900)" d="M184.19 1398.06 L189.075 1398.06 L189.075 1403.94 L184.19 1403.94 L184.19 1398.06 Z" fill="#000000" fill-rule="nonzero" fill-opacity="1" /><path clip-path="url(#clip900)" d="M209.26 1372.46 Q205.649 1372.46 203.82 1376.02 Q202.014 1379.56 202.014 1386.69 Q202.014 1393.8 203.82 1397.36 Q205.649 1400.9 209.26 1400.9 Q212.894 1400.9 214.699 1397.36 Q216.528 1393.8 216.528 1386.69 Q216.528 1379.56 214.699 1376.02 Q212.894 1372.46 209.26 1372.46 M209.26 1368.75 Q215.07 1368.75 218.125 1373.36 Q221.204 1377.94 221.204 1386.69 Q221.204 1395.42 218.125 1400.03 Q215.07 1404.61 209.26 1404.61 Q203.449 1404.61 200.371 1400.03 Q197.315 1395.42 197.315 1386.69 Q197.315 1377.94 200.371 1373.36 Q203.449 1368.75 209.26 1368.75 Z" fill="#000000" fill-rule="nonzero" fill-opacity="1" /><path clip-path="url(#clip900)" d="M115.256 1080.44 L144.931 1080.44 L144.931 1084.38 L115.256 1084.38 L115.256 1080.44 Z" fill="#000000" fill-rule="nonzero" fill-opacity="1" /><path clip-path="url(#clip900)" d="M165.024 1065.79 Q161.413 1065.79 159.584 1069.36 Q157.778 1072.9 157.778 1080.03 Q157.778 1087.13 159.584 1090.7 Q161.413 1094.24 165.024 1094.24 Q168.658 1094.24 170.464 1090.7 Q172.292 1087.13 172.292 1080.03 Q172.292 1072.9 170.464 1069.36 Q168.658 1065.79 165.024 1065.79 M165.024 1062.09 Q170.834 1062.09 173.889 1066.69 Q176.968 1071.28 176.968 1080.03 Q176.968 1088.75 173.889 1093.36 Q170.834 1097.94 165.024 1097.94 Q159.214 1097.94 156.135 1093.36 Q153.079 1088.75 153.079 1080.03 Q153.079 1071.28 156.135 1066.69 Q159.214 1062.09 165.024 1062.09 Z" fill="#000000" fill-rule="nonzero" fill-opacity="1" /><path clip-path="url(#clip900)" d="M185.186 1091.39 L190.07 1091.39 L190.07 1097.27 L185.186 1097.27 L185.186 1091.39 Z" fill="#000000" fill-rule="nonzero" fill-opacity="1" /><path clip-path="url(#clip900)" d="M200.301 1062.71 L218.658 1062.71 L218.658 1066.65 L204.584 1066.65 L204.584 1075.12 Q205.602 1074.77 206.621 1074.61 Q207.639 1074.42 208.658 1074.42 Q214.445 1074.42 217.824 1077.6 Q221.204 1080.77 221.204 1086.18 Q221.204 1091.76 217.732 1094.86 Q214.26 1097.94 207.94 1097.94 Q205.764 1097.94 203.496 1097.57 Q201.25 1097.2 198.843 1096.46 L198.843 1091.76 Q200.926 1092.9 203.149 1093.45 Q205.371 1094.01 207.848 1094.01 Q211.852 1094.01 214.19 1091.9 Q216.528 1089.79 216.528 1086.18 Q216.528 1082.57 214.19 1080.47 Q211.852 1078.36 207.848 1078.36 Q205.973 1078.36 204.098 1078.78 Q202.246 1079.19 200.301 1080.07 L200.301 1062.71 Z" fill="#000000" fill-rule="nonzero" fill-opacity="1" /><path clip-path="url(#clip900)" d="M164.028 759.125 Q160.417 759.125 158.589 762.689 Q156.783 766.231 156.783 773.361 Q156.783 780.467 158.589 784.032 Q160.417 787.574 164.028 787.574 Q167.663 787.574 169.468 784.032 Q171.297 780.467 171.297 773.361 Q171.297 766.231 169.468 762.689 Q167.663 759.125 164.028 759.125 M164.028 755.421 Q169.839 755.421 172.894 760.027 Q175.973 764.611 175.973 773.361 Q175.973 782.088 172.894 786.694 Q169.839 791.277 164.028 791.277 Q158.218 791.277 155.14 786.694 Q152.084 782.088 152.084 773.361 Q152.084 764.611 155.14 760.027 Q158.218 755.421 164.028 755.421 Z" fill="#000000" fill-rule="nonzero" fill-opacity="1" /><path clip-path="url(#clip900)" d="M184.19 784.726 L189.075 784.726 L189.075 790.606 L184.19 790.606 L184.19 784.726 Z" fill="#000000" fill-rule="nonzero" fill-opacity="1" /><path clip-path="url(#clip900)" d="M209.26 759.125 Q205.649 759.125 203.82 762.689 Q202.014 766.231 202.014 773.361 Q202.014 780.467 203.82 784.032 Q205.649 787.574 209.26 787.574 Q212.894 787.574 214.699 784.032 Q216.528 780.467 216.528 773.361 Q216.528 766.231 214.699 762.689 Q212.894 759.125 209.26 759.125 M209.26 755.421 Q215.07 755.421 218.125 760.027 Q221.204 764.611 221.204 773.361 Q221.204 782.088 218.125 786.694 Q215.07 791.277 209.26 791.277 Q203.449 791.277 200.371 786.694 Q197.315 782.088 197.315 773.361 Q197.315 764.611 200.371 760.027 Q203.449 755.421 209.26 755.421 Z" fill="#000000" fill-rule="nonzero" fill-opacity="1" /><path clip-path="url(#clip900)" d="M165.024 452.459 Q161.413 452.459 159.584 456.024 Q157.778 459.566 157.778 466.695 Q157.778 473.802 159.584 477.366 Q161.413 480.908 165.024 480.908 Q168.658 480.908 170.464 477.366 Q172.292 473.802 172.292 466.695 Q172.292 459.566 170.464 456.024 Q168.658 452.459 165.024 452.459 M165.024 448.755 Q170.834 448.755 173.889 453.362 Q176.968 457.945 176.968 466.695 Q176.968 475.422 173.889 480.028 Q170.834 484.612 165.024 484.612 Q159.214 484.612 156.135 480.028 Q153.079 475.422 153.079 466.695 Q153.079 457.945 156.135 453.362 Q159.214 448.755 165.024 448.755 Z" fill="#000000" fill-rule="nonzero" fill-opacity="1" /><path clip-path="url(#clip900)" d="M185.186 478.061 L190.07 478.061 L190.07 483.94 L185.186 483.94 L185.186 478.061 Z" fill="#000000" fill-rule="nonzero" fill-opacity="1" /><path clip-path="url(#clip900)" d="M200.301 449.38 L218.658 449.38 L218.658 453.316 L204.584 453.316 L204.584 461.788 Q205.602 461.441 206.621 461.278 Q207.639 461.093 208.658 461.093 Q214.445 461.093 217.824 464.265 Q221.204 467.436 221.204 472.852 Q221.204 478.431 217.732 481.533 Q214.26 484.612 207.94 484.612 Q205.764 484.612 203.496 484.241 Q201.25 483.871 198.843 483.13 L198.843 478.431 Q200.926 479.565 203.149 480.121 Q205.371 480.677 207.848 480.677 Q211.852 480.677 214.19 478.57 Q216.528 476.464 216.528 472.852 Q216.528 469.241 214.19 467.135 Q211.852 465.028 207.848 465.028 Q205.973 465.028 204.098 465.445 Q202.246 465.862 200.301 466.741 L200.301 449.38 Z" fill="#000000" fill-rule="nonzero" fill-opacity="1" /><path clip-path="url(#clip900)" d="M154.839 173.34 L162.477 173.34 L162.477 146.974 L154.167 148.641 L154.167 144.381 L162.431 142.715 L167.107 142.715 L167.107 173.34 L174.746 173.34 L174.746 177.275 L154.839 177.275 L154.839 173.34 Z" fill="#000000" fill-rule="nonzero" fill-opacity="1" /><path clip-path="url(#clip900)" d="M184.19 171.395 L189.075 171.395 L189.075 177.275 L184.19 177.275 L184.19 171.395 Z" fill="#000000" fill-rule="nonzero" fill-opacity="1" /><path clip-path="url(#clip900)" d="M209.26 145.793 Q205.649 145.793 203.82 149.358 Q202.014 152.9 202.014 160.03 Q202.014 167.136 203.82 170.701 Q205.649 174.242 209.26 174.242 Q212.894 174.242 214.699 170.701 Q216.528 167.136 216.528 160.03 Q216.528 152.9 214.699 149.358 Q212.894 145.793 209.26 145.793 M209.26 142.09 Q215.07 142.09 218.125 146.696 Q221.204 151.28 221.204 160.03 Q221.204 168.756 218.125 173.363 Q215.07 177.946 209.26 177.946 Q203.449 177.946 200.371 173.363 Q197.315 168.756 197.315 160.03 Q197.315 151.28 200.371 146.696 Q203.449 142.09 209.26 142.09 Z" fill="#000000" fill-rule="nonzero" fill-opacity="1" /><path clip-path="url(#clip900)" d="M67.3143 848.378 Q73.68 850.86 75.6216 853.216 Q77.5631 855.571 77.5631 859.518 L77.5631 864.196 L72.6615 864.196 L72.6615 860.759 Q72.6615 858.34 71.5157 857.003 Q70.3699 855.666 66.1048 854.043 L63.4312 852.993 L28.3562 867.411 L28.3562 861.205 L56.238 850.065 L28.3562 838.925 L28.3562 832.718 L67.3143 848.378 Z" fill="#000000" fill-rule="nonzero" fill-opacity="1" /><path clip-path="url(#clip900)" d="M14.479 824.634 L14.479 818.777 L64.0042 818.777 L64.0042 824.634 L14.479 824.634 Z" fill="#000000" fill-rule="nonzero" fill-opacity="1" /><path clip-path="url(#clip900)" d="M46.0847 790.322 Q46.0847 797.42 47.7079 800.157 Q49.3312 802.895 53.2461 802.895 Q56.3653 802.895 58.2114 800.858 Q60.0256 798.789 60.0256 795.256 Q60.0256 790.386 56.5881 787.458 Q53.1188 784.498 47.3897 784.498 L46.0847 784.498 L46.0847 790.322 M43.6657 778.641 L64.0042 778.641 L64.0042 784.498 L58.5933 784.498 Q61.8398 786.503 63.3994 789.495 Q64.9272 792.487 64.9272 796.815 Q64.9272 802.29 61.8716 805.536 Q58.7843 808.751 53.6281 808.751 Q47.6125 808.751 44.5569 804.741 Q41.5014 800.699 41.5014 792.71 L41.5014 784.498 L40.9285 784.498 Q36.8862 784.498 34.6901 787.171 Q32.4621 789.813 32.4621 794.619 Q32.4621 797.675 33.1941 800.571 Q33.9262 803.468 35.3903 806.141 L29.9795 806.141 Q28.7381 802.927 28.1334 799.903 Q27.4968 796.879 27.4968 794.015 Q27.4968 786.28 31.5072 782.461 Q35.5176 778.641 43.6657 778.641 Z" fill="#000000" fill-rule="nonzero" fill-opacity="1" /><path clip-path="url(#clip900)" d="M46.212 740.988 Q39.7508 740.988 36.0905 743.662 Q32.3984 746.304 32.3984 750.951 Q32.3984 755.597 36.0905 758.271 Q39.7508 760.913 46.212 760.913 Q52.6732 760.913 56.3653 758.271 Q60.0256 755.597 60.0256 750.951 Q60.0256 746.304 56.3653 743.662 Q52.6732 740.988 46.212 740.988 M33.7671 760.913 Q30.5842 759.067 29.0564 756.266 Q27.4968 753.433 27.4968 749.518 Q27.4968 743.025 32.6531 738.983 Q37.8093 734.909 46.212 734.909 Q54.6147 734.909 59.771 738.983 Q64.9272 743.025 64.9272 749.518 Q64.9272 753.433 63.3994 756.266 Q61.8398 759.067 58.657 760.913 L64.0042 760.913 L64.0042 766.801 L14.479 766.801 L14.479 760.913 L33.7671 760.913 Z" fill="#000000" fill-rule="nonzero" fill-opacity="1" /><path clip-path="url(#clip900)" d="M44.7161 694.71 L47.5806 694.71 L47.5806 721.636 Q53.6281 721.255 56.8109 718.008 Q59.9619 714.73 59.9619 708.905 Q59.9619 705.531 59.1344 702.38 Q58.3069 699.197 56.6518 696.078 L62.1899 696.078 Q63.5267 699.229 64.227 702.539 Q64.9272 705.849 64.9272 709.255 Q64.9272 717.785 59.9619 722.782 Q54.9967 727.748 46.5303 727.748 Q37.7774 727.748 32.6531 723.037 Q27.4968 718.294 27.4968 710.274 Q27.4968 703.08 32.1438 698.911 Q36.7589 694.71 44.7161 694.71 M42.9973 700.566 Q38.1912 700.63 35.3266 703.271 Q32.4621 705.881 32.4621 710.21 Q32.4621 715.112 35.2312 718.072 Q38.0002 721 43.0292 721.445 L42.9973 700.566 Z" fill="#000000" fill-rule="nonzero" fill-opacity="1" /><path clip-path="url(#clip900)" d="M14.479 685.097 L14.479 679.241 L64.0042 679.241 L64.0042 685.097 L14.479 685.097 Z" fill="#000000" fill-rule="nonzero" fill-opacity="1" /><path clip-path="url(#clip900)" d="M1240.17 14.324 L1240.17 27.2059 L1255.52 27.2059 L1255.52 32.9987 L1240.17 32.9987 L1240.17 57.6282 Q1240.17 63.1779 1241.66 64.7578 Q1243.2 66.3376 1247.86 66.3376 L1255.52 66.3376 L1255.52 72.576 L1247.86 72.576 Q1239.23 72.576 1235.95 69.3758 Q1232.67 66.1351 1232.67 57.6282 L1232.67 32.9987 L1227.2 32.9987 L1227.2 27.2059 L1232.67 27.2059 L1232.67 14.324 L1240.17 14.324 Z" fill="#000000" fill-rule="nonzero" fill-opacity="1" /><path clip-path="url(#clip900)" d="M1265.32 27.2059 L1272.78 27.2059 L1272.78 72.576 L1265.32 72.576 L1265.32 27.2059 M1265.32 9.54393 L1272.78 9.54393 L1272.78 18.9825 L1265.32 18.9825 L1265.32 9.54393 Z" fill="#000000" fill-rule="nonzero" fill-opacity="1" /><path clip-path="url(#clip900)" d="M1295.74 14.324 L1295.74 27.2059 L1311.1 27.2059 L1311.1 32.9987 L1295.74 32.9987 L1295.74 57.6282 Q1295.74 63.1779 1297.24 64.7578 Q1298.78 66.3376 1303.44 66.3376 L1311.1 66.3376 L1311.1 72.576 L1303.44 72.576 Q1294.81 72.576 1291.53 69.3758 Q1288.25 66.1351 1288.25 57.6282 L1288.25 32.9987 L1282.78 32.9987 L1282.78 27.2059 L1288.25 27.2059 L1288.25 14.324 L1295.74 14.324 Z" fill="#000000" fill-rule="nonzero" fill-opacity="1" /><path clip-path="url(#clip900)" d="M1320.9 9.54393 L1328.35 9.54393 L1328.35 72.576 L1320.9 72.576 L1320.9 9.54393 Z" fill="#000000" fill-rule="nonzero" fill-opacity="1" /><path clip-path="url(#clip900)" d="M1382.76 48.0275 L1382.76 51.6733 L1348.49 51.6733 Q1348.97 59.3701 1353.1 63.421 Q1357.28 67.4314 1364.69 67.4314 Q1368.98 67.4314 1372.99 66.3781 Q1377.05 65.3249 1381.02 63.2184 L1381.02 70.267 Q1377.01 71.9684 1372.79 72.8596 Q1368.58 73.7508 1364.24 73.7508 Q1353.39 73.7508 1347.03 67.4314 Q1340.71 61.1119 1340.71 50.3365 Q1340.71 39.1965 1346.7 32.6746 Q1352.74 26.1121 1362.95 26.1121 Q1372.1 26.1121 1377.41 32.0264 Q1382.76 37.9003 1382.76 48.0275 M1375.3 45.84 Q1375.22 39.7232 1371.86 36.0774 Q1368.54 32.4315 1363.03 32.4315 Q1356.79 32.4315 1353.02 35.9558 Q1349.3 39.4801 1348.73 45.8805 L1375.3 45.84 Z" fill="#000000" fill-rule="nonzero" fill-opacity="1" /><polyline clip-path="url(#clip902)" style="stroke:#009af9; stroke-linecap:round; stroke-linejoin:round; stroke-width:4; stroke-opacity:1; fill:none" points="316.512,859.879 349.461,920.065 382.41,978.785 415.359,1035.45 448.308,1089.5 481.257,1140.39 514.206,1187.61 547.155,1230.69 580.104,1269.2 613.052,1302.76 646.001,1331.03 678.95,1353.72 711.899,1370.62 744.848,1381.54 777.797,1386.4 810.746,1385.12 843.695,1377.73 876.644,1364.31 909.593,1344.97 942.542,1319.93 975.491,1289.43 1008.44,1253.76 1041.39,1213.3 1074.34,1168.44 1107.29,1119.64 1140.24,1067.37 1173.18,1012.17 1206.13,954.578 1239.08,895.176 1272.03,834.557 1304.98,773.326 1337.93,712.095 1370.88,651.476 1403.83,592.074 1436.78,534.484 1469.72,479.279 1502.67,427.013 1535.62,378.207 1568.57,333.349 1601.52,292.887 1634.47,257.226 1667.42,226.721 1700.37,201.677 1733.32,182.346 1766.26,168.919 1799.21,161.531 1832.16,160.256 1865.11,165.107 1898.06,176.035 1931.01,192.931 1963.96,215.626 1996.91,243.893 2029.86,277.45 2062.81,315.962 2095.75,359.043 2128.7,406.264 2161.65,457.153 2194.6,511.201 2227.55,567.867 2260.5,626.587 2293.45,686.773 "/>
<path clip-path="url(#clip900)" d="M327.056 270.476 L642.351 270.476 L642.351 166.796 L327.056 166.796  Z" fill="#ffffff" fill-rule="evenodd" fill-opacity="1"/>
<polyline clip-path="url(#clip900)" style="stroke:#000000; stroke-linecap:round; stroke-linejoin:round; stroke-width:4; stroke-opacity:1; fill:none" points="327.056,270.476 642.351,270.476 642.351,166.796 327.056,166.796 327.056,270.476 "/>
<polyline clip-path="url(#clip900)" style="stroke:#009af9; stroke-linecap:round; stroke-linejoin:round; stroke-width:4; stroke-opacity:1; fill:none" points="350.34,218.636 490.043,218.636 "/>
<path clip-path="url(#clip900)" d="M513.327 199.897 L517.586 199.897 L517.586 235.916 L513.327 235.916 L513.327 199.897 Z" fill="#000000" fill-rule="nonzero" fill-opacity="1" /><path clip-path="url(#clip900)" d="M538.281 222.883 Q533.119 222.883 531.128 224.064 Q529.137 225.244 529.137 228.092 Q529.137 230.36 530.619 231.703 Q532.123 233.022 534.693 233.022 Q538.234 233.022 540.364 230.522 Q542.517 227.999 542.517 223.832 L542.517 222.883 L538.281 222.883 M546.776 221.124 L546.776 235.916 L542.517 235.916 L542.517 231.981 Q541.058 234.342 538.882 235.476 Q536.707 236.587 533.558 236.587 Q529.577 236.587 527.216 234.365 Q524.878 232.119 524.878 228.369 Q524.878 223.994 527.795 221.772 Q530.734 219.55 536.545 219.55 L542.517 219.55 L542.517 219.133 Q542.517 216.194 540.572 214.596 Q538.651 212.976 535.156 212.976 Q532.933 212.976 530.827 213.508 Q528.72 214.041 526.776 215.106 L526.776 211.17 Q529.114 210.268 531.313 209.828 Q533.512 209.365 535.595 209.365 Q541.22 209.365 543.998 212.282 Q546.776 215.198 546.776 221.124 Z" fill="#000000" fill-rule="nonzero" fill-opacity="1" /><path clip-path="url(#clip900)" d="M574.16 222.976 Q574.16 218.277 572.216 215.615 Q570.294 212.93 566.915 212.93 Q563.535 212.93 561.591 215.615 Q559.669 218.277 559.669 222.976 Q559.669 227.675 561.591 230.36 Q563.535 233.022 566.915 233.022 Q570.294 233.022 572.216 230.36 Q574.16 227.675 574.16 222.976 M559.669 213.925 Q561.012 211.61 563.049 210.499 Q565.109 209.365 567.956 209.365 Q572.679 209.365 575.618 213.115 Q578.581 216.865 578.581 222.976 Q578.581 229.087 575.618 232.837 Q572.679 236.587 567.956 236.587 Q565.109 236.587 563.049 235.476 Q561.012 234.342 559.669 232.027 L559.669 235.916 L555.387 235.916 L555.387 199.897 L559.669 199.897 L559.669 213.925 Z" fill="#000000" fill-rule="nonzero" fill-opacity="1" /><path clip-path="url(#clip900)" d="M607.817 221.888 L607.817 223.971 L588.234 223.971 Q588.512 228.369 590.873 230.684 Q593.257 232.976 597.493 232.976 Q599.947 232.976 602.239 232.374 Q604.553 231.772 606.822 230.569 L606.822 234.596 Q604.53 235.568 602.123 236.078 Q599.715 236.587 597.239 236.587 Q591.035 236.587 587.401 232.976 Q583.79 229.365 583.79 223.207 Q583.79 216.842 587.216 213.115 Q590.665 209.365 596.498 209.365 Q601.729 209.365 604.762 212.745 Q607.817 216.101 607.817 221.888 M603.558 220.638 Q603.512 217.143 601.59 215.059 Q599.692 212.976 596.544 212.976 Q592.979 212.976 590.827 214.99 Q588.697 217.004 588.373 220.661 L603.558 220.638 Z" fill="#000000" fill-rule="nonzero" fill-opacity="1" /><path clip-path="url(#clip900)" d="M614.808 199.897 L619.067 199.897 L619.067 235.916 L614.808 235.916 L614.808 199.897 Z" fill="#000000" fill-rule="nonzero" fill-opacity="1" /><path clip-path="url(#clip900)" d="M767.234 1355.34 Q768.832 1352.47 771.054 1351.1 Q773.276 1349.74 776.285 1349.74 Q780.336 1349.74 782.535 1352.59 Q784.734 1355.41 784.734 1360.64 L784.734 1376.29 L780.452 1376.29 L780.452 1360.78 Q780.452 1357.05 779.132 1355.25 Q777.813 1353.44 775.105 1353.44 Q771.794 1353.44 769.873 1355.64 Q767.952 1357.84 767.952 1361.64 L767.952 1376.29 L763.67 1376.29 L763.67 1360.78 Q763.67 1357.03 762.35 1355.25 Q761.031 1353.44 758.276 1353.44 Q755.012 1353.44 753.091 1355.66 Q751.17 1357.86 751.17 1361.64 L751.17 1376.29 L746.887 1376.29 L746.887 1350.36 L751.17 1350.36 L751.17 1354.39 Q752.628 1352.01 754.665 1350.87 Q756.702 1349.74 759.503 1349.74 Q762.327 1349.74 764.295 1351.17 Q766.285 1352.61 767.234 1355.34 Z" fill="#000000" fill-rule="nonzero" fill-opacity="1" /><path clip-path="url(#clip900)" d="M793.23 1350.36 L797.489 1350.36 L797.489 1376.29 L793.23 1376.29 L793.23 1350.36 M793.23 1340.27 L797.489 1340.27 L797.489 1345.66 L793.23 1345.66 L793.23 1340.27 Z" fill="#000000" fill-rule="nonzero" fill-opacity="1" /><path clip-path="url(#clip900)" d="M827.952 1360.64 L827.952 1376.29 L823.692 1376.29 L823.692 1360.78 Q823.692 1357.1 822.257 1355.27 Q820.822 1353.44 817.952 1353.44 Q814.503 1353.44 812.512 1355.64 Q810.521 1357.84 810.521 1361.64 L810.521 1376.29 L806.239 1376.29 L806.239 1350.36 L810.521 1350.36 L810.521 1354.39 Q812.049 1352.05 814.109 1350.9 Q816.192 1349.74 818.901 1349.74 Q823.368 1349.74 825.66 1352.52 Q827.952 1355.27 827.952 1360.64 Z" fill="#000000" fill-rule="nonzero" fill-opacity="1" /><path clip-path="url(#clip900)" d="M1252.71 767.666 Q1249.29 767.666 1247.3 770.351 Q1245.3 773.013 1245.3 777.666 Q1245.3 782.319 1247.27 785.004 Q1249.26 787.666 1252.71 787.666 Q1256.11 787.666 1258.11 784.981 Q1260.1 782.296 1260.1 777.666 Q1260.1 773.06 1258.11 770.375 Q1256.11 767.666 1252.71 767.666 M1252.71 764.055 Q1258.27 764.055 1261.44 767.666 Q1264.61 771.277 1264.61 777.666 Q1264.61 784.032 1261.44 787.666 Q1258.27 791.277 1252.71 791.277 Q1247.13 791.277 1243.96 787.666 Q1240.81 784.032 1240.81 777.666 Q1240.81 771.277 1243.96 767.666 Q1247.13 764.055 1252.71 764.055 Z" fill="#000000" fill-rule="nonzero" fill-opacity="1" /><path clip-path="url(#clip900)" d="M1286.69 768.662 Q1285.98 768.245 1285.12 768.06 Q1284.29 767.851 1283.27 767.851 Q1279.66 767.851 1277.71 770.213 Q1275.79 772.551 1275.79 776.949 L1275.79 790.606 L1271.51 790.606 L1271.51 764.68 L1275.79 764.68 L1275.79 768.708 Q1277.13 766.347 1279.29 765.213 Q1281.44 764.055 1284.52 764.055 Q1284.96 764.055 1285.49 764.125 Q1286.02 764.171 1286.67 764.287 L1286.69 768.662 Z" fill="#000000" fill-rule="nonzero" fill-opacity="1" /><path clip-path="url(#clip900)" d="M1291.16 764.68 L1295.42 764.68 L1295.42 790.606 L1291.16 790.606 L1291.16 764.68 M1291.16 754.588 L1295.42 754.588 L1295.42 759.981 L1291.16 759.981 L1291.16 754.588 Z" fill="#000000" fill-rule="nonzero" fill-opacity="1" /><path clip-path="url(#clip900)" d="M1321.39 777.342 Q1321.39 772.713 1319.47 770.166 Q1317.57 767.62 1314.12 767.62 Q1310.7 767.62 1308.78 770.166 Q1306.88 772.713 1306.88 777.342 Q1306.88 781.949 1308.78 784.495 Q1310.7 787.041 1314.12 787.041 Q1317.57 787.041 1319.47 784.495 Q1321.39 781.949 1321.39 777.342 M1325.65 787.388 Q1325.65 794.009 1322.71 797.226 Q1319.77 800.467 1313.71 800.467 Q1311.46 800.467 1309.47 800.12 Q1307.48 799.796 1305.6 799.101 L1305.6 794.958 Q1307.48 795.976 1309.31 796.462 Q1311.14 796.949 1313.04 796.949 Q1317.23 796.949 1319.31 794.749 Q1321.39 792.574 1321.39 788.152 L1321.39 786.046 Q1320.07 788.337 1318.01 789.472 Q1315.95 790.606 1313.08 790.606 Q1308.31 790.606 1305.4 786.972 Q1302.48 783.338 1302.48 777.342 Q1302.48 771.324 1305.4 767.689 Q1308.31 764.055 1313.08 764.055 Q1315.95 764.055 1318.01 765.189 Q1320.07 766.324 1321.39 768.615 L1321.39 764.68 L1325.65 764.68 L1325.65 787.388 Z" fill="#000000" fill-rule="nonzero" fill-opacity="1" /><path clip-path="url(#clip900)" d="M1334.42 764.68 L1338.68 764.68 L1338.68 790.606 L1334.42 790.606 L1334.42 764.68 M1334.42 754.588 L1338.68 754.588 L1338.68 759.981 L1334.42 759.981 L1334.42 754.588 Z" fill="#000000" fill-rule="nonzero" fill-opacity="1" /><path clip-path="url(#clip900)" d="M1369.15 774.958 L1369.15 790.606 L1364.89 790.606 L1364.89 775.097 Q1364.89 771.416 1363.45 769.588 Q1362.02 767.759 1359.15 767.759 Q1355.7 767.759 1353.71 769.958 Q1351.72 772.157 1351.72 775.953 L1351.72 790.606 L1347.43 790.606 L1347.43 764.68 L1351.72 764.68 L1351.72 768.708 Q1353.24 766.37 1355.3 765.213 Q1357.39 764.055 1360.1 764.055 Q1364.56 764.055 1366.85 766.833 Q1369.15 769.588 1369.15 774.958 Z" fill="#000000" fill-rule="nonzero" fill-opacity="1" /><path clip-path="url(#clip900)" d="M1794.17 180.518 Q1795.77 177.647 1797.99 176.282 Q1800.21 174.916 1803.22 174.916 Q1807.27 174.916 1809.47 177.763 Q1811.67 180.587 1811.67 185.819 L1811.67 201.467 L1807.39 201.467 L1807.39 185.958 Q1807.39 182.231 1806.07 180.425 Q1804.75 178.62 1802.04 178.62 Q1798.73 178.62 1796.81 180.819 Q1794.89 183.018 1794.89 186.814 L1794.89 201.467 L1790.61 201.467 L1790.61 185.958 Q1790.61 182.208 1789.29 180.425 Q1787.97 178.62 1785.21 178.62 Q1781.95 178.62 1780.03 180.842 Q1778.11 183.041 1778.11 186.814 L1778.11 201.467 L1773.83 201.467 L1773.83 175.541 L1778.11 175.541 L1778.11 179.569 Q1779.57 177.185 1781.6 176.05 Q1783.64 174.916 1786.44 174.916 Q1789.27 174.916 1791.23 176.351 Q1793.22 177.786 1794.17 180.518 Z" fill="#000000" fill-rule="nonzero" fill-opacity="1" /><path clip-path="url(#clip900)" d="M1831.95 188.434 Q1826.79 188.434 1824.8 189.615 Q1822.81 190.796 1822.81 193.643 Q1822.81 195.911 1824.29 197.254 Q1825.79 198.573 1828.36 198.573 Q1831.9 198.573 1834.03 196.073 Q1836.19 193.55 1836.19 189.384 L1836.19 188.434 L1831.95 188.434 M1840.45 186.675 L1840.45 201.467 L1836.19 201.467 L1836.19 197.532 Q1834.73 199.893 1832.55 201.027 Q1830.38 202.138 1827.23 202.138 Q1823.25 202.138 1820.89 199.916 Q1818.55 197.671 1818.55 193.921 Q1818.55 189.546 1821.46 187.323 Q1824.4 185.101 1830.21 185.101 L1836.19 185.101 L1836.19 184.684 Q1836.19 181.745 1834.24 180.147 Q1832.32 178.527 1828.83 178.527 Q1826.6 178.527 1824.5 179.059 Q1822.39 179.592 1820.45 180.657 L1820.45 176.722 Q1822.78 175.819 1824.98 175.379 Q1827.18 174.916 1829.27 174.916 Q1834.89 174.916 1837.67 177.833 Q1840.45 180.749 1840.45 186.675 Z" fill="#000000" fill-rule="nonzero" fill-opacity="1" /><path clip-path="url(#clip900)" d="M1870.77 175.541 L1861.39 188.157 L1871.26 201.467 L1866.23 201.467 L1858.69 191.282 L1851.14 201.467 L1846.12 201.467 L1856.19 187.902 L1846.97 175.541 L1852 175.541 L1858.87 184.777 L1865.75 175.541 L1870.77 175.541 Z" fill="#000000" fill-rule="nonzero" fill-opacity="1" /><path clip-path="url(#clip900)" d="M878.107 474.094 Q869.073 474.094 865.59 476.16 Q862.106 478.226 862.106 483.208 Q862.106 487.178 864.698 489.528 Q867.332 491.837 871.828 491.837 Q878.026 491.837 881.753 487.462 Q885.52 483.046 885.52 475.755 L885.52 474.094 L878.107 474.094 M892.974 471.015 L892.974 496.9 L885.52 496.9 L885.52 490.014 Q882.968 494.146 879.16 496.131 Q875.352 498.075 869.843 498.075 Q862.876 498.075 858.744 494.186 Q854.652 490.257 854.652 483.694 Q854.652 476.038 859.756 472.149 Q864.901 468.26 875.069 468.26 L885.52 468.26 L885.52 467.531 Q885.52 462.387 882.117 459.592 Q878.755 456.756 872.638 456.756 Q868.749 456.756 865.063 457.688 Q861.377 458.619 857.974 460.483 L857.974 453.596 Q862.065 452.016 865.914 451.247 Q869.762 450.437 873.408 450.437 Q883.252 450.437 888.113 455.541 Q892.974 460.645 892.974 471.015 Z" fill="#000000" fill-rule="nonzero" fill-opacity="1" /><path clip-path="url(#clip900)" d="M928.946 474.094 Q919.912 474.094 916.428 476.16 Q912.945 478.226 912.945 483.208 Q912.945 487.178 915.537 489.528 Q918.17 491.837 922.667 491.837 Q928.865 491.837 932.592 487.462 Q936.359 483.046 936.359 475.755 L936.359 474.094 L928.946 474.094 M943.813 471.015 L943.813 496.9 L936.359 496.9 L936.359 490.014 Q933.807 494.146 929.999 496.131 Q926.191 498.075 920.682 498.075 Q913.714 498.075 909.582 494.186 Q905.491 490.257 905.491 483.694 Q905.491 476.038 910.595 472.149 Q915.74 468.26 925.908 468.26 L936.359 468.26 L936.359 467.531 Q936.359 462.387 932.956 459.592 Q929.594 456.756 923.477 456.756 Q919.588 456.756 915.902 457.688 Q912.216 458.619 908.813 460.483 L908.813 453.596 Q912.904 452.016 916.753 451.247 Q920.601 450.437 924.247 450.437 Q934.09 450.437 938.952 455.541 Q943.813 460.645 943.813 471.015 Z" fill="#000000" fill-rule="nonzero" fill-opacity="1" /><path clip-path="url(#clip900)" d="M979.785 474.094 Q970.751 474.094 967.267 476.16 Q963.784 478.226 963.784 483.208 Q963.784 487.178 966.376 489.528 Q969.009 491.837 973.506 491.837 Q979.704 491.837 983.43 487.462 Q987.198 483.046 987.198 475.755 L987.198 474.094 L979.785 474.094 M994.651 471.015 L994.651 496.9 L987.198 496.9 L987.198 490.014 Q984.646 494.146 980.838 496.131 Q977.03 498.075 971.521 498.075 Q964.553 498.075 960.421 494.186 Q956.33 490.257 956.33 483.694 Q956.33 476.038 961.434 472.149 Q966.579 468.26 976.746 468.26 L987.198 468.26 L987.198 467.531 Q987.198 462.387 983.795 459.592 Q980.433 456.756 974.316 456.756 Q970.427 456.756 966.741 457.688 Q963.054 458.619 959.652 460.483 L959.652 453.596 Q963.743 452.016 967.591 451.247 Q971.44 450.437 975.086 450.437 Q984.929 450.437 989.79 455.541 Q994.651 460.645 994.651 471.015 Z" fill="#000000" fill-rule="nonzero" fill-opacity="1" /><path clip-path="url(#clip900)" d="M1030.62 474.094 Q1021.59 474.094 1018.11 476.16 Q1014.62 478.226 1014.62 483.208 Q1014.62 487.178 1017.21 489.528 Q1019.85 491.837 1024.34 491.837 Q1030.54 491.837 1034.27 487.462 Q1038.04 483.046 1038.04 475.755 L1038.04 474.094 L1030.62 474.094 M1045.49 471.015 L1045.49 496.9 L1038.04 496.9 L1038.04 490.014 Q1035.48 494.146 1031.68 496.131 Q1027.87 498.075 1022.36 498.075 Q1015.39 498.075 1011.26 494.186 Q1007.17 490.257 1007.17 483.694 Q1007.17 476.038 1012.27 472.149 Q1017.42 468.26 1027.59 468.26 L1038.04 468.26 L1038.04 467.531 Q1038.04 462.387 1034.63 459.592 Q1031.27 456.756 1025.15 456.756 Q1021.27 456.756 1017.58 457.688 Q1013.89 458.619 1010.49 460.483 L1010.49 453.596 Q1014.58 452.016 1018.43 451.247 Q1022.28 450.437 1025.92 450.437 Q1035.77 450.437 1040.63 455.541 Q1045.49 460.645 1045.49 471.015 Z" fill="#000000" fill-rule="nonzero" fill-opacity="1" /><path clip-path="url(#clip900)" d="M1081.46 474.094 Q1072.43 474.094 1068.95 476.16 Q1065.46 478.226 1065.46 483.208 Q1065.46 487.178 1068.05 489.528 Q1070.69 491.837 1075.18 491.837 Q1081.38 491.837 1085.11 487.462 Q1088.88 483.046 1088.88 475.755 L1088.88 474.094 L1081.46 474.094 M1096.33 471.015 L1096.33 496.9 L1088.88 496.9 L1088.88 490.014 Q1086.32 494.146 1082.52 496.131 Q1078.71 498.075 1073.2 498.075 Q1066.23 498.075 1062.1 494.186 Q1058.01 490.257 1058.01 483.694 Q1058.01 476.038 1063.11 472.149 Q1068.26 468.26 1078.42 468.26 L1088.88 468.26 L1088.88 467.531 Q1088.88 462.387 1085.47 459.592 Q1082.11 456.756 1075.99 456.756 Q1072.1 456.756 1068.42 457.688 Q1064.73 458.619 1061.33 460.483 L1061.33 453.596 Q1065.42 452.016 1069.27 451.247 Q1073.12 450.437 1076.76 450.437 Q1086.61 450.437 1091.47 455.541 Q1096.33 460.645 1096.33 471.015 Z" fill="#000000" fill-rule="nonzero" fill-opacity="1" /><path clip-path="url(#clip900)" d="M1824.99 777.574 Q1819.83 777.574 1817.84 778.754 Q1815.85 779.935 1815.85 782.782 Q1815.85 785.05 1817.33 786.393 Q1818.84 787.712 1821.41 787.712 Q1824.95 787.712 1827.08 785.212 Q1829.23 782.689 1829.23 778.523 L1829.23 777.574 L1824.99 777.574 M1833.49 775.814 L1833.49 790.606 L1829.23 790.606 L1829.23 786.671 Q1827.77 789.032 1825.6 790.166 Q1823.42 791.277 1820.27 791.277 Q1816.29 791.277 1813.93 789.055 Q1811.59 786.81 1811.59 783.06 Q1811.59 778.685 1814.51 776.463 Q1817.45 774.24 1823.26 774.24 L1829.23 774.24 L1829.23 773.824 Q1829.23 770.884 1827.29 769.287 Q1825.36 767.666 1821.87 767.666 Q1819.65 767.666 1817.54 768.199 Q1815.43 768.731 1813.49 769.796 L1813.49 765.861 Q1815.83 764.958 1818.03 764.518 Q1820.23 764.055 1822.31 764.055 Q1827.93 764.055 1830.71 766.972 Q1833.49 769.889 1833.49 775.814 Z" fill="#000000" fill-rule="nonzero" fill-opacity="1" /><path clip-path="url(#clip900)" d="M1830.68 709.988 Q1827.36 706.665 1824.1 706.158 Q1820.85 705.617 1818.46 708.007 Q1816.07 710.397 1816.59 713.671 Q1817.11 716.911 1820.44 720.234 Q1823.76 723.557 1827.02 724.097 Q1830.27 724.605 1832.66 722.215 Q1835.05 719.825 1834.53 716.584 Q1834.01 713.31 1830.68 709.988 M1814.04 713.834 Q1813.35 711.248 1814 709.022 Q1814.66 706.763 1816.67 704.75 Q1820.01 701.411 1824.74 701.984 Q1829.49 702.54 1833.81 706.861 Q1838.13 711.183 1838.69 715.929 Q1839.26 720.66 1835.92 723.999 Q1833.91 726.012 1831.67 726.683 Q1829.42 727.322 1826.84 726.634 L1829.59 729.384 L1826.56 732.412 L1801.09 706.943 L1804.12 703.915 L1814.04 713.834 Z" fill="#000000" fill-rule="nonzero" fill-opacity="1" /><path clip-path="url(#clip900)" d="M1814.89 640.405 L1818.87 640.405 Q1817.88 642.211 1817.39 644.039 Q1816.88 645.845 1816.88 647.697 Q1816.88 651.84 1819.52 654.132 Q1822.14 656.424 1826.88 656.424 Q1831.63 656.424 1834.27 654.132 Q1836.88 651.84 1836.88 647.697 Q1836.88 645.845 1836.39 644.039 Q1835.89 642.211 1834.89 640.405 L1838.83 640.405 Q1839.66 642.188 1840.08 644.109 Q1840.49 646.007 1840.49 648.16 Q1840.49 654.016 1836.81 657.465 Q1833.13 660.914 1826.88 660.914 Q1820.54 660.914 1816.9 657.442 Q1813.27 653.947 1813.27 647.882 Q1813.27 645.914 1813.69 644.039 Q1814.08 642.164 1814.89 640.405 Z" fill="#000000" fill-rule="nonzero" fill-opacity="1" /></svg>
